<svg width="31" height="37" viewBox="0 0 31 37" fill="none" xmlns="http://www.w3.org/2000/svg">
<path d="M29.3688 15.7977C28.4172 15.0197 27.0696 14.7708 25.9351 15.1631C25.631 15.2684 25.3488 15.4161 25.0958 15.6021C24.4508 16.0766 23.0188 17.5011 21.884 18.9108V8.04413C21.884 7.12048 21.5043 6.21773 20.8423 5.56705C20.1852 4.92118 19.3219 4.57283 18.4161 4.58977C18.0048 4.59711 17.6107 4.67869 17.2465 4.82125V3.75985C17.2465 2.75462 16.8333 1.77197 16.1123 1.06343C15.3978 0.3611 14.4629 -0.0174484 13.474 0.000618081C11.5025 0.0347749 9.89293 1.63732 9.83393 3.5964C9.40683 3.40275 8.94303 3.29407 8.46286 3.27967C7.4613 3.25032 6.46934 3.6379 5.74217 4.3439C5.02996 5.03522 4.63758 5.94786 4.63758 6.91102L4.63504 7.94025C4.32763 7.83919 3.99989 7.78386 3.65917 7.78386C1.93975 7.78386 0.541016 9.1826 0.541016 10.9017L0.542145 26.698L0.544685 26.7728C0.68837 28.8459 1.12225 30.6209 1.83474 32.0488C2.50263 33.3874 3.43447 34.4651 4.60427 35.2522C6.90633 36.8014 9.75009 37.0001 11.9703 37.0001C16.3302 37.0001 20.2526 34.8324 22.2142 31.3411C22.4528 30.9566 23.0814 29.968 23.7603 28.9018C24.4214 27.863 25.0366 26.9058 25.5788 26.0611C25.8769 25.5968 26.1482 25.1745 26.3836 24.8064C27.2607 23.4347 28.1954 22.1049 29.1619 20.8535C29.5204 20.3894 29.6308 20.2635 29.6559 20.2359C30.1084 19.7421 30.3935 19.1378 30.4805 18.4876C30.6174 17.4677 30.212 16.4871 29.3688 15.7977ZM28.3294 18.1997C28.3015 18.4075 28.2069 18.6045 28.0559 18.7694C27.9771 18.8555 27.8363 19.0192 27.4445 19.5267C26.4387 20.8287 25.4665 22.2116 24.555 23.6371C24.3201 24.0044 24.05 24.425 23.7524 24.8882C23.209 25.7345 22.5931 26.694 21.9294 27.7362C21.2347 28.8276 20.5916 29.8384 20.3562 30.2187L20.3317 30.2605C18.7573 33.0788 15.5537 34.8296 11.9706 34.8296C10.0586 34.8296 7.63096 34.6729 5.81613 33.4517C3.96432 32.2057 2.94921 29.9841 2.71266 26.6599L2.71153 10.902C2.71153 10.3795 3.13665 9.95437 3.65917 9.95437C4.18479 9.95437 4.61245 10.3795 4.61245 10.902V16.8134C4.61245 16.8309 4.61443 16.8478 4.615 16.8653C4.61612 16.8845 4.61612 16.904 4.6181 16.9232C4.61979 16.9404 4.62318 16.9571 4.62572 16.974C4.62854 16.9929 4.63052 17.0121 4.63419 17.031C4.63786 17.048 4.64294 17.0646 4.64718 17.0813C4.65169 17.0991 4.65536 17.1174 4.66101 17.1349C4.66609 17.1519 4.67286 17.1682 4.67907 17.1846C4.685 17.2013 4.69037 17.2182 4.69742 17.2346C4.7042 17.2509 4.71238 17.2665 4.72001 17.2823C4.72763 17.2981 4.73468 17.3142 4.74287 17.3297C4.75106 17.3449 4.76094 17.3596 4.76997 17.3746C4.779 17.3895 4.78747 17.4048 4.79707 17.4192C4.80695 17.4336 4.81796 17.4471 4.8284 17.461C4.83885 17.4751 4.84845 17.4895 4.85946 17.5027C4.87047 17.516 4.8826 17.5282 4.8939 17.5409C4.90575 17.5538 4.91704 17.5677 4.92946 17.5801C4.9416 17.5919 4.9543 17.6027 4.96701 17.6143C4.97999 17.6261 4.9927 17.6388 5.00653 17.6501C5.01951 17.6608 5.03335 17.6704 5.0469 17.6806C5.06129 17.6913 5.07512 17.7026 5.0898 17.7128C5.10364 17.7221 5.11831 17.73 5.13243 17.7385C5.14795 17.7481 5.1632 17.7582 5.17929 17.7673C5.19397 17.7752 5.20949 17.7816 5.22445 17.789C5.24083 17.7972 5.2572 17.8056 5.27414 17.813C5.28966 17.8198 5.30632 17.8248 5.32213 17.8308C5.33935 17.837 5.35628 17.844 5.37378 17.8497C5.39044 17.8548 5.40794 17.8584 5.42488 17.8629C5.44266 17.8675 5.45988 17.8728 5.47767 17.8765C5.49573 17.8802 5.5138 17.8821 5.53187 17.885C5.54993 17.8875 5.56743 17.8912 5.5855 17.8932C5.60357 17.8948 5.6222 17.8951 5.64055 17.896C5.65861 17.8968 5.67668 17.8988 5.69503 17.8988C5.69588 17.8988 5.697 17.8988 5.69785 17.8988C5.7354 17.8988 5.77238 17.8968 5.80879 17.8932C5.8246 17.8917 5.84012 17.8884 5.85593 17.8861C5.87598 17.8833 5.89658 17.881 5.91634 17.8768C5.93723 17.8725 5.95727 17.8666 5.9776 17.8613C5.99171 17.8573 6.00639 17.8545 6.02022 17.8502C6.04281 17.8432 6.06483 17.8344 6.08684 17.826C6.09757 17.8217 6.10914 17.8183 6.11987 17.8138C6.14189 17.8045 6.16278 17.7935 6.18395 17.7831C6.19411 17.778 6.20456 17.7737 6.21472 17.7684C6.23448 17.7577 6.25311 17.7452 6.27203 17.7334C6.28275 17.7269 6.29376 17.721 6.30392 17.7139C6.32143 17.7023 6.33808 17.6891 6.35474 17.6761C6.36574 17.6679 6.37704 17.6603 6.38748 17.6515C6.40301 17.6391 6.41712 17.625 6.4318 17.6114C6.44281 17.6015 6.4541 17.5919 6.46483 17.5818C6.47838 17.5682 6.49052 17.5536 6.50322 17.5394C6.51366 17.5279 6.52495 17.5166 6.53483 17.5047C6.54613 17.4909 6.55629 17.4762 6.56702 17.4618C6.57718 17.4483 6.5879 17.4353 6.59722 17.4212C6.6071 17.4068 6.61529 17.3918 6.62432 17.3768C6.63335 17.3619 6.64323 17.3472 6.6517 17.332C6.65989 17.3167 6.66666 17.3009 6.67429 17.2854C6.68191 17.2693 6.69038 17.2535 6.69743 17.2371C6.70421 17.2213 6.70929 17.2047 6.71522 17.1886C6.72171 17.1716 6.72848 17.155 6.73413 17.1375C6.73921 17.1208 6.74288 17.1039 6.74712 17.0869C6.75163 17.0692 6.757 17.0517 6.76095 17.0336C6.76434 17.0166 6.76631 16.9989 6.76885 16.9814C6.77196 16.963 6.77534 16.9447 6.77732 16.926C6.7793 16.9085 6.7793 16.8905 6.78014 16.8727C6.78127 16.8538 6.78325 16.8354 6.78325 16.8165L6.80837 6.91385C6.80837 6.5401 6.96674 6.18046 7.2541 5.90128C7.56293 5.60177 7.98071 5.43635 8.39878 5.44934C9.18185 5.47277 9.81897 6.15393 9.81897 6.96946L9.83139 16.7561C9.83139 16.7759 9.83337 16.7951 9.8345 16.8142C9.83535 16.8315 9.83535 16.8493 9.83704 16.8662C9.83902 16.8865 9.84297 16.906 9.84607 16.9258C9.84861 16.9418 9.85031 16.9582 9.85341 16.974C9.85793 16.9955 9.86414 17.0164 9.86978 17.0373C9.87345 17.0508 9.87628 17.0646 9.88023 17.0779C9.88729 17.1005 9.89632 17.1225 9.90479 17.1445C9.90902 17.1555 9.91213 17.1668 9.91664 17.1776C9.92681 17.201 9.93838 17.2238 9.94995 17.2464C9.95447 17.2549 9.95786 17.2639 9.96237 17.2721C9.97508 17.2955 9.98947 17.3178 10.0036 17.3399C10.0081 17.3472 10.0121 17.3545 10.0169 17.3616C10.0318 17.3839 10.0482 17.4048 10.0646 17.4257C10.0696 17.4322 10.0742 17.4389 10.0792 17.4452C10.0976 17.4675 10.1174 17.4883 10.1374 17.509C10.1416 17.5135 10.145 17.518 10.1492 17.5222C10.1699 17.5428 10.1919 17.562 10.2142 17.5809C10.2184 17.5846 10.2221 17.5886 10.2263 17.5922C10.2486 17.6106 10.2718 17.6272 10.2952 17.6436C10.3003 17.6473 10.3048 17.6512 10.3099 17.6546C10.3336 17.6707 10.3584 17.6851 10.3833 17.6992C10.3886 17.7023 10.3937 17.706 10.3994 17.7091C10.4253 17.7229 10.4521 17.7354 10.4792 17.7475C10.4843 17.7497 10.4891 17.7526 10.4942 17.7548C10.5219 17.7664 10.5504 17.7763 10.5792 17.7859C10.5843 17.7873 10.5888 17.7896 10.5939 17.7912C10.6224 17.8 10.6514 17.8071 10.6805 17.8135C10.6864 17.8147 10.6921 17.8167 10.698 17.8181C10.7686 17.8325 10.8417 17.8401 10.9165 17.8401C10.9171 17.8401 10.9176 17.8401 10.9182 17.8401C10.9371 17.8401 10.9557 17.8381 10.9744 17.8373C10.9924 17.8361 11.0105 17.8361 11.0283 17.8344C11.0481 17.8322 11.067 17.8285 11.0864 17.8254C11.1028 17.8229 11.1198 17.8212 11.1361 17.8178C11.1556 17.8138 11.1745 17.8082 11.1937 17.8031C11.2092 17.7989 11.2248 17.7958 11.24 17.791C11.2595 17.785 11.2781 17.7774 11.297 17.7701C11.3111 17.7647 11.3258 17.7605 11.3397 17.7545C11.3591 17.7461 11.378 17.7362 11.397 17.7269C11.4094 17.7207 11.4224 17.7153 11.4345 17.7088C11.4531 17.6987 11.4709 17.6868 11.489 17.6758C11.5006 17.6684 11.5127 17.662 11.524 17.6543C11.5412 17.6428 11.5573 17.6298 11.5737 17.6171C11.585 17.6086 11.5965 17.6007 11.6075 17.5917C11.6231 17.579 11.6378 17.5646 11.6527 17.5507C11.6632 17.5411 11.6742 17.5318 11.6846 17.5217C11.6984 17.5075 11.7114 17.4923 11.7247 17.4776C11.7346 17.4666 11.745 17.4562 11.7546 17.4446C11.7665 17.4299 11.7772 17.4144 11.7882 17.3994C11.7978 17.3864 11.808 17.374 11.817 17.361C11.8272 17.3461 11.8356 17.3303 11.845 17.3147C11.8537 17.3003 11.8633 17.2862 11.8712 17.2716C11.8797 17.256 11.8864 17.2397 11.8941 17.2238C11.9017 17.208 11.9102 17.1928 11.9169 17.1764C11.9234 17.1609 11.9288 17.1445 11.9344 17.1284C11.9409 17.1112 11.948 17.0943 11.9534 17.0768C11.9584 17.0598 11.9621 17.0426 11.9666 17.0254C11.9711 17.0079 11.9765 16.9907 11.9799 16.9729C11.9836 16.9551 11.9855 16.9368 11.9884 16.919C11.9909 16.9009 11.9946 16.8831 11.9963 16.8651C11.9982 16.8467 11.9982 16.8281 11.9991 16.8094C12.0002 16.7911 12.0019 16.7733 12.0019 16.7547V3.7079C12.0019 2.87459 12.6794 2.18524 13.5119 2.17085C13.9136 2.1652 14.2952 2.32046 14.5913 2.6115C14.8996 2.91439 15.0763 3.33303 15.0763 3.75985V16.8145C15.0763 16.8343 15.0783 16.8535 15.0794 16.873C15.0803 16.8902 15.0803 16.9077 15.0819 16.9249C15.0839 16.9441 15.0879 16.9627 15.0907 16.9816C15.0935 16.9989 15.0952 17.0161 15.0986 17.0327C15.1026 17.0517 15.1082 17.07 15.113 17.0886C15.1172 17.1047 15.1203 17.1208 15.1254 17.1366C15.1316 17.1567 15.1395 17.1761 15.1469 17.1956C15.152 17.2092 15.1562 17.223 15.1618 17.2363C15.1706 17.2566 15.1807 17.2761 15.1906 17.2958C15.1963 17.3074 15.2014 17.3195 15.2076 17.3311C15.2183 17.3512 15.2307 17.3701 15.2429 17.3893C15.2493 17.3994 15.255 17.4104 15.262 17.4206C15.275 17.4398 15.2894 17.4581 15.3038 17.4765C15.3109 17.4855 15.3171 17.4951 15.3244 17.5039C15.3402 17.5234 15.3577 17.5414 15.375 17.5598C15.3817 17.5665 15.3877 17.5742 15.3944 17.5809C15.4122 17.599 15.4314 17.6154 15.4506 17.632C15.4577 17.6382 15.4642 17.645 15.4715 17.6509C15.493 17.6687 15.5155 17.6848 15.5381 17.7009C15.5438 17.7049 15.5491 17.7094 15.5551 17.7136C15.5793 17.73 15.6047 17.7449 15.6304 17.7593C15.6352 17.7619 15.6395 17.7653 15.6443 17.7678C15.6725 17.7831 15.7013 17.7966 15.7309 17.8096C15.7338 17.8107 15.7363 17.8124 15.7391 17.8135C15.7699 17.8265 15.8015 17.8378 15.8337 17.848C15.8354 17.8488 15.8371 17.8494 15.839 17.85C15.9065 17.8711 15.9768 17.8855 16.0493 17.8932C16.0499 17.8932 16.0502 17.8932 16.0508 17.8932C16.0872 17.8968 16.1242 17.8988 16.1617 17.8988C16.162 17.8988 16.1623 17.8988 16.1628 17.8988C16.182 17.8988 16.2009 17.8968 16.2201 17.896C16.2379 17.8948 16.2557 17.8948 16.2732 17.8932C16.2932 17.8912 16.3127 17.8872 16.3325 17.8841C16.3486 17.8816 16.3649 17.8799 16.381 17.8765C16.4022 17.8723 16.4225 17.8661 16.4431 17.8607C16.457 17.857 16.4714 17.8542 16.4849 17.85C16.5069 17.8429 16.5281 17.8344 16.5496 17.8262C16.5611 17.8217 16.573 17.8181 16.5846 17.8133C16.6063 17.8039 16.6272 17.7932 16.6484 17.7825C16.6585 17.7774 16.6693 17.7732 16.6794 17.7675C16.7 17.7562 16.7198 17.7435 16.7398 17.7308C16.7494 17.7249 16.7593 17.7195 16.7689 17.7131C16.7892 17.6995 16.8081 17.6843 16.8273 17.6693C16.8355 17.6631 16.8443 17.6572 16.8525 17.6507C16.8714 17.6349 16.8892 17.6176 16.9072 17.6007C16.9146 17.5939 16.9225 17.5877 16.9292 17.5807C16.9467 17.5632 16.9631 17.5445 16.9792 17.5256C16.986 17.5183 16.993 17.5112 16.9995 17.5036C17.0151 17.4847 17.0292 17.4646 17.0433 17.4449C17.0492 17.4364 17.056 17.4285 17.0619 17.42C17.0752 17.4003 17.087 17.3797 17.0989 17.3591C17.1045 17.3495 17.111 17.3404 17.1164 17.3306C17.1277 17.3097 17.1373 17.2879 17.1472 17.2662C17.152 17.256 17.1576 17.2461 17.1618 17.2357C17.1709 17.2145 17.1782 17.1925 17.1858 17.1708C17.1898 17.1592 17.1949 17.1479 17.1985 17.1358C17.2048 17.1152 17.2096 17.0934 17.2149 17.0723C17.218 17.0587 17.2223 17.0454 17.2251 17.0319C17.2293 17.011 17.2319 16.9893 17.235 16.9681C17.2369 16.9534 17.24 16.939 17.2415 16.9241C17.2437 16.9043 17.2437 16.884 17.2446 16.8636C17.2454 16.847 17.2471 16.8306 17.2471 16.8134V7.85584C17.3177 7.25033 17.8317 6.77073 18.4542 6.76C18.774 6.75464 19.0828 6.88054 19.3213 7.11512C19.5709 7.36014 19.714 7.69889 19.714 8.04413V20.8541L19.7146 20.9026C19.7205 21.6058 20.1823 22.2 20.8635 22.3812C21.5401 22.5611 22.2315 22.2768 22.5871 21.6676L22.5939 21.6555C23.4447 20.169 25.7188 17.839 26.3828 17.3506C26.4596 17.2939 26.5479 17.2484 26.6453 17.2145C27.0778 17.0652 27.62 17.1711 27.9955 17.4782C28.1722 17.623 28.374 17.8658 28.3294 18.1997Z" fill="#333333"/>
</svg>
