<svg width="36" height="18" viewBox="0 0 36 18" fill="none" xmlns="http://www.w3.org/2000/svg">
<path d="M35.2591 9.06435C35.2591 8.51701 34.8154 8.07338 34.2681 8.07338L3.82945 8.07338L10.9304 2.23226C11.1686 2.03638 11.2918 1.7523 11.2918 1.46624C11.2918 1.24492 11.2178 1.02163 11.0659 0.837305C10.7184 0.414489 10.094 0.35371 9.67089 0.701541L0.361374 8.35977C0.134441 8.54641 0.00198154 8.82454 -3.87488e-07 9.11853C0.00594546 9.41582 0.126844 9.6923 0.351134 9.88224L9.66098 17.7492C10.0792 18.1023 10.7041 18.0498 11.0576 17.632C11.411 17.2138 11.3585 16.5885 10.9407 16.2354L3.62729 10.0553L34.2681 10.0553C34.8154 10.0553 35.2591 9.6117 35.2591 9.06435Z" fill="#333333"/>
</svg>
