<svg width="586" height="402" viewBox="0 0 586 402" fill="none" xmlns="http://www.w3.org/2000/svg">
<path d="M56.5391 143.975C56.1061 149.532 55.619 155.088 55.186 160.645C52.4256 158.001 49.178 155.25 44.848 154.117C39.4895 152.715 37.2704 154.009 36.0796 172.351C34.943 190.585 36.7833 193.66 41.8711 195.98C45.9846 197.76 49.2322 196.735 52.4256 195.441C51.9926 200.997 51.5596 206.554 51.1266 212.056C46.7965 212.542 42.7912 212.272 37.8116 209.575C27.0406 203.479 22.1152 193.283 23.306 165.986C24.605 138.365 30.9377 135.236 42.7912 137.933C48.1496 139.12 52.2091 141.278 56.5391 143.975Z" fill="#FF0000"/>
<path d="M72.452 220.958C67.5266 220.04 62.7094 218.908 58.0005 217.451C60.0573 192.474 62.1682 167.226 64.3873 141.71C69.3669 142.141 74.4547 142.303 79.6508 142.303C78.7847 151.798 77.9187 161.292 77.0527 170.733C80.3544 170.949 83.6561 171.057 87.0118 171.111C87.932 161.454 88.8521 151.798 89.7723 142.087C95.0224 141.871 100.381 141.44 105.739 140.846C103.033 168.575 100.381 196.088 97.7287 223.385C92.4785 223.277 87.2825 222.954 82.1947 222.36C83.2231 211.409 84.2514 200.458 85.2798 189.453C81.924 189.291 78.6765 189.075 75.3748 188.697C74.4006 199.541 73.4263 210.276 72.452 220.958Z" fill="#FF0000"/>
<path d="M130.745 222.738C113.858 224.734 108.229 216.156 111.585 181.684C114.995 146.942 122.464 137.771 139.405 134.265C156.617 130.489 162.625 137.178 159.107 173.538C155.697 209.737 147.903 220.364 130.745 222.738ZM128.364 179.634C125.982 203.749 126.794 205.745 132.477 204.935C138.377 204.018 139.46 201.752 141.841 177.315C144.223 152.823 143.573 150.934 137.673 152.121C131.936 153.2 130.745 155.52 128.364 179.634Z" fill="#FF0000"/>
<path d="M187.794 209.683C170.041 215.131 163.924 207.741 167.334 171.434C170.798 134.966 178.592 124.393 195.967 118.728C213.558 112.902 219.728 119.052 216.643 155.682C213.666 192.204 205.818 203.964 187.794 209.683ZM184.925 166.417C182.652 191.341 183.518 193.229 189.472 191.395C195.642 189.399 196.725 186.917 198.944 161.94C201.163 136.962 200.459 135.074 194.343 137.07C188.497 138.958 187.253 141.44 184.925 166.417Z" fill="#FF0000"/>
<path d="M266.006 114.682C260.864 114.089 256.588 113.981 251.067 116.247C246.142 118.243 243.435 120.886 243.002 126.82C242.569 132.377 244.085 134.265 248.956 132.269C258.969 128.169 268.658 128.223 267.034 151.636C265.627 171.65 254.856 183.95 241.974 189.507C233.963 192.959 229.038 193.175 224.167 193.013C224.708 186.701 225.195 180.389 225.736 174.132C231.04 174.887 234.883 174.941 241 172.405C246.575 170.086 249.93 166.417 250.417 159.728C250.905 153.524 248.685 151.798 242.84 154.225C232.394 158.541 224.654 156.869 226.548 133.671C228.064 114.898 237.373 104.216 250.255 99.1993C255.289 97.2572 263.083 96.1783 267.413 96.3401C266.872 102.382 266.439 108.532 266.006 114.682Z" fill="#FF0000"/>
<path d="M313.42 136.692C313.095 142.519 312.77 148.399 312.445 154.279C300.105 160.753 287.71 167.065 275.207 173.107C277.156 144.569 278.996 116.193 280.836 87.9244C292.473 83.1231 304.056 78.2139 315.531 73.4126C315.206 79.185 314.935 85.0112 314.611 90.8375C308.657 93.4809 302.703 96.1243 296.749 98.7677C296.478 102.976 296.262 107.237 295.991 111.445C301.62 108.91 307.195 106.32 312.824 103.785C312.5 109.611 312.175 115.437 311.85 121.318C306.221 124.015 300.592 126.712 294.909 129.41C294.584 135.128 294.205 140.792 293.88 146.511C300.375 143.274 306.871 139.983 313.42 136.692Z" fill="#FF0000"/>
<path d="M367.491 124.069C361.916 127.198 356.341 130.381 350.712 133.51C351.145 123.314 351.578 113.172 352.011 103.083C346.653 90.7296 341.403 77.9442 336.207 64.7272C342.16 62.2456 348.114 59.764 354.014 57.2825C356.72 64.6193 359.426 71.7942 362.187 78.8613C365.705 68.935 369.115 59.1706 372.525 49.7299C377.559 47.7339 382.592 45.7378 387.572 43.7957C381.402 59.9259 375.069 76.9192 368.628 94.7217C368.195 104.432 367.816 114.197 367.491 124.069Z" fill="#FF0000"/>
<path d="M408.031 101.789C391.631 111.391 385.028 108.101 386.002 78.8073C386.922 49.676 393.796 40.2353 409.871 34.5169C426.163 28.9064 432.225 32.8985 431.576 57.5522C430.98 82.3678 424.594 92.1862 408.031 101.789ZM402.51 70.9311C401.969 89.8665 402.943 91.0533 408.41 88.0862C414.093 85.0652 414.959 82.9613 415.446 64.889C415.934 46.8707 415.176 45.6839 409.547 47.8957C404.08 50.0536 403.052 52.0496 402.51 70.9311Z" fill="#FF0000"/>
<path d="M458.693 19.8433C458.314 32.3051 457.935 44.9826 457.556 57.8759C457.448 60.6272 458.964 61.1667 462.157 59.6562C465.35 58.0917 467.082 56.0417 467.191 53.4523C467.57 41.2063 468.003 29.1222 468.436 17.3078C473.199 16.121 477.962 14.9881 482.725 13.9631C482.238 25.0222 481.75 36.2971 481.263 47.7879C480.884 55.9338 472.982 65.2127 460.696 72.064C448.301 78.9692 440.507 77.0811 440.777 66.7232C441.156 52.5352 441.535 38.509 441.914 24.7525C447.489 23.0262 453.064 21.4078 458.693 19.8433Z" fill="#FF0000"/>
<path d="M534.577 35.434C529.489 37.5379 524.402 39.6958 519.314 42.0155C516.986 38.6168 514.659 35.0024 512.223 31.1722C510.654 31.7116 509.138 32.1971 507.569 32.7366C507.19 37.7537 506.865 42.7708 506.54 47.8957C501.669 50.2154 496.798 52.5891 491.872 55.0167C492.576 40.1274 493.333 25.6696 494.145 11.6973C500.37 10.5644 506.648 9.53943 512.873 8.67627C529.002 6.78813 534.794 10.2407 533.982 15.4196C533.495 18.6025 531.005 21.6775 525.917 24.8604C528.894 28.7445 531.763 32.2511 534.577 35.434ZM519.368 18.2788C519.584 16.3907 518.069 14.9341 512.332 16.0131C511.141 16.2289 509.95 16.4986 508.759 16.7683C508.543 19.4657 508.326 22.217 508.11 24.9683C509.409 24.5906 510.708 24.2669 512.061 23.8893C517.798 22.3249 519.151 20.2209 519.368 18.2788Z" fill="#FF0000"/>
<path d="M24.0092 401.356C11.6145 399.144 6.31015 389.434 2.1966 359.385C-1.8087 329.175 1.81772 323.457 14.5373 323.942C27.5274 324.212 33.9684 330.794 37.5407 362.946C41.2212 394.883 36.6747 403.298 24.0092 401.356ZM14.3208 361.921C16.9729 383.014 17.893 385.064 22.1149 385.658C26.499 386.251 26.932 384.309 24.3881 362.892C21.8442 341.475 20.9241 339.695 16.4858 339.425C12.1557 339.209 11.6686 340.882 14.3208 361.921Z" fill="#FF0000"/>
<path d="M85.3874 312.937C89.3386 311.642 93.2898 310.24 97.241 308.783C95.7254 337.321 94.264 365.697 92.8568 393.858C88.9597 394.99 85.1168 395.962 81.2739 396.879C78.0263 384.848 74.8329 372.872 71.5854 360.95C70.5029 356.904 68.825 346.708 68.825 346.708C68.825 346.708 69.4745 357.174 69.3121 361.489C68.7167 374.275 68.1213 386.952 67.5801 399.576C63.8454 400.169 60.1649 400.655 56.5385 401.033C49.7186 375.138 42.8447 349.513 35.9707 324.266C40.0843 323.834 44.2519 323.241 48.4737 322.486C51.613 335.163 54.6982 347.949 57.8375 360.788C58.8117 364.942 60.652 376.055 60.5979 376.055C60.5979 376.055 59.8401 364.78 60.0566 360.303C60.7061 346.87 61.3556 333.329 62.0051 319.681C65.0903 318.925 68.2296 318.116 71.3689 317.253C74.8329 329.876 78.3511 342.554 81.8151 355.286C82.8435 359.17 84.7379 370.768 84.7379 370.768C84.7379 370.768 84.0343 358.846 84.1967 354.746C84.5214 340.774 84.9544 326.855 85.3874 312.937Z" fill="#FF0000"/>
<path d="M117.701 336.782C118.026 337.861 119.487 344.658 120.407 353.667C121.435 363.539 122.464 373.358 123.492 383.23C119.216 384.956 114.94 386.575 110.719 388.085C107.904 360.95 105.144 333.869 102.329 306.841C106.064 305.385 109.853 303.874 113.641 302.31C118.459 311.157 123.276 320.004 128.147 328.798C131.557 334.84 133.884 341.205 134.317 342.392C134.101 341.367 132.585 334.354 131.665 325.345C130.637 315.473 129.608 305.6 128.58 295.782C132.91 293.84 137.24 291.79 141.57 289.686C144.439 316.929 147.308 344.172 150.23 371.47C146.333 373.358 142.436 375.138 138.593 376.918C133.668 368.179 128.797 359.332 123.979 350.484C120.569 344.226 118.242 338.022 117.701 336.782Z" fill="#FF0000"/>
<path d="M184.005 353.667C179.62 356.149 175.236 358.576 170.906 360.896C173.829 330.524 176.752 300.098 179.62 269.726C184.708 266.92 189.742 264.007 194.83 261.04C203.761 284.615 212.8 307.92 222.001 330.74C216.859 334.03 211.771 337.213 206.629 340.342C205.114 336.08 203.598 331.819 202.137 327.557C196.508 330.955 190.824 334.246 185.195 337.483C184.817 342.824 184.384 348.218 184.005 353.667ZM192.069 298.318C190.554 293.948 188.281 281.972 188.281 281.972C188.281 281.972 188.226 295.296 187.793 300.745C187.36 306.949 186.927 313.207 186.494 319.411C190.067 317.361 193.585 315.311 197.157 313.207C195.479 308.244 193.747 303.281 192.069 298.318Z" fill="#FF0000"/>
<path d="M242.515 317.253C240.783 318.494 226.602 327.827 226.602 327.773C223.408 301.177 220.215 274.527 217.021 247.823C222.272 244.64 227.468 241.403 232.718 238.113C254.043 224.734 262.379 234.768 265.626 259.098C268.82 283.266 264.165 302.471 242.515 317.253ZM234.45 254.081C236.398 269.941 238.347 285.802 240.35 301.554C240.35 301.554 241.595 300.691 242.19 300.314C250.85 294.541 251.878 286.018 249.768 269.672C247.657 253.326 244.842 247.392 236.29 252.894C235.641 253.272 235.045 253.703 234.45 254.081Z" fill="#FF0000"/>
<path d="M288.9 284.507C280.024 263.198 271.255 241.296 262.595 218.908C267.791 215.509 273.041 212.11 278.183 208.658C282.135 219.825 286.086 230.83 290.037 241.727C291.931 246.906 293.772 255.322 293.717 255.322C293.717 255.322 293.014 246.097 293.23 239.461C293.826 225.381 294.421 211.409 294.962 197.491C299.725 194.308 304.434 191.179 309.143 187.996C307.574 215.994 305.95 244.371 304.272 273.016C299.238 276.954 294.096 280.731 288.9 284.507Z" fill="#FF0000"/>
<path d="M354.338 218.314C355.15 223.223 355.962 228.133 356.774 233.042C346.111 241.296 335.34 249.657 324.461 257.911C320.78 233.851 317.1 209.629 313.473 185.191C323.811 178.286 334.041 171.434 344.217 164.745C345.028 169.708 345.84 174.725 346.652 179.688C341.402 183.303 336.152 186.917 330.902 190.531C331.443 194.146 332.038 197.76 332.58 201.375C337.505 197.868 342.43 194.416 347.356 190.963C348.168 195.926 348.98 200.889 349.791 205.852C344.866 209.413 339.941 213.027 334.961 216.642C335.719 221.497 336.477 226.298 337.234 231.154C342.972 226.838 348.655 222.576 354.338 218.314Z" fill="#FF0000"/>
<path d="M371.226 178.717C371.55 179.58 373.282 184.813 374.581 192.096C375.989 200.08 377.342 208.01 378.749 215.94C374.581 219.177 370.36 222.468 366.138 225.759C362.295 203.317 358.506 180.659 354.717 157.84C358.452 155.412 362.187 152.984 365.867 150.557C371.009 156.761 376.097 162.803 381.239 168.629C384.811 172.621 387.355 177.099 387.788 177.908C387.572 177.153 385.785 171.866 384.486 164.745C383.079 156.923 381.672 149.1 380.319 141.278C384.432 138.634 388.6 136.045 392.659 133.456C396.502 154.549 400.399 175.426 404.242 196.088C400.562 198.947 396.881 201.752 393.201 204.666C388.113 199.325 382.971 193.822 377.829 188.05C374.311 184.112 371.821 179.58 371.226 178.717Z" fill="#FF0000"/>
<path d="M434.66 172.837C429.952 176.397 425.188 180.012 420.371 183.68C417.34 168.143 414.309 152.445 411.278 136.585C407.381 139.066 403.538 141.548 399.641 144.083C398.829 139.606 397.963 135.182 397.151 130.704C409.763 122.882 422.266 115.491 434.66 108.478C435.472 112.524 436.284 116.57 437.096 120.562C433.253 122.882 429.41 125.202 425.567 127.575C428.653 142.842 431.629 157.948 434.66 172.837Z" fill="#FF0000"/>
<path d="M454.092 98.0124C456.798 110.744 459.45 123.314 462.103 135.721C462.644 138.365 464.322 138.688 467.19 136.746C470.059 134.804 471.358 132.538 470.763 130.003C468.165 117.973 465.513 105.781 462.86 93.4809C467.19 91.323 471.466 89.2191 475.796 87.1691C478.449 99.0914 481.047 110.906 483.645 122.558C485.485 130.866 479.639 140.738 468.598 148.777C457.448 156.869 449.112 156.275 447.11 146.619C444.349 133.294 441.589 119.807 438.774 106.212C443.916 103.353 449.004 100.656 454.092 98.0124Z" fill="#FF0000"/>
<path d="M535.443 104.648C530.788 107.291 526.133 109.989 521.532 112.794C517.852 109.179 514.063 105.349 510.274 101.249C508.867 102.004 507.46 102.76 506.053 103.515C507.352 109.072 508.596 114.52 509.895 119.969C505.457 122.774 501.019 125.633 496.581 128.6C493.117 113.495 489.652 98.1203 486.134 82.4217C491.763 79.9402 497.392 77.5665 503.021 75.3007C517.473 69.7442 524.401 73.0889 526.025 79.9402C526.999 84.0941 525.917 88.302 522.02 92.6177C526.512 96.9335 531.004 100.979 535.443 104.648ZM512.764 85.6046C512.223 83.3388 510.22 81.8283 505.078 84.0402C503.996 84.5257 502.913 85.0112 501.831 85.4967C502.534 88.6256 503.292 91.7546 503.996 94.8835C505.187 94.2901 506.377 93.6967 507.568 93.1032C512.818 90.5677 513.359 87.9783 512.764 85.6046Z" fill="#FF0000"/>
<path d="M568.568 80.5876C569.055 82.6915 569.542 84.7415 570.029 86.8454C560.232 91.3769 550.435 96.3401 540.747 101.735C537.878 89.8125 534.955 77.6205 531.979 65.0508C541.829 61.9759 551.734 59.3864 561.748 57.1746C562.289 59.3864 562.83 61.5982 563.317 63.8101C558.229 65.1587 553.142 66.6692 548.108 68.2337C548.541 69.96 548.92 71.6863 549.353 73.4126C554.008 71.7942 558.717 70.2297 563.426 68.7732C563.967 70.985 564.454 73.1429 564.995 75.3008C560.34 76.9731 555.686 78.7534 551.085 80.6415C551.626 82.9073 552.167 85.173 552.709 87.4388C557.959 85.0112 563.263 82.7454 568.568 80.5876Z" fill="#FF0000"/>
<path d="M358.073 288.337C353.202 288.175 349.413 288.283 345.353 290.441C341.781 292.329 340.482 294.649 342.106 300.314C343.621 305.6 345.516 307.435 348.98 305.6C356.125 301.824 365.109 300.907 371.875 322.917C377.667 341.637 371.767 354.476 362.565 359.709C356.828 362.946 352.931 362.73 349.034 362.029C347.356 356.041 345.678 349.999 344 344.011C348.439 345.359 351.578 345.737 355.854 343.471C359.805 341.367 361.483 337.807 359.643 331.495C357.911 325.615 355.367 324.104 351.253 326.262C343.892 330.092 337.451 327.179 331.227 305.223C326.193 287.42 329.549 278.897 338.75 274.203C342.322 272.423 348.818 271.074 352.823 270.859C354.555 276.685 356.287 282.511 358.073 288.337Z" fill="#FF0000"/>
<path d="M376.8 251.168C382.808 270.211 388.87 289.039 394.932 307.65C396.231 311.588 398.234 312.344 401.211 309.862C404.134 307.381 405.108 304.09 403.809 300.26C397.693 282.026 391.577 263.414 385.515 244.586C389.791 241.296 394.121 237.843 398.505 234.336C404.729 253.11 411.008 271.614 417.341 289.632C421.941 302.471 417.286 317.631 405.866 327.773C394.337 337.861 384.703 334.408 380.319 320.382C374.256 300.961 368.194 281.324 362.132 261.634C366.895 258.397 371.767 254.89 376.8 251.168Z" fill="#FF0000"/>
<path d="M431.359 247.338C431.9 248.201 434.931 253.811 437.8 261.58C440.993 270.103 444.133 278.465 447.326 286.665C443.213 290.873 439.045 295.081 434.931 299.127C426.163 275.552 417.503 251.006 408.897 225.759C412.523 222.738 416.15 219.663 419.776 216.588C426.704 223.061 433.632 229.157 440.56 234.876C445.378 238.76 449.221 243.238 449.87 244.047C449.437 243.238 446.352 237.789 443.483 230.129C440.29 221.713 437.151 213.135 434.011 204.45C438.071 200.943 442.13 197.437 446.19 193.984C454.904 217.235 463.726 239.353 472.549 260.177C468.922 264.061 465.296 267.945 461.669 271.776C454.687 267.244 447.705 262.173 440.723 256.67C435.906 252.948 432.171 248.255 431.359 247.338Z" fill="#FF0000"/>
<path d="M497.284 233.257C495.769 234.93 483.158 248.686 483.158 248.74C474.389 228.834 465.567 207.471 456.853 184.921C461.616 180.821 466.379 176.829 471.142 172.837C490.465 156.976 500.965 164.205 509.03 180.929C516.986 197.706 516.228 212.002 497.284 233.257ZM476.175 185.784C481.426 198.408 486.676 210.492 491.872 222.09C491.872 222.09 493.008 220.904 493.496 220.418C501.127 212.38 500.478 205.852 495.065 193.876C489.653 181.846 485.539 177.584 477.799 184.328C477.312 184.813 476.771 185.299 476.175 185.784Z" fill="#FF0000"/>
<path d="M533.17 194.308C529.543 198.138 525.863 202.076 522.128 206.122C518.772 184.543 515.471 162.857 512.115 141.062C516.553 137.933 520.991 135.02 525.43 132.215C538.907 145.917 551.951 156.545 563.967 163.504C559.908 167.28 555.794 171.218 551.681 175.318C549.516 173.754 547.351 172.082 545.186 170.355C540.531 174.671 535.822 179.149 531.113 183.788C531.817 187.241 532.52 190.747 533.17 194.308ZM530.03 156.599C527.703 154.387 523.102 147.266 523.102 147.212C523.102 147.212 525.7 155.898 526.404 159.512C527.216 163.612 528.028 167.766 528.84 171.866C531.871 169.168 534.848 166.525 537.824 163.99C535.281 161.67 532.683 159.188 530.03 156.599Z" fill="#FF0000"/>
<path d="M584.589 145.863C580.421 149.1 576.308 152.553 572.14 156.167C569.38 152.067 566.511 147.644 563.534 142.896C554.387 138.904 544.861 133.348 535.064 126.443C539.935 123.691 544.807 121.156 549.732 118.89C554.982 122.666 560.124 126.011 565.158 128.87C565.212 123.314 565.266 117.919 565.32 112.578C569.65 111.068 573.98 109.827 578.365 108.748C577.607 116.84 577.011 125.418 576.524 134.481C579.339 138.635 582.045 142.411 584.589 145.863Z" fill="#FF0000"/>
<path d="M56.4849 137.178C56.0519 142.734 55.5648 148.291 55.1318 153.848C52.3172 151.204 49.1238 148.453 44.7938 147.32C39.4353 145.917 37.2162 147.212 36.0254 165.554C34.8888 183.788 36.729 186.863 41.8169 189.183C45.9304 190.963 49.178 189.938 52.3714 188.643C51.9384 194.2 51.5054 199.756 51.0724 205.259C46.7423 205.745 42.737 205.475 37.7574 202.777C26.9864 196.681 22.061 186.485 23.2518 159.188C24.5508 131.567 30.8294 128.439 42.737 131.136C48.0954 132.323 52.1549 134.481 56.4849 137.178Z" fill="white"/>
<path d="M72.3978 214.16C67.4724 213.243 62.6552 212.11 57.9463 210.654C60.0031 185.676 62.114 160.429 64.3331 134.912C69.3127 135.344 74.4005 135.506 79.5966 135.506C78.7305 145 77.8645 154.495 76.9985 163.936C80.3002 164.151 83.6019 164.259 86.9576 164.313C87.8778 154.657 88.7979 145 89.7181 135.29C94.9682 135.074 100.327 134.642 105.685 134.049C102.979 161.778 100.327 189.291 97.6745 216.588C92.4243 216.48 87.2283 216.156 82.1405 215.563C83.1688 204.612 84.1972 193.66 85.2256 182.655C81.8698 182.493 78.6223 182.278 75.3206 181.9C74.3464 192.743 73.3721 203.479 72.3978 214.16Z" fill="white"/>
<path d="M130.691 215.94C113.804 217.937 108.229 209.359 111.531 174.887C114.941 140.145 122.41 130.974 139.352 127.467C156.563 123.691 162.571 130.381 159.053 166.741C155.643 202.885 147.849 213.567 130.691 215.94ZM128.31 172.837C125.928 196.951 126.74 198.947 132.423 198.138C138.377 197.221 139.406 194.955 141.787 170.517C144.169 146.025 143.519 144.137 137.62 145.324C131.882 146.403 130.691 148.669 128.31 172.837Z" fill="white"/>
<path d="M187.74 202.885C169.986 208.28 163.87 200.943 167.28 164.637C170.744 128.169 178.538 117.595 195.913 111.931C213.503 106.104 219.674 112.254 216.589 148.884C213.612 185.353 205.763 197.167 187.74 202.885ZM184.871 159.62C182.598 184.543 183.464 186.432 189.418 184.597C195.588 182.601 196.67 180.12 198.89 155.142C201.109 130.165 200.405 128.277 194.289 130.273C188.443 132.161 187.198 134.642 184.871 159.62Z" fill="white"/>
<path d="M265.951 107.885C260.81 107.237 256.534 107.183 251.013 109.449C246.087 111.445 243.381 114.089 242.948 120.023C242.515 125.579 244.031 127.467 248.902 125.471C258.915 121.371 268.604 121.425 266.98 144.838C265.627 164.853 254.747 177.153 241.92 182.709C233.909 186.108 228.984 186.378 224.112 186.216C224.654 179.904 225.141 173.592 225.682 167.334C230.986 168.09 234.829 168.144 240.945 165.608C246.52 163.288 249.876 159.62 250.363 152.93C250.85 146.727 248.631 145 242.786 147.428C232.339 151.744 224.599 150.071 226.494 126.874C228.009 108.101 237.319 97.419 250.201 92.402C255.18 90.4599 263.029 89.3809 267.359 89.5428C266.817 95.5848 266.384 101.735 265.951 107.885Z" fill="white"/>
<path d="M313.311 129.895C312.987 135.721 312.662 141.602 312.337 147.482C299.996 153.955 287.602 160.267 275.099 166.309C277.047 137.771 278.887 109.395 280.728 81.127C292.365 76.3257 303.948 71.4166 315.422 66.6153C315.098 72.3876 314.827 78.2139 314.502 84.0402C308.548 86.6836 302.594 89.327 296.641 91.9704C296.37 96.1782 296.154 100.44 295.883 104.648C301.512 102.112 307.087 99.5229 312.662 96.9874C312.337 102.814 312.012 108.64 311.688 114.52C306.059 117.218 300.429 119.915 294.746 122.612C294.421 128.331 294.043 133.995 293.718 139.713C300.321 136.477 306.816 133.186 313.311 129.895Z" fill="white"/>
<path d="M367.437 117.271C361.862 120.4 356.287 123.583 350.658 126.712C351.091 116.516 351.524 106.374 351.957 96.2861C346.599 83.9323 341.348 71.1468 336.152 57.9298C342.106 55.4483 348.06 52.9667 353.96 50.4852C356.666 57.8219 359.372 64.9969 362.133 72.0639C365.651 62.1377 369.061 52.3733 372.471 42.9326C377.504 40.9365 382.538 38.9405 387.518 36.9984C381.347 53.1286 375.015 70.1218 368.574 87.9243C368.141 97.6348 367.762 107.399 367.437 117.271Z" fill="white"/>
<path d="M407.977 94.9914C391.577 104.594 384.974 101.303 385.948 72.01C386.868 42.8786 393.688 33.384 409.817 27.7195C426.109 22.109 432.171 26.1011 431.522 50.7549C430.926 75.5165 424.539 85.3888 407.977 94.9914ZM402.456 64.1337C401.915 83.0691 402.889 84.256 408.356 81.2889C414.039 78.2678 414.905 76.1639 415.392 58.0917C415.879 40.0734 415.122 38.8865 409.493 41.0984C404.026 43.2563 402.997 45.2523 402.456 64.1337Z" fill="white"/>
<path d="M458.639 13.046C458.26 25.5077 457.881 38.1853 457.502 51.0786C457.448 53.8299 458.909 54.3693 462.103 52.8588C465.296 51.2944 467.028 49.2444 467.136 46.6549C467.515 34.409 467.948 22.3248 468.381 10.5105C473.144 9.32362 477.907 8.19073 482.671 7.16574C482.183 18.2249 481.696 29.4998 481.209 40.9905C480.83 49.1365 472.928 58.4154 460.641 65.2666C448.247 72.1718 440.453 70.2837 440.723 59.9259C441.102 45.7378 441.481 31.7116 441.86 17.9551C447.435 16.2288 453.01 14.5565 458.639 13.046Z" fill="white"/>
<path d="M534.469 28.6366C529.381 30.7406 524.293 32.8984 519.205 35.2182C516.878 31.8195 514.551 28.2051 512.115 24.3748C510.545 24.9143 509.03 25.3998 507.46 25.9393C507.081 30.9564 506.756 35.9734 506.432 41.0984C501.56 43.4181 496.689 45.7918 491.764 48.2194C492.467 33.33 493.225 18.8722 494.037 4.89997C500.261 3.76709 506.54 2.74209 512.764 1.87894C528.894 -0.00920177 534.685 3.4434 533.873 8.62231C533.386 11.8052 530.897 14.8802 525.809 18.063C528.84 21.9472 531.708 25.4538 534.469 28.6366ZM519.26 11.4815C519.476 9.59336 517.96 8.13679 512.223 9.21573C511.032 9.43152 509.842 9.70125 508.651 9.97099C508.434 12.6683 508.218 15.4196 508.001 18.1709C509.3 17.7933 510.654 17.4696 511.953 17.092C517.744 15.5275 519.097 13.4236 519.26 11.4815Z" fill="white"/>
<path d="M23.414 394.613C11.0193 392.401 5.71494 382.691 1.60139 352.642C-2.40391 322.432 1.22251 316.713 13.942 317.199C26.9322 317.469 33.3732 324.05 36.9454 356.203C40.6801 388.139 36.0794 396.501 23.414 394.613ZM13.7255 355.178C16.3777 376.271 17.2978 378.321 21.5196 378.914C25.9038 379.508 26.3368 377.566 23.7929 356.149C21.249 334.732 20.3289 332.951 15.8906 332.682C11.5605 332.412 11.0734 334.084 13.7255 355.178Z" fill="white"/>
<path d="M84.7927 306.14C88.7439 304.845 92.6951 303.442 96.6462 301.986C95.1307 330.524 93.6693 358.9 92.262 387.06C88.365 388.193 84.5221 389.164 80.6792 390.081C77.4316 378.051 74.2382 366.075 70.9907 354.153C69.9082 350.107 68.2303 339.911 68.2303 339.911C68.2303 339.911 68.8798 350.376 68.7174 354.692C68.122 367.478 67.5266 380.155 66.9854 392.779C63.2507 393.372 59.5702 393.858 55.9437 394.235C49.1239 368.341 42.2499 342.716 35.376 317.469C39.4895 317.037 43.6572 316.444 47.879 315.688C51.0183 328.366 54.1035 341.151 57.2427 353.991C58.217 358.145 60.0573 369.258 60.0032 369.258C60.0032 369.258 59.2454 357.983 59.4619 353.505C60.1114 340.072 60.7609 326.532 61.4104 312.883C64.4956 312.128 67.6349 311.319 70.7742 310.456C74.2382 323.079 77.7564 335.757 81.2204 348.488C82.3029 352.372 84.1432 363.971 84.1432 363.971C84.1432 363.971 83.4396 352.049 83.6019 347.949C83.9808 334.03 84.3597 320.112 84.7927 306.14Z" fill="white"/>
<path d="M117.16 329.984C117.485 331.063 118.946 337.861 119.866 346.87C120.894 356.742 121.923 366.56 122.951 376.433C118.675 378.159 114.399 379.777 110.178 381.288C107.363 354.153 104.603 327.071 101.788 300.044C105.523 298.587 109.312 297.077 113.1 295.512C117.918 304.36 122.735 313.207 127.606 322C131.016 328.042 133.343 334.408 133.776 335.595C133.56 334.57 132.044 327.557 131.124 318.548C130.096 308.675 129.067 298.803 128.039 288.985C132.369 287.043 136.699 284.993 141.029 282.889C143.898 310.132 146.767 337.375 149.635 364.672C145.738 366.56 141.841 368.341 137.998 370.121C133.073 361.381 128.201 352.534 123.384 343.687C119.974 337.483 117.647 331.279 117.16 329.984Z" fill="white"/>
<path d="M183.409 346.87C179.025 349.351 174.641 351.779 170.311 354.099C173.234 323.727 176.157 293.3 179.025 262.928C184.113 260.123 189.147 257.21 194.235 254.243C203.165 277.818 212.204 301.123 221.406 323.942C216.264 327.233 211.176 330.416 206.034 333.545C204.518 329.283 203.003 325.021 201.542 320.759C195.912 324.158 190.229 327.449 184.6 330.686C184.221 336.08 183.788 341.475 183.409 346.87ZM191.474 291.52C189.959 287.15 187.685 275.174 187.685 275.174C187.685 275.174 187.631 288.499 187.198 293.948C186.765 300.152 186.332 306.41 185.899 312.613C189.472 310.563 192.99 308.513 196.562 306.41C194.884 301.446 193.152 296.483 191.474 291.52Z" fill="white"/>
<path d="M241.919 310.456C240.187 311.696 226.007 321.029 226.007 320.975C222.813 294.379 219.62 267.73 216.426 241.026C221.676 237.843 226.873 234.606 232.123 231.315C253.448 217.937 261.784 227.971 265.031 252.301C268.225 276.469 263.57 295.674 241.919 310.456ZM233.855 247.284C235.803 263.144 237.752 279.004 239.754 294.757C239.754 294.757 240.999 293.948 241.595 293.516C250.255 287.744 251.283 279.22 249.172 262.874C247.061 246.528 244.247 240.594 235.695 246.097C235.045 246.528 234.45 246.906 233.855 247.284Z" fill="white"/>
<path d="M288.305 277.764C279.428 256.455 270.66 234.552 262 212.164C267.196 208.766 272.446 205.367 277.642 201.914C281.594 213.081 285.545 224.086 289.496 234.984C291.39 240.163 293.231 248.578 293.176 248.578C293.176 248.578 292.473 239.353 292.689 232.718C293.285 218.638 293.88 204.666 294.421 190.747C299.184 187.564 303.893 184.435 308.602 181.307C307.033 209.305 305.409 237.681 303.731 266.327C298.643 270.157 293.501 273.987 288.305 277.764Z" fill="white"/>
<path d="M353.743 211.571C354.555 216.48 355.367 221.389 356.178 226.298C345.516 234.552 334.745 242.914 323.865 251.168C320.185 227.108 316.504 202.885 312.878 178.447C323.216 171.542 333.446 164.691 343.621 158.001C344.433 162.965 345.245 167.982 346.057 172.945C340.807 176.559 335.557 180.174 330.306 183.788C330.848 187.403 331.443 191.017 331.984 194.631C336.91 191.125 341.835 187.672 346.761 184.22C347.572 189.183 348.384 194.146 349.196 199.109C344.271 202.67 339.345 206.284 334.366 209.898C335.124 214.754 335.881 219.555 336.639 224.41C342.376 220.094 348.114 215.833 353.743 211.571Z" fill="white"/>
<path d="M370.684 171.92C371.009 172.783 372.741 178.016 374.04 185.299C375.447 193.283 376.8 201.213 378.208 209.143C374.04 212.38 369.818 215.671 365.596 218.962C361.753 196.52 357.965 173.862 354.176 151.042C357.91 148.615 361.645 146.187 365.326 143.759C370.468 149.963 375.555 156.005 380.697 161.832C384.27 165.824 386.814 170.301 387.247 171.111C387.03 170.355 385.244 165.069 383.945 157.948C382.538 150.125 381.13 142.303 379.777 134.427C383.891 131.783 388.058 129.194 392.118 126.604C395.961 147.698 399.858 168.575 403.701 189.237C400.02 192.096 396.34 194.901 392.659 197.814C387.571 192.474 382.429 186.971 377.287 181.199C373.769 177.314 371.225 172.837 370.684 171.92Z" fill="white"/>
<path d="M434.066 166.094C429.303 169.654 424.594 173.268 419.777 176.937C416.746 161.4 413.714 145.702 410.683 129.841C406.786 132.323 402.943 134.804 399.046 137.34C398.235 132.862 397.369 128.439 396.557 123.961C409.168 116.139 421.671 108.748 434.066 101.735C434.878 105.781 435.69 109.827 436.501 113.819C432.658 116.139 428.816 118.458 424.973 120.832C428.058 136.045 431.089 151.15 434.066 166.094Z" fill="white"/>
<path d="M453.497 91.2151C456.203 103.947 458.855 116.516 461.507 128.924C462.049 131.567 463.727 131.891 466.595 129.949C469.464 128.007 470.763 125.741 470.167 123.206C467.569 111.175 464.917 98.9835 462.265 86.6836C466.595 84.5257 470.871 82.4217 475.201 80.3717C477.853 92.294 480.451 104.108 483.049 115.761C484.89 124.069 479.044 133.941 468.002 141.979C456.853 150.071 448.517 149.478 446.515 139.821C443.754 126.496 440.994 113.01 438.179 99.415C443.321 96.6098 448.409 93.8585 453.497 91.2151Z" fill="white"/>
<path d="M534.848 97.9045C530.193 100.548 525.538 103.245 520.937 106.051C517.257 102.436 513.468 98.6058 509.679 94.5059C508.272 95.2611 506.865 96.0164 505.457 96.7716C506.756 102.328 508.001 107.777 509.3 113.225C504.862 116.031 500.424 118.89 495.985 121.857C492.521 106.752 489.057 91.3769 485.539 75.6784C491.168 73.1968 496.797 70.8231 502.426 68.5574C516.932 63.0008 523.806 66.3455 525.43 73.1968C526.404 77.3507 525.321 81.5586 521.424 85.8204C525.917 90.1901 530.409 94.1822 534.848 97.9045ZM512.223 78.8073C511.682 76.5415 509.679 75.031 504.537 77.2428C503.455 77.7284 502.372 78.2139 501.29 78.6994C501.993 81.8283 502.751 84.9572 503.455 88.0862C504.645 87.4928 505.836 86.8993 507.027 86.3059C512.223 83.8244 512.764 81.181 512.223 78.8073Z" fill="white"/>
<path d="M567.972 73.7902C568.459 75.8942 568.946 77.9442 569.434 80.0481C559.637 84.5796 549.84 89.5428 540.097 94.9375C537.229 83.0152 534.306 70.8232 531.329 58.2535C541.18 55.1785 551.085 52.5891 561.098 50.3773C561.639 52.5891 562.181 54.8009 562.668 57.0127C557.58 58.3614 552.546 59.8719 547.459 61.4364C547.892 63.1627 548.27 64.889 548.703 66.6153C553.358 64.9969 558.067 63.4324 562.776 61.9759C563.317 64.1877 563.805 66.3456 564.346 68.5034C559.691 70.1758 555.036 71.956 550.435 73.8442C550.977 76.11 551.518 78.3757 552.059 80.6415C557.364 78.2139 562.668 75.9481 567.972 73.7902Z" fill="white"/>
<path d="M356.449 281.108C351.578 280.947 347.789 281.054 343.729 283.158C340.211 285.047 338.858 287.366 340.482 293.031C341.997 298.318 343.892 300.152 347.356 298.318C354.5 294.541 363.485 293.624 370.251 315.581C376.042 334.3 370.143 347.14 360.941 352.372C355.204 355.609 351.307 355.447 347.41 354.692C345.732 348.704 344.054 342.662 342.376 336.674C346.815 338.022 349.954 338.4 354.23 336.134C358.181 334.03 359.859 330.47 358.019 324.158C356.287 318.278 353.743 316.767 349.629 318.925C342.268 322.755 335.827 319.842 329.603 297.886C324.569 280.083 327.925 271.56 337.126 266.866C340.698 265.086 347.194 263.738 351.199 263.522C352.931 269.402 354.717 275.228 356.449 281.108Z" fill="white"/>
<path d="M375.176 243.939C381.184 262.982 387.246 281.81 393.308 300.421C394.607 304.36 396.664 305.115 399.587 302.633C402.51 300.152 403.484 296.861 402.185 293.031C396.069 274.743 389.953 256.185 383.891 237.357C388.167 234.067 392.497 230.614 396.881 227.108C403.105 245.881 409.384 264.385 415.717 282.403C420.317 295.243 415.662 310.402 404.242 320.544C392.713 330.632 383.079 327.179 378.695 313.153C372.632 293.732 366.57 274.095 360.508 254.405C365.271 251.114 370.197 247.607 375.176 243.939Z" fill="white"/>
<path d="M429.789 240.109C430.331 240.972 433.362 246.582 436.23 254.351C439.424 262.874 442.563 271.236 445.756 279.436C441.643 283.644 437.475 287.798 433.362 291.898C424.593 268.323 415.933 243.777 407.327 218.53C410.954 215.509 414.58 212.434 418.261 209.359C425.189 215.833 432.117 221.929 439.045 227.647C443.862 231.531 447.705 236.009 448.354 236.818C447.921 236.009 444.836 230.56 441.968 222.9C438.774 214.484 435.635 205.906 432.496 197.221C436.555 193.714 440.614 190.208 444.674 186.755C453.388 210.006 462.211 232.125 471.033 252.948C467.407 256.832 463.78 260.716 460.154 264.547C453.172 260.015 446.189 254.944 439.207 249.442C434.336 245.665 430.601 241.026 429.789 240.109Z" fill="white"/>
<path d="M495.715 225.975C494.199 227.647 481.588 241.404 481.588 241.457C472.819 221.551 463.997 200.188 455.283 177.638C460.046 173.538 464.809 169.546 469.572 165.554C488.895 149.694 499.395 156.923 507.46 173.646C515.416 190.424 514.659 204.774 495.715 225.975ZM474.606 178.501C479.856 191.125 485.106 203.209 490.302 214.808C490.302 214.808 491.439 213.621 491.926 213.135C499.558 205.097 498.908 198.57 493.495 186.593C488.083 174.563 483.969 170.301 476.229 177.045C475.742 177.53 475.147 178.016 474.606 178.501Z" fill="white"/>
<path d="M531.546 187.079C527.919 190.909 524.239 194.847 520.504 198.893C517.148 177.261 513.847 155.574 510.491 133.833C514.929 130.704 519.367 127.791 523.806 124.986C537.283 138.688 550.327 149.316 562.343 156.275C558.284 160.051 554.17 163.99 550.057 168.09C547.892 166.525 545.727 164.853 543.562 163.126C538.907 167.442 534.198 171.92 529.489 176.559C530.192 180.012 530.842 183.572 531.546 187.079ZM528.406 149.37C526.079 147.158 521.478 140.037 521.478 139.983C521.478 139.983 524.076 148.669 524.78 152.283C525.592 156.437 526.404 160.537 527.216 164.637C530.247 161.94 533.224 159.296 536.2 156.761C533.602 154.441 531.004 151.959 528.406 149.37Z" fill="white"/>
<path d="M583.019 138.635C578.851 141.871 574.738 145.324 570.57 148.938C567.81 144.838 564.941 140.415 562.018 135.667C552.871 131.675 543.345 126.119 533.548 119.268C538.42 116.516 543.291 113.981 548.216 111.715C553.467 115.491 558.609 118.836 563.642 121.695C563.696 116.139 563.75 110.744 563.805 105.403C568.135 103.893 572.465 102.652 576.849 101.573C576.091 109.665 575.496 118.243 575.009 127.306C577.769 131.406 580.421 135.182 583.019 138.635Z" fill="white"/>
</svg>
