<svg width="121" height="40" viewBox="0 0 121 40" fill="none" xmlns="http://www.w3.org/2000/svg">
<path d="M11.5362 25.9024C11.5818 25.8048 11.5818 25.6585 11.4906 25.5609C11.3993 25.4635 11.2625 25.4635 11.1713 25.5609C11.1713 25.5609 11.1713 25.5609 11.1257 25.6098C11.0801 25.6585 11.0345 25.7074 10.9433 25.8048C10.7609 26 10.5329 26.2439 10.2138 26.5854C10.1226 26.6829 10.0314 26.7805 9.9402 26.8293C9.849 26.9268 9.75781 27.0244 9.66662 27.122C9.48422 27.317 9.25624 27.5122 9.02825 27.7561C8.80026 28 8.52668 28.1951 8.29869 28.439C8.0251 28.6829 7.75151 28.9268 7.43234 29.1707C7.11316 29.4146 6.79397 29.6585 6.47479 29.8537C6.11001 30.0487 5.79083 30.2439 5.38045 30.439C5.01567 30.5854 4.60529 30.6829 4.24051 30.7317C4.05812 30.7317 3.87573 30.7317 3.73894 30.6829C3.55655 30.6341 3.41975 30.5854 3.28296 30.4878C3.14617 30.3902 3.00938 30.2927 2.91818 30.1463C2.87259 30.0487 2.78139 30 2.7358 29.9024C2.69019 29.8537 2.69019 29.8048 2.6446 29.7561C2.599 29.7074 2.599 29.6585 2.5534 29.6098V29.5609L2.50781 29.4635V29.4146C2.50781 29.3659 2.50781 29.3659 2.46221 29.317C2.37102 29.2683 2.32541 29.1707 2.27982 29.0731C2.23422 28.9756 2.23422 28.8293 2.18862 28.7317C2.14303 28.6341 2.14303 28.4878 2.09743 28.3902C2.00624 27.9024 1.96063 27.4146 1.96063 26.9268C1.96063 26.439 1.96063 25.9024 2.05184 25.4146C2.09743 24.8781 2.18862 24.3415 2.27982 23.8537C2.32541 23.6098 2.37102 23.3659 2.46221 23.122C2.50781 22.8781 2.599 22.6341 2.6446 22.3902C2.7358 22.1463 2.78139 21.9024 2.87259 21.6585C2.96378 21.4146 3.05497 21.1707 3.10058 20.9268C3.28296 20.439 3.46536 20 3.64774 19.5609C3.83014 19.122 4.05812 18.7317 4.28611 18.2927C4.51409 17.9024 4.74208 17.5122 4.97007 17.2195C5.19805 16.8781 5.47164 16.5854 5.69963 16.3902C5.83642 16.2927 5.92761 16.1951 6.06441 16.0976C6.06441 16.0976 6.11001 16.0976 6.11001 16.0487H6.15561H6.2012C6.2468 16 6.338 16 6.3836 15.9513C6.52039 15.9024 6.61158 15.8537 6.74838 15.8537C6.83957 15.8048 6.97636 15.8048 7.06756 15.8048C7.11316 15.8048 7.15875 15.8048 7.20435 15.8048C7.24994 15.8048 7.29554 15.8048 7.34114 15.8537C7.43234 15.9024 7.52353 15.9024 7.61473 15.9513C7.79712 16.0487 7.9795 16.1951 8.1619 16.3902C8.34428 16.5366 8.48107 16.7317 8.61787 16.9268C8.75466 17.122 8.84585 17.2683 8.93706 17.4146C8.98265 17.5122 9.02825 17.5609 9.07384 17.6098C9.11944 17.6585 9.16504 17.7561 9.16504 17.8048C9.21064 17.8537 9.21064 17.9024 9.25624 17.9513C9.30184 18 9.30184 18.0487 9.30184 18.0487C9.30184 18.0976 9.34743 18.0976 9.34743 18.0976C9.39303 18.1951 9.43862 18.2439 9.52982 18.2439C9.66662 18.2439 9.8034 18.1463 9.8034 18C9.8034 18 9.8034 17.9513 9.8034 17.9024C9.8034 17.8537 9.8034 17.8048 9.8034 17.7561C9.8034 17.7074 9.8034 17.6585 9.8034 17.5609C9.8034 17.5122 9.8034 17.4146 9.8034 17.317C9.8034 17.2195 9.8034 17.122 9.75781 17.0244C9.71221 16.8293 9.66662 16.5854 9.62102 16.3415C9.52982 16.0976 9.43862 15.8048 9.25624 15.5122C9.16504 15.3659 9.07384 15.2195 8.98265 15.0244C8.84585 14.8781 8.75466 14.7317 8.57228 14.5854C8.48108 14.4878 8.38988 14.439 8.29869 14.3902C8.25309 14.3415 8.2075 14.3415 8.1619 14.2927C8.11629 14.2439 8.0707 14.2439 8.0251 14.1951C7.9795 14.1463 7.93391 14.1463 7.84272 14.0976C7.79712 14.0487 7.70592 14.0487 7.66032 14.0487C7.52353 14 7.43234 13.9513 7.29554 13.9513C7.02195 13.9024 6.79397 13.9024 6.52039 13.9024C6.2468 13.9024 6.01882 14 5.74523 14.0487C5.60844 14.0976 5.51724 14.1463 5.38045 14.1951H5.33485C5.33485 14.1951 5.33485 14.1951 5.28926 14.1951H5.24366H5.19805L5.15246 14.2439H5.10686C5.06127 14.2439 5.06127 14.2927 5.01567 14.2927C4.78768 14.439 4.5597 14.5854 4.3773 14.7317C4.28611 14.8293 4.19492 14.9268 4.10372 14.9756C4.01252 15.0731 3.92133 15.1707 3.83014 15.2683C3.73894 15.3659 3.64774 15.4634 3.55655 15.5609C3.46536 15.6585 3.37416 15.7561 3.32856 15.8537C3.00938 16.2439 2.7358 16.6829 2.46221 17.1707C2.18862 17.6098 1.96063 18.0976 1.73265 18.6341C1.50466 19.122 1.32228 19.6585 1.13988 20.1951C1.09428 20.3415 1.04869 20.439 1.00309 20.5854C0.957493 20.7317 0.911894 20.8781 0.866297 20.9756C0.775103 21.2683 0.729504 21.5122 0.63831 21.8048C0.364725 22.9268 0.182335 24.0976 0.136737 25.2683C0.0911398 25.8537 0.0911398 26.439 0.136737 27.0244C0.182335 27.317 0.182335 27.6098 0.227932 27.9024C0.45592 28.1951 0.501517 28.4878 0.592713 28.7805C0.683907 29.0731 0.775103 29.3659 0.866297 29.6585C0.911894 29.8048 1.00309 29.9513 1.04869 30.0976C1.04869 30.1463 1.09428 30.1463 1.09428 30.1951L1.13988 30.2927L1.18548 30.3902V30.439L1.23107 30.4878C1.27668 30.5854 1.32228 30.6341 1.36787 30.6829C1.41347 30.7317 1.45906 30.8293 1.50466 30.8781C1.59585 31.0244 1.68706 31.122 1.82384 31.2683C1.91504 31.3659 2.05184 31.5122 2.18862 31.6098C2.27982 31.7074 2.41661 31.8048 2.5534 31.9024C2.69019 32 2.82699 32.0488 3.00938 32.0976C3.14617 32.1463 3.32856 32.1951 3.46536 32.1951C3.78453 32.2439 4.05812 32.2439 4.3773 32.1951C4.65089 32.1463 4.92448 32.0976 5.19805 32C5.42605 31.9024 5.69963 31.8048 5.88202 31.7074C6.11001 31.6098 6.29239 31.4634 6.52039 31.317C6.70278 31.1707 6.88517 31.0731 7.06756 30.9268C7.43234 30.6341 7.75151 30.3902 8.0707 30.0976C8.38988 29.8048 8.66347 29.5122 8.89146 29.2683C9.16504 28.9756 9.39303 28.7317 9.62102 28.4878C10.077 28 10.4418 27.5122 10.7153 27.1707C10.9889 26.7805 11.2169 26.4878 11.3537 26.2439C11.4449 26.1463 11.4905 26.0487 11.5362 26C11.5362 25.9513 11.5362 25.9024 11.5362 25.9024ZM21.4307 6.68292C21.4307 6.39024 21.3851 6.14634 21.294 5.85365C21.2028 5.56097 21.066 5.31706 20.8836 5.07317C20.7924 4.9756 20.7012 4.82926 20.61 4.7317C20.5644 4.68292 20.5188 4.63414 20.4732 4.58536L20.4276 4.53658H20.382H20.3364C20.154 4.39024 19.9717 4.29267 19.7893 4.14634C19.6069 3.99999 19.4245 3.90243 19.2421 3.85365C18.8318 3.70732 18.4213 3.60975 18.0565 3.56097C17.6462 3.51219 17.2814 3.51219 16.9166 3.56097C16.5518 3.60975 16.1871 3.65853 15.8679 3.75609C15.5487 3.85365 15.2296 3.95121 14.9559 4.09756C14.6823 4.24389 14.4087 4.34145 14.1351 4.4878C13.8616 4.63414 13.6336 4.78048 13.4056 4.92682C12.9496 5.2195 12.5393 5.56097 12.1745 5.85365C11.8097 6.14634 11.4906 6.4878 11.2625 6.78048C10.7153 7.36585 10.3962 7.85365 10.1682 8.24389C10.077 8.43902 9.9858 8.58536 9.9402 8.68292C9.8946 8.73171 9.8946 8.78048 9.8946 8.78048C9.8946 8.78048 9.8946 8.78048 9.8946 8.82926C9.849 8.92682 9.849 9.02439 9.8946 9.07317C9.9858 9.2195 10.1226 9.26828 10.2594 9.17073C10.2594 9.17073 10.2594 9.17073 10.305 9.17073C10.305 9.17073 10.3506 9.12195 10.3962 9.12195C10.4874 9.07317 10.6241 8.9756 10.8065 8.87804C10.9889 8.78048 11.1713 8.63414 11.3993 8.4878C11.6274 8.34145 11.9009 8.14634 12.2201 7.95121C12.5393 7.75609 12.8585 7.56097 13.2232 7.31706C13.588 7.07317 13.9984 6.87804 14.4087 6.63414C14.6367 6.53658 14.8191 6.39024 15.0471 6.29267C15.2752 6.19512 15.5031 6.04878 15.7311 5.95121C16.1871 5.75609 16.7342 5.60975 17.2358 5.51219C17.7373 5.46341 18.2389 5.51219 18.7405 5.65853C18.8774 5.70731 18.9685 5.75609 19.1053 5.80487C19.1965 5.85365 19.3333 5.95121 19.4245 6.04878H19.4701L19.5157 6.09756C19.5613 6.14634 19.5613 6.14634 19.6069 6.19511C19.6525 6.24389 19.6981 6.34145 19.6981 6.39024C19.7437 6.4878 19.7437 6.58536 19.7437 6.68292C19.7437 6.78048 19.7437 6.92682 19.7437 7.07317C19.6981 7.36585 19.6069 7.65853 19.5157 7.99999C19.3789 8.34145 19.2421 8.63414 19.0597 8.9756C18.8774 9.31706 18.695 9.65853 18.5125 9.95121C18.3301 10.2927 18.1021 10.6341 17.8741 10.9268C17.7829 11.0731 17.6462 11.2683 17.5094 11.4146C17.3726 11.5609 17.2814 11.7561 17.1446 11.9024C16.643 12.5366 16.1415 13.2195 15.6399 13.8537C15.0927 14.4878 14.5911 15.1707 13.9984 15.8048C13.7248 16.1463 13.4512 16.4878 13.1776 16.7805C12.904 17.122 12.6305 17.4634 12.3569 17.8048C12.2201 18 12.0833 18.1463 11.9465 18.3415C11.8097 18.5366 11.6729 18.7317 11.5362 18.9268C11.4905 18.9756 11.4906 19.0244 11.4449 19.0731C11.3993 19.122 11.3537 19.1707 11.3537 19.2683C11.3537 19.317 11.3081 19.317 11.3081 19.3659C11.3081 19.4146 11.2625 19.4634 11.2625 19.5122C11.2625 19.5609 11.2169 19.6098 11.2169 19.7074V19.7561C11.2169 19.7561 11.1713 19.8537 11.2169 20.0976C11.2625 20.2439 11.3081 20.3902 11.3993 20.439C11.4449 20.4878 11.4905 20.5366 11.5362 20.5854C11.5818 20.6341 11.6274 20.6341 11.6274 20.6341C11.6729 20.6341 11.6729 20.6829 11.7185 20.6829C11.7641 20.6829 11.8097 20.7317 11.8097 20.7317C11.8553 20.7317 11.9009 20.7805 11.9465 20.7805C12.0377 20.7805 12.0833 20.8293 12.1289 20.8293C12.2657 20.8293 12.3569 20.8781 12.4481 20.8781C12.6761 20.9268 12.8585 20.9268 13.0864 20.9756C13.2688 21.0244 13.4968 21.0244 13.6792 21.0731C14.0895 21.122 14.4543 21.2195 14.8647 21.2683C15.2296 21.3659 15.6399 21.4635 15.9591 21.5609C16.3239 21.7074 16.643 21.8537 17.0078 22C17.327 22.1951 17.6462 22.3902 17.9197 22.5854C18.1933 22.8293 18.4213 23.0731 18.6037 23.3659C18.7862 23.6585 18.923 23.9513 19.0141 24.2927C19.1053 24.6341 19.1509 24.9756 19.1509 25.317C19.1509 25.6585 19.1509 26.0487 19.1053 26.3902C19.1053 26.4878 19.0597 26.5854 19.0597 26.6341C19.0597 26.6829 19.0597 26.7317 19.0141 26.7805C19.0141 26.8293 19.0141 26.8781 18.9685 26.9268C18.9229 27.122 18.8774 27.2683 18.8318 27.4635C18.6493 28.1463 18.4213 28.8293 18.1477 29.4635C17.8741 30.0976 17.555 30.6829 17.2358 31.1707C16.9166 31.7074 16.5063 32.1951 16.1415 32.5854C15.7767 33.0244 15.3663 33.4146 15.0015 33.7561C14.6367 34.0976 14.2719 34.3902 13.9072 34.6829C13.5424 34.9756 13.2232 35.1707 12.904 35.4146C12.7673 35.5122 12.5849 35.6098 12.4937 35.7074C12.3569 35.8048 12.2201 35.9024 12.1289 36C12.0833 36.0487 11.9921 36.0976 11.9465 36.1463C11.9009 36.1951 11.8097 36.2439 11.7641 36.2927C11.7185 36.3415 11.7185 36.3902 11.6729 36.439C11.6729 36.4878 11.6274 36.4878 11.6274 36.5366C11.6274 36.5366 11.6274 36.5366 11.6274 36.5854V36.6341C11.6274 36.7317 11.6274 36.8293 11.6729 36.9268C11.7185 37.0244 11.7641 37.0731 11.7641 37.122C11.8097 37.1707 11.8553 37.2195 11.9009 37.2195C11.9921 37.2683 12.0377 37.317 12.0833 37.317C12.1289 37.317 12.1745 37.3659 12.2201 37.3659C12.2657 37.3659 12.2657 37.3659 12.2657 37.3659C12.3569 37.4146 12.4481 37.3659 12.4937 37.2683C12.5393 37.1707 12.4937 37.0731 12.4025 37.0244C12.4025 37.0244 12.3569 36.9756 12.3113 36.9268C12.2657 36.8781 12.2657 36.8293 12.2201 36.7805C12.2201 36.7317 12.1745 36.7317 12.1745 36.6829V36.6341C12.1745 36.6341 12.2201 36.5854 12.2657 36.5366C12.3113 36.4878 12.3569 36.439 12.4025 36.439C12.4937 36.3415 12.6305 36.2927 12.7673 36.1951C12.904 36.0976 13.0408 36 13.2232 35.9024C13.8616 35.5122 14.5911 34.9756 15.4119 34.2927C15.8223 33.9513 16.2327 33.5609 16.643 33.122C17.0534 32.6829 17.4638 32.1951 17.8741 31.6585C18.2389 31.122 18.6037 30.4878 18.923 29.8537C19.2421 29.1707 19.5157 28.4878 19.7437 27.7074C19.7893 27.5122 19.8349 27.317 19.8805 27.122C19.8805 27.0731 19.9261 27.0244 19.9261 26.9756C19.9261 26.9268 19.9261 26.8781 19.9717 26.8293C19.9717 26.7317 20.0173 26.6341 20.0173 26.5366C20.1085 26.1463 20.154 25.7074 20.154 25.2683C20.154 24.8293 20.1085 24.3902 20.0173 23.9024C19.9717 23.6585 19.8805 23.4634 19.7893 23.2195C19.6981 23.0244 19.6069 22.7805 19.4701 22.5854C19.2421 22.1951 18.9229 21.8048 18.6037 21.5122C18.2845 21.2195 17.8741 20.9268 17.5094 20.6829C17.1446 20.439 16.7342 20.2927 16.3239 20.0976C15.9135 19.9513 15.5031 19.8048 15.0927 19.7074C14.6823 19.6098 14.2719 19.5122 13.816 19.4146C13.588 19.3659 13.4056 19.317 13.1776 19.317C13.132 19.317 13.0864 19.317 13.0408 19.317C13.0408 19.317 13.0408 19.2683 13.0864 19.2683C13.2232 19.122 13.36 18.9268 13.4968 18.7805C13.7704 18.439 14.044 18.1463 14.3175 17.8048C14.5911 17.4634 14.8647 17.1707 15.184 16.8293C15.7311 16.1951 16.3239 15.5609 16.871 14.8781C17.4182 14.2439 17.9653 13.5609 18.4669 12.8781C18.6037 12.7317 18.7406 12.5366 18.8318 12.3902C18.9685 12.2439 19.1053 12.0487 19.1965 11.8537C19.4245 11.5122 19.6981 11.1707 19.9261 10.7805C20.154 10.439 20.382 10.0488 20.5644 9.65853C20.7468 9.26828 20.9748 8.87804 21.1116 8.4878C21.2028 8.29267 21.2484 8.04878 21.3396 7.85365C21.3851 7.60975 21.4763 7.41463 21.4763 7.17073C21.4307 7.2195 21.4307 6.92682 21.4307 6.68292ZM11.9921 36.8781C11.9921 36.8781 11.9921 36.8293 11.9921 36.8781V36.8781ZM12.0377 19.3659C12.0833 19.3659 12.0833 19.3659 12.0377 19.3659V19.3659Z" fill="#333333"/>
<path d="M38.9403 28.0478V18.1942H35.6572V16.3893H44.1384V18.1942H40.8554V27.999H38.9403V28.0478Z" fill="#333333"/>
<path d="M46.1904 22.2439C46.1904 18.7805 48.4704 16.2439 51.7534 16.2439C55.0364 16.2439 57.3162 18.7805 57.3162 22.2439C57.3162 25.7074 55.0364 28.2439 51.7534 28.2439C48.4704 28.2439 46.1904 25.7074 46.1904 22.2439ZM55.3556 22.2439C55.3556 19.8537 53.942 18.0487 51.7534 18.0487C49.5647 18.0487 48.1512 19.8537 48.1512 22.2439C48.1512 24.6341 49.5647 26.4391 51.7534 26.4391C53.942 26.4391 55.3556 24.6341 55.3556 22.2439Z" fill="#333333"/>
<path d="M66.7091 28.0487L64.2924 23.7074H62.423V28.0487H60.5078V16.3902H65.2956C67.4386 16.3902 68.8521 17.9024 68.8521 20.0487C68.8521 22.0976 67.5754 23.2195 66.2987 23.4634L68.9434 28.0487H66.7091ZM66.8915 20.0487C66.8915 18.9268 66.1164 18.1951 65.0219 18.1951H62.423V21.9024H65.0219C66.1164 21.9024 66.8915 21.1707 66.8915 20.0487Z" fill="#333333"/>
<path d="M71.5879 22.2439C71.5879 18.7805 73.8678 16.2439 77.1509 16.2439C80.3882 16.2439 82.7137 18.7805 82.7137 22.2439C82.7137 25.7074 80.4338 28.2439 77.1509 28.2439C73.9134 28.2439 71.5879 25.7074 71.5879 22.2439ZM80.753 22.2439C80.753 19.8537 79.3395 18.0487 77.1509 18.0487C74.9622 18.0487 73.5487 19.8537 73.5487 22.2439C73.5487 24.6341 74.9622 26.4391 77.1509 26.4391C79.3395 26.4391 80.753 24.6341 80.753 22.2439Z" fill="#333333"/>
<path d="M93.475 28.0487L87.8208 19.7561V28.0487H85.9058V16.3902H87.8664L93.4294 24.439V16.3902H95.3444V28H93.475V28.0487Z" fill="#333333"/>
<path d="M101.592 28.0487V18.1951H98.3086V16.3902H106.79V18.1951H103.507V28H101.592V28.0487Z" fill="#333333"/>
<path d="M108.841 22.2439C108.841 18.7805 111.121 16.2439 114.405 16.2439C117.642 16.2439 119.967 18.7805 119.967 22.2439C119.967 25.7074 117.687 28.2439 114.405 28.2439C111.121 28.2439 108.841 25.7074 108.841 22.2439ZM118.007 22.2439C118.007 19.8537 116.594 18.0487 114.405 18.0487C112.216 18.0487 110.802 19.8537 110.802 22.2439C110.802 24.6341 112.216 26.4391 114.405 26.4391C116.594 26.4391 118.007 24.6341 118.007 22.2439Z" fill="#333333"/>
</svg>
