<svg width="119" height="119" viewBox="0 0 119 119" fill="none" xmlns="http://www.w3.org/2000/svg">
<path d="M22.2874 28.8751L12.0347 22.8071L13.9178 20.924C18.4165 23.8533 20.4042 25.2134 21.4504 26.0503C20.195 24.2718 18.2072 20.6101 16.6379 18.2039L18.2072 16.6346C20.195 17.7854 24.1705 20.087 25.9491 21.3425C24.3798 19.2501 22.0781 15.3791 21.0319 13.8099L22.7059 12.1359L28.6692 22.4933L26.8906 24.2718C24.6936 22.9117 21.2412 21.0286 19.5673 19.8778C20.7181 21.6563 22.8105 25.1088 23.9613 27.2011L22.2874 28.8751Z" fill="white"/>
<path d="M26.0537 9.93883L28.2507 8.6834L30.4477 12.5543L34.4233 10.2527L32.2263 6.38177L34.4233 5.23096L40.0727 15.2744L37.8757 16.5299L35.4695 12.1358L31.4939 14.4375L33.9002 18.8315L31.7032 20.0869L26.0537 9.93883Z" fill="white"/>
<path d="M48.2331 7.53254L43.0022 9.10183L43.8391 11.9266L49.5932 10.2526L49.907 12.345L42.0606 14.6467L38.8174 3.557L46.5592 1.25537L47.1869 3.13852L41.7467 4.81243L42.4791 7.21868L47.71 5.64939L48.2331 7.53254Z" fill="white"/>
<path d="M53.4641 7.21867L53.778 11.8219L51.3718 12.0312L50.4302 0.523024L55.4519 0.104546C57.9628 -0.104693 59.4274 1.15074 59.5321 2.92927C59.6367 4.49856 58.9044 5.33552 58.0674 5.754C58.6951 5.96323 59.6367 6.48633 59.7413 8.57872V9.10182C59.8459 9.83415 59.8459 10.7757 60.0552 11.2988L57.7535 11.5081C57.5443 10.985 57.4397 10.148 57.3351 8.89258V8.68334C57.2304 7.42791 56.9166 6.90481 55.0334 7.00943L53.4641 7.21867ZM53.2549 5.2309L55.3473 5.02166C56.7073 4.91704 57.2304 4.39394 57.1258 3.45237C57.0212 2.51079 56.3935 1.9877 55.138 2.09232L53.0457 2.30155L53.2549 5.2309Z" fill="white"/>
<path d="M70.3077 7.5326L64.8675 6.80026L64.449 9.72961L70.4123 10.5666L69.8892 12.5543L61.8335 11.5081L63.2982 0L71.3539 1.04619L71.1446 3.13858L65.4952 2.40625L65.1813 4.81249L70.6215 5.54483L70.3077 7.5326Z" fill="white"/>
<path d="M76.6895 14.5419L79.3049 2.92912L81.7112 4.07994C80.2465 9.31091 79.6188 11.6125 79.2003 12.7634C80.5604 11.0894 83.3851 7.95086 85.2683 5.85847L87.256 6.90466C86.8375 9.10167 85.7914 13.6003 85.1636 15.6927C86.6283 13.6003 89.6623 10.1479 90.8131 8.68319L92.9055 9.72939L84.8498 18.7267L82.5481 17.5758C83.1759 15.065 84.0128 11.1941 84.5359 9.31091C83.2805 10.9848 80.5604 13.9142 78.9911 15.7973L76.6895 14.5419Z" fill="white"/>
<path d="M97.1948 13.7052L89.9761 22.7025L87.9883 21.1332L95.207 12.1359L97.1948 13.7052Z" fill="white"/>
<path d="M100.229 16.3204L101.903 18.099L94.8935 24.5854L98.7644 28.7701L97.0905 29.921L91.7549 24.1669L100.229 16.3204Z" fill="white"/>
<path d="M107.657 24.8994L109.017 26.9918L100.961 32.0136L103.995 36.826L102.008 37.663L97.8228 30.9674L107.657 24.8994Z" fill="white"/>
<path d="M113.725 41.9522L112.783 38.6044L114.771 38.0813L117.387 47.1832L115.399 47.7063L114.457 44.3585L105.355 46.9739L104.623 44.5677L113.725 41.9522Z" fill="white"/>
<path d="M118.014 50.4264L118.223 52.9373L113.725 53.2511L114.038 57.8544L118.537 57.5405L118.746 60.0514L107.238 60.7837L107.029 58.2729L112.051 57.959L111.737 53.3558L106.715 53.6696L106.506 51.1588L118.014 50.4264Z" fill="white"/>
<path d="M117.91 66.6424L106.401 65.387L106.715 62.8761L118.223 64.1316L117.91 66.6424Z" fill="white"/>
<path d="M109.122 70.0949C107.971 70.0949 107.239 70.7226 106.925 71.9781C106.611 73.2335 106.925 73.9658 107.762 74.1751C108.703 74.3843 109.226 73.9658 110.168 72.1873C111.737 69.3626 112.993 68.9441 114.457 69.3626C116.445 69.8857 117.282 71.6642 116.654 74.2797C115.817 77.209 113.934 77.9414 112.26 77.7321L112.888 75.3259C113.62 75.4305 114.457 75.2213 114.876 73.7566C115.19 72.815 114.876 72.0827 114.143 71.8734C113.411 71.6642 112.888 72.0827 112.051 73.7566C110.377 76.7905 109.017 77.1044 107.448 76.6859C105.46 76.1628 104.414 74.2797 105.251 71.3503C105.983 68.5256 107.762 67.3748 109.854 67.6887L109.122 70.0949Z" fill="white"/>
<path d="M103.891 83.9048C102.74 83.4863 101.903 83.9048 101.17 85.0556C100.438 86.2065 100.647 86.9388 101.38 87.3573C102.217 87.8804 102.844 87.5665 104.204 86.2065C106.506 83.9048 107.866 83.9048 109.226 84.7418C110.9 85.788 111.319 87.7757 109.854 90.0774C108.285 92.6929 106.192 92.7975 104.728 92.0651L105.983 89.9728C106.715 90.2866 107.552 90.2866 108.285 89.0312C108.808 88.1942 108.808 87.4619 108.075 87.0434C107.343 86.6249 106.82 86.8342 105.565 88.1942C103.158 90.6005 101.694 90.6005 100.334 89.7635C98.555 88.7173 98.1365 86.5203 99.7058 84.0094C101.275 81.4986 103.263 80.9755 105.251 81.8124L103.891 83.9048Z" fill="white"/>
<path d="M103.367 98.5516L98.4502 93.7391C96.8809 92.1698 95.6255 92.5882 94.6839 93.4252C93.7423 94.4714 93.6377 95.6222 95.207 97.0869L100.124 101.899L98.3456 103.678L93.5331 98.97C90.7084 96.2499 91.5453 93.8437 93.3239 92.0651C95.1024 90.182 97.404 89.345 100.229 92.0651L105.146 96.773L103.367 98.5516Z" fill="white"/>
<path d="M88.616 96.8778L94.6839 106.712L92.0684 108.386C89.453 106.921 84.7451 104.41 83.6989 103.573C84.4312 104.515 85.4774 106.189 86.5236 107.863L88.3022 110.792L86.419 111.943L80.3511 102.109L82.8619 100.539C85.0589 101.795 90.3945 104.829 91.65 105.666C91.0223 104.829 89.7668 102.841 88.7206 101.063L86.8375 98.0286L88.616 96.8778Z" fill="white"/>
<path d="M81.9203 113.931L77.6309 115.291C74.4923 116.337 71.6676 114.872 70.6214 111.629C69.5752 108.386 70.8306 105.352 74.1784 104.306L78.3632 102.945L81.9203 113.931ZM76.6893 105.666L74.9108 106.189C72.8184 106.816 72.3999 108.7 73.1322 110.897C73.7599 112.675 75.12 114.035 77.2124 113.407L78.9909 112.884L76.6893 105.666Z" fill="white"/>
<path d="M65.4954 109.013L66.1231 106.293L68.5294 106.084L65.6 117.906L62.4614 118.115L57.6489 106.921L60.2644 106.712L61.4152 109.327L65.4954 109.013ZM62.0429 111.315C63.0891 113.721 63.7169 115.186 64.0307 116.232C64.24 115.081 64.6584 113.198 65.0769 111.106L62.0429 111.315Z" fill="white"/>
<path d="M55.4518 106.503L55.0333 110.583C55.0333 110.687 55.0333 110.792 55.1379 111.001L58.3811 118.429L55.5564 118.115C54.8241 116.337 53.9871 113.826 53.464 112.57C52.8363 113.721 51.3716 116.023 50.3254 117.592L47.71 117.278L52.4178 110.687C52.4178 110.583 52.5225 110.583 52.5225 110.373L52.9409 106.293L55.4518 106.503Z" fill="white"/>
<path d="M39.0267 112.466L42.2699 113.826L41.5375 115.709L32.7495 112.152L33.4818 110.269L36.7251 111.524L40.2821 102.736L42.5837 103.678L39.0267 112.466Z" fill="white"/>
<path d="M34.0047 102.632L36.2017 100.853L38.2941 102.213L28.7737 109.85L26.1582 108.177L28.9829 96.25L31.1799 97.61L30.5522 100.33L34.0047 102.632ZM29.8199 102.318C29.1922 104.829 28.7737 106.398 28.4598 107.444C29.2968 106.607 30.7615 105.456 32.4354 103.992L29.8199 102.318Z" fill="white"/>
<path d="M20.195 103.678L18.5211 101.899L22.1828 98.3423C21.032 98.4469 17.4749 98.5515 15.2779 98.6561L13.1855 96.5637L19.7766 96.4591L21.2412 88.2988L23.3336 90.3912L22.1828 96.4591L23.8567 96.5637L26.6815 93.739L28.3554 95.5175L20.195 103.678Z" fill="white"/>
<path d="M12.6621 83.6956L15.5915 88.2989L18.1024 86.7296L14.8592 81.6032L16.7423 80.7663L21.1363 87.6712L11.4067 93.8437L7.0127 86.9388L8.68661 85.8926L11.7206 90.7051L13.813 89.3451L10.8836 84.7418L12.6621 83.6956Z" fill="white"/>
<path d="M13.918 73.4429L9.94246 74.5938C9.83784 74.5938 9.73322 74.6984 9.6286 74.803L3.97915 80.5571L3.24681 77.837C4.71148 76.4769 6.59463 74.803 7.64083 73.8614C6.3854 73.7568 3.66529 73.2337 1.78214 72.8152L1.0498 70.3044L8.89626 72.1875C9.00088 72.1875 9.00088 72.1875 9.31474 72.1875L13.2903 71.0367L13.918 73.4429Z" fill="white"/>
<path d="M5.65287 56.7038C8.89608 56.4946 11.7208 58.2731 11.93 61.9348C12.1393 65.4918 9.62841 67.5842 6.28059 67.7935C2.93277 68.0027 0.212663 66.1195 0.00342451 62.5625C-0.101195 59.2147 2.20043 56.913 5.65287 56.7038ZM6.17597 65.2826C8.4776 65.178 10.0469 64.0272 9.94227 62.0394C9.83765 59.8424 7.9545 59.11 5.86211 59.3193C3.6651 59.4239 1.99119 60.4701 2.09581 62.5625C2.30505 64.6549 3.97896 65.3872 6.17597 65.2826Z" fill="white"/>
<path d="M0.735627 50.5312L7.53589 51.7867C9.7329 52.2051 10.5699 51.1589 10.7791 50.0081C10.9883 48.6481 10.4652 47.6019 8.37285 47.1834L1.57258 45.928L1.99106 43.5217L8.58209 44.7771C12.453 45.5095 13.0807 47.9157 12.5576 50.4266C12.0345 52.9375 10.6745 54.9252 6.80355 54.2975L0.10791 53.0421L0.735627 50.5312Z" fill="white"/>
<path d="M11.5115 40.6969L11.1977 40.5923C10.1515 40.1738 9.52374 39.4415 9.00064 37.8722C8.68678 37.0352 8.26831 36.6168 7.74521 36.4075C7.11749 36.1983 6.48978 36.3029 6.28054 37.0352C5.96668 37.8722 6.38516 38.4999 7.11749 38.8138L6.17592 41.0108C4.92048 40.3831 3.45581 38.8138 4.50201 36.3029C5.5482 33.792 7.53597 33.6874 8.68678 34.2105C9.62836 34.629 10.1515 35.1521 10.7792 36.7214C11.093 37.663 11.5115 38.0814 12.1392 38.2907L12.3485 38.3953L11.5115 40.6969ZM14.8593 42.057L12.2438 41.0108L13.1854 38.7091L15.8009 39.7553L14.8593 42.057Z" fill="white"/>
</svg>
