<?xml version="1.0" standalone="no"?>
<!DOCTYPE svg PUBLIC "-//W3C//DTD SVG 1.1//EN" "http://www.w3.org/Graphics/SVG/1.1/DTD/svg11.dtd" >
<svg xmlns="http://www.w3.org/2000/svg" xmlns:xlink="http://www.w3.org/1999/xlink" version="1.1">
<metadata>
Created by FontForge 20170731 at Sun Dec 13 02:15:26 2020
 By Aleksey,,,
Mark Bloom and Joe Leadbeater (c) 2018
</metadata>
<defs>
<font id="Aeonik-LightItalic" horiz-adv-x="1228" >
  <font-face 
    font-family="Aeonik Light"
    font-weight="300"
    font-style="italic"
    font-stretch="normal"
    units-per-em="2048"
    panose-1="2 1 5 3 3 3 0 0 0 0"
    ascent="1638"
    descent="-410"
    x-height="1038"
    cap-height="1434"
    bbox="-858 -422 4542 1837"
    underline-thickness="77"
    underline-position="-486"
    slope="-10"
    unicode-range="U+0020-1F10C"
  />
<missing-glyph 
d="M305 1434h942l-276 -1573h-942z" />
    <glyph glyph-name="fi" unicode="fi" horiz-adv-x="952" 
d="M737 0h-104l168 942h-430l-166 -942h-105l166 942h-196l16 96h197l28 156q22 126 87 183t194 57h160l-19 -97h-145q-79 0 -119 -34t-55 -113l-27 -152h535zM977 1401q18 -18 18 -47q0 -36 -22 -59t-56 -23q-29 0 -48 19t-19 48q0 36 23 58t57 22q29 0 47 -18z" />
    <glyph glyph-name="f_f.liga" unicode="ff" horiz-adv-x="1163" 
d="M1051 1303q-41 -35 -56 -113l-26 -152h291l-17 -96h-291l-166 -942h-104l166 942h-477l-166 -942h-105l166 942h-196l16 96h197l28 156q22 126 87 183t194 57h160l-19 -97h-145q-79 0 -119 -34t-55 -113l-27 -152h477l29 156q22 126 87 183q64 57 194 57h159l-18 -97
h-146q-78 0 -118 -34z" />
    <glyph glyph-name="f_f_i.liga" unicode="ffi" horiz-adv-x="1556" 
d="M1337 0h-104l168 942h-457l-166 -942h-106l168 942h-469l-166 -942h-105l166 942h-196l16 96h197l28 156q22 126 87 183t194 57h160l-19 -97h-145q-79 0 -119 -34t-55 -113l-27 -152h469l29 156q22 126 87 183q64 57 193 57h160l-18 -97h-146q-80 0 -120 -34
q-39 -33 -54 -113l-26 -152h561zM1579 1403q18 -18 18 -49q0 -38 -23 -61t-56 -23q-34 0 -53 19t-19 48q0 37 24 61q23 23 60 23q31 0 49 -18z" />
    <glyph glyph-name="f_f_t.liga" unicode="fft" horiz-adv-x="1773" 
d="M1407 240q-4 -33 -4 -52q0 -49 28 -71q27 -21 93 -21h153l-16 -96h-154q-111 0 -160 42q-51 43 -51 128q0 35 9 76l122 696h-475l-166 -942h-104l166 942h-477l-166 -942h-105l166 942h-196l16 96h197l28 156q22 126 87 183t194 57h160l-19 -97h-145q-79 0 -119 -34
t-55 -113l-27 -152h477l29 156q22 126 87 183q64 57 194 57h159l-18 -97h-146q-78 0 -118 -34q-41 -35 -56 -113l-26 -152h475l51 291h104l-51 -291h277l-17 -96h-276z" />
    <glyph glyph-name="f_t.liga" unicode="ft" horiz-adv-x="1191" 
d="M825 240q-4 -33 -4 -52q0 -49 28 -71q27 -21 93 -21h154l-17 -96h-153q-112 0 -161 42q-50 42 -50 128q0 29 10 92l121 680h-475l-166 -942h-105l166 942h-196l16 96h197l28 156q22 126 87 183t194 57h160l-19 -97h-145q-79 0 -119 -34t-55 -113l-27 -152h475l51 291h105
l-51 -291h276l-16 -96h-277z" />
    <glyph glyph-name="t_t.liga" unicode="tt" horiz-adv-x="1191" 
d="M825 240q-4 -33 -4 -52q0 -49 28 -71q27 -21 93 -21h154l-17 -96h-153q-112 0 -161 42q-50 42 -50 128q0 39 8 76l123 696h-475l-125 -702q-4 -33 -4 -52q0 -50 27 -71t93 -21h127l-18 -96h-125q-112 0 -161 42q-50 42 -50 128q0 39 8 76l123 696h-196l16 96h197l51 291
h104l-51 -291h475l51 291h105l-51 -291h276l-16 -96h-277z" />
    <glyph glyph-name=".notdef" 
d="M305 1434h942l-276 -1573h-942z" />
    <glyph glyph-name=".null" horiz-adv-x="0" 
 />
    <glyph glyph-name="nonmarkingreturn" horiz-adv-x="682" 
 />
    <glyph glyph-name="space" unicode=" " horiz-adv-x="552" 
 />
    <glyph glyph-name="exclam" unicode="!" horiz-adv-x="448" 
d="M166 418l164 1016h112l-194 -1016h-82zM85 8q-19 18 -19 49q0 40 23 63t61 23q32 0 53 -18q20 -17 20 -49q0 -38 -24 -62t-62 -24q-33 0 -52 18z" />
    <glyph glyph-name="quotedbl" unicode="&#x22;" horiz-adv-x="704" 
d="M290 1421q16 19 44 19t42 -15q13 -14 13 -36q0 -19 -6 -43l-84 -367h-74l45 391q4 32 20 51zM634 1421q16 19 44 19t42 -15q13 -14 13 -36q0 -19 -6 -43l-84 -367h-74l45 391q4 32 20 51z" />
    <glyph glyph-name="numbersign" unicode="#" horiz-adv-x="1202" 
d="M578 1241h88l-125 -377h309l125 377h88l-123 -377h225l-16 -88h-238l-102 -311h240l-17 -88h-252l-125 -377h-88l125 377h-309l-125 -377h-88l125 377h-225l14 88h240l100 311h-238l15 88h252zM512 776l-100 -311h309l100 311h-309z" />
    <glyph glyph-name="dollar" unicode="$" horiz-adv-x="1222" 
d="M990 640q118 -82 118 -230q0 -201 -144 -312q-143 -110 -382 -110h-2l-37 -207h-99l39 213q-191 24 -296 141t-105 307h108q1 -172 110 -262q108 -90 280 -90q189 0 304 80q113 79 113 229q0 108 -96 171q-95 62 -268 106q-199 51 -309 130q-111 80 -111 226
q0 199 145 307q147 109 375 109h6l37 207h98l-38 -215q171 -24 265 -129q95 -106 95 -262h-109q-1 134 -99 217q-97 82 -261 82q-182 0 -293 -81q-110 -80 -110 -229q0 -105 89 -162q88 -57 259 -102q198 -50 318 -134z" />
    <glyph glyph-name="percent" unicode="%" horiz-adv-x="1800" 
d="M841 1366q83 -80 83 -207q0 -106 -56 -198q-57 -94 -147 -147q-91 -54 -201 -54q-132 0 -215 80q-82 79 -82 204q0 107 56 199q56 93 147 148t201 55q131 0 214 -80zM272 0l1219 1434h108l-1220 -1434h-107zM468 1315q-71 -45 -112 -118t-41 -153q0 -87 59 -143
q58 -55 150 -55q83 0 152 42t111 114t42 157q0 88 -57 145q-56 56 -149 56q-85 0 -155 -45zM1564 595q83 -80 83 -206q0 -107 -56 -199t-147 -146q-92 -54 -201 -54q-135 0 -217 79t-82 205q0 108 55 199q57 93 149 147q93 54 202 54q132 0 214 -79zM1190 543
q-70 -46 -111 -118q-41 -73 -41 -153q0 -85 59 -142q57 -56 150 -56q84 0 152 43q69 44 111 115q42 72 42 157q0 87 -57 143q-58 56 -152 56q-84 0 -153 -45z" />
    <glyph glyph-name="ampersand" unicode="&#x26;" horiz-adv-x="1437" 
d="M1157 94h139l-16 -94h-135q-70 0 -117 25q-45 24 -82 79l-67 101q-220 -217 -455 -217q-161 0 -264 86t-103 229q0 168 116 282q113 112 325 191q-57 90 -83 160t-26 151q0 105 52 187q52 81 145 127q91 45 209 45q136 0 219 -76q84 -76 84 -188q0 -151 -119 -258
q-120 -108 -332 -187l23 -32l233 -349l354 418h115l-418 -495l72 -107q46 -78 131 -78zM580 1283q-80 -72 -80 -193q0 -71 23 -131q22 -58 77 -146q186 68 289 151q100 81 100 201q0 79 -57 135q-58 56 -146 56q-125 0 -206 -73zM829 279l-270 405q-6 10 -8 12q-5 4 -6 9
q-185 -68 -280 -155t-95 -228q0 -113 74 -178q73 -64 194 -64q198 0 391 199z" />
    <glyph glyph-name="quotesingle" unicode="'" horiz-adv-x="362" 
d="M290 1421q16 19 44 19t42 -15q13 -14 13 -36q0 -19 -6 -43l-84 -367h-74l45 391q4 32 20 51z" />
    <glyph glyph-name="parenleft" unicode="(" horiz-adv-x="575" 
d="M135 -71q-47 161 -47 337q0 333 129 612q129 280 383 556h113q-271 -305 -397 -573q-128 -271 -128 -591q0 -183 46 -337q47 -156 149 -343h-102q-100 182 -146 339z" />
    <glyph glyph-name="parenright" unicode=")" horiz-adv-x="575" 
d="M438 1095q47 -161 47 -337q0 -333 -129 -612q-129 -280 -383 -556h-112q269 303 396 573q128 271 128 591q0 183 -46 337q-47 156 -149 343h103q98 -178 145 -339z" />
    <glyph glyph-name="asterisk" unicode="*" horiz-adv-x="860" 
d="M866 1192l-278 -100l139 -213l-63 -52l-140 224l-219 -224l-51 52l217 215l-244 100l43 72l236 -111l47 281h76l-56 -281l275 111z" />
    <glyph glyph-name="plus" unicode="+" horiz-adv-x="1083" 
d="M602 1008h96l-65 -375h358l-16 -88h-359l-65 -375h-96l65 375h-356l16 88h357z" />
    <glyph glyph-name="comma" unicode="," horiz-adv-x="376" 
d="M169 105q28 -39 28 -97q0 -113 -76 -189q-77 -77 -195 -81l4 61q79 6 130 54q52 49 59 108v12q0 25 -8 41q-17 -24 -50 -24q-32 0 -49 17q-18 18 -18 48q0 37 28 63q26 25 70 25q50 0 77 -38z" />
    <glyph glyph-name="hyphen" unicode="-" horiz-adv-x="903" 
d="M123 539l14 86h662l-15 -86h-661z" />
    <glyph glyph-name="period" unicode="." horiz-adv-x="376" 
d="M168 125q18 -18 18 -47q0 -38 -26 -63t-64 -25q-31 2 -49 20t-18 47q0 39 26 62q27 24 64 24q31 0 49 -18z" />
    <glyph glyph-name="slash" unicode="/" horiz-adv-x="643" 
d="M-195 -410l924 1844h105l-926 -1844h-103z" />
    <glyph glyph-name="zero" unicode="0" horiz-adv-x="1257" 
d="M1008 1379q93 -65 143 -185q49 -117 49 -274q0 -233 -80 -449q-80 -215 -230 -349q-151 -134 -349 -134q-196 0 -307 142t-111 378q0 233 81 449q81 217 231 353q149 136 349 136q128 0 224 -67zM1011 1238q-83 110 -231 110q-169 0 -293 -127q-125 -128 -191 -324
q-67 -199 -67 -397q0 -194 83 -304t233 -110q169 0 293 127t190 324q66 196 66 397q0 194 -83 304z" />
    <glyph glyph-name="one" unicode="1" horiz-adv-x="616" 
d="M610 1434l-254 -1434h-106l190 1067q-31 -31 -96 -31h-248l17 97h241q48 0 78 30t41 82l33 189h104z" />
    <glyph glyph-name="two" unicode="2" horiz-adv-x="1144" 
d="M655 600q121 96 192 162q72 68 119 151q48 86 48 189q0 118 -80 184t-221 66q-165 0 -279 -99q-115 -100 -143 -266l-4 -24h-107l4 38q39 209 182 328t351 119q190 0 297 -97q108 -97 108 -251q0 -124 -52 -219q-55 -100 -128 -166q-96 -87 -223 -189l-555 -428h807
l-19 -98h-956l14 92z" />
    <glyph glyph-name="three" unicode="3" horiz-adv-x="1214" 
d="M1008 643q79 -76 79 -197q0 -137 -76 -240q-77 -104 -206 -161t-281 -57q-202 0 -324 93t-122 253q0 44 8 86h109q-9 -54 -9 -68q0 -127 91 -197q92 -71 249 -71q121 0 226 48q104 48 167 133q62 84 62 192q0 110 -92 170q-90 59 -262 59h-115l16 92h103q119 0 217 46
q100 47 156 125q57 79 57 177q0 103 -84 163q-85 61 -221 61q-165 0 -276 -81t-138 -220h-106q33 192 170 294q138 103 350 103q124 0 217 -40q94 -40 145 -111t51 -162q0 -158 -101 -263q-102 -106 -267 -133q128 -18 207 -94z" />
    <glyph glyph-name="four" unicode="4" horiz-adv-x="1226" 
d="M45 485l899 949h148l-168 -959h243l-16 -98h-246l-67 -377h-107l68 377h-770zM168 475h647l150 836z" />
    <glyph glyph-name="five" unicode="5" horiz-adv-x="1193" 
d="M440 1335l-137 -559q77 87 184 131q105 43 215 43q181 0 286 -108q106 -109 106 -283q0 -157 -76 -287q-76 -129 -208 -206q-131 -76 -290 -76q-135 0 -231 51q-97 52 -145 138q-48 87 -48 196q0 24 4 53h107q-2 -8 -2 -20q-4 -138 79 -231q82 -91 240 -91q127 0 233 65
q105 65 167 173q61 107 61 237q0 134 -79 213q-80 80 -224 80q-119 0 -232 -56q-118 -58 -180 -169l-104 2l192 803h807l-18 -99h-707z" />
    <glyph glyph-name="six" unicode="6" horiz-adv-x="1230" 
d="M341 49q-98 61 -148 164q-64 120 -64 291q0 281 79 493q79 213 226 331q146 118 348 118q188 0 302 -105t110 -280h-104q-5 138 -86 214q-83 77 -226 77q-238 0 -372 -201t-162 -504l-2 -49q40 153 169 248q127 94 298 94q121 0 215 -51t145 -141t51 -205
q0 -155 -69 -283q-69 -127 -195 -200q-124 -72 -285 -72q-132 0 -230 61zM804 141q99 60 154 163q56 104 56 228q0 136 -88 224t-234 88q-124 0 -228 -58q-101 -56 -158 -156q-56 -97 -56 -222q0 -91 40 -165q41 -75 113 -118q73 -43 170 -43q134 0 231 59z" />
    <glyph glyph-name="seven" unicode="7" horiz-adv-x="1071" 
d="M188 1434h1004l-12 -78l-985 -1356h-129l978 1335h-874z" />
    <glyph glyph-name="eight" unicode="8" horiz-adv-x="1216" 
d="M1008 630q77 -81 77 -204q0 -136 -72 -235q-71 -97 -198 -151q-123 -52 -280 -52q-136 0 -241 44q-102 43 -160 122q-56 77 -56 176q0 170 118 279t300 136q-110 22 -182 100q-70 76 -70 185q0 128 65 221q67 96 181 146q115 51 264 51q121 0 217 -44q93 -43 145 -119
q51 -75 51 -167q0 -158 -103 -258t-263 -123q128 -24 207 -107zM441 860q92 -67 235 -67q108 0 195 40q91 42 141 112q51 72 51 167q0 109 -91 176q-92 68 -233 68q-112 0 -199 -40q-90 -41 -141 -113t-51 -167q0 -108 93 -176zM767 121q101 43 158 121q56 77 56 182
q0 114 -96 189t-256 75q-125 0 -227 -42q-100 -41 -160 -121q-60 -79 -60 -185q0 -74 45 -134q44 -59 126 -94q80 -34 186 -34q127 0 228 43z" />
    <glyph glyph-name="nine" unicode="9" horiz-adv-x="1232" 
d="M961 1385q98 -59 147 -164q63 -123 63 -279q0 -288 -77 -501q-78 -216 -227 -335q-148 -118 -351 -118q-190 0 -301 104q-113 106 -109 281h105q5 -138 86 -214q83 -77 225 -77q240 0 372 201q133 202 161 503q4 21 4 50q-40 -153 -169 -248q-127 -94 -298 -94
q-120 0 -215 51t-146 141t-51 205q0 154 70 283q68 126 194 199t285 73q131 0 232 -61zM495 1292q-101 -61 -154 -163q-54 -103 -54 -228q0 -135 88 -223t233 -88q127 0 229 57q98 55 157 157q57 99 57 222q0 89 -41 165q-40 73 -115 118q-73 43 -170 43q-131 0 -230 -60z
" />
    <glyph glyph-name="colon" unicode=":" horiz-adv-x="376" 
d="M170 125q18 -18 18 -47q0 -38 -26 -63t-64 -25q-31 2 -49 20t-18 47q0 39 26 62q27 24 64 24q31 0 49 -18zM313 930q19 -19 19 -47q0 -37 -27 -63q-26 -25 -63 -25q-31 2 -49 20q-19 19 -19 47q0 38 27 62t63 24q31 0 49 -18z" />
    <glyph glyph-name="semicolon" unicode=";" horiz-adv-x="376" 
d="M169 105q28 -39 28 -97q0 -113 -76 -189q-77 -77 -195 -81l4 61q79 6 130 54q52 49 59 108v12q0 25 -8 41q-17 -24 -50 -24q-32 0 -49 17q-18 18 -18 48q0 37 28 63q26 25 70 25q50 0 77 -38zM283 930q18 -18 18 -47q0 -37 -27 -63q-26 -25 -63 -25q-31 2 -49 20
q-19 19 -19 47q0 38 27 62t63 24q32 0 50 -18z" />
    <glyph glyph-name="less" unicode="&#x3c;" horiz-adv-x="1083" 
d="M188 530l17 103l823 354l-18 -102l-697 -303l588 -301l-16 -105z" />
    <glyph glyph-name="equal" unicode="=" horiz-adv-x="1130" 
d="M215 727l18 90h771l-19 -90h-770zM143 307l17 88h770l-17 -88h-770z" />
    <glyph glyph-name="greater" unicode="&#x3e;" horiz-adv-x="1083" 
d="M965 633l-17 -103l-823 -354l16 105l697 301l-588 303l16 102z" />
    <glyph glyph-name="question" unicode="?" horiz-adv-x="1028" 
d="M444 506q15 74 53 127q39 55 78 85q33 26 140 97q104 69 160 144q57 77 57 178q0 91 -74 151t-192 60q-153 0 -264 -100q-109 -98 -130 -253h-106q17 131 85 232q70 103 177 161t240 58q111 0 195 -40q85 -40 131 -109q46 -68 46 -154q0 -127 -65 -217q-67 -92 -184 -174
l-37 -25q-96 -60 -150 -112q-51 -49 -63 -128l-13 -67h-98zM359 8q-19 18 -19 49q0 38 25 63q23 23 59 23q32 0 53 -18t21 -49q0 -37 -25 -62q-24 -24 -61 -24q-34 0 -53 18z" />
    <glyph glyph-name="at" unicode="@" horiz-adv-x="2013" 
d="M1569 1307q171 -85 268 -238q96 -151 96 -340q0 -164 -65 -306q-67 -145 -178 -233q-112 -88 -246 -88q-94 0 -147 39q-52 39 -52 119q0 38 15 84q-60 -108 -162 -174t-217 -66q-143 0 -229 85q-87 85 -87 233t70 274q69 125 186 197t252 72q112 0 188 -61
q74 -59 89 -156l65 198h84l-164 -581q-12 -44 -12 -76q0 -111 127 -111q104 0 192 79t141 207q52 126 52 269q0 163 -84 293q-85 132 -234 205q-151 74 -343 74q-258 0 -485 -123q-225 -122 -361 -335q-135 -211 -135 -464q0 -179 83 -318q83 -140 241 -220q153 -78 366 -78
q142 0 269 35t237 100l-13 -99q-89 -56 -226 -91q-135 -34 -278 -34q-229 0 -408 91t-274 250q-96 161 -96 366q0 278 150 509t398 364q252 135 534 135q219 0 393 -86zM872 824q-96 -61 -154 -169q-56 -105 -56 -229q0 -110 62 -176q63 -68 171 -68q115 0 210 72t150 183
q56 112 56 224q0 100 -63 163t-161 63q-116 0 -215 -63z" />
    <glyph glyph-name="A" unicode="A" horiz-adv-x="1292" 
d="M1059 0l-90 438h-664l-244 -438h-122l804 1434h131l295 -1434h-110zM360 541h588l-155 770z" />
    <glyph glyph-name="B" unicode="B" horiz-adv-x="1253" 
d="M774 1434q193 0 298 -87q106 -88 106 -237q0 -154 -87 -250t-243 -129q133 -22 204 -95q70 -71 70 -194q0 -215 -155 -328q-156 -114 -412 -114h-500l254 1434h465zM303 782h387q175 0 276 85t101 235q0 106 -77 169q-75 62 -222 62h-367zM184 100h396q201 0 315 87
q115 88 115 253q0 119 -89 181q-88 61 -259 61h-375z" />
    <glyph glyph-name="C" unicode="C" horiz-adv-x="1423" 
d="M387 63q-131 78 -199 211q-69 135 -69 306q0 237 97 434t277 315q179 117 410 117q226 0 358 -120t140 -335h-109q-15 170 -121 261t-280 91q-197 0 -346 -104q-150 -105 -231 -280t-81 -379q0 -141 56 -253t158 -174q103 -63 243 -63q190 0 314 88q123 87 200 264h113
q-169 -454 -629 -454q-175 0 -301 75z" />
    <glyph glyph-name="D" unicode="D" horiz-adv-x="1347" 
d="M309 1434h346q198 0 343 -74t222 -208q76 -133 76 -310q0 -246 -105 -438q-104 -191 -299 -298q-193 -106 -450 -106h-387zM453 102q217 0 385 94q165 92 256 260q90 166 90 382q0 238 -141 365q-142 128 -394 128h-250l-215 -1229h269z" />
    <glyph glyph-name="E" unicode="E" horiz-adv-x="1107" 
d="M307 1434h871l-19 -103h-760l-96 -547h637l-18 -102h-635l-105 -580h789l-19 -102h-897z" />
    <glyph glyph-name="F" unicode="F" horiz-adv-x="1036" 
d="M309 1434h840l-21 -103h-729l-98 -567h604l-18 -102h-604l-117 -662h-111z" />
    <glyph glyph-name="G" unicode="G" horiz-adv-x="1507" 
d="M1270 1326q140 -120 147 -333h-106q-18 170 -128 260q-109 90 -288 90q-197 0 -347 -105t-233 -281q-82 -174 -82 -379q0 -138 59 -250q58 -111 164 -174q107 -64 240 -64q155 0 276 65q120 64 193 175q76 114 99 252l10 63h-467l16 103h578l-133 -748h-94l43 305
q-68 -138 -198 -228q-128 -89 -325 -89q-172 0 -300 75q-132 77 -203 211q-72 135 -72 304q0 237 97 434t276 316q178 118 409 118q229 0 369 -120z" />
    <glyph glyph-name="H" unicode="H" horiz-adv-x="1331" 
d="M309 1436h111l-117 -654h817l115 654h111l-254 -1436h-111l121 680h-815l-121 -680h-111z" />
    <glyph glyph-name="I" unicode="I" horiz-adv-x="405" 
d="M309 1434h111l-254 -1434h-111z" />
    <glyph glyph-name="J" unicode="J" horiz-adv-x="692" 
d="M707 1434l-201 -1139q-27 -150 -113 -222q-87 -73 -235 -73h-195l21 104h172q105 0 165 51q58 49 76 156l199 1123h111z" />
    <glyph glyph-name="K" unicode="K" horiz-adv-x="1271" 
d="M1348 1434l-629 -603l418 -831h-125l-381 752l-398 -375l-67 -377h-111l254 1434h111l-162 -895l944 895h146z" />
    <glyph glyph-name="L" unicode="L" horiz-adv-x="991" 
d="M55 0l254 1434h111l-236 -1332h686l-18 -102h-797z" />
    <glyph glyph-name="M" unicode="M" horiz-adv-x="1685" 
d="M309 1434h140l325 -1284l780 1284h144l-254 -1434h-107l222 1247l-758 -1247h-99l-319 1247l-221 -1247h-107z" />
    <glyph glyph-name="N" unicode="N" horiz-adv-x="1355" 
d="M309 1434h92l637 -1244l224 1244h108l-254 -1434h-102l-633 1233l-219 -1233h-107z" />
    <glyph glyph-name="O" unicode="O" horiz-adv-x="1529" 
d="M1208 1371q132 -76 202 -209q71 -134 71 -308q0 -234 -99 -432q-100 -200 -276 -317t-408 -117q-174 0 -304 74q-132 75 -204 210q-71 133 -71 308q0 234 99 432q98 196 279 316q178 118 408 118q173 0 303 -75zM554 1238q-151 -104 -238 -282q-85 -174 -85 -374
q0 -142 60 -254q60 -113 167 -175q108 -63 247 -63q192 0 344 107q151 106 235 280t84 373q0 144 -58 256t-165 175q-105 62 -246 62q-192 0 -345 -105z" />
    <glyph glyph-name="P" unicode="P" horiz-adv-x="1183" 
d="M793 1434q202 0 314 -104t112 -271q0 -138 -65 -244q-64 -104 -181 -161q-115 -56 -268 -56h-435l-104 -598h-111l254 1434h484zM289 700h413q181 0 292 97q110 96 110 262q0 129 -84 201q-83 71 -236 71h-385z" />
    <glyph glyph-name="Q" unicode="Q" horiz-adv-x="1529" 
d="M1240 116q26 -14 75 -14h108l-18 -102h-113q-69 0 -111 22t-71 76l-4 6q-181 -116 -408 -116q-174 0 -304 74q-132 75 -204 210q-71 133 -71 308q0 234 99 432q98 196 279 316q178 118 408 118q173 0 303 -75q132 -76 202 -209q71 -134 71 -308q0 -204 -77 -385
q-76 -179 -216 -301q27 -39 52 -52zM1051 199l-68 112q-23 42 -49 60q-23 16 -68 16h-127l17 102h137q61 0 96 -21q34 -21 68 -79l74 -125q111 107 175 263q62 152 62 323q0 144 -58 256t-165 175q-105 62 -246 62q-192 0 -345 -105q-151 -104 -238 -282q-85 -174 -85 -374
q0 -142 60 -254q60 -113 167 -175q108 -63 247 -63q187 0 346 109z" />
    <glyph glyph-name="R" unicode="R" horiz-adv-x="1220" 
d="M1108 755q-112 -121 -297 -149l223 -606h-123l-219 598h-422l-104 -598h-111l254 1434h484q202 0 314 -104t112 -271q0 -184 -111 -304zM994 797q110 96 110 262q0 129 -84 201q-83 71 -236 71h-385l-110 -631h413q181 0 292 97z" />
    <glyph glyph-name="S" unicode="S" horiz-adv-x="1222" 
d="M190 442q1 -172 110 -262q108 -90 280 -90q189 0 304 80q113 79 113 229q0 108 -96 171q-95 62 -268 106q-199 51 -309 130q-111 80 -111 226q0 199 145 307q147 109 375 109q216 0 340 -110q123 -110 123 -289h-109q-1 134 -99 217q-97 82 -261 82q-182 0 -293 -81
q-110 -80 -110 -229q0 -105 89 -162q88 -57 259 -102q198 -50 318 -134q118 -82 118 -230q0 -201 -144 -312q-143 -110 -382 -110q-236 0 -368 120t-132 334h108z" />
    <glyph glyph-name="T" unicode="T" horiz-adv-x="1187" 
d="M207 1434h1093l-18 -103h-491l-236 -1331h-111l236 1331h-492z" />
    <glyph glyph-name="U" unicode="U" horiz-adv-x="1327" 
d="M410 1434l-150 -850q-14 -67 -14 -140q0 -172 91 -263t269 -91q207 0 321 123q113 122 158 377l150 844h111l-150 -844q-53 -302 -192 -452q-140 -150 -400 -150q-230 0 -349 116q-120 117 -120 332q0 66 17 160l147 838h111z" />
    <glyph glyph-name="V" unicode="V" horiz-adv-x="1255" 
d="M1268 1434h121l-787 -1434h-133l-281 1434h113l252 -1303z" />
    <glyph glyph-name="W" unicode="W" horiz-adv-x="1955" 
d="M207 1434h117l147 -1289l610 1289h115l143 -1289l611 1289h118l-684 -1434h-135l-145 1249l-588 -1249h-133z" />
    <glyph glyph-name="X" unicode="X" horiz-adv-x="1271" 
d="M264 1434h123l303 -611l527 611h129l-598 -701l366 -733h-127l-321 643l-562 -643h-129l635 733z" />
    <glyph glyph-name="Y" unicode="Y" horiz-adv-x="1259" 
d="M1266 1436h129l-709 -908l-98 -528h-107l97 528l-388 908h117l342 -801z" />
    <glyph glyph-name="Z" unicode="Z" horiz-adv-x="1230" 
d="M274 1434h1035l-13 -82l-1153 -1250h947l-19 -102h-1096l13 82l1153 1249h-887z" />
    <glyph glyph-name="bracketleft" unicode="[" horiz-adv-x="583" 
d="M303 1436h399l-18 -95h-301l-291 -1658h301l-16 -93h-400z" />
    <glyph glyph-name="backslash" unicode="\" horiz-adv-x="643" 
d="M838 -410h-103l-925 1844h104z" />
    <glyph glyph-name="bracketright" unicode="]" horiz-adv-x="583" 
d="M281 -412h-400l19 95h301l291 1658h-302l17 93h399z" />
    <glyph glyph-name="asciicircum" unicode="^" horiz-adv-x="1038" 
d="M143 795l490 639h88l266 -639h-94l-229 546l-422 -546h-99z" />
    <glyph glyph-name="underscore" unicode="_" horiz-adv-x="1030" 
d="M16 -117l19 105h768l-17 -105h-770z" />
    <glyph glyph-name="grave" unicode="`" horiz-adv-x="819" 
d="M305 1434h119l137 -271h-82z" />
    <glyph glyph-name="a" unicode="a" horiz-adv-x="1093" 
d="M999 96l-16 -96h-59q-74 0 -112 32t-38 87l4 47q-145 -178 -401 -178q-155 0 -247 73q-93 73 -93 197q0 170 125 253t334 83h354l16 82q8 48 8 76q0 99 -71 152q-72 54 -197 54q-260 0 -342 -210h-106q45 145 161 224t297 79q165 0 265 -77q98 -76 98 -216q0 -45 -10 -99
l-80 -438q-8 -56 -8 -59q0 -66 75 -66h43zM836 504h-359q-154 0 -244 -60t-90 -178q0 -85 67 -137q66 -51 177 -51q179 0 293 96t141 250z" />
    <glyph glyph-name="b" unicode="b" horiz-adv-x="1193" 
d="M912 995q96 -57 148 -154q52 -98 52 -225q0 -173 -74 -318t-202 -227q-130 -83 -287 -83q-149 0 -242 65q-94 66 -127 174l-59 -227h-92l254 1434h104l-108 -613q71 103 177 167q105 63 236 63q125 0 220 -56zM782 156q107 74 165 193q59 121 59 249q0 164 -90 263
q-88 97 -238 97q-137 0 -242 -74q-106 -75 -165 -195q-58 -119 -58 -249q0 -169 88 -263q89 -95 238 -95q136 0 243 74z" />
    <glyph glyph-name="c" unicode="c" horiz-adv-x="1112" 
d="M811 78q-129 -90 -301 -90q-128 0 -224 56q-99 58 -151 157q-53 101 -53 225q0 176 72 318q72 143 200 225t297 82q176 0 283 -95q106 -94 110 -251h-102q-8 119 -90 186t-209 67q-137 0 -239 -71t-159 -193t-57 -262q0 -157 92 -254q92 -96 240 -96q125 0 221 66
t140 188h106q-46 -168 -176 -258z" />
    <glyph glyph-name="d" unicode="d" horiz-adv-x="1196" 
d="M1233 1434l-254 -1434h-90l18 209q-68 -102 -172 -162q-103 -59 -235 -59q-126 0 -220 55q-96 56 -148 155q-52 98 -52 224q0 173 74 318q75 147 202 228q130 83 289 83q151 0 249 -72t122 -186l112 641h105zM757 157q106 76 164 193t58 250q0 167 -88 262
q-89 96 -238 96q-138 0 -242 -73q-105 -74 -164 -194q-59 -121 -59 -249q0 -169 88 -264q88 -96 238 -96q138 0 243 75z" />
    <glyph glyph-name="e" unicode="e" horiz-adv-x="1128" 
d="M943 943q110 -108 110 -292q0 -59 -13 -137h-843q-9 -36 -9 -86q0 -146 90 -247q88 -99 240 -99q132 0 227 69q96 70 148 193h104q-57 -167 -185 -262q-127 -94 -296 -94q-129 0 -227 55q-99 55 -153 156t-54 227q0 164 71 309t199 230q130 86 295 86q187 0 296 -108z
M938 606q2 24 2 53q0 142 -82 221q-81 78 -223 78q-149 0 -263 -98q-117 -100 -157 -254h723z" />
    <glyph glyph-name="f" unicode="f" horiz-adv-x="602" 
d="M283 1038l28 156q22 126 87 183t194 57h180l-18 -97h-166q-79 0 -119 -34t-55 -113l-27 -152h311l-16 -96h-311l-166 -942h-105l166 942h-196l16 96h197z" />
    <glyph glyph-name="g" unicode="g" horiz-adv-x="1193" 
d="M1163 1038l-174 -977q-43 -247 -176 -365t-379 -118q-203 0 -311 90q-109 91 -109 246h105q4 -116 90 -179q85 -63 229 -63q191 0 303 97t146 303l26 153q-68 -109 -175 -173t-240 -64q-125 0 -218 56q-97 58 -148 155q-52 98 -52 225q0 172 74 317t202 227
q130 83 287 83q149 0 243 -66q96 -67 126 -174l59 227h92zM757 157q107 77 163 194q57 120 57 251q0 168 -88 262t-238 94q-135 0 -241 -73q-107 -74 -164 -193q-58 -121 -58 -252q0 -167 88 -262q88 -96 238 -96q138 0 243 75z" />
    <glyph glyph-name="h" unicode="h" horiz-adv-x="1107" 
d="M929 964q93 -87 93 -257q0 -55 -14 -132l-101 -575h-104l100 571q12 78 12 127q0 125 -65 190q-66 66 -188 66q-167 0 -284 -120t-155 -326l-90 -508h-104l254 1434h104l-111 -631q66 116 167 182q102 66 237 66q156 0 249 -87z" />
    <glyph glyph-name="i" unicode="i" horiz-adv-x="350" 
d="M373 1401q18 -18 18 -47q0 -36 -22 -59t-56 -23q-29 0 -48 19t-19 48q0 36 23 58t57 22q29 0 47 -18zM213 1038h104l-184 -1038h-104z" />
    <glyph glyph-name="j" unicode="j" horiz-adv-x="362" 
d="M282 1397q23 22 56 22q29 0 47 -18t18 -47q0 -36 -22 -59t-55 -23q-29 0 -48 19q-20 20 -20 48q0 35 24 58zM-162 -313q79 0 120 35q42 36 54 112l213 1204h105l-213 -1208q-22 -126 -88 -183t-193 -57h-131l16 97h117z" />
    <glyph glyph-name="k" unicode="k" horiz-adv-x="1011" 
d="M283 1434h104l-180 -1008l704 612h142l-498 -432l340 -606h-115l-303 537l-293 -254l-51 -283h-104z" />
    <glyph glyph-name="l" unicode="l" horiz-adv-x="350" 
d="M283 1434h104l-254 -1434h-104z" />
    <glyph glyph-name="m" unicode="m" horiz-adv-x="1761" 
d="M1586 967q89 -84 89 -246q0 -57 -12 -131l-104 -590h-105l105 592q10 64 10 113q0 123 -60 186t-170 63q-145 0 -250 -106q-106 -107 -143 -285l-100 -563h-105l105 592q10 49 10 113q0 124 -59 186q-60 63 -172 63q-150 0 -257 -117q-109 -119 -143 -313l-92 -524h-104
l184 1038h90l-22 -219q60 107 149 169q90 63 211 63q132 0 211 -71q77 -70 88 -202q64 126 168 199q106 74 244 74q146 0 234 -84z" />
    <glyph glyph-name="n" unicode="n" horiz-adv-x="1107" 
d="M929 964q93 -87 93 -257q0 -55 -14 -132l-101 -575h-104l100 571q12 78 12 127q0 125 -65 190q-66 66 -188 66q-169 0 -285 -120q-117 -121 -154 -326l-90 -508h-104l184 1038h90l-20 -215q63 105 163 166q101 62 234 62q156 0 249 -87z" />
    <glyph glyph-name="o" unicode="o" horiz-adv-x="1173" 
d="M287 43q-99 56 -152 155q-53 100 -53 226q0 172 74 317t205 227q133 83 298 83q129 0 227 -56q99 -56 150 -153q54 -102 54 -226q0 -173 -74 -318q-74 -144 -206 -227q-133 -83 -298 -83q-127 0 -225 55zM760 155q105 71 166 194q59 119 59 261q0 155 -92 252
q-91 96 -238 96q-135 0 -241 -72q-105 -71 -166 -195q-60 -121 -60 -263q0 -153 92 -250q92 -96 238 -96q134 0 242 73z" />
    <glyph glyph-name="p" unicode="p" horiz-adv-x="1193" 
d="M910 994q97 -59 148 -156q52 -100 52 -226q0 -173 -74 -316t-202 -225q-130 -83 -287 -83q-149 0 -247 69q-97 69 -126 185l-113 -652h-104l254 1448h92l-20 -215q68 104 174 166t235 62q124 0 218 -57zM781 156q106 74 164 193q59 121 59 249q0 166 -90 264
q-88 96 -238 96q-137 0 -241 -74q-106 -76 -164 -195t-58 -249q0 -169 88 -263q89 -95 238 -95q136 0 242 74z" />
    <glyph glyph-name="q" unicode="q" horiz-adv-x="1193" 
d="M1163 1038l-256 -1448h-104l110 631q-68 -107 -175 -171q-103 -62 -238 -62q-126 0 -220 55q-96 56 -148 155q-52 98 -52 224q0 173 74 318q75 147 202 228q130 83 289 83q145 0 241 -67t126 -175l59 229h92zM757 157q106 76 164 193t58 250q0 167 -88 262
q-89 96 -238 96q-138 0 -242 -73q-105 -74 -164 -194q-59 -121 -59 -249q0 -169 88 -264q88 -96 238 -96q138 0 243 75z" />
    <glyph glyph-name="r" unicode="r" horiz-adv-x="638" 
d="M684 1038l-18 -100h-64q-300 0 -377 -416l-92 -522h-104l184 1038h90l-20 -196q53 92 135 144t217 52h49z" />
    <glyph glyph-name="s" unicode="s" horiz-adv-x="999" 
d="M830 974q104 -80 104 -229h-103q-2 104 -77 160q-78 58 -201 58q-139 0 -223 -55q-82 -54 -82 -146q0 -82 66 -121q65 -39 198 -63q180 -34 271 -94q89 -59 89 -181q0 -151 -118 -233t-301 -82q-178 0 -291 89t-113 242h105q5 -116 86 -178q82 -63 213 -63q143 0 228 56
q87 57 87 157q0 81 -67 122q-62 38 -201 66q-180 30 -268 90q-89 60 -89 183q0 142 114 221q115 80 298 80q172 0 275 -79z" />
    <glyph glyph-name="t" unicode="t" horiz-adv-x="612" 
d="M266 942h-196l16 96h197l51 291h104l-51 -291h277l-17 -96h-276l-125 -702q-4 -33 -4 -52q0 -50 27 -71t93 -21h154l-16 -96h-154q-112 0 -161 42q-50 42 -50 128q0 29 10 92z" />
    <glyph glyph-name="u" unicode="u" horiz-adv-x="1093" 
d="M1063 1038l-184 -1038h-91l21 213q-67 -106 -164 -165q-99 -60 -227 -60q-152 0 -242 84t-90 247q0 69 14 142l103 577h104l-102 -577q-12 -83 -12 -129q0 -123 62 -185q63 -63 183 -63q162 0 279 122q117 121 151 326l90 506h105z" />
    <glyph glyph-name="v" unicode="v" horiz-adv-x="974" 
d="M934 1038h113l-590 -1038h-125l-221 1038h110l193 -917z" />
    <glyph glyph-name="w" unicode="w" horiz-adv-x="1591" 
d="M115 1038h106l141 -913l476 913h98l133 -913l481 913h111l-553 -1038h-113l-137 872l-461 -872l-114 -2z" />
    <glyph glyph-name="x" unicode="x" horiz-adv-x="976" 
d="M1034 1038l-479 -512l307 -526h-119l-266 457l-426 -457h-121l502 535l-293 503h117l252 -432l403 432h123z" />
    <glyph glyph-name="y" unicode="y" horiz-adv-x="976" 
d="M219 1038l199 -915l518 915h113l-713 -1235q-49 -86 -86 -133q-34 -42 -77 -61q-44 -19 -112 -19h-161l16 97h125q57 0 87 13q33 14 56 43q30 38 64 95l90 158l-227 1042h108z" />
    <glyph glyph-name="z" unicode="z" horiz-adv-x="944" 
d="M164 1038h801l-15 -82l-841 -860h716l-16 -96h-856l14 84l840 858h-660z" />
    <glyph glyph-name="braceleft" unicode="{" horiz-adv-x="657" 
d="M760 1341h-74q-139 -1 -204 -62q-64 -60 -64 -187q0 -36 2 -88q1 -15 2.5 -39t1.5 -29q6 -69 6 -125q0 -135 -60 -207q-59 -71 -182 -92q75 -17 114 -62q40 -46 40 -116q0 -56 -18 -113q-11 -34 -54 -145q-34 -82 -51 -134q-16 -48 -16 -98q0 -80 52 -120q53 -41 151 -41
h61l-14 -93h-52q-141 0 -220 63t-79 175q0 53 18 107q23 69 58 161q33 83 47 129q17 54 17 101q0 133 -185 139l9 94q132 4 198 66q66 61 66 188q0 75 -6 154q-5 118 -5 145q0 322 379 322h80z" />
    <glyph glyph-name="bar" unicode="|" horiz-adv-x="399" 
d="M307 1434h105l-326 -1844h-104z" />
    <glyph glyph-name="braceright" unicode="}" horiz-adv-x="657" 
d="M-104 -317h73q139 1 204 62q65 60 65 187q0 36 -2 88q-1 15 -3 38t-2 30q-6 72 -6 125q0 134 61 207q59 71 181 92q-75 17 -114 62q-40 46 -40 116q0 53 19 113q15 48 53 145q34 82 51 134q17 51 17 98q0 79 -53 120t-150 41h-62l15 93h51q141 0 220 -63t79 -175
q0 -56 -17 -107q-16 -47 -59 -161q-33 -83 -47 -129q-16 -51 -16 -101q0 -133 184 -139l-8 -94q-133 -4 -199 -66q-65 -61 -65 -188q0 -75 6 -154q4 -95 4 -145q0 -322 -379 -322h-80z" />
    <glyph glyph-name="asciitilde" unicode="~" horiz-adv-x="1083" 
d="M160 444q21 121 89 187q68 67 161 67q64 0 105 -22q42 -22 87 -66q37 -33 67 -51q26 -16 66 -16q67 0 110 45q43 44 58 114h88q-21 -119 -88 -186t-162 -67q-66 0 -107 22q-42 23 -87 66q-37 33 -67 51q-26 16 -66 16q-62 0 -106 -45q-43 -45 -60 -115h-88z" />
    <glyph glyph-name="exclamdown" unicode="&#xa1;" horiz-adv-x="448" 
d="M433 1425q20 -18 20 -49q0 -38 -24 -62t-60 -24q-32 0 -54 19q-20 17 -20 49q0 37 24 61q25 25 62 25q31 0 52 -19zM352 1016l-164 -1016h-112l194 1016h82z" />
    <glyph glyph-name="cent" unicode="&#xa2;" horiz-adv-x="1112" 
d="M776 337q96 66 139 187h107q-46 -162 -166 -251q-120 -90 -283 -97l-30 -176h-99l33 180q-162 22 -262 143q-98 119 -98 291q0 174 68 313q69 141 193 223q125 83 286 89l34 195h99l-35 -199q143 -21 228 -112q84 -90 89 -230h-102q-7 119 -90 186q-83 68 -209 68
q-136 0 -239 -72q-102 -71 -159 -192t-57 -262q0 -159 91 -254q92 -97 241 -97q124 0 221 67z" />
    <glyph glyph-name="sterling" unicode="&#xa3;" horiz-adv-x="1247" 
d="M315 725q0 32 -4 76q-4 61 -4 106q0 158 61 282q60 121 172 189t259 68q203 0 318 -113q114 -112 120 -305h-109q-11 147 -94 232q-84 86 -235 86q-183 0 -283 -121t-100 -320l2 -88q4 -55 4 -92h463l-17 -90h-450q0 -143 -64 -282q-63 -137 -188 -251h903l-18 -102
h-1024l16 98q263 246 270 537h-192l14 90h180z" />
    <glyph glyph-name="currency" unicode="&#xa4;" horiz-adv-x="1304" 
d="M246 829q39 93 102 156l-129 152l78 73l129 -151q71 55 149 82q81 28 168 28q79 0 151 -27q73 -27 120 -73l170 141l67 -73l-170 -146q76 -100 76 -237q0 -90 -37 -177q-40 -94 -102 -159l129 -152l-78 -71l-131 149q-144 -108 -315 -108q-79 0 -151 27q-73 27 -120 73
l-172 -141l-67 73l170 146q-74 100 -74 237q0 89 37 178zM1023 925q-42 72 -119 114q-74 40 -167 40q-118 0 -220 -60q-100 -59 -161 -159q-59 -97 -59 -209q0 -96 44 -170q43 -73 120 -114t168 -41q120 0 219 59q100 60 160 159q59 97 59 210q0 95 -44 171z" />
    <glyph glyph-name="yen" unicode="&#xa5;" horiz-adv-x="1300" 
d="M1415 1436l-657 -842h366l-16 -82h-403l-41 -219h407l-14 -82h-410l-39 -211h-106l39 211h-408l14 82h408l41 219h-412l17 82h368l-358 842h117l342 -801l616 801h129z" />
    <glyph glyph-name="brokenbar" unicode="&#xa6;" horiz-adv-x="399" 
d="M309 1434h105l-144 -801h-104zM123 389h104l-139 -799h-104z" />
    <glyph glyph-name="section" unicode="&#xa7;" horiz-adv-x="1165" 
d="M880 858q72 -30 119 -86q48 -57 48 -141q0 -114 -88 -196q-86 -80 -236 -113q151 -82 151 -238q0 -133 -108 -217t-291 -84q-152 0 -246 79t-94 210h103q6 -96 71 -149q66 -54 172 -54q136 0 213 58q78 59 78 153t-64 139q-63 44 -188 82q-117 36 -199 70q-73 30 -121 86
q-48 55 -48 141q0 115 88 196q88 80 237 113q-151 82 -151 238q0 133 108 217t291 84q150 0 244 -79t94 -210h-100q-6 95 -72 149t-172 54q-135 0 -213 -57t-78 -154q0 -94 65 -139q64 -44 187 -82q120 -37 200 -70zM858 449q82 67 82 167q0 65 -37 105q-38 41 -93 64
q-58 25 -163 57l-94 30q-128 -24 -211 -92q-82 -67 -82 -168q0 -66 37 -106q41 -44 96 -66q67 -27 158 -53l94 -31q128 24 213 93z" />
    <glyph glyph-name="dieresis" unicode="&#xa8;" horiz-adv-x="819" 
d="M432 1371q19 -19 19 -44q0 -32 -23 -55t-55 -23q-27 0 -48 19q-20 18 -20 45q0 33 23 54q24 22 55 22t49 -18zM773 1371q20 -18 20 -44q0 -32 -23 -55t-55 -23q-31 0 -49 18q-19 19 -19 46q0 33 23 54q24 22 55 22q29 0 48 -18z" />
    <glyph glyph-name="copyright" unicode="&#xa9;" horiz-adv-x="1648" 
d="M1284 1365q146 -81 229 -222q82 -140 82 -318q0 -236 -106 -427q-106 -192 -295 -301q-188 -109 -426 -109q-187 0 -334 81q-146 81 -229 222q-82 140 -82 317q0 234 106 425q105 190 296 302q189 111 425 111q187 0 334 -81zM560 1277q-170 -102 -264 -277
q-95 -176 -95 -388q0 -160 71 -286q72 -127 202 -199t298 -72q213 0 383 101q171 101 266 274q97 176 97 387q0 156 -73 287q-72 129 -204 202q-130 72 -299 72q-214 0 -382 -101zM1053 376q-106 -79 -248 -79q-159 0 -251 96q-91 95 -91 246q0 140 61 255q62 117 169 182
q110 67 239 67q142 0 228 -82q88 -83 89 -217h-86q-6 102 -68 161q-63 60 -167 60q-111 0 -196 -58t-133 -156q-48 -97 -48 -212t67 -189q68 -75 189 -75q107 0 190 60t123 159h88q-49 -139 -155 -218z" />
    <glyph glyph-name="ordfeminine" unicode="&#xaa;" horiz-adv-x="878" 
d="M261 820q-56 41 -56 118q0 105 81 162t216 57h213q14 73 14 96q0 63 -39 94q-38 31 -115 31q-80 0 -139 -40q-60 -41 -78 -103h-82q24 97 106 155q80 56 193 56q112 0 173 -49t61 -137q0 -22 -8 -64l-49 -278q-2 -10 -2 -21q0 -21 11 -31t40 -10h33l-11 -68h-51
q-45 0 -70 25q-24 24 -22 64q0 5 1.5 13.5t4 24.5t4.5 29q-39 -76 -109 -121q-71 -45 -165 -45q-98 0 -155 42zM610 911q78 69 95 187h-209q-94 0 -150 -38q-55 -37 -55 -110q0 -51 35 -80q34 -28 98 -28q108 0 186 69zM119 520l12 76h657l-14 -76h-655z" />
    <glyph glyph-name="guillemotleft" unicode="&#xab;" horiz-adv-x="1134" 
d="M651 1038l-422 -520l234 -518h-103l-243 520l424 518h110zM1104 1038l-422 -520l233 -518h-102l-244 520l424 518h111z" />
    <glyph glyph-name="logicalnot" unicode="&#xac;" horiz-adv-x="1083" 
d="M188 688h721l-73 -434h-95l60 344h-627z" />
    <glyph glyph-name="registered" unicode="&#xae;" horiz-adv-x="1064" 
d="M944 1349q105 -98 105 -253q0 -129 -65 -236q-64 -106 -174 -168q-109 -61 -237 -61q-166 0 -270 97t-104 253q0 130 64 236q63 105 173 167q109 62 236 62q168 0 272 -97zM470 1336q-91 -53 -149 -146q-57 -92 -57 -205q0 -137 89 -218t225 -81q106 0 198 53
q91 52 149 147q56 91 56 206q0 134 -89 217q-88 82 -222 82q-105 0 -200 -55zM680 1272q63 0 104 -35t41 -90q0 -121 -139 -148l80 -194h-68l-73 186h-101l-32 -186h-60l82 467h166zM532 1042h107q49 0 88 25q37 24 37 76q0 36 -23 57t-63 21h-113z" />
    <glyph glyph-name="macron" unicode="&#xaf;" horiz-adv-x="819" 
d="M281 1282l14 80h524l-14 -80h-524z" />
    <glyph glyph-name="degree" unicode="&#xb0;" horiz-adv-x="874" 
d="M793 1368q79 -78 79 -201q0 -102 -53 -185q-53 -82 -138 -129q-85 -46 -175 -46q-132 0 -211 78q-80 78 -80 200q0 103 53 186q52 82 139 129q85 46 175 46q132 0 211 -78zM643 926q61 34 100 97t39 140q0 89 -56 144t-153 55q-67 0 -129 -35q-61 -34 -100 -97t-39 -140
q0 -89 56 -144t153 -55q67 0 129 35z" />
    <glyph glyph-name="plusminus" unicode="&#xb1;" horiz-adv-x="1120" 
d="M72 0l16 88h811l-16 -88h-811zM612 1044h97l-66 -374h358l-16 -88h-358l-66 -375h-96l65 375h-356l16 88h357z" />
    <glyph glyph-name="uni00B2" unicode="&#xb2;" horiz-adv-x="634" 
d="M672 1601q59 -49 59 -137t-51 -152q-53 -67 -145 -134l-289 -213h409l-12 -72h-522l10 70l350 256q88 63 130 115t42 120q0 59 -40 93t-107 34q-86 0 -142 -49q-57 -49 -73 -139h-72q18 125 95 191q78 67 194 67q103 0 164 -50z" />
    <glyph glyph-name="uni00B3" unicode="&#xb3;" horiz-adv-x="655" 
d="M332 1596q79 59 186 59q103 0 164 -48t61 -126q0 -77 -50 -129q-49 -51 -128 -66q61 -10 99 -51q36 -39 36 -102q0 -108 -79 -178t-215 -70q-120 0 -184 60t-64 175h73q0 -83 48 -126q47 -42 133 -42q93 0 152 49q61 50 61 125q0 62 -47 95q-45 32 -129 32h-52l11 56h45
q91 0 153 44t62 117q0 52 -42 83q-43 32 -110 32q-83 0 -139 -41q-55 -40 -70 -110h-74q21 103 99 162z" />
    <glyph glyph-name="acute" unicode="&#xb4;" horiz-adv-x="819" 
d="M481 1163l234 271h127l-273 -271h-88z" />
    <glyph glyph-name="uni00B5" unicode="&#xb5;" horiz-adv-x="1103" 
d="M1073 1038l-184 -1038h-90l26 231q-62 -111 -164 -178q-99 -65 -233 -65q-101 0 -169 43q-69 43 -97 127l-101 -568h-104l254 1448h104l-102 -579q-10 -63 -10 -127q0 -116 63 -182t183 -66q161 0 277 122t153 326l90 506h104z" />
    <glyph glyph-name="paragraph" unicode="&#xb6;" horiz-adv-x="1292" 
d="M784 483h-180q-226 0 -353 107q-126 106 -126 303q0 152 77 277t210 194q135 70 297 70h344l-254 -1434h-101zM1206 1434h101l-254 -1434h-101z" />
    <glyph glyph-name="periodcentered" unicode="&#xb7;" horiz-adv-x="376" 
d="M258 643q18 -18 18 -47q0 -37 -26 -62q-28 -26 -64 -26q-31 2 -49 20t-18 47q0 39 26 62q28 25 64 25q30 0 49 -19z" />
    <glyph glyph-name="cedilla" unicode="&#xb8;" horiz-adv-x="819" 
d="M358 20l-51 -120h23q73 0 114 -35t41 -96q0 -79 -58 -128q-60 -51 -142 -51h-152l10 66h129q60 0 96 30q35 29 35 76q0 76 -94 76h-86l76 182h59z" />
    <glyph glyph-name="uni00B9" unicode="&#xb9;" horiz-adv-x="342" 
d="M242 895l94 522q-14 -14 -43 -14h-141l14 72h137q19 0 32 14q12 14 17 35l21 116h71l-131 -745h-71z" />
    <glyph glyph-name="ordmasculine" unicode="&#xba;" horiz-adv-x="851" 
d="M284 850q-71 73 -71 192q0 108 47 202q47 93 131 149q83 55 189 55q120 0 191 -74t71 -194q0 -110 -48 -201q-48 -92 -131 -146q-84 -55 -186 -55q-123 0 -193 72zM346 905q50 -53 133 -53q81 0 145 45q64 44 100 120q36 75 36 159q0 89 -50 144q-50 54 -135 54
q-81 0 -143 -46q-63 -47 -99 -121q-36 -75 -36 -158q0 -92 49 -144zM125 596h627l-15 -76h-626z" />
    <glyph glyph-name="guillemotright" unicode="&#xbb;" horiz-adv-x="1134" 
d="M31 0l422 520l-234 518h103l243 -520l-424 -518h-110zM483 0l422 520l-233 518h102l244 -520l-424 -518h-111z" />
    <glyph glyph-name="onequarter" unicode="&#xbc;" horiz-adv-x="1191" 
d="M207 690l94 522q-14 -14 -43 -14h-141l14 72h137q19 0 32 14q12 14 17 35l21 117h72l-131 -746h-72zM-63 0l1161 1434h92l-1163 -1434h-90zM1010 745h90l-84 -479h127l-13 -69h-126l-35 -197h-74l35 197h-391l10 69zM1012 657l-375 -391h305z" />
    <glyph glyph-name="onehalf" unicode="&#xbd;" horiz-adv-x="1294" 
d="M207 690l94 522q-14 -14 -43 -14h-141l14 72h137q19 0 32 14q12 14 17 35l21 117h72l-131 -746h-72zM-63 0l1161 1434h92l-1163 -1434h-90zM1188 708q59 -49 59 -137q0 -87 -51 -152q-53 -67 -145 -134l-289 -213h409l-12 -72h-522l10 70l350 256q88 63 130 115
q42 53 42 120q0 59 -40 93t-107 34q-86 0 -142 -49q-57 -49 -73 -139h-72q18 125 95 191q78 67 194 67q103 0 164 -50z" />
    <glyph glyph-name="threequarters" unicode="&#xbe;" horiz-adv-x="1501" 
d="M295 1392q77 58 186 58q103 0 164 -48q62 -48 62 -126q0 -76 -51 -129q-49 -51 -128 -66q62 -11 99 -51t37 -102q0 -106 -80 -177t-215 -71q-119 0 -184 60q-64 60 -64 175h74q0 -83 47 -125q46 -42 133 -42q93 0 152 49q61 50 61 125q0 61 -47 94t-129 33h-52l11 55h45
q91 0 153 44t62 118q0 52 -42 83q-41 31 -110 31q-83 0 -139 -41q-55 -40 -70 -110h-73q21 105 98 163zM246 0l1161 1434h92l-1163 -1434h-90zM1319 745h90l-84 -479h127l-12 -69h-127l-35 -197h-74l35 197h-391l10 69zM1321 657l-375 -391h305z" />
    <glyph glyph-name="questiondown" unicode="&#xbf;" horiz-adv-x="1028" 
d="M734 1427q20 -18 20 -49q0 -38 -24 -62t-60 -24q-32 0 -53 19q-19 18 -19 49q0 38 24 62t60 24q31 0 52 -19zM649 930q-12 -74 -50 -127q-37 -52 -85 -89q-37 -29 -133 -91q-105 -68 -160 -145q-57 -80 -57 -177q0 -93 74 -153t190 -60q154 0 263 99q109 98 130 253h107
q-16 -129 -84 -231t-176 -161q-107 -58 -242 -58q-112 0 -196 40q-86 41 -131 108q-46 68 -46 155q0 127 66 221q65 93 184 170q3 2 14 9t31 19.5t41 26.5q71 45 114 99q39 50 50 110l12 68h99z" />
    <glyph glyph-name="Agrave" unicode="&#xc0;" horiz-adv-x="1292" 
d="M1059 0l-90 438h-664l-244 -438h-122l804 1434h131l295 -1434h-110zM360 541h588l-155 770zM623 1835h118l138 -270h-82z" />
    <glyph glyph-name="Aacute" unicode="&#xc1;" horiz-adv-x="1292" 
d="M1059 0l-90 438h-664l-244 -438h-122l804 1434h131l295 -1434h-110zM360 541h588l-155 770zM799 1565l233 270h127l-272 -270h-88z" />
    <glyph glyph-name="Acircumflex" unicode="&#xc2;" horiz-adv-x="1292" 
d="M1059 0l-90 438h-664l-244 -438h-122l804 1434h131l295 -1434h-110zM360 541h588l-155 770zM877 1765l-234 -202h-117l308 272h102l213 -272h-102z" />
    <glyph glyph-name="Atilde" unicode="&#xc3;" horiz-adv-x="1292" 
d="M1059 0l-90 438h-664l-244 -438h-122l804 1434h131l295 -1434h-110zM360 541h588l-155 770zM834 1800q26 -18 55 -51q24 -28 37 -37q16 -12 43 -12q46 0 73 32q28 32 35 78l68 -4q-15 -88 -61 -133t-113 -45q-47 0 -73 17t-54 49q-24 28 -38 38q-17 13 -44 13
q-86 0 -107 -111l-69 2q16 88 61 134q45 47 115 47q47 0 72 -17z" />
    <glyph glyph-name="Adieresis" unicode="&#xc4;" horiz-adv-x="1292" 
d="M1059 0l-90 438h-664l-244 -438h-122l804 1434h131l295 -1434h-110zM360 541h588l-155 770zM748 1773q18 -18 18 -44q0 -33 -23 -56q-22 -22 -55 -22q-28 0 -48 18q-19 18 -19 45q0 33 22 54q24 22 55 22q33 0 50 -17zM1089 1773q19 -18 19 -44q0 -33 -23 -56
q-22 -22 -55 -22q-32 0 -49 17q-18 18 -18 46q0 33 22 54q24 22 55 22t49 -17z" />
    <glyph glyph-name="Aring" unicode="&#xc5;" horiz-adv-x="1292" 
d="M1169 0h-110l-90 438h-664l-244 -438h-122l794 1417q-55 28 -88 81q-33 52 -33 116q0 92 68 158q66 65 162 65q95 0 160 -65q67 -67 67 -158q0 -82 -53 -144q-51 -59 -133 -75zM730 1500q46 -46 112 -46q65 0 111 46t46 114q0 67 -46 113q-47 47 -111 47q-65 0 -112 -47
q-46 -46 -46 -113q0 -68 46 -114zM360 541h588l-155 770z" />
    <glyph glyph-name="AE" unicode="&#xc6;" horiz-adv-x="1921" 
d="M1972 1331h-760l-96 -547h637l-18 -102h-635l-105 -580h789l-19 -102h-897l70 399h-565l-322 -399h-133l1133 1434h940zM956 498l146 835l-660 -835h514z" />
    <glyph glyph-name="Ccedilla" unicode="&#xc7;" horiz-adv-x="1423" 
d="M1004 178q123 87 200 264h113q-166 -442 -608 -454l-37 -88h22q74 0 115 -35t41 -96q0 -79 -58 -128q-60 -51 -143 -51h-151l10 66h129q59 0 95 30t36 76q0 76 -94 76h-86l63 150q-160 7 -282 87q-121 79 -186 210q-64 129 -64 295q0 237 97 434t277 315q179 117 410 117
q226 0 358 -120t140 -335h-109q-15 170 -121 261t-280 91q-197 0 -346 -104q-150 -105 -231 -280t-81 -379q0 -141 56 -253t158 -174q103 -63 243 -63q190 0 314 88z" />
    <glyph glyph-name="Egrave" unicode="&#xc8;" horiz-adv-x="1107" 
d="M307 1434h871l-19 -103h-760l-96 -547h637l-18 -102h-635l-105 -580h789l-19 -102h-897zM532 1835h119l137 -270h-81z" />
    <glyph glyph-name="Eacute" unicode="&#xc9;" horiz-adv-x="1107" 
d="M307 1434h871l-19 -103h-760l-96 -547h637l-18 -102h-635l-105 -580h789l-19 -102h-897zM709 1565l233 270h127l-272 -270h-88z" />
    <glyph glyph-name="Ecircumflex" unicode="&#xca;" horiz-adv-x="1107" 
d="M307 1434h871l-19 -103h-760l-96 -547h637l-18 -102h-635l-105 -580h789l-19 -102h-897zM786 1765l-233 -202h-117l307 272h103l213 -272h-103z" />
    <glyph glyph-name="Edieresis" unicode="&#xcb;" horiz-adv-x="1107" 
d="M307 1434h871l-19 -103h-760l-96 -547h637l-18 -102h-635l-105 -580h789l-19 -102h-897zM657 1773q19 -19 19 -44q0 -33 -23 -56q-22 -22 -55 -22q-28 0 -48 18t-20 45q0 33 23 54q24 22 55 22q32 0 49 -17zM998 1773q20 -18 20 -44q0 -33 -23 -56q-22 -22 -55 -22
q-32 0 -49 17q-19 19 -19 46q0 33 23 54q24 22 55 22q30 0 48 -17z" />
    <glyph glyph-name="Igrave" unicode="&#xcc;" horiz-adv-x="405" 
d="M309 1434h111l-254 -1434h-111zM170 1835h119l137 -270h-82z" />
    <glyph glyph-name="Iacute" unicode="&#xcd;" horiz-adv-x="405" 
d="M309 1434h111l-254 -1434h-111zM346 1565l234 270h127l-273 -270h-88z" />
    <glyph glyph-name="Icircumflex" unicode="&#xce;" horiz-adv-x="405" 
d="M309 1434h111l-254 -1434h-111zM424 1765l-234 -202h-116l307 272h102l213 -272h-102z" />
    <glyph glyph-name="Idieresis" unicode="&#xcf;" horiz-adv-x="405" 
d="M309 1434h111l-254 -1434h-111zM295 1773q18 -18 18 -44q0 -34 -22 -56t-55 -22q-30 0 -49 18t-19 45q0 33 22 54q24 22 56 22t49 -17zM636 1773q19 -18 19 -44q0 -34 -22 -56t-55 -22t-50 17q-18 18 -18 46q0 33 22 54q24 22 56 22q30 0 48 -17z" />
    <glyph glyph-name="Eth" unicode="&#xd0;" horiz-adv-x="1382" 
d="M1031 1360q144 -73 221 -208q77 -134 77 -310q0 -246 -105 -438q-104 -191 -299 -298q-193 -106 -450 -106h-387l121 684h-184l16 94h184l117 656h346q198 0 343 -74zM870 196q165 92 256 260t91 382q0 238 -141 365q-142 128 -394 128h-250l-96 -553h321l-16 -94h-322
l-102 -582h268q217 0 385 94z" />
    <glyph glyph-name="Ntilde" unicode="&#xd1;" horiz-adv-x="1355" 
d="M309 1434h92l637 -1244l224 1244h108l-254 -1434h-102l-633 1233l-219 -1233h-107zM852 1800q26 -18 55 -51q24 -28 37 -37q16 -12 43 -12q47 0 74 32q28 32 35 78l67 -4q-15 -90 -60 -133q-47 -45 -114 -45q-47 0 -73 17t-54 49q-24 28 -38 38q-17 13 -44 13
q-85 0 -106 -111l-70 2q16 87 62 134q45 47 114 47q47 0 72 -17z" />
    <glyph glyph-name="Ograve" unicode="&#xd2;" horiz-adv-x="1529" 
d="M1208 1371q132 -76 202 -209q71 -134 71 -308q0 -234 -99 -432q-100 -200 -276 -317t-408 -117q-174 0 -304 74q-132 75 -204 210q-71 133 -71 308q0 234 99 432q98 196 279 316q178 118 408 118q173 0 303 -75zM554 1238q-151 -104 -238 -282q-85 -174 -85 -374
q0 -142 60 -254q60 -113 167 -175q108 -63 247 -63q192 0 344 107q151 106 235 280t84 373q0 144 -58 256t-165 175q-105 62 -246 62q-192 0 -345 -105zM719 1835h119l137 -270h-82z" />
    <glyph glyph-name="Oacute" unicode="&#xd3;" horiz-adv-x="1529" 
d="M1208 1371q132 -76 202 -209q71 -134 71 -308q0 -234 -99 -432q-100 -200 -276 -317t-408 -117q-174 0 -304 74q-132 75 -204 210q-71 133 -71 308q0 234 99 432q98 196 279 316q178 118 408 118q173 0 303 -75zM554 1238q-151 -104 -238 -282q-85 -174 -85 -374
q0 -142 60 -254q60 -113 167 -175q108 -63 247 -63q192 0 344 107q151 106 235 280t84 373q0 144 -58 256t-165 175q-105 62 -246 62q-192 0 -345 -105zM895 1565l233 270h127l-272 -270h-88z" />
    <glyph glyph-name="Ocircumflex" unicode="&#xd4;" horiz-adv-x="1529" 
d="M1208 1371q132 -76 202 -209q71 -134 71 -308q0 -234 -99 -432q-100 -200 -276 -317t-408 -117q-174 0 -304 74q-132 75 -204 210q-71 133 -71 308q0 234 99 432q98 196 279 316q178 118 408 118q173 0 303 -75zM554 1238q-151 -104 -238 -282q-85 -174 -85 -374
q0 -142 60 -254q60 -113 167 -175q108 -63 247 -63q192 0 344 107q151 106 235 280t84 373q0 144 -58 256t-165 175q-105 62 -246 62q-192 0 -345 -105zM973 1765l-234 -202h-116l307 272h102l213 -272h-102z" />
    <glyph glyph-name="Otilde" unicode="&#xd5;" horiz-adv-x="1529" 
d="M1208 1371q132 -76 202 -209q71 -134 71 -308q0 -234 -99 -432q-100 -200 -276 -317t-408 -117q-174 0 -304 74q-132 75 -204 210q-71 133 -71 308q0 234 99 432q98 196 279 316q178 118 408 118q173 0 303 -75zM554 1238q-151 -104 -238 -282q-85 -174 -85 -374
q0 -142 60 -254q60 -113 167 -175q108 -63 247 -63q192 0 344 107q151 106 235 280t84 373q0 144 -58 256t-165 175q-105 62 -246 62q-192 0 -345 -105zM930 1800q26 -18 55 -51q24 -28 37 -37q16 -12 43 -12q47 0 74 32q28 32 35 78l67 -4q-15 -90 -60 -133
q-47 -45 -114 -45q-47 0 -73 17t-54 49q-24 28 -38 38q-17 13 -44 13q-85 0 -106 -111l-70 2q16 88 61 134q45 47 115 47q47 0 72 -17z" />
    <glyph glyph-name="Odieresis" unicode="&#xd6;" horiz-adv-x="1529" 
d="M1208 1371q132 -76 202 -209q71 -134 71 -308q0 -234 -99 -432q-100 -200 -276 -317t-408 -117q-174 0 -304 74q-132 75 -204 210q-71 133 -71 308q0 234 99 432q98 196 279 316q178 118 408 118q173 0 303 -75zM554 1238q-151 -104 -238 -282q-85 -174 -85 -374
q0 -142 60 -254q60 -113 167 -175q108 -63 247 -63q192 0 344 107q151 106 235 280t84 373q0 144 -58 256t-165 175q-105 62 -246 62q-192 0 -345 -105zM844 1773q18 -18 18 -44q0 -34 -22 -56t-56 -22q-28 0 -48 18q-19 18 -19 45q0 33 22 54q24 22 56 22t49 -17z
M1185 1773q19 -18 19 -44q0 -34 -22 -56t-56 -22q-32 0 -49 17q-18 18 -18 46q0 33 22 54q24 22 56 22q30 0 48 -17z" />
    <glyph glyph-name="multiply" unicode="&#xd7;" horiz-adv-x="1083" 
d="M991 881l-352 -297l260 -314l-70 -57l-258 309l-350 -297l-57 66l352 297l-260 309l72 61l258 -309l348 295z" />
    <glyph glyph-name="Oslash" unicode="&#xd8;" horiz-adv-x="1529" 
d="M1378 1212q103 -151 103 -358q0 -234 -99 -432q-100 -200 -276 -317t-408 -117q-130 0 -240 45q-111 46 -188 127l-180 -172l-55 61l184 176q-100 146 -100 355q0 234 99 432q98 196 279 316q178 118 408 118q131 0 240 -44q107 -43 184 -126l178 170l54 -62zM303 305
l942 893q-64 72 -149 108q-87 37 -197 37q-192 0 -345 -105q-151 -104 -238 -282q-85 -174 -85 -374q0 -156 72 -277zM1294 1133l-940 -895q63 -71 153 -109q91 -39 198 -39q192 0 344 107q151 106 235 280t84 373q0 161 -74 283z" />
    <glyph glyph-name="Ugrave" unicode="&#xd9;" horiz-adv-x="1327" 
d="M410 1434l-150 -850q-14 -67 -14 -140q0 -172 91 -263t269 -91q207 0 321 123q113 122 158 377l150 844h111l-150 -844q-53 -302 -192 -452q-140 -150 -400 -150q-230 0 -349 116q-120 117 -120 332q0 66 17 160l147 838h111zM633 1835h119l137 -270h-82z" />
    <glyph glyph-name="Uacute" unicode="&#xda;" horiz-adv-x="1327" 
d="M410 1434l-150 -850q-14 -67 -14 -140q0 -172 91 -263t269 -91q207 0 321 123q113 122 158 377l150 844h111l-150 -844q-53 -302 -192 -452q-140 -150 -400 -150q-230 0 -349 116q-120 117 -120 332q0 66 17 160l147 838h111zM809 1565l233 270h127l-272 -270h-88z" />
    <glyph glyph-name="Ucircumflex" unicode="&#xdb;" horiz-adv-x="1327" 
d="M410 1434l-150 -850q-14 -67 -14 -140q0 -172 91 -263t269 -91q207 0 321 123q113 122 158 377l150 844h111l-150 -844q-53 -302 -192 -452q-140 -150 -400 -150q-230 0 -349 116q-120 117 -120 332q0 66 17 160l147 838h111zM887 1765l-234 -202h-116l307 272h102
l213 -272h-102z" />
    <glyph glyph-name="Udieresis" unicode="&#xdc;" horiz-adv-x="1327" 
d="M410 1434l-150 -850q-14 -67 -14 -140q0 -172 91 -263t269 -91q207 0 321 123q113 122 158 377l150 844h111l-150 -844q-53 -302 -192 -452q-140 -150 -400 -150q-230 0 -349 116q-120 117 -120 332q0 66 17 160l147 838h111zM758 1773q18 -18 18 -44q0 -34 -22 -56
t-56 -22q-28 0 -48 18q-19 18 -19 45q0 33 22 54q24 22 56 22t49 -17zM1099 1773q19 -18 19 -44q0 -34 -22 -56t-56 -22q-32 0 -49 17q-18 18 -18 46q0 33 22 54q24 22 56 22q30 0 48 -17z" />
    <glyph glyph-name="Yacute" unicode="&#xdd;" horiz-adv-x="1259" 
d="M1266 1436h129l-709 -908l-98 -528h-107l97 528l-388 908h117l342 -801zM766 1565l233 270h127l-272 -270h-88z" />
    <glyph glyph-name="Thorn" unicode="&#xde;" horiz-adv-x="1167" 
d="M420 1434l-49 -267h356q203 0 316 -94q114 -95 114 -258q0 -245 -150 -370q-148 -123 -415 -123h-371l-55 -322h-111l254 1434h111zM240 424h362q209 0 326 101q119 102 119 288q0 122 -83 187t-239 65h-373z" />
    <glyph glyph-name="germandbls" unicode="&#xdf;" horiz-adv-x="1175" 
d="M367 27l14 94q96 -39 207 -39q106 0 196 44q89 44 139 124t50 182q0 135 -103 205t-276 70q-21 0 -66 -5l17 93q125 1 226 46q98 43 156 121q56 75 56 175q0 95 -72 155t-188 60q-153 0 -254 -84t-131 -254l-178 -1014h-105l178 1014q39 216 171 324t321 108
q163 0 264 -84t101 -219q0 -142 -97 -245q-96 -102 -248 -132q159 -17 246 -101q88 -85 88 -231q0 -128 -64 -229q-65 -103 -177 -160t-252 -57q-106 0 -219 39z" />
    <glyph glyph-name="agrave" unicode="&#xe0;" horiz-adv-x="1093" 
d="M999 96l-16 -96h-59q-74 0 -112 32t-38 87l4 47q-145 -178 -401 -178q-155 0 -247 73q-93 73 -93 197q0 170 125 253t334 83h354l16 82q8 48 8 76q0 99 -71 152q-72 54 -197 54q-260 0 -342 -210h-106q45 145 161 224t297 79q165 0 265 -77q98 -76 98 -216q0 -45 -10 -99
l-80 -438q-8 -56 -8 -59q0 -66 75 -66h43zM836 504h-359q-154 0 -244 -60t-90 -178q0 -85 67 -137q66 -51 177 -51q179 0 293 96t141 250zM430 1440h119l137 -271h-82z" />
    <glyph glyph-name="aacute" unicode="&#xe1;" horiz-adv-x="1093" 
d="M999 96l-16 -96h-59q-74 0 -112 32t-38 87l4 47q-145 -178 -401 -178q-155 0 -247 73q-93 73 -93 197q0 170 125 253t334 83h354l16 82q8 48 8 76q0 99 -71 152q-72 54 -197 54q-260 0 -342 -210h-106q45 145 161 224t297 79q165 0 265 -77q98 -76 98 -216q0 -45 -10 -99
l-80 -438q-8 -56 -8 -59q0 -66 75 -66h43zM836 504h-359q-154 0 -244 -60t-90 -178q0 -85 67 -137q66 -51 177 -51q179 0 293 96t141 250zM606 1169l234 271h127l-273 -271h-88z" />
    <glyph glyph-name="acircumflex" unicode="&#xe2;" horiz-adv-x="1093" 
d="M999 96l-16 -96h-59q-74 0 -112 32t-38 87l4 47q-145 -178 -401 -178q-155 0 -247 73q-93 73 -93 197q0 170 125 253t334 83h354l16 82q8 48 8 76q0 99 -71 152q-72 54 -197 54q-260 0 -342 -210h-106q45 145 161 224t297 79q165 0 265 -77q98 -76 98 -216q0 -45 -10 -99
l-80 -438q-8 -56 -8 -59q0 -66 75 -66h43zM836 504h-359q-154 0 -244 -60t-90 -178q0 -85 67 -137q66 -51 177 -51q179 0 293 96t141 250zM684 1370l-233 -203h-117l307 273h102l213 -273h-102z" />
    <glyph glyph-name="atilde" unicode="&#xe3;" horiz-adv-x="1093" 
d="M999 96l-16 -96h-59q-74 0 -112 32t-38 87l4 47q-145 -178 -401 -178q-155 0 -247 73q-93 73 -93 197q0 170 125 253t334 83h354l16 82q8 48 8 76q0 99 -71 152q-72 54 -197 54q-260 0 -342 -210h-106q45 145 161 224t297 79q165 0 265 -77q98 -76 98 -216q0 -45 -10 -99
l-80 -438q-8 -56 -8 -59q0 -66 75 -66h43zM836 504h-359q-154 0 -244 -60t-90 -178q0 -85 67 -137q66 -51 177 -51q179 0 293 96t141 250zM641 1405q26 -18 55 -51q24 -28 37 -37q16 -12 43 -12q47 0 74 31q27 32 35 79l67 -4q-15 -90 -60 -133q-46 -45 -114 -45
q-47 0 -72 16q-29 19 -55 49q-24 28 -38 38q-19 14 -44 14q-85 0 -106 -111l-70 2q16 87 62 134q45 46 114 46q49 0 72 -16z" />
    <glyph glyph-name="adieresis" unicode="&#xe4;" horiz-adv-x="1093" 
d="M999 96l-16 -96h-59q-74 0 -112 32t-38 87l4 47q-145 -178 -401 -178q-155 0 -247 73q-93 73 -93 197q0 170 125 253t334 83h354l16 82q8 48 8 76q0 99 -71 152q-72 54 -197 54q-260 0 -342 -210h-106q45 145 161 224t297 79q165 0 265 -77q98 -76 98 -216q0 -45 -10 -99
l-80 -438q-8 -56 -8 -59q0 -66 75 -66h43zM836 504h-359q-154 0 -244 -60t-90 -178q0 -85 67 -137q66 -51 177 -51q179 0 293 96t141 250zM555 1377q18 -18 18 -44q0 -33 -22 -55q-23 -23 -55 -23q-28 0 -49 19q-19 18 -19 45q0 33 23 54q24 22 55 22t49 -18zM896 1377
q19 -18 19 -44q0 -33 -22 -55q-23 -23 -55 -23t-50 18t-18 46q0 33 23 54q24 22 55 22q28 0 48 -18z" />
    <glyph glyph-name="aring" unicode="&#xe5;" horiz-adv-x="1093" 
d="M999 96l-16 -96h-59q-74 0 -112 32t-38 87l4 47q-145 -178 -401 -178q-155 0 -247 73q-93 73 -93 197q0 170 125 253t334 83h354l16 82q8 48 8 76q0 99 -71 152q-72 54 -197 54q-260 0 -342 -210h-106q45 145 161 224t297 79q165 0 265 -77q98 -76 98 -216q0 -45 -10 -99
l-80 -438q-8 -56 -8 -59q0 -66 75 -66h43zM836 504h-359q-154 0 -244 -60t-90 -178q0 -85 67 -137q66 -51 177 -51q179 0 293 96t141 250zM518 1524q66 65 162 65t161 -65q66 -66 66 -158t-66 -158q-65 -65 -161 -65t-162 65q-67 66 -67 158t67 158zM792 1480
q-46 46 -112 46t-112 -46t-46 -114t46 -114t112 -46t112 46t46 114t-46 114z" />
    <glyph glyph-name="ae" unicode="&#xe6;" horiz-adv-x="1892" 
d="M319 972q116 79 297 79q153 0 244 -67q91 -66 98 -193q72 119 190 189q119 71 261 71q187 0 296 -108q110 -108 110 -292q0 -75 -13 -137h-844q-8 -43 -8 -86q0 -96 40 -175q40 -78 115 -125q74 -46 177 -46q130 0 225 69q96 70 148 193h106q-57 -167 -186 -262
q-128 -94 -297 -94q-159 0 -266 85q-111 88 -140 228q-45 -139 -178 -226q-134 -87 -307 -87q-161 0 -255 72q-95 72 -95 198q0 170 126 255q125 85 337 85h352l14 78q8 48 8 76q0 99 -71 152q-72 54 -197 54q-260 0 -342 -210h-106q45 145 161 224zM1134 860
q-117 -100 -157 -254h723q4 33 4 53q0 141 -83 221q-81 78 -224 78q-149 0 -263 -98zM479 510q-151 0 -243 -63q-93 -64 -93 -181q0 -85 67 -137q66 -51 177 -51q178 0 292 96q113 95 142 250l17 86h-359z" />
    <glyph glyph-name="ccedilla" unicode="&#xe7;" horiz-adv-x="1112" 
d="M741 148q96 66 140 188h106q-47 -166 -171 -255t-294 -93l-37 -88h23q74 0 115 -35t41 -96q0 -78 -59 -128q-60 -51 -142 -51h-152l11 66h129q59 0 95 30t36 76q0 76 -95 76h-86l64 152q-175 15 -279 135t-104 301q0 176 72 318q72 143 200 225t297 82q176 0 283 -95
q106 -94 110 -251h-102q-8 119 -90 186t-209 67q-137 0 -239 -71t-159 -193t-57 -262q0 -157 92 -254q92 -96 240 -96q125 0 221 66z" />
    <glyph glyph-name="egrave" unicode="&#xe8;" horiz-adv-x="1128" 
d="M943 943q110 -108 110 -292q0 -59 -13 -137h-843q-9 -36 -9 -86q0 -146 90 -247q88 -99 240 -99q132 0 227 69q96 70 148 193h104q-57 -167 -185 -262q-127 -94 -296 -94q-129 0 -227 55q-99 55 -153 156t-54 227q0 164 71 309t199 230q130 86 295 86q187 0 296 -108z
M938 606q2 24 2 53q0 142 -82 221q-81 78 -223 78q-149 0 -263 -98q-117 -100 -157 -254h723zM467 1440h119l137 -271h-82z" />
    <glyph glyph-name="eacute" unicode="&#xe9;" horiz-adv-x="1128" 
d="M943 943q110 -108 110 -292q0 -59 -13 -137h-843q-9 -36 -9 -86q0 -146 90 -247q88 -99 240 -99q132 0 227 69q96 70 148 193h104q-57 -167 -185 -262q-127 -94 -296 -94q-129 0 -227 55q-99 55 -153 156t-54 227q0 164 71 309t199 230q130 86 295 86q187 0 296 -108z
M938 606q2 24 2 53q0 142 -82 221q-81 78 -223 78q-149 0 -263 -98q-117 -100 -157 -254h723zM643 1169l234 271h127l-273 -271h-88z" />
    <glyph glyph-name="ecircumflex" unicode="&#xea;" horiz-adv-x="1128" 
d="M943 943q110 -108 110 -292q0 -59 -13 -137h-843q-9 -36 -9 -86q0 -146 90 -247q88 -99 240 -99q132 0 227 69q96 70 148 193h104q-57 -167 -185 -262q-127 -94 -296 -94q-129 0 -227 55q-99 55 -153 156t-54 227q0 164 71 309t199 230q130 86 295 86q187 0 296 -108z
M938 606q2 24 2 53q0 142 -82 221q-81 78 -223 78q-149 0 -263 -98q-117 -100 -157 -254h723zM721 1370l-234 -203h-116l307 273h102l213 -273h-102z" />
    <glyph glyph-name="edieresis" unicode="&#xeb;" horiz-adv-x="1128" 
d="M943 943q110 -108 110 -292q0 -59 -13 -137h-843q-9 -36 -9 -86q0 -146 90 -247q88 -99 240 -99q132 0 227 69q96 70 148 193h104q-57 -167 -185 -262q-127 -94 -296 -94q-129 0 -227 55q-99 55 -153 156t-54 227q0 164 71 309t199 230q130 86 295 86q187 0 296 -108z
M938 606q2 24 2 53q0 142 -82 221q-81 78 -223 78q-149 0 -263 -98q-117 -100 -157 -254h723zM592 1377q18 -18 18 -44q0 -33 -22 -55q-23 -23 -56 -23q-27 0 -48 19q-19 18 -19 45q0 33 22 54q24 22 56 22q31 0 49 -18zM933 1377q19 -18 19 -44q0 -33 -22 -55
q-23 -23 -56 -23q-31 0 -49 18t-18 46q0 33 22 54q24 22 56 22q29 0 48 -18z" />
    <glyph glyph-name="igrave" unicode="&#xec;" horiz-adv-x="348" 
d="M213 1038h104l-184 -1038h-104zM74 1440h119l137 -271h-82z" />
    <glyph glyph-name="iacute" unicode="&#xed;" horiz-adv-x="348" 
d="M213 1038h104l-184 -1038h-104zM250 1169l233 271h127l-272 -271h-88z" />
    <glyph glyph-name="icircumflex" unicode="&#xee;" horiz-adv-x="348" 
d="M213 1038h104l-184 -1038h-104zM328 1370l-234 -203h-117l308 273h102l213 -273h-102z" />
    <glyph glyph-name="idieresis" unicode="&#xef;" horiz-adv-x="348" 
d="M213 1038h104l-184 -1038h-104zM199 1377q18 -18 18 -44q0 -33 -22 -55q-23 -23 -56 -23q-27 0 -48 19q-19 18 -19 45q0 33 22 54q24 22 56 22q31 0 49 -18zM540 1377q19 -18 19 -44q0 -33 -22 -55q-23 -23 -56 -23q-31 0 -49 18t-18 46q0 33 22 54q24 22 56 22
q28 0 48 -18z" />
    <glyph glyph-name="eth" unicode="&#xf0;" horiz-adv-x="1183" 
d="M854 1235q110 -123 170 -272q61 -150 61 -328q0 -179 -69 -326t-200 -234q-130 -87 -302 -87q-132 0 -231 49q-101 50 -156 139t-55 205q0 161 73 291t202 206q126 74 286 74q119 0 207 -49q89 -50 135 -125q-37 225 -207 408l-274 -160l-35 72l250 145q-76 71 -191 139
l66 62q121 -65 211 -152l274 160l35 -74zM744 143q106 63 166 172q61 110 61 240q0 140 -98 226q-97 85 -240 85q-126 0 -230 -61t-164 -169q-61 -110 -61 -239q0 -141 91 -229t241 -88q129 0 234 63z" />
    <glyph glyph-name="ntilde" unicode="&#xf1;" horiz-adv-x="1107" 
d="M929 964q93 -87 93 -257q0 -55 -14 -132l-101 -575h-104l100 571q12 78 12 127q0 125 -65 190q-66 66 -188 66q-169 0 -285 -120q-117 -121 -154 -326l-90 -508h-104l184 1038h90l-20 -215q63 105 163 166q101 62 234 62q156 0 249 -87zM702 1405q29 -20 56 -51
q24 -28 37 -37q17 -12 43 -12q46 0 73 31q27 32 35 79l68 -4q-15 -88 -61 -133q-47 -45 -113 -45q-48 0 -73 16q-26 17 -54 49q-24 28 -38 38q-19 14 -44 14q-86 0 -107 -111l-69 2q16 88 61 134t115 46q48 0 71 -16z" />
    <glyph glyph-name="ograve" unicode="&#xf2;" horiz-adv-x="1173" 
d="M287 43q-99 56 -152 155q-53 100 -53 226q0 172 74 317t205 227q133 83 298 83q129 0 227 -56q99 -56 150 -153q54 -102 54 -226q0 -173 -74 -318q-74 -144 -206 -227q-133 -83 -298 -83q-127 0 -225 55zM760 155q105 71 166 194q59 119 59 261q0 155 -92 252
q-91 96 -238 96q-135 0 -241 -72q-105 -71 -166 -195q-60 -121 -60 -263q0 -153 92 -250q92 -96 238 -96q134 0 242 73zM485 1440h119l137 -271h-82z" />
    <glyph glyph-name="oacute" unicode="&#xf3;" horiz-adv-x="1173" 
d="M287 43q-99 56 -152 155q-53 100 -53 226q0 172 74 317t205 227q133 83 298 83q129 0 227 -56q99 -56 150 -153q54 -102 54 -226q0 -173 -74 -318q-74 -144 -206 -227q-133 -83 -298 -83q-127 0 -225 55zM760 155q105 71 166 194q59 119 59 261q0 155 -92 252
q-91 96 -238 96q-135 0 -241 -72q-105 -71 -166 -195q-60 -121 -60 -263q0 -153 92 -250q92 -96 238 -96q134 0 242 73zM662 1169l233 271h127l-272 -271h-88z" />
    <glyph glyph-name="ocircumflex" unicode="&#xf4;" horiz-adv-x="1173" 
d="M287 43q-99 56 -152 155q-53 100 -53 226q0 172 74 317t205 227q133 83 298 83q129 0 227 -56q99 -56 150 -153q54 -102 54 -226q0 -173 -74 -318q-74 -144 -206 -227q-133 -83 -298 -83q-127 0 -225 55zM760 155q105 71 166 194q59 119 59 261q0 155 -92 252
q-91 96 -238 96q-135 0 -241 -72q-105 -71 -166 -195q-60 -121 -60 -263q0 -153 92 -250q92 -96 238 -96q134 0 242 73zM739 1370l-233 -203h-117l307 273h103l213 -273h-103z" />
    <glyph glyph-name="otilde" unicode="&#xf5;" horiz-adv-x="1173" 
d="M287 43q-99 56 -152 155q-53 100 -53 226q0 172 74 317t205 227q133 83 298 83q129 0 227 -56q99 -56 150 -153q54 -102 54 -226q0 -173 -74 -318q-74 -144 -206 -227q-133 -83 -298 -83q-127 0 -225 55zM760 155q105 71 166 194q59 119 59 261q0 155 -92 252
q-91 96 -238 96q-135 0 -241 -72q-105 -71 -166 -195q-60 -121 -60 -263q0 -153 92 -250q92 -96 238 -96q134 0 242 73zM696 1405q29 -20 56 -51q26 -30 36 -37q16 -12 43 -12q47 0 74 31q27 32 35 79l68 -4q-15 -88 -61 -133q-47 -45 -113 -45q-48 0 -73 16q-26 17 -54 49
q-24 28 -38 38q-19 14 -44 14q-86 0 -107 -111l-69 2q16 88 61 134t115 46q48 0 71 -16z" />
    <glyph glyph-name="odieresis" unicode="&#xf6;" horiz-adv-x="1173" 
d="M287 43q-99 56 -152 155q-53 100 -53 226q0 172 74 317t205 227q133 83 298 83q129 0 227 -56q99 -56 150 -153q54 -102 54 -226q0 -173 -74 -318q-74 -144 -206 -227q-133 -83 -298 -83q-127 0 -225 55zM760 155q105 71 166 194q59 119 59 261q0 155 -92 252
q-91 96 -238 96q-135 0 -241 -72q-105 -71 -166 -195q-60 -121 -60 -263q0 -153 92 -250q92 -96 238 -96q134 0 242 73zM610 1377q19 -19 19 -44q0 -32 -23 -55t-55 -23q-27 0 -48 19q-20 18 -20 45q0 33 23 54q24 22 55 22t49 -18zM951 1377q20 -18 20 -44q0 -32 -23 -55
t-55 -23q-31 0 -49 18q-19 19 -19 46q0 33 23 54q24 22 55 22q29 0 48 -18z" />
    <glyph glyph-name="divide" unicode="&#xf7;" horiz-adv-x="1083" 
d="M692 1009q19 -19 19 -46q0 -37 -27 -63q-28 -26 -63 -26q-29 2 -48 21q-18 18 -18 47q0 35 27 59q28 25 61 25q32 0 49 -17zM164 545l16 88h811l-16 -88h-811zM561 284q19 -19 19 -46q0 -38 -27 -63q-26 -25 -64 -25q-29 2 -47 20t-18 47q0 35 27 59q28 25 61 25
q32 0 49 -17z" />
    <glyph glyph-name="oslash" unicode="&#xf8;" horiz-adv-x="1177" 
d="M1026 858q64 -107 64 -242q0 -173 -74 -318q-74 -144 -206 -227q-133 -83 -298 -83q-98 0 -177 32q-81 33 -138 93l-140 -125l-51 61l141 127q-65 105 -65 248q0 172 74 317t205 227q133 83 298 83q99 0 180 -33q82 -33 138 -94l141 127l53 -62zM229 250l672 604
q-46 50 -108 77q-63 27 -138 27q-135 0 -241 -72q-105 -71 -166 -195q-60 -121 -60 -263q0 -99 41 -178zM946 786l-672 -604q90 -100 244 -100q134 0 242 73q105 71 166 194q59 119 59 261q0 94 -39 176z" />
    <glyph glyph-name="ugrave" unicode="&#xf9;" horiz-adv-x="1093" 
d="M1063 1038l-184 -1038h-91l21 213q-67 -106 -164 -165q-99 -60 -227 -60q-152 0 -242 84t-90 247q0 69 14 142l103 577h104l-102 -577q-12 -83 -12 -129q0 -123 62 -185q63 -63 183 -63q162 0 279 122q117 121 151 326l90 506h105zM434 1440h119l137 -271h-82z" />
    <glyph glyph-name="uacute" unicode="&#xfa;" horiz-adv-x="1093" 
d="M1063 1038l-184 -1038h-91l21 213q-67 -106 -164 -165q-99 -60 -227 -60q-152 0 -242 84t-90 247q0 69 14 142l103 577h104l-102 -577q-12 -83 -12 -129q0 -123 62 -185q63 -63 183 -63q162 0 279 122q117 121 151 326l90 506h105zM610 1169l234 271h127l-273 -271h-88z
" />
    <glyph glyph-name="ucircumflex" unicode="&#xfb;" horiz-adv-x="1093" 
d="M1063 1038l-184 -1038h-91l21 213q-67 -106 -164 -165q-99 -60 -227 -60q-152 0 -242 84t-90 247q0 69 14 142l103 577h104l-102 -577q-12 -83 -12 -129q0 -123 62 -185q63 -63 183 -63q162 0 279 122q117 121 151 326l90 506h105zM688 1370l-233 -203h-117l307 273h103
l213 -273h-103z" />
    <glyph glyph-name="udieresis" unicode="&#xfc;" horiz-adv-x="1093" 
d="M1063 1038l-184 -1038h-91l21 213q-67 -106 -164 -165q-99 -60 -227 -60q-152 0 -242 84t-90 247q0 69 14 142l103 577h104l-102 -577q-12 -83 -12 -129q0 -123 62 -185q63 -63 183 -63q162 0 279 122q117 121 151 326l90 506h105zM559 1377q19 -19 19 -44q0 -32 -23 -55
t-55 -23q-27 0 -48 19q-20 18 -20 45q0 33 23 54q24 22 55 22t49 -18zM900 1377q20 -18 20 -44q0 -32 -23 -55t-55 -23q-31 0 -49 18q-19 19 -19 46q0 33 23 54q24 22 55 22q28 0 48 -18z" />
    <glyph glyph-name="yacute" unicode="&#xfd;" horiz-adv-x="976" 
d="M219 1038l199 -915l518 915h113l-713 -1235q-49 -86 -86 -133q-34 -42 -77 -61q-44 -19 -112 -19h-161l16 97h125q57 0 87 13q33 14 56 43q30 38 64 95l90 158l-227 1042h108zM559 1169l234 271h127l-273 -271h-88z" />
    <glyph glyph-name="thorn" unicode="&#xfe;" horiz-adv-x="1193" 
d="M910 994q97 -58 148 -155q52 -98 52 -225q0 -172 -74 -317q-73 -144 -202 -226q-130 -83 -287 -83q-149 0 -247 69q-97 69 -126 185l-113 -652h-104l326 1844h104l-106 -613q67 102 175 167q105 63 236 63q124 0 218 -57zM781 156q106 74 164 193q59 121 59 249
q0 166 -90 264q-88 96 -238 96q-137 0 -241 -74q-106 -76 -164 -195t-58 -249q0 -169 88 -263q89 -95 238 -95q136 0 242 74z" />
    <glyph glyph-name="ydieresis" unicode="&#xff;" horiz-adv-x="976" 
d="M219 1038l199 -915l518 915h113l-713 -1235q-49 -86 -86 -133q-34 -42 -77 -61q-44 -19 -112 -19h-161l16 97h125q57 0 87 13q33 14 56 43q30 38 64 95l90 158l-227 1042h108zM508 1377q18 -18 18 -44q0 -33 -22 -55q-23 -23 -55 -23q-28 0 -49 19q-19 18 -19 45
q0 33 22 54q24 22 56 22q31 0 49 -18zM849 1377q19 -18 19 -44q0 -33 -22 -55q-23 -23 -55 -23t-50 18t-18 46q0 33 22 54q24 22 56 22q29 0 48 -18z" />
    <glyph glyph-name="Amacron" unicode="&#x100;" horiz-adv-x="1292" 
d="M1059 0l-90 438h-664l-244 -438h-122l804 1434h131l295 -1434h-110zM360 541h588l-155 770zM598 1683l14 80h525l-15 -80h-524z" />
    <glyph glyph-name="amacron" unicode="&#x101;" horiz-adv-x="1093" 
d="M999 96l-16 -96h-59q-74 0 -112 32t-38 87l4 47q-145 -178 -401 -178q-155 0 -247 73q-93 73 -93 197q0 170 125 253t334 83h354l16 82q8 48 8 76q0 99 -71 152q-72 54 -197 54q-260 0 -342 -210h-106q45 145 161 224t297 79q165 0 265 -77q98 -76 98 -216q0 -45 -10 -99
l-80 -438q-8 -56 -8 -59q0 -66 75 -66h43zM836 504h-359q-154 0 -244 -60t-90 -178q0 -85 67 -137q66 -51 177 -51q179 0 293 96t141 250zM406 1288l14 80h524l-14 -80h-524z" />
    <glyph glyph-name="Abreve" unicode="&#x102;" horiz-adv-x="1292" 
d="M1059 0l-90 438h-664l-244 -438h-122l804 1434h131l295 -1434h-110zM360 541h588l-155 770zM713 1835q0 -81 41 -130q40 -48 112 -48q75 0 128 50q52 49 69 128h82q-22 -121 -99 -190q-78 -70 -186 -70q-112 0 -172 71q-59 69 -59 189h84z" />
    <glyph glyph-name="abreve" unicode="&#x103;" horiz-adv-x="1093" 
d="M999 96l-16 -96h-59q-74 0 -112 32t-38 87l4 47q-145 -178 -401 -178q-155 0 -247 73q-93 73 -93 197q0 170 125 253t334 83h354l16 82q8 48 8 76q0 99 -71 152q-72 54 -197 54q-260 0 -342 -210h-106q45 145 161 224t297 79q165 0 265 -77q98 -76 98 -216q0 -45 -10 -99
l-80 -438q-8 -56 -8 -59q0 -66 75 -66h43zM836 504h-359q-154 0 -244 -60t-90 -178q0 -85 67 -137q66 -51 177 -51q179 0 293 96t141 250zM520 1440q0 -81 41 -130q40 -48 113 -48q75 0 128 50q51 48 68 128h82q-23 -122 -99 -191q-77 -69 -185 -69q-112 0 -172 70
q-60 71 -60 190h84z" />
    <glyph glyph-name="Aogonek" unicode="&#x104;" horiz-adv-x="1292" 
d="M930 -312q23 -20 74 -20h122l-12 -78h-135q-77 0 -120 36q-44 36 -44 100q0 78 61 144q60 64 181 142l-88 426h-664l-244 -438h-122l804 1434h131l295 -1434q-130 -78 -194 -135q-68 -60 -68 -119q0 -38 23 -58zM360 541h588l-155 770z" />
    <glyph glyph-name="aogonek" unicode="&#x105;" horiz-adv-x="1093" 
d="M788 -135q-67 -60 -67 -119q0 -39 22 -58q23 -20 74 -20h123l-12 -78h-135q-77 0 -120 36q-44 36 -44 100q0 79 58 141q58 63 175 139q-88 24 -88 113l4 47q-145 -178 -401 -178q-155 0 -247 73q-93 73 -93 197q0 170 125 253t334 83h354l16 82q8 48 8 76q0 99 -71 152
q-72 54 -197 54q-260 0 -342 -210h-106q45 145 161 224t297 79q165 0 265 -77q98 -76 98 -216q0 -45 -10 -99l-80 -438q-8 -56 -8 -59q0 -66 75 -66h43l-16 -96q-133 -80 -195 -135zM836 504h-359q-154 0 -244 -60t-90 -178q0 -85 67 -137q66 -51 177 -51q179 0 293 96
t141 250z" />
    <glyph glyph-name="Cacute" unicode="&#x106;" horiz-adv-x="1423" 
d="M387 63q-131 78 -199 211q-69 135 -69 306q0 237 97 434t277 315q179 117 410 117q226 0 358 -120t140 -335h-109q-15 170 -121 261t-280 91q-197 0 -346 -104q-150 -105 -231 -280t-81 -379q0 -141 56 -253t158 -174q103 -63 243 -63q190 0 314 88q123 87 200 264h113
q-169 -454 -629 -454q-175 0 -301 75zM899 1565l234 270h127l-273 -270h-88z" />
    <glyph glyph-name="cacute" unicode="&#x107;" horiz-adv-x="1112" 
d="M811 78q-129 -90 -301 -90q-128 0 -224 56q-99 58 -151 157q-53 101 -53 225q0 176 72 318q72 143 200 225t297 82q176 0 283 -95q106 -94 110 -251h-102q-8 119 -90 186t-209 67q-137 0 -239 -71t-159 -193t-57 -262q0 -157 92 -254q92 -96 240 -96q125 0 221 66
t140 188h106q-46 -168 -176 -258zM662 1169l233 271h127l-272 -271h-88z" />
    <glyph glyph-name="Ccircumflex" unicode="&#x108;" horiz-adv-x="1423" 
d="M387 63q-131 78 -199 211q-69 135 -69 306q0 237 97 434t277 315q179 117 410 117q226 0 358 -120t140 -335h-109q-15 170 -121 261t-280 91q-197 0 -346 -104q-150 -105 -231 -280t-81 -379q0 -141 56 -253t158 -174q103 -63 243 -63q190 0 314 88q123 87 200 264h113
q-169 -454 -629 -454q-175 0 -301 75zM977 1765l-234 -202h-116l307 272h102l213 -272h-102z" />
    <glyph glyph-name="ccircumflex" unicode="&#x109;" horiz-adv-x="1112" 
d="M811 78q-129 -90 -301 -90q-128 0 -224 56q-99 58 -151 157q-53 101 -53 225q0 176 72 318q72 143 200 225t297 82q176 0 283 -95q106 -94 110 -251h-102q-8 119 -90 186t-209 67q-137 0 -239 -71t-159 -193t-57 -262q0 -157 92 -254q92 -96 240 -96q125 0 221 66
t140 188h106q-46 -168 -176 -258zM739 1370l-233 -203h-117l307 273h103l213 -273h-103z" />
    <glyph glyph-name="Cdotaccent" unicode="&#x10a;" horiz-adv-x="1423" 
d="M387 63q-131 78 -199 211q-69 135 -69 306q0 237 97 434t277 315q179 117 410 117q226 0 358 -120t140 -335h-109q-15 170 -121 261t-280 91q-197 0 -346 -104q-150 -105 -231 -280t-81 -379q0 -141 56 -253t158 -174q103 -63 243 -63q190 0 314 88q123 87 200 264h113
q-169 -454 -629 -454q-175 0 -301 75zM1025 1797q19 -18 19 -44q0 -35 -23 -57q-25 -23 -54 -23q-30 0 -49 19t-19 45q0 34 22 56t56 22q29 0 48 -18z" />
    <glyph glyph-name="cdotaccent" unicode="&#x10b;" horiz-adv-x="1112" 
d="M811 78q-129 -90 -301 -90q-128 0 -224 56q-99 58 -151 157q-53 101 -53 225q0 176 72 318q72 143 200 225t297 82q176 0 283 -95q106 -94 110 -251h-102q-8 119 -90 186t-209 67q-137 0 -239 -71t-159 -193t-57 -262q0 -157 92 -254q92 -96 240 -96q125 0 221 66
t140 188h106q-46 -168 -176 -258zM787 1402q20 -18 20 -44q0 -36 -24 -58q-23 -22 -54 -22t-49 18t-18 45q0 36 21 57t56 21q30 0 48 -17z" />
    <glyph glyph-name="Ccaron" unicode="&#x10c;" horiz-adv-x="1423" 
d="M387 63q-131 78 -199 211q-69 135 -69 306q0 237 97 434t277 315q179 117 410 117q226 0 358 -120t140 -335h-109q-15 170 -121 261t-280 91q-197 0 -346 -104q-150 -105 -231 -280t-81 -379q0 -141 56 -253t158 -174q103 -63 243 -63q190 0 314 88q123 87 200 264h113
q-169 -454 -629 -454q-175 0 -301 75zM948 1634l246 201h106l-309 -272h-100l-213 272h100z" />
    <glyph glyph-name="ccaron" unicode="&#x10d;" horiz-adv-x="1112" 
d="M811 78q-129 -90 -301 -90q-128 0 -224 56q-99 58 -151 157q-53 101 -53 225q0 176 72 318q72 143 200 225t297 82q176 0 283 -95q106 -94 110 -251h-102q-8 119 -90 186t-209 67q-137 0 -239 -71t-159 -193t-57 -262q0 -157 92 -254q92 -96 240 -96q125 0 221 66
t140 188h106q-46 -168 -176 -258zM711 1239l245 201h107l-309 -273h-101l-213 273h101z" />
    <glyph glyph-name="Dcaron" unicode="&#x10e;" horiz-adv-x="1347" 
d="M309 1434h346q198 0 343 -74t222 -208q76 -133 76 -310q0 -246 -105 -438q-104 -191 -299 -298q-193 -106 -450 -106h-387zM453 102q217 0 385 94q165 92 256 260q90 166 90 382q0 238 -141 365q-142 128 -394 128h-250l-215 -1229h269zM799 1634l245 201h107l-309 -272
h-101l-213 272h101z" />
    <glyph glyph-name="dcaron" unicode="&#x10f;" horiz-adv-x="1302" 
d="M1233 1434l-254 -1434h-90l18 209q-68 -102 -172 -162q-103 -59 -235 -59q-126 0 -220 55q-96 56 -148 155q-52 98 -52 224q0 173 74 318q75 147 202 228q130 83 289 83q151 0 249 -72t122 -186l112 641h105zM757 157q106 76 164 193t58 250q0 167 -88 262
q-89 96 -238 96q-138 0 -242 -73q-105 -74 -164 -194q-59 -121 -59 -249q0 -169 88 -264q88 -96 238 -96q138 0 243 75zM1421 1434h101l-160 -297h-80z" />
    <glyph glyph-name="Dcroat" unicode="&#x110;" horiz-adv-x="1380" 
d="M1031 1360q144 -73 221 -208q77 -134 77 -310q0 -246 -105 -438q-104 -191 -299 -298q-193 -106 -450 -106h-387l121 684h-184l16 94h184l117 656h346q198 0 343 -74zM870 196q165 92 256 260t91 382q0 238 -141 365q-142 128 -394 128h-250l-96 -553h321l-16 -94h-322
l-102 -582h268q217 0 385 94z" />
    <glyph glyph-name="dcroat" unicode="&#x111;" horiz-adv-x="1222" 
d="M1378 1192h-188l-211 -1192h-90l18 209q-68 -102 -172 -162q-103 -59 -235 -59q-126 0 -220 55q-96 56 -148 155q-52 98 -52 224q0 173 74 318q75 147 202 228q130 83 289 83q151 0 249 -72t122 -186l69 399h-294l14 90h297l26 152h105l-27 -152h189zM757 157
q106 76 164 193t58 250q0 167 -88 262q-89 96 -238 96q-138 0 -242 -73q-105 -74 -164 -194q-59 -121 -59 -249q0 -169 88 -264q88 -96 238 -96q138 0 243 75z" />
    <glyph glyph-name="Emacron" unicode="&#x112;" horiz-adv-x="1107" 
d="M307 1434h871l-19 -103h-760l-96 -547h637l-18 -102h-635l-105 -580h789l-19 -102h-897zM508 1683l14 80h525l-15 -80h-524z" />
    <glyph glyph-name="emacron" unicode="&#x113;" horiz-adv-x="1128" 
d="M943 943q110 -108 110 -292q0 -59 -13 -137h-843q-9 -36 -9 -86q0 -146 90 -247q88 -99 240 -99q132 0 227 69q96 70 148 193h104q-57 -167 -185 -262q-127 -94 -296 -94q-129 0 -227 55q-99 55 -153 156t-54 227q0 164 71 309t199 230q130 86 295 86q187 0 296 -108z
M938 606q2 24 2 53q0 142 -82 221q-81 78 -223 78q-149 0 -263 -98q-117 -100 -157 -254h723zM442 1288l15 80h524l-14 -80h-525z" />
    <glyph glyph-name="Ebreve" unicode="&#x114;" horiz-adv-x="1107" 
d="M307 1434h871l-19 -103h-760l-96 -547h637l-18 -102h-635l-105 -580h789l-19 -102h-897zM623 1835q0 -81 41 -130q41 -48 112 -48q75 0 128 50q52 49 69 128h82q-22 -120 -100 -190t-185 -70q-112 0 -172 71q-59 69 -59 189h84z" />
    <glyph glyph-name="ebreve" unicode="&#x115;" horiz-adv-x="1128" 
d="M943 943q110 -108 110 -292q0 -59 -13 -137h-843q-9 -36 -9 -86q0 -146 90 -247q88 -99 240 -99q132 0 227 69q96 70 148 193h104q-57 -167 -185 -262q-127 -94 -296 -94q-129 0 -227 55q-99 55 -153 156t-54 227q0 164 71 309t199 230q130 86 295 86q187 0 296 -108z
M938 606q2 24 2 53q0 142 -82 221q-81 78 -223 78q-149 0 -263 -98q-117 -100 -157 -254h723zM557 1440q0 -81 41 -130q40 -48 113 -48q75 0 128 50q51 48 68 128h82q-23 -122 -99 -191t-185 -69q-113 0 -173 70q-59 69 -59 190h84z" />
    <glyph glyph-name="Edotaccent" unicode="&#x116;" horiz-adv-x="1107" 
d="M307 1434h871l-19 -103h-760l-96 -547h637l-18 -102h-635l-105 -580h789l-19 -102h-897zM835 1797q19 -18 19 -44q0 -35 -24 -57q-25 -23 -54 -23q-30 0 -49 19q-18 18 -18 45q0 35 21 56q22 22 56 22q30 0 49 -18z" />
    <glyph glyph-name="edotaccent" unicode="&#x117;" horiz-adv-x="1128" 
d="M943 943q110 -108 110 -292q0 -59 -13 -137h-843q-9 -36 -9 -86q0 -146 90 -247q88 -99 240 -99q132 0 227 69q96 70 148 193h104q-57 -167 -185 -262q-127 -94 -296 -94q-129 0 -227 55q-99 55 -153 156t-54 227q0 164 71 309t199 230q130 86 295 86q187 0 296 -108z
M938 606q2 24 2 53q0 142 -82 221q-81 78 -223 78q-149 0 -263 -98q-117 -100 -157 -254h723zM769 1402q19 -18 19 -44q0 -36 -23 -58t-54 -22t-49 18q-19 19 -19 45q0 35 22 57q21 21 56 21q30 0 48 -17z" />
    <glyph glyph-name="Eogonek" unicode="&#x118;" horiz-adv-x="1107" 
d="M399 1331l-96 -547h637l-18 -102h-635l-105 -580h789l-19 -102h2q-130 -78 -194 -135q-68 -60 -68 -119q0 -38 23 -58t73 -20h123l-12 -78h-135q-76 0 -120 36t-44 100q0 79 56 138q58 61 167 136h-768l252 1434h871l-19 -103h-760z" />
    <glyph glyph-name="eogonek" unicode="&#x119;" horiz-adv-x="1128" 
d="M943 943q110 -108 110 -292q0 -59 -13 -137h-843q-9 -36 -9 -86q0 -96 39 -175q38 -78 113 -125q73 -46 174 -46q136 0 230 69q98 71 149 193h104q-60 -177 -211 -278q-124 -84 -213 -171q-88 -87 -88 -149q0 -78 99 -78h123l-13 -78h-137q-77 0 -120 36q-44 36 -44 100
q0 114 211 276q-46 -14 -88 -14q-129 0 -227 55q-99 55 -153 156t-54 227q0 164 71 309t199 230q130 86 295 86q187 0 296 -108zM372 860q-117 -100 -157 -254h723q2 24 2 53q0 142 -82 221q-81 78 -223 78q-149 0 -263 -98z" />
    <glyph glyph-name="Ecaron" unicode="&#x11a;" horiz-adv-x="1107" 
d="M307 1434h871l-19 -103h-760l-96 -547h637l-18 -102h-635l-105 -580h789l-19 -102h-897zM758 1634l246 201h106l-309 -272h-101l-213 272h101z" />
    <glyph glyph-name="ecaron" unicode="&#x11b;" horiz-adv-x="1128" 
d="M943 943q110 -108 110 -292q0 -59 -13 -137h-843q-9 -36 -9 -86q0 -146 90 -247q88 -99 240 -99q132 0 227 69q96 70 148 193h104q-57 -167 -185 -262q-127 -94 -296 -94q-129 0 -227 55q-99 55 -153 156t-54 227q0 164 71 309t199 230q130 86 295 86q187 0 296 -108z
M938 606q2 24 2 53q0 142 -82 221q-81 78 -223 78q-149 0 -263 -98q-117 -100 -157 -254h723zM692 1239l246 201h106l-309 -273h-100l-213 273h100z" />
    <glyph glyph-name="Gcircumflex" unicode="&#x11c;" horiz-adv-x="1507" 
d="M1270 1326q140 -120 147 -333h-106q-18 170 -128 260q-109 90 -288 90q-197 0 -347 -105t-233 -281q-82 -174 -82 -379q0 -138 59 -250q58 -111 164 -174q107 -64 240 -64q155 0 276 65q120 64 193 175q76 114 99 252l10 63h-467l16 103h578l-133 -748h-94l43 305
q-68 -138 -198 -228q-128 -89 -325 -89q-172 0 -300 75q-132 77 -203 211q-72 135 -72 304q0 237 97 434t276 316q178 118 409 118q229 0 369 -120zM969 1765l-234 -202h-117l308 272h102l213 -272h-102z" />
    <glyph glyph-name="gcircumflex" unicode="&#x11d;" horiz-adv-x="1193" 
d="M1163 1038l-174 -977q-43 -247 -176 -365t-379 -118q-203 0 -311 90q-109 91 -109 246h105q4 -116 90 -179q85 -63 229 -63q191 0 303 97t146 303l26 153q-68 -109 -175 -173t-240 -64q-125 0 -218 56q-97 58 -148 155q-52 98 -52 225q0 172 74 317t202 227
q130 83 287 83q149 0 243 -66q96 -67 126 -174l59 227h92zM757 157q107 77 163 194q57 120 57 251q0 168 -88 262t-238 94q-135 0 -241 -73q-107 -74 -164 -193q-58 -121 -58 -252q0 -167 88 -262q88 -96 238 -96q138 0 243 75zM727 1370l-233 -203h-117l307 273h102
l213 -273h-102z" />
    <glyph glyph-name="Gbreve" unicode="&#x11e;" horiz-adv-x="1507" 
d="M1270 1326q140 -120 147 -333h-106q-18 170 -128 260q-109 90 -288 90q-197 0 -347 -105t-233 -281q-82 -174 -82 -379q0 -138 59 -250q58 -111 164 -174q107 -64 240 -64q155 0 276 65q120 64 193 175q76 114 99 252l10 63h-467l16 103h578l-133 -748h-94l43 305
q-68 -138 -198 -228q-128 -89 -325 -89q-172 0 -300 75q-132 77 -203 211q-72 135 -72 304q0 237 97 434t276 316q178 118 409 118q229 0 369 -120zM805 1835q0 -81 41 -130q40 -48 112 -48q75 0 128 50q52 49 69 128h82q-22 -121 -99 -190q-78 -70 -186 -70q-112 0 -172 71
q-59 69 -59 189h84z" />
    <glyph glyph-name="gbreve" unicode="&#x11f;" horiz-adv-x="1193" 
d="M1163 1038l-174 -977q-43 -247 -176 -365t-379 -118q-203 0 -311 90q-109 91 -109 246h105q4 -116 90 -179q85 -63 229 -63q191 0 303 97t146 303l26 153q-68 -109 -175 -173t-240 -64q-125 0 -218 56q-97 58 -148 155q-52 98 -52 225q0 172 74 317t202 227
q130 83 287 83q149 0 243 -66q96 -67 126 -174l59 227h92zM757 157q107 77 163 194q57 120 57 251q0 168 -88 262t-238 94q-135 0 -241 -73q-107 -74 -164 -193q-58 -121 -58 -252q0 -167 88 -262q88 -96 238 -96q138 0 243 75zM563 1440q0 -81 41 -130q40 -48 113 -48
q75 0 128 50q51 48 68 128h82q-23 -122 -99 -191t-185 -69q-112 0 -172 70q-60 71 -60 190h84z" />
    <glyph glyph-name="Gdotaccent" unicode="&#x120;" horiz-adv-x="1507" 
d="M1270 1326q140 -120 147 -333h-106q-18 170 -128 260q-109 90 -288 90q-197 0 -347 -105t-233 -281q-82 -174 -82 -379q0 -138 59 -250q58 -111 164 -174q107 -64 240 -64q155 0 276 65q120 64 193 175q76 114 99 252l10 63h-467l16 103h578l-133 -748h-94l43 305
q-68 -138 -198 -228q-128 -89 -325 -89q-172 0 -300 75q-132 77 -203 211q-72 135 -72 304q0 237 97 434t276 316q178 118 409 118q229 0 369 -120zM1017 1797q19 -18 19 -44q0 -35 -23 -57q-25 -23 -55 -23t-49 19q-18 18 -18 45q0 35 21 56q22 22 57 22q29 0 48 -18z" />
    <glyph glyph-name="gdotaccent" unicode="&#x121;" horiz-adv-x="1193" 
d="M1163 1038l-174 -977q-43 -247 -176 -365t-379 -118q-203 0 -311 90q-109 91 -109 246h105q4 -116 90 -179q85 -63 229 -63q191 0 303 97t146 303l26 153q-68 -109 -175 -173t-240 -64q-125 0 -218 56q-97 58 -148 155q-52 98 -52 225q0 172 74 317t202 227
q130 83 287 83q149 0 243 -66q96 -67 126 -174l59 227h92zM757 157q107 77 163 194q57 120 57 251q0 168 -88 262t-238 94q-135 0 -241 -73q-107 -74 -164 -193q-58 -121 -58 -252q0 -167 88 -262q88 -96 238 -96q138 0 243 75zM775 1402q20 -18 20 -44q0 -36 -24 -58
q-23 -22 -54 -22t-49 18q-19 19 -19 45q0 35 22 57q21 21 56 21q30 0 48 -17z" />
    <glyph glyph-name="Gcommaaccent" unicode="&#x122;" horiz-adv-x="1507" 
d="M1270 1326q140 -120 147 -333h-106q-18 170 -128 260q-109 90 -288 90q-197 0 -347 -105t-233 -281q-82 -174 -82 -379q0 -138 59 -250q58 -111 164 -174q107 -64 240 -64q155 0 276 65q120 64 193 175q76 114 99 252l10 63h-467l16 103h578l-133 -748h-94l43 305
q-68 -138 -198 -228q-128 -89 -325 -89q-172 0 -300 75q-132 77 -203 211q-72 135 -72 304q0 237 97 434t276 316q178 118 409 118q229 0 369 -120zM584 -109h106l-172 -288h-80z" />
    <glyph glyph-name="gcommaaccent" unicode="&#x123;" horiz-adv-x="1193" 
d="M1163 1038l-174 -977q-43 -247 -176 -365t-379 -118q-203 0 -311 90q-109 91 -109 246h105q4 -116 90 -179q85 -63 229 -63q191 0 303 97t146 303l26 153q-68 -109 -175 -173t-240 -64q-125 0 -218 56q-97 58 -148 155q-52 98 -52 225q0 172 74 317t202 227
q130 83 287 83q149 0 243 -66q96 -67 126 -174l59 227h92zM757 157q107 77 163 194q57 120 57 251q0 168 -88 262t-238 94q-135 0 -241 -73q-107 -74 -164 -193q-58 -121 -58 -252q0 -167 88 -262q88 -96 238 -96q138 0 243 75zM721 1151h-105l168 289h84z" />
    <glyph glyph-name="Hcircumflex" unicode="&#x124;" horiz-adv-x="1331" 
d="M309 1436h111l-117 -654h817l115 654h111l-254 -1436h-111l121 680h-815l-121 -680h-111zM889 1765l-234 -202h-116l307 272h102l213 -272h-102z" />
    <glyph glyph-name="hcircumflex" unicode="&#x125;" horiz-adv-x="1107" 
d="M929 964q93 -87 93 -257q0 -55 -14 -132l-101 -575h-104l100 571q12 78 12 127q0 125 -65 190q-66 66 -188 66q-167 0 -284 -120t-155 -326l-90 -508h-104l254 1434h104l-111 -631q66 116 167 182q102 66 237 66q156 0 249 -87zM393 1745l-233 -203h-117l307 273h103
l213 -273h-103z" />
    <glyph glyph-name="Hbar" unicode="&#x126;" horiz-adv-x="1361" 
d="M1477 1149l-17 -94h-160l-186 -1055h-110l116 664h-829l-117 -664h-111l187 1055h-160l16 94h160l51 287h111l-51 -287h829l51 287h111l-51 -287h160zM1139 766l51 289h-830l-51 -289h830z" />
    <glyph glyph-name="hbar" unicode="&#x127;" horiz-adv-x="1128" 
d="M947 964q93 -87 93 -257q0 -55 -14 -132l-100 -575h-105l101 571q12 78 12 127q0 124 -66 190t-188 66q-167 0 -284 -120q-116 -119 -154 -326l-90 -508h-105l211 1192h-180l16 90h180l27 152h105l-27 -152h303l-16 -90h-304l-67 -389q66 116 167 182q102 66 236 66
q156 0 249 -87z" />
    <glyph glyph-name="Itilde" unicode="&#x128;" horiz-adv-x="405" 
d="M309 1434h111l-254 -1434h-111zM381 1800q26 -18 55 -51q24 -28 37 -37q17 -12 43 -12q47 0 74 32q28 32 35 78l67 -4q-15 -90 -60 -133q-46 -45 -114 -45q-47 0 -73 17t-54 49q-24 28 -38 38q-17 13 -44 13q-85 0 -106 -111l-70 2q16 87 62 134q45 47 114 47
q47 0 72 -17z" />
    <glyph glyph-name="itilde" unicode="&#x129;" horiz-adv-x="348" 
d="M213 1038h104l-184 -1038h-104zM285 1405q26 -18 55 -51q24 -28 37 -37q17 -12 43 -12q47 0 74 31q26 31 34 79l68 -4q-15 -90 -60 -133q-46 -45 -114 -45q-48 0 -73 16q-26 17 -54 49q-24 28 -38 38q-19 14 -44 14q-86 0 -107 -111l-69 2q16 88 61 134t115 46
q49 0 72 -16z" />
    <glyph glyph-name="Imacron" unicode="&#x12a;" horiz-adv-x="405" 
d="M309 1434h111l-254 -1434h-111zM145 1683l15 80h524l-14 -80h-525z" />
    <glyph glyph-name="imacron" unicode="&#x12b;" horiz-adv-x="348" 
d="M213 1038h104l-184 -1038h-104zM49 1288l14 80h525l-15 -80h-524z" />
    <glyph glyph-name="Ibreve" unicode="&#x12c;" horiz-adv-x="405" 
d="M309 1434h111l-254 -1434h-111zM260 1835q0 -81 41 -130q41 -48 113 -48q75 0 128 50q51 48 68 128h82q-22 -121 -99 -190q-78 -70 -185 -70q-112 0 -172 71q-60 70 -60 189h84z" />
    <glyph glyph-name="ibreve" unicode="&#x12d;" horiz-adv-x="348" 
d="M213 1038h104l-184 -1038h-104zM164 1440q0 -81 41 -130q41 -48 112 -48q75 0 128 50q52 49 69 128h82q-23 -122 -99 -191q-77 -69 -186 -69q-112 0 -172 70q-59 69 -59 190h84z" />
    <glyph glyph-name="Iogonek" unicode="&#x12e;" horiz-adv-x="405" 
d="M-29 -135q-67 -60 -67 -119q0 -39 22 -58q23 -20 74 -20h123l-12 -78h-136q-75 0 -119 36t-44 100q0 82 61 146t184 142l252 1420h111l-254 -1434q-133 -80 -195 -135z" />
    <glyph glyph-name="iogonek" unicode="&#x12f;" horiz-adv-x="350" 
d="M373 1401q18 -18 18 -47q0 -36 -22 -59t-56 -23q-29 0 -48 19t-19 48q0 36 23 58t57 22q29 0 47 -18zM213 1038h104l-184 -1038q-130 -78 -194 -135q-68 -60 -68 -119q0 -38 23 -58t73 -20h123l-12 -78h-135q-77 0 -120 36q-44 36 -44 100q0 82 63 146q59 61 191 146z
" />
    <glyph glyph-name="Idotaccent" unicode="&#x130;" horiz-adv-x="405" 
d="M309 1434h111l-254 -1434h-111zM472 1797q20 -18 20 -44q0 -35 -24 -57q-25 -23 -54 -23q-30 0 -49 19t-19 45q0 34 22 56t56 22q28 0 48 -18z" />
    <glyph glyph-name="dotlessi" unicode="&#x131;" horiz-adv-x="348" 
d="M213 1038h104l-184 -1038h-104z" />
    <glyph glyph-name="IJ" unicode="&#x132;" horiz-adv-x="1220" 
d="M246 508q-10 -69 -10 -119q0 -144 73 -221q73 -78 213 -78q182 0 294 103q113 104 153 331l159 910h111l-162 -916q-50 -282 -185 -406q-136 -124 -370 -124q-193 0 -296 100t-103 289q0 62 12 131h111zM301 1434h111l-105 -588h-110z" />
    <glyph glyph-name="ij" unicode="&#x133;" horiz-adv-x="712" 
d="M373 1401q18 -18 18 -47q0 -36 -22 -59t-56 -23q-29 0 -48 19t-19 48q0 36 23 58t57 22q29 0 47 -18zM213 1038h104l-184 -1038h-104zM632 1397q23 22 56 22q29 0 47 -18q19 -19 19 -47q0 -34 -23 -59q-22 -23 -55 -23q-29 0 -48 19q-20 20 -20 48q0 35 24 58zM188 -313
q79 0 120 35q42 36 54 112l213 1204h105l-213 -1208q-22 -126 -88 -183t-193 -57h-131l17 97h116z" />
    <glyph glyph-name="Jcircumflex" unicode="&#x134;" horiz-adv-x="692" 
d="M707 1434l-201 -1139q-27 -150 -113 -222q-87 -73 -235 -73h-195l21 104h172q105 0 165 51q58 49 76 156l199 1123h111zM713 1765l-234 -202h-117l308 272h102l213 -272h-102z" />
    <glyph glyph-name="jcircumflex" unicode="&#x135;" horiz-adv-x="360" 
d="M-162 -313q79 0 120 35q42 36 54 112l213 1204h105l-213 -1208q-22 -126 -88 -183t-193 -57h-131l16 97h117zM338 1370l-234 -203h-116l307 273h102l213 -273h-102z" />
    <glyph glyph-name="Kcommaaccent" unicode="&#x136;" horiz-adv-x="1271" 
d="M1348 1434l-629 -603l418 -831h-125l-381 752l-398 -375l-67 -377h-111l254 1434h111l-162 -895l944 895h146zM403 -109h107l-172 -288h-80z" />
    <glyph glyph-name="kcommaaccent" unicode="&#x137;" horiz-adv-x="1011" 
d="M283 1434h104l-180 -1008l704 612h142l-498 -432l340 -606h-115l-303 537l-293 -254l-51 -283h-104zM375 -109h106l-172 -288h-80z" />
    <glyph glyph-name="Lacute" unicode="&#x139;" horiz-adv-x="991" 
d="M55 0l254 1434h111l-236 -1332h686l-18 -102h-797zM346 1565l234 270h127l-273 -270h-88z" />
    <glyph glyph-name="lacute" unicode="&#x13a;" horiz-adv-x="350" 
d="M283 1434h104l-254 -1434h-104zM315 1544l234 271h127l-273 -271h-88z" />
    <glyph glyph-name="Lcommaaccent" unicode="&#x13b;" horiz-adv-x="991" 
d="M55 0l254 1434h111l-236 -1332h686l-18 -102h-797zM373 -109h106l-172 -288h-80z" />
    <glyph glyph-name="lcommaaccent" unicode="&#x13c;" horiz-adv-x="350" 
d="M283 1434h104l-254 -1434h-104zM8 -109h107l-172 -288h-80z" />
    <glyph glyph-name="Lcaron" unicode="&#x13d;" horiz-adv-x="991" 
d="M55 0l254 1434h111l-236 -1332h686l-18 -102h-797zM653 1434h101l-160 -297h-80z" />
    <glyph glyph-name="lcaron" unicode="&#x13e;" horiz-adv-x="448" 
d="M283 1434h104l-254 -1434h-104zM569 1434h101l-160 -297h-80z" />
    <glyph glyph-name="Ldot" unicode="&#x13f;" horiz-adv-x="991" 
d="M55 0l254 1434h111l-236 -1332h686l-18 -102h-797zM892 804q19 -18 19 -44q0 -36 -23 -58t-54 -22q-32 0 -50 18t-18 45q0 36 22 57t56 21q30 0 48 -17z" />
    <glyph glyph-name="ldot" unicode="&#x140;" horiz-adv-x="557" 
d="M283 1434h104l-254 -1434h-104zM546 798q19 -18 19 -44q0 -36 -23 -58t-55 -22q-31 0 -49 18t-18 45q0 36 22 57t56 21q30 0 48 -17z" />
    <glyph glyph-name="Lslash" unicode="&#x141;" horiz-adv-x="1028" 
d="M219 102h686l-18 -102h-797l113 637l-203 -98l16 100l205 98l123 697h111l-113 -637l371 180l-19 -100l-370 -181z" />
    <glyph glyph-name="lslash" unicode="&#x142;" horiz-adv-x="540" 
d="M608 967l-16 -101l-227 -106l-136 -760h-104l125 705l-227 -107l16 100l229 109l111 627h104l-102 -574z" />
    <glyph glyph-name="Nacute" unicode="&#x143;" horiz-adv-x="1355" 
d="M309 1434h92l637 -1244l224 1244h108l-254 -1434h-102l-633 1233l-219 -1233h-107zM817 1565l234 270h127l-273 -270h-88z" />
    <glyph glyph-name="nacute" unicode="&#x144;" horiz-adv-x="1107" 
d="M929 964q93 -87 93 -257q0 -55 -14 -132l-101 -575h-104l100 571q12 78 12 127q0 125 -65 190q-66 66 -188 66q-169 0 -285 -120q-117 -121 -154 -326l-90 -508h-104l184 1038h90l-20 -215q63 105 163 166q101 62 234 62q156 0 249 -87zM668 1169l233 271h127l-272 -271
h-88z" />
    <glyph glyph-name="Ncommaaccent" unicode="&#x145;" horiz-adv-x="1355" 
d="M309 1434h92l637 -1244l224 1244h108l-254 -1434h-102l-633 1233l-219 -1233h-107zM510 -109h106l-172 -288h-79z" />
    <glyph glyph-name="ncommaaccent" unicode="&#x146;" horiz-adv-x="1107" 
d="M929 964q93 -87 93 -257q0 -55 -14 -132l-101 -575h-104l100 571q12 78 12 127q0 125 -65 190q-66 66 -188 66q-169 0 -285 -120q-117 -121 -154 -326l-90 -508h-104l184 1038h90l-20 -215q63 105 163 166q101 62 234 62q156 0 249 -87zM399 -109h107l-172 -288h-80z" />
    <glyph glyph-name="Ncaron" unicode="&#x147;" horiz-adv-x="1355" 
d="M309 1434h92l637 -1244l224 1244h108l-254 -1434h-102l-633 1233l-219 -1233h-107zM866 1634l246 201h107l-310 -272h-100l-213 272h100z" />
    <glyph glyph-name="ncaron" unicode="&#x148;" horiz-adv-x="1107" 
d="M929 964q93 -87 93 -257q0 -55 -14 -132l-101 -575h-104l100 571q12 78 12 127q0 125 -65 190q-66 66 -188 66q-169 0 -285 -120q-117 -121 -154 -326l-90 -508h-104l184 1038h90l-20 -215q63 105 163 166q101 62 234 62q156 0 249 -87zM717 1239l246 201h106l-309 -273
h-101l-213 273h101z" />
    <glyph glyph-name="napostrophe" unicode="&#x149;" horiz-adv-x="1429" 
d="M398 1406q28 -39 28 -97q0 -114 -76 -190q-77 -77 -194 -81l4 62q80 6 130 53t58 109v12q0 25 -8 41q-17 -25 -49 -25q-31 0 -49 18q-19 19 -19 48q0 36 28 62t71 26q49 0 76 -38zM1248 964q93 -87 93 -257q0 -55 -14 -132l-100 -575h-105l101 571q12 78 12 127
q0 124 -66 190t-188 66q-169 0 -285 -120q-115 -120 -153 -326l-90 -508h-105l184 1038h91l-21 -215q62 104 164 166q101 62 233 62q156 0 249 -87z" />
    <glyph glyph-name="Eng" unicode="&#x14a;" horiz-adv-x="1355" 
d="M1370 1434l-285 -1602q-22 -128 -88 -185t-196 -57h-133l18 101h119q78 0 119 35q40 34 55 112l31 172l-629 1223l-219 -1233h-107l254 1434h92l637 -1244l224 1244h108z" />
    <glyph glyph-name="eng" unicode="&#x14b;" horiz-adv-x="1107" 
d="M929 964q93 -87 93 -257q0 -55 -14 -132l-131 -745q-22 -126 -87 -183q-64 -57 -194 -57h-137l16 97h125q78 0 118 34q39 33 54 113l131 737q12 78 12 127q0 125 -65 190q-66 66 -188 66q-169 0 -285 -120q-117 -121 -154 -326l-90 -508h-104l184 1038h90l-29 -233
q63 114 167 180q103 66 239 66q156 0 249 -87z" />
    <glyph glyph-name="Omacron" unicode="&#x14c;" horiz-adv-x="1529" 
d="M1208 1371q132 -76 202 -209q71 -134 71 -308q0 -234 -99 -432q-100 -200 -276 -317t-408 -117q-174 0 -304 74q-132 75 -204 210q-71 133 -71 308q0 234 99 432q98 196 279 316q178 118 408 118q173 0 303 -75zM554 1238q-151 -104 -238 -282q-85 -174 -85 -374
q0 -142 60 -254q60 -113 167 -175q108 -63 247 -63q192 0 344 107q151 106 235 280t84 373q0 144 -58 256t-165 175q-105 62 -246 62q-192 0 -345 -105zM694 1683l15 80h524l-14 -80h-525z" />
    <glyph glyph-name="omacron" unicode="&#x14d;" horiz-adv-x="1173" 
d="M287 43q-99 56 -152 155q-53 100 -53 226q0 172 74 317t205 227q133 83 298 83q129 0 227 -56q99 -56 150 -153q54 -102 54 -226q0 -173 -74 -318q-74 -144 -206 -227q-133 -83 -298 -83q-127 0 -225 55zM760 155q105 71 166 194q59 119 59 261q0 155 -92 252
q-91 96 -238 96q-135 0 -241 -72q-105 -71 -166 -195q-60 -121 -60 -263q0 -153 92 -250q92 -96 238 -96q134 0 242 73zM461 1288l14 80h524l-14 -80h-524z" />
    <glyph glyph-name="Obreve" unicode="&#x14e;" horiz-adv-x="1529" 
d="M1208 1371q132 -76 202 -209q71 -134 71 -308q0 -234 -99 -432q-100 -200 -276 -317t-408 -117q-174 0 -304 74q-132 75 -204 210q-71 133 -71 308q0 234 99 432q98 196 279 316q178 118 408 118q173 0 303 -75zM554 1238q-151 -104 -238 -282q-85 -174 -85 -374
q0 -142 60 -254q60 -113 167 -175q108 -63 247 -63q192 0 344 107q151 106 235 280t84 373q0 144 -58 256t-165 175q-105 62 -246 62q-192 0 -345 -105zM809 1835q0 -81 41 -130q40 -48 113 -48q75 0 128 50q51 48 68 128h82q-22 -121 -99 -190q-78 -70 -186 -70
q-112 0 -172 71q-59 69 -59 189h84z" />
    <glyph glyph-name="obreve" unicode="&#x14f;" horiz-adv-x="1173" 
d="M287 43q-99 56 -152 155q-53 100 -53 226q0 172 74 317t205 227q133 83 298 83q129 0 227 -56q99 -56 150 -153q54 -102 54 -226q0 -173 -74 -318q-74 -144 -206 -227q-133 -83 -298 -83q-127 0 -225 55zM760 155q105 71 166 194q59 119 59 261q0 155 -92 252
q-91 96 -238 96q-135 0 -241 -72q-105 -71 -166 -195q-60 -121 -60 -263q0 -153 92 -250q92 -96 238 -96q134 0 242 73zM575 1440q0 -81 41 -130q40 -48 113 -48q75 0 128 50q52 49 69 128h82q-22 -121 -100 -191q-76 -69 -185 -69q-112 0 -172 70q-59 69 -59 190h83z" />
    <glyph glyph-name="Ohungarumlaut" unicode="&#x150;" horiz-adv-x="1529" 
d="M1208 1371q132 -76 202 -209q71 -134 71 -308q0 -234 -99 -432q-100 -200 -276 -317t-408 -117q-174 0 -304 74q-132 75 -204 210q-71 133 -71 308q0 234 99 432q98 196 279 316q178 118 408 118q173 0 303 -75zM554 1238q-151 -104 -238 -282q-85 -174 -85 -374
q0 -142 60 -254q60 -113 167 -175q108 -63 247 -63q192 0 344 107q151 106 235 280t84 373q0 144 -58 256t-165 175q-105 62 -246 62q-192 0 -345 -105zM709 1563l233 272h125l-272 -272h-86zM1044 1563l234 272h123l-270 -272h-87z" />
    <glyph glyph-name="ohungarumlaut" unicode="&#x151;" horiz-adv-x="1173" 
d="M287 43q-99 56 -152 155q-53 100 -53 226q0 172 74 317t205 227q133 83 298 83q129 0 227 -56q99 -56 150 -153q54 -102 54 -226q0 -173 -74 -318q-74 -144 -206 -227q-133 -83 -298 -83q-127 0 -225 55zM760 155q105 71 166 194q59 119 59 261q0 155 -92 252
q-91 96 -238 96q-135 0 -241 -72q-105 -71 -166 -195q-60 -121 -60 -263q0 -153 92 -250q92 -96 238 -96q134 0 242 73zM475 1167l234 273h125l-273 -273h-86zM811 1167l233 273h123l-270 -273h-86z" />
    <glyph glyph-name="OE" unicode="&#x152;" horiz-adv-x="2297" 
d="M1589 1331l-96 -547h637l-19 -102h-634l-105 -580h789l-19 -102h-897l53 303q-102 -147 -255 -231t-347 -84q-169 0 -300 73q-133 74 -206 207t-73 305q0 235 100 434t279 319q178 120 401 120q210 0 347 -97q139 -98 190 -274l63 359h870l-18 -103h-760zM1049 197
q151 106 235 280t84 373q0 144 -58 256t-165 175q-105 62 -246 62q-192 0 -345 -105q-151 -104 -238 -282q-85 -174 -85 -374q0 -142 60 -254q60 -113 167 -175q108 -63 247 -63q192 0 344 107z" />
    <glyph glyph-name="oe" unicode="&#x153;" horiz-adv-x="2009" 
d="M1075 514q-8 -43 -8 -86q0 -96 40 -175q40 -78 115 -125q74 -46 177 -46q131 0 225 69q96 70 148 193h106q-57 -167 -186 -262q-128 -94 -297 -94q-155 0 -258 75q-105 77 -144 209q-73 -132 -198 -209q-122 -75 -283 -75q-127 0 -225 55q-99 56 -152 155
q-53 100 -53 226q0 172 74 317t205 227q133 83 298 83q155 0 259 -76q103 -75 141 -207q73 131 192 206q122 77 275 77q186 0 296 -108q109 -108 109 -292q0 -80 -12 -137h-844zM760 155q105 71 166 194q59 119 59 261q0 155 -92 252q-91 96 -238 96q-135 0 -241 -72
q-105 -71 -166 -195q-60 -121 -60 -263q0 -153 92 -250q92 -96 238 -96q134 0 242 73zM1250 860q-116 -99 -156 -254h723q4 33 4 53q0 141 -83 221q-81 78 -225 78q-149 0 -263 -98z" />
    <glyph glyph-name="Racute" unicode="&#x154;" horiz-adv-x="1220" 
d="M1108 755q-112 -121 -297 -149l223 -606h-123l-219 598h-422l-104 -598h-111l254 1434h484q202 0 314 -104t112 -271q0 -184 -111 -304zM994 797q110 96 110 262q0 129 -84 201q-83 71 -236 71h-385l-110 -631h413q181 0 292 97zM731 1565l234 270h127l-273 -270h-88z
" />
    <glyph glyph-name="racute" unicode="&#x155;" horiz-adv-x="638" 
d="M684 1038l-18 -100h-64q-300 0 -377 -416l-92 -522h-104l184 1038h90l-20 -196q53 92 135 144t217 52h49zM418 1169l233 271h127l-272 -271h-88z" />
    <glyph glyph-name="Rcommaaccent" unicode="&#x156;" horiz-adv-x="1220" 
d="M1108 755q-112 -121 -297 -149l223 -606h-123l-219 598h-422l-104 -598h-111l254 1434h484q202 0 314 -104t112 -271q0 -184 -111 -304zM994 797q110 96 110 262q0 129 -84 201q-83 71 -236 71h-385l-110 -631h413q181 0 292 97zM442 -109h107l-172 -288h-80z" />
    <glyph glyph-name="rcommaaccent" unicode="&#x157;" horiz-adv-x="638" 
d="M684 1038l-18 -100h-64q-300 0 -377 -416l-92 -522h-104l184 1038h90l-20 -196q53 92 135 144t217 52h49zM8 -109h107l-172 -288h-80z" />
    <glyph glyph-name="Rcaron" unicode="&#x158;" horiz-adv-x="1220" 
d="M1108 755q-112 -121 -297 -149l223 -606h-123l-219 598h-422l-104 -598h-111l254 1434h484q202 0 314 -104t112 -271q0 -184 -111 -304zM994 797q110 96 110 262q0 129 -84 201q-83 71 -236 71h-385l-110 -631h413q181 0 292 97zM780 1634l246 201h107l-310 -272h-100
l-213 272h100z" />
    <glyph glyph-name="rcaron" unicode="&#x159;" horiz-adv-x="638" 
d="M684 1038l-18 -100h-64q-300 0 -377 -416l-92 -522h-104l184 1038h90l-20 -196q53 92 135 144t217 52h49zM467 1239l246 201h106l-309 -273h-100l-213 273h100z" />
    <glyph glyph-name="Sacute" unicode="&#x15a;" horiz-adv-x="1222" 
d="M190 442q1 -172 110 -262q108 -90 280 -90q189 0 304 80q113 79 113 229q0 108 -96 171q-95 62 -268 106q-199 51 -309 130q-111 80 -111 226q0 199 145 307q147 109 375 109q216 0 340 -110q123 -110 123 -289h-109q-1 134 -99 217q-97 82 -261 82q-182 0 -293 -81
q-110 -80 -110 -229q0 -105 89 -162q88 -57 259 -102q198 -50 318 -134q118 -82 118 -230q0 -201 -144 -312q-143 -110 -382 -110q-236 0 -368 120t-132 334h108zM745 1565l234 270h127l-272 -270h-89z" />
    <glyph glyph-name="sacute" unicode="&#x15b;" horiz-adv-x="999" 
d="M830 974q104 -80 104 -229h-103q-2 104 -77 160q-78 58 -201 58q-139 0 -223 -55q-82 -54 -82 -146q0 -82 66 -121q65 -39 198 -63q180 -34 271 -94q89 -59 89 -181q0 -151 -118 -233t-301 -82q-178 0 -291 89t-113 242h105q5 -116 86 -178q82 -63 213 -63q143 0 228 56
q87 57 87 157q0 81 -67 122q-62 38 -201 66q-180 30 -268 90q-89 60 -89 183q0 142 114 221q115 80 298 80q172 0 275 -79zM571 1169l234 271h127l-273 -271h-88z" />
    <glyph glyph-name="Scircumflex" unicode="&#x15c;" horiz-adv-x="1222" 
d="M190 442q1 -172 110 -262q108 -90 280 -90q189 0 304 80q113 79 113 229q0 108 -96 171q-95 62 -268 106q-199 51 -309 130q-111 80 -111 226q0 199 145 307q147 109 375 109q216 0 340 -110q123 -110 123 -289h-109q-1 134 -99 217q-97 82 -261 82q-182 0 -293 -81
q-110 -80 -110 -229q0 -105 89 -162q88 -57 259 -102q198 -50 318 -134q118 -82 118 -230q0 -201 -144 -312q-143 -110 -382 -110q-236 0 -368 120t-132 334h108zM823 1765l-233 -202h-117l307 272h103l213 -272h-103z" />
    <glyph glyph-name="scircumflex" unicode="&#x15d;" horiz-adv-x="999" 
d="M830 974q104 -80 104 -229h-103q-2 104 -77 160q-78 58 -201 58q-139 0 -223 -55q-82 -54 -82 -146q0 -82 66 -121q65 -39 198 -63q180 -34 271 -94q89 -59 89 -181q0 -151 -118 -233t-301 -82q-178 0 -291 89t-113 242h105q5 -116 86 -178q82 -63 213 -63q143 0 228 56
q87 57 87 157q0 81 -67 122q-62 38 -201 66q-180 30 -268 90q-89 60 -89 183q0 142 114 221q115 80 298 80q172 0 275 -79zM649 1370l-233 -203h-117l307 273h103l213 -273h-103z" />
    <glyph glyph-name="Scedilla" unicode="&#x15e;" horiz-adv-x="1222" 
d="M990 640q118 -82 118 -230q0 -201 -144 -312q-143 -110 -382 -110h-11l-36 -88h22q74 0 115 -35t41 -96q0 -78 -59 -128q-60 -51 -142 -51h-152l11 66h129q59 0 95 30t36 76q0 76 -94 76h-86l63 152q-204 18 -318 136t-114 316h108q1 -172 110 -262q108 -90 280 -90
q189 0 304 80q113 79 113 229q0 108 -96 171q-95 62 -268 106q-199 51 -309 130q-111 80 -111 226q0 199 145 307q147 109 375 109q216 0 340 -110q123 -110 123 -289h-109q-1 134 -99 217q-97 82 -261 82q-182 0 -293 -81q-110 -80 -110 -229q0 -105 89 -162
q88 -57 259 -102q198 -50 318 -134z" />
    <glyph glyph-name="scedilla" unicode="&#x15f;" horiz-adv-x="999" 
d="M783 484q89 -59 89 -181q0 -147 -114 -229q-113 -81 -293 -86l-37 -88h23q73 0 114 -35t41 -96q0 -79 -58 -128q-60 -51 -142 -51h-152l10 66h129q59 0 95 30t36 76q0 76 -94 76h-86l64 152q-162 11 -260 98q-99 89 -99 231h105q5 -116 86 -178q82 -63 213 -63
q143 0 228 56q87 57 87 157q0 81 -67 122q-62 38 -201 66q-180 30 -268 90q-89 60 -89 183q0 142 114 221q115 80 298 80q172 0 275 -79q104 -80 104 -229h-103q-2 104 -77 160q-78 58 -201 58q-139 0 -223 -55q-82 -54 -82 -146q0 -82 66 -121q65 -39 198 -63
q180 -34 271 -94z" />
    <glyph glyph-name="Scaron" unicode="&#x160;" horiz-adv-x="1222" 
d="M190 442q1 -172 110 -262q108 -90 280 -90q189 0 304 80q113 79 113 229q0 108 -96 171q-95 62 -268 106q-199 51 -309 130q-111 80 -111 226q0 199 145 307q147 109 375 109q216 0 340 -110q123 -110 123 -289h-109q-1 134 -99 217q-97 82 -261 82q-182 0 -293 -81
q-110 -80 -110 -229q0 -105 89 -162q88 -57 259 -102q198 -50 318 -134q118 -82 118 -230q0 -201 -144 -312q-143 -110 -382 -110q-236 0 -368 120t-132 334h108zM795 1634l245 201h107l-309 -272h-101l-213 272h101z" />
    <glyph glyph-name="scaron" unicode="&#x161;" horiz-adv-x="999" 
d="M830 974q104 -80 104 -229h-103q-2 104 -77 160q-78 58 -201 58q-139 0 -223 -55q-82 -54 -82 -146q0 -82 66 -121q65 -39 198 -63q180 -34 271 -94q89 -59 89 -181q0 -151 -118 -233t-301 -82q-178 0 -291 89t-113 242h105q5 -116 86 -178q82 -63 213 -63q143 0 228 56
q87 57 87 157q0 81 -67 122q-62 38 -201 66q-180 30 -268 90q-89 60 -89 183q0 142 114 221q115 80 298 80q172 0 275 -79zM621 1239l245 201h107l-309 -273h-101l-213 273h101z" />
    <glyph glyph-name="uni0162" unicode="&#x162;" horiz-adv-x="1187" 
d="M207 1434h1093l-18 -103h-491l-236 -1331h-111l236 1331h-492zM428 -109h107l-173 -288h-79z" />
    <glyph glyph-name="uni0163" unicode="&#x163;" horiz-adv-x="612" 
d="M266 942h-196l16 96h197l51 291h104l-51 -291h277l-17 -96h-276l-125 -702q-4 -33 -4 -52q0 -50 27 -71t93 -21h154l-16 -96h-154q-112 0 -161 42q-50 42 -50 128q0 29 10 92zM231 -109h107l-172 -288h-80z" />
    <glyph glyph-name="Tcaron" unicode="&#x164;" horiz-adv-x="1187" 
d="M207 1434h1093l-18 -103h-491l-236 -1331h-111l236 1331h-492zM791 1634l245 201h107l-309 -272h-101l-213 272h101z" />
    <glyph glyph-name="tcaron" unicode="&#x165;" horiz-adv-x="612" 
d="M266 942h-196l16 96h197l51 291h104l-51 -291h277l-17 -96h-276l-125 -702q-4 -33 -4 -52q0 -50 27 -71t93 -21h154l-16 -96h-154q-112 0 -161 42q-50 42 -50 128q0 29 10 92zM662 1458h100l-160 -297h-80z" />
    <glyph glyph-name="Tbar" unicode="&#x166;" horiz-adv-x="1187" 
d="M1282 1331h-491l-103 -579h262l-16 -97h-262l-117 -655h-111l117 655h-262l16 97h263l102 579h-492l19 103h1093z" />
    <glyph glyph-name="tbar" unicode="&#x167;" horiz-adv-x="645" 
d="M379 942l-55 -311h276l-18 -90h-275l-53 -301q-6 -27 -6 -52q0 -49 28 -70q30 -22 93 -22h155l-18 -96h-154q-108 0 -158 42q-51 43 -51 128q0 30 7 76l53 295h-197l17 90h196l55 311h-196l16 96h197l51 291h104l-51 -291h277l-17 -96h-276z" />
    <glyph glyph-name="Utilde" unicode="&#x168;" horiz-adv-x="1327" 
d="M410 1434l-150 -850q-14 -67 -14 -140q0 -172 91 -263t269 -91q207 0 321 123q113 122 158 377l150 844h111l-150 -844q-53 -302 -192 -452q-140 -150 -400 -150q-230 0 -349 116q-120 117 -120 332q0 66 17 160l147 838h111zM844 1800q26 -18 55 -51q24 -28 37 -37
q17 -12 43 -12q47 0 74 32q26 31 34 78l68 -4q-15 -90 -60 -133q-47 -45 -114 -45q-47 0 -73 17t-54 49q-24 28 -38 38q-17 13 -44 13q-85 0 -106 -111l-70 2q16 88 61 134q45 47 115 47q47 0 72 -17z" />
    <glyph glyph-name="utilde" unicode="&#x169;" horiz-adv-x="1093" 
d="M1063 1038l-184 -1038h-91l21 213q-67 -106 -164 -165q-99 -60 -227 -60q-152 0 -242 84t-90 247q0 69 14 142l103 577h104l-102 -577q-12 -83 -12 -129q0 -123 62 -185q63 -63 183 -63q162 0 279 122q117 121 151 326l90 506h105zM645 1405q26 -18 55 -51q24 -28 37 -37
q17 -12 43 -12q47 0 74 31q27 32 35 79l67 -4q-15 -90 -60 -133q-46 -45 -114 -45q-47 0 -72 16q-29 19 -55 49q-24 28 -38 38q-19 14 -44 14q-85 0 -106 -111l-70 2q16 87 62 134q45 46 114 46q49 0 72 -16z" />
    <glyph glyph-name="Umacron" unicode="&#x16a;" horiz-adv-x="1327" 
d="M410 1434l-150 -850q-14 -67 -14 -140q0 -172 91 -263t269 -91q207 0 321 123q113 122 158 377l150 844h111l-150 -844q-53 -302 -192 -452q-140 -150 -400 -150q-230 0 -349 116q-120 117 -120 332q0 66 17 160l147 838h111zM608 1683l15 80h524l-14 -80h-525z" />
    <glyph glyph-name="umacron" unicode="&#x16b;" horiz-adv-x="1093" 
d="M1063 1038l-184 -1038h-91l21 213q-67 -106 -164 -165q-99 -60 -227 -60q-152 0 -242 84t-90 247q0 69 14 142l103 577h104l-102 -577q-12 -83 -12 -129q0 -123 62 -185q63 -63 183 -63q162 0 279 122q117 121 151 326l90 506h105zM410 1288l14 80h524l-14 -80h-524z" />
    <glyph glyph-name="Ubreve" unicode="&#x16c;" horiz-adv-x="1327" 
d="M410 1434l-150 -850q-14 -67 -14 -140q0 -172 91 -263t269 -91q207 0 321 123q113 122 158 377l150 844h111l-150 -844q-53 -302 -192 -452q-140 -150 -400 -150q-230 0 -349 116q-120 117 -120 332q0 66 17 160l147 838h111zM723 1835q0 -81 41 -130q40 -48 113 -48
q75 0 128 50q51 48 68 128h82q-22 -121 -99 -190q-78 -70 -186 -70q-112 0 -172 71q-59 69 -59 189h84z" />
    <glyph glyph-name="ubreve" unicode="&#x16d;" horiz-adv-x="1093" 
d="M1063 1038l-184 -1038h-91l21 213q-67 -106 -164 -165q-99 -60 -227 -60q-152 0 -242 84t-90 247q0 69 14 142l103 577h104l-102 -577q-12 -83 -12 -129q0 -123 62 -185q63 -63 183 -63q162 0 279 122q117 121 151 326l90 506h105zM524 1440q0 -81 41 -130
q41 -48 113 -48q75 0 128 50q51 48 68 128h82q-23 -122 -99 -191q-77 -69 -185 -69q-112 0 -172 70q-60 71 -60 190h84z" />
    <glyph glyph-name="Uring" unicode="&#x16e;" horiz-adv-x="1327" 
d="M410 1434l-150 -850q-14 -67 -14 -140q0 -172 91 -263t269 -91q207 0 321 123q113 122 158 377l150 844h111l-150 -844q-53 -302 -192 -452q-140 -150 -400 -150q-230 0 -349 116q-120 117 -120 332q0 66 17 160l147 838h111zM666 1772q66 65 161 65q96 0 161 -65
q67 -67 67 -158t-67 -158q-65 -65 -161 -65q-95 0 -161 65q-68 66 -68 158t68 158zM939 1727q-47 47 -112 47q-64 0 -111 -47q-46 -46 -46 -113q0 -68 46 -114t111 -46q66 0 112 46t46 114q0 67 -46 113z" />
    <glyph glyph-name="uring" unicode="&#x16f;" horiz-adv-x="1093" 
d="M1063 1038l-184 -1038h-91l21 213q-67 -106 -164 -165q-99 -60 -227 -60q-152 0 -242 84t-90 247q0 69 14 142l103 577h104l-102 -577q-12 -83 -12 -129q0 -123 62 -185q63 -63 183 -63q162 0 279 122q117 121 151 326l90 506h105zM522 1524q66 65 162 65t161 -65
q66 -66 66 -158t-66 -158q-65 -65 -161 -65t-162 65q-67 66 -67 158t67 158zM796 1480q-46 46 -112 46t-112 -46t-46 -114t46 -114t112 -46t112 46t46 114t-46 114z" />
    <glyph glyph-name="Uhungarumlaut" unicode="&#x170;" horiz-adv-x="1327" 
d="M410 1434l-150 -850q-14 -67 -14 -140q0 -172 91 -263t269 -91q207 0 321 123q113 122 158 377l150 844h111l-150 -844q-53 -302 -192 -452q-140 -150 -400 -150q-230 0 -349 116q-120 117 -120 332q0 66 17 160l147 838h111zM623 1563l233 272h125l-272 -272h-86z
M958 1563l234 272h123l-271 -272h-86z" />
    <glyph glyph-name="uhungarumlaut" unicode="&#x171;" horiz-adv-x="1093" 
d="M1063 1038l-184 -1038h-91l21 213q-67 -106 -164 -165q-99 -60 -227 -60q-152 0 -242 84t-90 247q0 69 14 142l103 577h104l-102 -577q-12 -83 -12 -129q0 -123 62 -185q63 -63 183 -63q162 0 279 122q117 121 151 326l90 506h105zM424 1167l233 273h125l-272 -273h-86z
M760 1167l233 273h123l-270 -273h-86z" />
    <glyph glyph-name="Uogonek" unicode="&#x172;" horiz-adv-x="1327" 
d="M1346 1434l-150 -844q-47 -264 -158 -412q-111 -147 -309 -180q-126 -76 -192 -134q-66 -59 -66 -118q0 -38 23 -58t73 -20h123l-12 -78h-135q-77 0 -120 36q-44 36 -44 100q0 75 52 134q54 61 153 128q-221 5 -334 121q-115 118 -115 327q0 66 17 160l147 838h111
l-150 -850q-14 -67 -14 -140q0 -172 91 -263t269 -91q207 0 321 123q113 122 158 377l150 844h111z" />
    <glyph glyph-name="uogonek" unicode="&#x173;" horiz-adv-x="1093" 
d="M684 -135q-68 -60 -68 -119q0 -38 23 -58t74 -20h123l-13 -78h-135q-76 0 -120 36t-44 100q0 83 66 149q65 65 201 154l18 184q-67 -106 -164 -165q-99 -60 -227 -60q-152 0 -242 84t-90 247q0 69 14 142l103 577h104l-102 -577q-12 -83 -12 -129q0 -123 62 -185
q63 -63 183 -63q162 0 279 122q117 121 151 326l90 506h105l-184 -1038q-133 -80 -195 -135z" />
    <glyph glyph-name="Wcircumflex" unicode="&#x174;" horiz-adv-x="1955" 
d="M207 1434h117l147 -1289l610 1289h115l143 -1289l611 1289h118l-684 -1434h-135l-145 1249l-588 -1249h-133zM1200 1765l-233 -202h-117l307 272h103l213 -272h-103z" />
    <glyph glyph-name="wcircumflex" unicode="&#x175;" horiz-adv-x="1591" 
d="M115 1038h106l141 -913l476 913h98l133 -913l481 913h111l-553 -1038h-113l-137 872l-461 -872l-114 -2zM950 1370l-233 -203h-117l307 273h103l213 -273h-103z" />
    <glyph glyph-name="Ycircumflex" unicode="&#x176;" horiz-adv-x="1259" 
d="M1266 1436h129l-709 -908l-98 -528h-107l97 528l-388 908h117l342 -801zM844 1765l-234 -202h-116l307 272h102l213 -272h-102z" />
    <glyph glyph-name="ycircumflex" unicode="&#x177;" horiz-adv-x="976" 
d="M219 1038l199 -915l518 915h113l-713 -1235q-49 -86 -86 -133q-34 -42 -77 -61q-44 -19 -112 -19h-161l16 97h125q57 0 87 13q33 14 56 43q30 38 64 95l90 158l-227 1042h108zM637 1370l-234 -203h-116l307 273h102l213 -273h-102z" />
    <glyph glyph-name="Ydieresis" unicode="&#x178;" horiz-adv-x="1259" 
d="M1266 1436h129l-709 -908l-98 -528h-107l97 528l-388 908h117l342 -801zM715 1773q18 -18 18 -44q0 -34 -22 -56t-56 -22q-29 0 -48 18t-19 45q0 33 22 54q24 22 56 22t49 -17zM1056 1773q19 -18 19 -44q0 -34 -22 -56t-56 -22q-32 0 -49 17q-18 18 -18 46q0 33 22 54
q24 22 56 22q30 0 48 -17z" />
    <glyph glyph-name="Zacute" unicode="&#x179;" horiz-adv-x="1230" 
d="M274 1434h1035l-13 -82l-1153 -1250h947l-19 -102h-1096l13 82l1153 1249h-887zM768 1565l233 270h127l-272 -270h-88z" />
    <glyph glyph-name="zacute" unicode="&#x17a;" horiz-adv-x="944" 
d="M164 1038h801l-15 -82l-841 -860h716l-16 -96h-856l14 84l840 858h-660zM551 1169l233 271h127l-272 -271h-88z" />
    <glyph glyph-name="Zdotaccent" unicode="&#x17b;" horiz-adv-x="1230" 
d="M274 1434h1035l-13 -82l-1153 -1250h947l-19 -102h-1096l13 82l1153 1249h-887zM894 1797q19 -18 19 -44q0 -35 -23 -57q-25 -23 -54 -23q-31 0 -50 19q-18 18 -18 45q0 34 22 56t56 22q28 0 48 -18z" />
    <glyph glyph-name="zdotaccent" unicode="&#x17c;" horiz-adv-x="944" 
d="M164 1038h801l-15 -82l-841 -860h716l-16 -96h-856l14 84l840 858h-660zM677 1402q19 -18 19 -44q0 -36 -23 -58t-55 -22q-31 0 -49 18t-18 45q0 36 21 57t57 21q30 0 48 -17z" />
    <glyph glyph-name="Zcaron" unicode="&#x17d;" horiz-adv-x="1230" 
d="M274 1434h1035l-13 -82l-1153 -1250h947l-19 -102h-1096l13 82l1153 1249h-887zM817 1634l246 201h106l-309 -272h-100l-213 272h100z" />
    <glyph glyph-name="zcaron" unicode="&#x17e;" horiz-adv-x="944" 
d="M164 1038h801l-15 -82l-841 -860h716l-16 -96h-856l14 84l840 858h-660zM600 1239l246 201h106l-309 -273h-100l-213 273h100z" />
    <glyph glyph-name="florin" unicode="&#x192;" horiz-adv-x="991" 
d="M1100 1434l-17 -97h-172q-82 0 -130 -39q-47 -38 -68 -118l-115 -435h262l-16 -96h-271l-170 -645q-30 -115 -100 -168t-190 -53h-195l19 96h172q83 0 129 39t69 119l160 612h-250l16 96h259l122 467q33 115 103 168q71 54 188 54h195z" />
    <glyph glyph-name="AEacute" unicode="&#x1fc;" horiz-adv-x="1921" 
d="M1882 1835l-272 -270h-88l233 270h127zM1972 1331h-760l-96 -547h637l-18 -102h-635l-105 -580h789l-19 -102h-897l70 399h-565l-322 -399h-133l1133 1434h940zM956 498l146 835l-660 -835h514z" />
    <glyph glyph-name="aeacute" unicode="&#x1fd;" horiz-adv-x="1892" 
d="M981 1163l233 271h127l-272 -271h-88zM319 972q116 79 297 79q153 0 244 -67q91 -66 98 -193q72 119 190 189q119 71 261 71q187 0 296 -108q110 -108 110 -292q0 -75 -13 -137h-844q-8 -43 -8 -86q0 -96 40 -175q40 -78 115 -125q74 -46 177 -46q130 0 225 69
q96 70 148 193h106q-57 -167 -186 -262q-128 -94 -297 -94q-159 0 -266 85q-111 88 -140 228q-45 -139 -178 -226q-134 -87 -307 -87q-161 0 -255 72q-95 72 -95 198q0 170 126 255q125 85 337 85h352l14 78q8 48 8 76q0 99 -71 152q-72 54 -197 54q-260 0 -342 -210h-106
q45 145 161 224zM1134 860q-117 -100 -157 -254h723q4 33 4 53q0 141 -83 221q-81 78 -224 78q-149 0 -263 -98zM479 510q-151 0 -243 -63q-93 -64 -93 -181q0 -85 67 -137q66 -51 177 -51q178 0 292 96q113 95 142 250l17 86h-359z" />
    <glyph glyph-name="Scommaaccent" unicode="&#x218;" horiz-adv-x="1222" 
d="M190 442q1 -172 110 -262q108 -90 280 -90q189 0 304 80q113 79 113 229q0 108 -96 171q-95 62 -268 106q-199 51 -309 130q-111 80 -111 226q0 199 145 307q147 109 375 109q216 0 340 -110q123 -110 123 -289h-109q-1 134 -99 217q-97 82 -261 82q-182 0 -293 -81
q-110 -80 -110 -229q0 -105 89 -162q88 -57 259 -102q198 -50 318 -134q118 -82 118 -230q0 -201 -144 -312q-143 -110 -382 -110q-236 0 -368 120t-132 334h108zM465 -109h106l-172 -288h-80z" />
    <glyph glyph-name="scommaaccent" unicode="&#x219;" horiz-adv-x="999" 
d="M830 974q104 -80 104 -229h-103q-2 104 -77 160q-78 58 -201 58q-139 0 -223 -55q-82 -54 -82 -146q0 -82 66 -121q65 -39 198 -63q180 -34 271 -94q89 -59 89 -181q0 -151 -118 -233t-301 -82q-178 0 -291 89t-113 242h105q5 -116 86 -178q82 -63 213 -63q143 0 228 56
q87 57 87 157q0 81 -67 122q-62 38 -201 66q-180 30 -268 90q-89 60 -89 183q0 142 114 221q115 80 298 80q172 0 275 -79zM358 -109h107l-172 -288h-80z" />
    <glyph glyph-name="uni021A" unicode="&#x21a;" horiz-adv-x="1187" 
d="M207 1434h1093l-18 -103h-491l-236 -1331h-111l236 1331h-492zM428 -109h107l-173 -288h-79z" />
    <glyph glyph-name="uni021B" unicode="&#x21b;" horiz-adv-x="612" 
d="M266 942h-196l16 96h197l51 291h104l-51 -291h277l-17 -96h-276l-125 -702q-4 -33 -4 -52q0 -50 27 -71t93 -21h154l-16 -96h-154q-112 0 -161 42q-50 42 -50 128q0 29 10 92zM231 -109h107l-172 -288h-80z" />
    <glyph glyph-name="uni0237" unicode="&#x237;" horiz-adv-x="360" 
d="M-162 -313q79 0 120 35q42 36 54 112l213 1204h105l-213 -1208q-22 -126 -88 -183t-193 -57h-131l16 97h117z" />
    <glyph glyph-name="uni02BC" unicode="&#x2bc;" horiz-adv-x="649" 
d="M475 1434h100l-159 -297h-80z" />
    <glyph glyph-name="circumflex" unicode="&#x2c6;" horiz-adv-x="819" 
d="M559 1364l-233 -203h-117l307 273h102l213 -273h-102z" />
    <glyph glyph-name="caron" unicode="&#x2c7;" horiz-adv-x="819" 
d="M530 1233l246 201h107l-310 -273h-100l-213 273h100z" />
    <glyph glyph-name="breve" unicode="&#x2d8;" horiz-adv-x="819" 
d="M395 1434q0 -81 41 -130t113 -49q74 0 128 51q51 48 68 128h82q-23 -122 -99 -191t-185 -69q-112 0 -172 70t-60 190h84z" />
    <glyph glyph-name="dotaccent" unicode="&#x2d9;" horiz-adv-x="819" 
d="M607 1396q20 -18 20 -44q0 -36 -24 -58q-23 -22 -54 -22t-49 18q-19 19 -19 45q0 36 23 57t55 21q30 0 48 -17z" />
    <glyph glyph-name="ring" unicode="&#x2da;" horiz-adv-x="819" 
d="M393 1518q66 65 162 65t161 -65q66 -66 66 -158t-66 -158q-65 -65 -161 -65t-162 65q-67 66 -67 158t67 158zM667 1474q-46 46 -112 46t-112 -46t-46 -114t46 -114t112 -46t112 46t46 114t-46 114z" />
    <glyph glyph-name="ogonek" unicode="&#x2db;" horiz-adv-x="819" 
d="M28 -124q70 70 201 153l86 -29q-130 -78 -194 -135q-68 -60 -68 -119q0 -38 23 -58t74 -20h122l-12 -78h-135q-77 0 -120 36q-44 36 -44 100q0 83 67 150z" />
    <glyph glyph-name="tilde" unicode="&#x2dc;" horiz-adv-x="819" 
d="M516 1399q26 -18 55 -51q24 -28 37 -37q18 -13 43 -13q47 0 74 32t35 79l67 -4q-15 -89 -59 -133q-45 -45 -115 -45q-47 0 -72 16q-29 19 -55 49q-24 28 -38 38q-17 13 -44 13q-85 0 -106 -110l-70 2q16 87 62 134q45 46 114 46q49 0 72 -16z" />
    <glyph glyph-name="hungarumlaut" unicode="&#x2dd;" horiz-adv-x="829" 
d="M295 1161l233 273h125l-272 -273h-86zM631 1161l233 273h123l-270 -273h-86z" />
    <glyph glyph-name="gravecomb" unicode="&#x300;" horiz-adv-x="0" 
d="M-514 1434h119l137 -271h-82z" />
    <glyph glyph-name="acutecomb" unicode="&#x301;" horiz-adv-x="0" 
d="M-338 1163l234 271h127l-273 -271h-88z" />
    <glyph glyph-name="uni0302" unicode="&#x302;" horiz-adv-x="0" 
d="M-260 1364l-234 -203h-116l307 273h102l213 -273h-102z" />
    <glyph glyph-name="tildecomb" unicode="&#x303;" horiz-adv-x="0" 
d="M-303 1399q26 -18 55 -51q24 -28 37 -37q18 -13 43 -13q47 0 74 32t35 79l67 -4q-15 -90 -60 -133q-46 -45 -114 -45q-48 0 -73 16q-26 17 -54 49q-24 28 -38 38q-17 13 -44 13q-85 0 -106 -110l-70 2q16 87 62 134q45 46 114 46q49 0 72 -16z" />
    <glyph glyph-name="uni0304" unicode="&#x304;" horiz-adv-x="0" 
d="M-539 1282l15 80h524l-14 -80h-525z" />
    <glyph glyph-name="uni0306" unicode="&#x306;" horiz-adv-x="0" 
d="M-424 1434q0 -81 41 -130t113 -49q74 0 128 51q51 48 68 128h82q-23 -122 -99 -191t-185 -69q-113 0 -173 70q-59 69 -59 190h84z" />
    <glyph glyph-name="uni0307" unicode="&#x307;" horiz-adv-x="0" 
d="M-212 1396q19 -18 19 -44q0 -36 -23 -58t-54 -22t-49 18q-19 19 -19 45q0 35 22 57q21 21 56 21q30 0 48 -17z" />
    <glyph glyph-name="uni0308" unicode="&#x308;" horiz-adv-x="0" 
d="M-387 1371q18 -18 18 -44q0 -33 -22 -55q-23 -23 -55 -23q-28 0 -49 19q-19 18 -19 45q0 33 22 54q24 22 56 22q31 0 49 -18zM-46 1371q19 -18 19 -44q0 -33 -22 -55q-23 -23 -55 -23t-50 18t-18 46q0 33 22 54q24 22 56 22q28 0 48 -18z" />
    <glyph glyph-name="uni030A" unicode="&#x30a;" horiz-adv-x="0" 
d="M-426 1518q66 65 162 65t161 -65q66 -66 66 -158t-66 -158q-65 -65 -161 -65t-162 65q-68 66 -68 158t68 158zM-153 1474q-46 46 -111 46q-66 0 -112 -46t-46 -114t46 -114t112 -46q65 0 111 46q47 47 47 114t-47 114z" />
    <glyph glyph-name="uni030B" unicode="&#x30b;" horiz-adv-x="0" 
d="M-524 1161l233 273h125l-272 -273h-86zM-188 1161l233 273h123l-270 -273h-86z" />
    <glyph glyph-name="uni030C" unicode="&#x30c;" horiz-adv-x="0" 
d="M-289 1233l246 201h106l-309 -273h-100l-213 273h100z" />
    <glyph glyph-name="uni0312" unicode="&#x312;" horiz-adv-x="0" 
d="M-266 1145h-105l168 289h84z" />
    <glyph glyph-name="uni0326" unicode="&#x326;" horiz-adv-x="0" 
d="M-578 -109h107l-172 -288h-80z" />
    <glyph glyph-name="uni0327" unicode="&#x327;" horiz-adv-x="0" 
d="M-461 20l-51 -120h23q73 0 114 -35t41 -96q0 -79 -58 -128q-60 -51 -143 -51h-151l10 66h129q59 0 95 30t36 76q0 76 -94 76h-86l76 182h59z" />
    <glyph glyph-name="uni0328" unicode="&#x328;" horiz-adv-x="0" 
d="M-792 -124q68 68 202 153l86 -29q-130 -78 -194 -135q-68 -60 -68 -119q0 -38 23 -58t73 -20h123l-12 -78h-135q-76 0 -120 36t-44 100q0 84 66 150z" />
    <glyph glyph-name="pi" unicode="&#x3c0;" horiz-adv-x="1232" 
d="M1286 1038l-16 -96h-185l-167 -942h-105l166 942h-582l-166 -942h-104l166 942h-182l16 96h1159z" />
    <glyph glyph-name="uni0E3F" unicode="&#xe3f;" horiz-adv-x="1263" 
d="M1061 636q72 -72 72 -194q0 -214 -156 -328t-414 -114h-35l-36 -205h-76l37 205h-398l254 1434h393l37 206h76l-37 -206h6q193 0 298 -87q106 -88 106 -237q0 -154 -87 -250t-243 -129q130 -22 203 -95zM401 1333l-98 -551h287l96 551h-285zM762 1333l-96 -551h34
q175 0 275 85t100 235q0 106 -77 169q-75 62 -222 62h-14zM184 100h285l102 582h-284zM905 187q115 88 115 253q0 120 -90 181q-89 61 -258 61h-25l-102 -582h45q201 0 315 87z" />
    <glyph glyph-name="Wgrave" unicode="&#x1e80;" horiz-adv-x="1955" 
d="M207 1434h117l147 -1289l610 1289h115l143 -1289l611 1289h118l-684 -1434h-135l-145 1249l-588 -1249h-133zM946 1835h119l137 -270h-82z" />
    <glyph glyph-name="wgrave" unicode="&#x1e81;" horiz-adv-x="1591" 
d="M115 1038h106l141 -913l476 913h98l133 -913l481 913h111l-553 -1038h-113l-137 872l-461 -872l-114 -2zM696 1440h119l137 -271h-82z" />
    <glyph glyph-name="Wacute" unicode="&#x1e82;" horiz-adv-x="1955" 
d="M207 1434h117l147 -1289l610 1289h115l143 -1289l611 1289h118l-684 -1434h-135l-145 1249l-588 -1249h-133zM1122 1565l234 270h127l-273 -270h-88z" />
    <glyph glyph-name="wacute" unicode="&#x1e83;" horiz-adv-x="1591" 
d="M115 1038h106l141 -913l476 913h98l133 -913l481 913h111l-553 -1038h-113l-137 872l-461 -872l-114 -2zM872 1169l234 271h127l-272 -271h-89z" />
    <glyph glyph-name="Wdieresis" unicode="&#x1e84;" horiz-adv-x="1955" 
d="M207 1434h117l147 -1289l610 1289h115l143 -1289l611 1289h118l-684 -1434h-135l-145 1249l-588 -1249h-133zM1071 1773q19 -19 19 -44q0 -33 -23 -56q-22 -22 -55 -22q-28 0 -48 18t-20 45q0 33 23 54q24 22 55 22q32 0 49 -17zM1412 1773q20 -18 20 -44q0 -33 -23 -56
q-22 -22 -55 -22q-32 0 -49 17q-19 19 -19 46q0 33 23 54q24 22 55 22q30 0 48 -17z" />
    <glyph glyph-name="wdieresis" unicode="&#x1e85;" horiz-adv-x="1591" 
d="M115 1038h106l141 -913l476 913h98l133 -913l481 913h111l-553 -1038h-113l-137 872l-461 -872l-114 -2zM821 1377q19 -19 19 -44q0 -32 -23 -55t-55 -23q-27 0 -48 19q-20 18 -20 45q0 33 23 54q24 22 55 22t49 -18zM1162 1377q20 -18 20 -44q0 -32 -23 -55t-55 -23
q-31 0 -49 18q-19 19 -19 46q0 33 23 54q24 22 55 22q28 0 48 -18z" />
    <glyph glyph-name="Ygrave" unicode="&#x1ef2;" horiz-adv-x="1259" 
d="M1266 1436h129l-709 -908l-98 -528h-107l97 528l-388 908h117l342 -801zM590 1835h119l137 -270h-82z" />
    <glyph glyph-name="ygrave" unicode="&#x1ef3;" horiz-adv-x="976" 
d="M219 1038l199 -915l518 915h113l-713 -1235q-49 -86 -86 -133q-34 -42 -77 -61q-44 -19 -112 -19h-161l16 97h125q57 0 87 13q33 14 56 43q30 38 64 95l90 158l-227 1042h108zM383 1440h119l137 -271h-82z" />
    <glyph glyph-name="endash" unicode="&#x2013;" horiz-adv-x="1196" 
d="M123 539l14 86h955l-15 -86h-954z" />
    <glyph glyph-name="emdash" unicode="&#x2014;" horiz-adv-x="1882" 
d="M137 627h1643l-15 -86h-1642z" />
    <glyph glyph-name="quoteleft" unicode="&#x2018;" horiz-adv-x="376" 
d="M232 1078q-27 38 -27 98q0 113 76 189q77 77 194 81l-4 -62q-80 -6 -130 -53q-51 -48 -58 -108v-13q0 -25 8 -41q17 25 49 25t49 -17q19 -19 19 -49q0 -36 -28 -62t-71 -26q-50 0 -77 38z" />
    <glyph glyph-name="quoteright" unicode="&#x2019;" horiz-adv-x="376" 
d="M398 1406q28 -39 28 -97q0 -114 -76 -190q-77 -77 -194 -81l4 62q80 6 130 53t58 109v12q0 25 -8 41q-17 -25 -49 -25q-31 0 -49 18q-19 19 -19 48q0 36 28 62t71 26q49 0 76 -38z" />
    <glyph glyph-name="quotesinglbase" unicode="&#x201a;" horiz-adv-x="376" 
d="M169 105q28 -39 28 -97q0 -113 -76 -189q-77 -77 -195 -81l4 61q79 6 130 54q52 49 59 108v12q0 25 -8 41q-17 -24 -50 -24q-32 0 -49 17q-18 18 -18 48q0 37 28 63q26 25 70 25q50 0 77 -38z" />
    <glyph glyph-name="quotedblleft" unicode="&#x201c;" horiz-adv-x="684" 
d="M232 1078q-27 38 -27 98q0 113 76 189q77 77 194 81l-4 -62q-80 -6 -130 -53q-51 -48 -58 -108v-13q0 -25 8 -41q17 25 49 25t49 -17q19 -19 19 -49q0 -36 -28 -62t-71 -26q-50 0 -77 38zM540 1078q-28 39 -28 98q0 113 76 189q77 77 194 81l-4 -62q-80 -6 -130 -53
q-51 -48 -58 -108v-13q0 -25 8 -41q17 25 49 25t49 -17q19 -19 19 -49q0 -36 -28 -62t-71 -26q-49 0 -76 38z" />
    <glyph glyph-name="quotedblright" unicode="&#x201d;" horiz-adv-x="684" 
d="M398 1406q28 -39 28 -97q0 -114 -76 -190q-77 -77 -194 -81l4 62q80 6 130 53t58 109v12q0 25 -8 41q-17 -25 -49 -25q-31 0 -49 18q-19 19 -19 48q0 36 28 62t71 26q49 0 76 -38zM706 1406q27 -38 27 -97q0 -114 -76 -190q-77 -77 -194 -81l4 62q80 6 130 53t58 109v12
q0 25 -8 41q-17 -25 -49 -25q-31 0 -49 18q-19 19 -19 48q0 36 28 62t71 26q50 0 77 -38z" />
    <glyph glyph-name="quotedblbase" unicode="&#x201e;" horiz-adv-x="684" 
d="M169 105q28 -39 28 -97q0 -113 -76 -189q-77 -77 -195 -81l4 61q79 6 130 54q52 49 59 108v12q0 25 -8 41q-17 -24 -50 -24q-32 0 -49 17q-18 18 -18 48q0 37 28 63q26 25 70 25q50 0 77 -38zM476 105q28 -39 28 -97q0 -113 -76 -189q-76 -77 -195 -81l5 61q79 6 130 54
t58 108v12q0 25 -8 41q-16 -24 -49 -24t-50 17q-18 18 -18 48q0 37 28 63q26 25 70 25q50 0 77 -38z" />
    <glyph glyph-name="dagger" unicode="&#x2020;" horiz-adv-x="1054" 
d="M1057 983l-17 -90h-401l-158 -893h-94l158 893h-402l15 90h403l80 451h94l-80 -451h402z" />
    <glyph glyph-name="daggerdbl" unicode="&#x2021;" horiz-adv-x="1087" 
d="M1075 963h-407l-86 -492h407l-16 -92h-408l-67 -379h-95l68 379h-408l17 92h407l86 492h-407l16 92h408l67 379h95l-68 -379h408z" />
    <glyph glyph-name="bullet" unicode="&#x2022;" horiz-adv-x="688" 
d="M274 603q-32 31 -32 85q0 62 45 102q43 39 104 39q53 0 85 -30t32 -82q0 -62 -44 -104t-102 -42q-54 0 -88 32z" />
    <glyph glyph-name="ellipsis" unicode="&#x2026;" horiz-adv-x="1067" 
d="M168 125q18 -18 18 -47q0 -38 -26 -63t-64 -25q-31 2 -49 20t-18 47q0 39 26 62q27 24 64 24q31 0 49 -18zM514 125q18 -18 18 -47q0 -38 -26 -63t-64 -25q-31 2 -49 20t-18 47q0 39 26 62q27 24 64 24q31 0 49 -18zM858 125q19 -19 19 -47q0 -38 -27 -63
q-26 -25 -64 -25q-31 2 -49 20t-18 47q0 39 26 62q27 24 64 24q31 0 49 -18z" />
    <glyph glyph-name="perthousand" unicode="&#x2030;" horiz-adv-x="2596" 
d="M841 1366q83 -80 83 -207q0 -106 -56 -198q-57 -94 -147 -147q-91 -54 -201 -54q-132 0 -215 80q-82 79 -82 204q0 107 56 199q56 93 147 148t201 55q131 0 214 -80zM272 0l1219 1434h108l-1220 -1434h-107zM468 1315q-71 -45 -112 -118t-41 -153q0 -87 59 -143
q58 -55 150 -55q83 0 152 42t111 114t42 157q0 88 -57 145q-56 56 -149 56q-85 0 -155 -45zM1564 595q83 -80 83 -206q0 -107 -56 -199t-147 -146q-92 -54 -201 -54q-135 0 -217 79t-82 205q0 108 55 199q57 93 149 147q93 54 202 54q132 0 214 -79zM2358 594
q83 -80 83 -207q0 -107 -55 -198q-54 -89 -149 -146q-92 -55 -199 -55q-134 0 -216 79q-83 80 -83 205q0 108 55 199t149 147t201 56q131 0 214 -80zM1190 543q-70 -46 -111 -118q-41 -73 -41 -153q0 -85 59 -142q57 -56 150 -56q84 0 152 43q69 44 111 115q42 72 42 157
q0 87 -57 143q-58 56 -152 56q-84 0 -153 -45zM1986 543q-71 -45 -112 -118t-41 -153q0 -88 57 -143q56 -55 152 -55q83 0 151 43q72 45 112 114q42 72 42 156q0 87 -57 144t-150 57q-84 0 -154 -45z" />
    <glyph glyph-name="guilsinglleft" unicode="&#x2039;" horiz-adv-x="681" 
d="M651 1038l-422 -520l234 -518h-103l-243 520l424 518h110z" />
    <glyph glyph-name="guilsinglright" unicode="&#x203a;" horiz-adv-x="681" 
d="M31 0l422 520l-234 518h103l243 -520l-424 -518h-110z" />
    <glyph glyph-name="uni2042" unicode="&#x2042;" horiz-adv-x="1951" 
d="M1374 1274l-278 -100l139 -213l-64 -52l-139 224l-219 -224l-51 52l217 215l-244 100l43 72l236 -111l47 281h76l-56 -281l275 111zM741 274l-278 -100l139 -213l-63 -51l-140 223l-219 -223l-51 51l217 215l-244 100l43 72l236 -110l47 280h76l-55 -280l274 110z
M1761 274l-278 -100l139 -213l-63 -51l-140 223l-219 -223l-51 51l217 215l-244 100l43 72l236 -110l47 280h76l-56 -280l275 110z" />
    <glyph glyph-name="fraction" unicode="&#x2044;" horiz-adv-x="370" 
d="M-408 0l1162 1434h92l-1163 -1434h-91z" />
    <glyph glyph-name="uni2051" unicode="&#x2051;" horiz-adv-x="931" 
d="M918 1274l-279 -100l139 -213l-63 -52l-140 224l-219 -224l-51 52l217 215l-243 100l43 72l235 -111l47 281h76l-55 -281l274 111zM739 268l-278 -100l139 -213l-63 -51l-140 223l-219 -223l-51 51l217 215l-244 100l43 72l236 -111l47 281h76l-56 -281l275 111z" />
    <glyph glyph-name="uni2070" unicode="&#x2070;" horiz-adv-x="686" 
d="M713 1575q61 -77 61 -211q0 -122 -46 -232q-48 -114 -128 -181q-81 -68 -186 -68q-114 0 -176 78q-62 79 -62 210q0 122 45 233q45 112 127 180q82 69 187 69q117 0 178 -78zM387 1521q-64 -64 -98 -160q-35 -99 -35 -196q0 -94 43 -153q43 -60 119 -60q81 0 146 62
q66 63 100 156t34 194q0 97 -43 158t-118 61q-86 0 -148 -62z" />
    <glyph glyph-name="uni2074" unicode="&#x2074;" horiz-adv-x="679" 
d="M614 1638h91l-84 -479h127l-13 -69h-127l-35 -197h-73l35 197h-392l11 69zM616 1550l-374 -391h305z" />
    <glyph glyph-name="uni2075" unicode="&#x2075;" horiz-adv-x="638" 
d="M719 1565h-385l-62 -269q37 43 84 64q44 20 111 20q101 0 163 -59t62 -152q0 -131 -83 -212q-81 -80 -210 -80q-118 0 -180 62q-63 63 -59 153h71q0 -65 49 -106q47 -40 123 -40q92 0 152 63q59 62 59 154q0 71 -46 111q-47 41 -117 41q-60 0 -110 -28q-47 -27 -77 -75
h-71l96 422h444z" />
    <glyph glyph-name="uni2076" unicode="&#x2076;" horiz-adv-x="657" 
d="M699 1595q60 -57 59 -155h-70q-2 74 -42 108q-41 35 -103 35q-105 0 -182 -83q-76 -82 -103 -226q-6 -38 -6 -74q21 76 85 124q65 48 157 48q99 0 159 -54t60 -144q0 -126 -84 -209q-83 -82 -215 -82q-118 0 -178 69t-60 193q0 129 45 246q45 116 128 189q84 73 196 73
q93 0 154 -58zM323 1247q-63 -61 -63 -151q0 -70 43 -109t115 -39q95 0 157 62t62 153q0 71 -42 108q-43 38 -114 38q-94 0 -158 -62z" />
    <glyph glyph-name="uni2077" unicode="&#x2077;" horiz-adv-x="616" 
d="M244 1638h522l-8 -63l-479 -684h-86l479 680l-439 -2z" />
    <glyph glyph-name="uni2078" unicode="&#x2078;" horiz-adv-x="657" 
d="M683 1605q62 -47 62 -124t-48 -130t-128 -71q63 -11 100 -54q38 -44 38 -106q0 -100 -86 -169q-84 -68 -218 -68q-113 0 -183 50q-68 49 -68 130q0 85 59 144q61 61 149 79q-54 10 -89 48q-33 36 -33 96q0 95 81 158q83 65 201 65q100 0 163 -48zM372 1541
q-59 -47 -59 -111q0 -59 43 -89q44 -30 111 -30q85 0 144 48t59 114q0 53 -43 83q-45 31 -111 31q-86 0 -144 -46zM292 1197q-63 -49 -63 -122q0 -57 51 -93q49 -34 128 -34q98 0 159 49q62 50 62 123q0 61 -50 94q-49 33 -128 33q-95 0 -159 -50z" />
    <glyph glyph-name="uni2079" unicode="&#x2079;" horiz-adv-x="657" 
d="M220 940q-60 57 -58 156h71q2 -74 41 -109q40 -35 103 -35q105 0 181 84q78 85 106 226q3 14 5 43q1 12 1 30q-21 -77 -86 -124q-66 -48 -158 -48q-98 0 -159 55q-60 54 -60 144q0 126 84 209q83 82 215 82q117 0 178 -70q59 -68 59 -192q0 -129 -45 -246
q-45 -118 -128 -190q-82 -72 -195 -72q-95 0 -155 57zM597 1288q62 61 62 152q0 69 -43 108t-112 39q-99 0 -160 -61t-61 -154q0 -70 42 -107q43 -38 113 -38q97 0 159 61z" />
    <glyph glyph-name="uni2080" unicode="&#x2080;" horiz-adv-x="686" 
d="M518 475q62 -79 62 -211q0 -122 -46 -232q-47 -112 -128 -180q-82 -69 -187 -69q-115 0 -176 78q-61 77 -61 211q0 121 45 232q45 112 127 180q82 69 186 69q116 0 178 -78zM193 421q-66 -66 -99 -160q-35 -99 -35 -195q0 -95 43 -154t119 -59q83 0 147 61t99 157t35 193
t-43 158t-119 61q-85 0 -147 -62z" />
    <glyph glyph-name="uni2081" unicode="&#x2081;" horiz-adv-x="344" 
d="M51 -205l94 522q-14 -14 -43 -14h-141l14 72h138q18 0 31 14q14 15 18 35l20 117h72l-131 -746h-72z" />
    <glyph glyph-name="uni2082" unicode="&#x2082;" horiz-adv-x="636" 
d="M479 503q60 -49 60 -136t-52 -153q-53 -67 -145 -134l-289 -213h410l-12 -72h-523l11 70l350 256q86 62 130 116q42 53 42 119q0 60 -40 94q-39 33 -108 33q-86 0 -142 -49q-57 -49 -73 -139h-71q18 125 95 191q78 67 193 67q103 0 164 -50z" />
    <glyph glyph-name="uni2083" unicode="&#x2083;" horiz-adv-x="655" 
d="M137 495q77 58 187 58q102 0 163 -48q62 -48 62 -126q0 -77 -50 -129q-49 -51 -128 -66q60 -10 98 -51q37 -40 37 -102q0 -106 -80 -177t-215 -71q-119 0 -183 60q-65 60 -65 175h74q0 -84 47 -126q46 -42 133 -42q92 0 153 50q60 49 60 125q0 61 -47 94t-129 33h-51
l10 55h45q92 0 154 44q61 43 61 118q0 51 -42 83q-41 31 -109 31q-84 0 -140 -41q-54 -39 -69 -110h-74q21 105 98 163z" />
    <glyph glyph-name="uni2084" unicode="&#x2084;" horiz-adv-x="679" 
d="M422 541h90l-84 -480h127l-12 -69h-127l-35 -197h-74l35 197h-391l10 69zM424 453l-375 -392h305z" />
    <glyph glyph-name="uni2085" unicode="&#x2085;" horiz-adv-x="638" 
d="M524 467h-385l-61 -268q35 41 84 63q46 21 110 21q100 0 163 -60t63 -151q0 -131 -83 -212t-210 -81q-118 0 -180 62q-64 64 -60 153h72q0 -66 48 -106q47 -40 124 -40q91 0 151 63t60 155q0 70 -46 110q-47 41 -118 41q-60 0 -110 -28q-47 -26 -76 -74h-72l96 422h445z
" />
    <glyph glyph-name="uni2086" unicode="&#x2086;" horiz-adv-x="657" 
d="M505 496q60 -57 58 -156h-69q-2 75 -42 109t-104 34q-104 0 -181 -83t-104 -226q-6 -37 -6 -74q21 76 85 124q65 48 157 48q100 0 160 -54q59 -53 59 -144q0 -126 -84 -209q-83 -82 -215 -82q-117 0 -178 70q-59 68 -59 192q0 129 45 246q45 116 128 189q84 73 195 73
q95 0 155 -57zM128 147q-62 -61 -62 -151q0 -70 43 -109t114 -39q96 0 158 62q61 61 61 153q0 71 -42 108q-43 38 -113 38q-95 0 -159 -62z" />
    <glyph glyph-name="uni2087" unicode="&#x2087;" horiz-adv-x="616" 
d="M51 543h522l-8 -64l-479 -684h-86l479 680l-438 -2z" />
    <glyph glyph-name="uni2088" unicode="&#x2088;" horiz-adv-x="655" 
d="M488 505q63 -48 63 -124q0 -77 -48 -130t-128 -71q61 -10 99 -54t38 -106q0 -99 -86 -168t-217 -69q-113 0 -183 50q-69 49 -69 130q0 86 59 145q60 60 150 78q-54 10 -89 48q-34 37 -34 96q0 94 82 158q83 65 201 65q99 0 162 -48zM177 441q-58 -46 -58 -111
q0 -58 43 -88q45 -31 110 -31q86 0 145 48q58 48 58 114q0 54 -43 84q-44 30 -110 30q-87 0 -145 -46zM97 97q-62 -49 -62 -122q0 -58 50 -93q49 -34 128 -34q98 0 160 50q61 49 61 122q0 62 -50 95q-48 32 -128 32q-95 0 -159 -50z" />
    <glyph glyph-name="uni2089" unicode="&#x2089;" horiz-adv-x="659" 
d="M26 -160q-60 57 -59 156h72q2 -74 41 -109q38 -34 102 -34q106 0 182 84t105 225q3 14 5 43q1 12 1 31q-21 -77 -86 -124q-67 -49 -158 -49q-97 0 -158 55t-61 144q0 126 84 209q83 82 215 82q117 0 178 -70q60 -69 60 -192q0 -129 -45 -246q-45 -116 -128 -189
q-84 -73 -196 -73q-94 0 -154 57zM402 188q63 62 63 152q0 70 -43 109q-42 38 -113 38q-98 0 -159 -61q-62 -62 -62 -154q0 -70 42 -107q43 -38 114 -38q96 0 158 61z" />
    <glyph glyph-name="franc" unicode="&#x20a3;" horiz-adv-x="1067" 
d="M1159 1331h-729l-98 -567h604l-18 -102h-605l-51 -293h330l-17 -90h-329l-49 -279h-111l49 279h-184l14 90h187l188 1065h840z" />
    <glyph glyph-name="uni20A8" unicode="&#x20a8;" horiz-adv-x="1292" 
d="M1350 1434l-29 -84h-385q87 -40 134 -115q48 -76 48 -180h166l-24 -82h-150q-24 -159 -133 -254q-107 -94 -270 -109l231 -610h-125l-221 598h-432l18 102h420q168 0 271 71q101 70 124 202h-766l15 82h762q0 131 -85 203q-87 73 -233 73h-397l20 103h1041z" />
    <glyph glyph-name="Euro" unicode="&#x20ac;" horiz-adv-x="1341" 
d="M948 177q114 87 170 239h113q-67 -201 -210 -314q-144 -114 -349 -114q-223 0 -344 140q-122 141 -129 388h-156l14 84h144q2 101 22 203h-127l15 84h133q69 251 230 405q162 154 394 154q217 0 328 -117q110 -116 121 -313h-111q-27 327 -346 327q-184 0 -310 -123
q-129 -126 -190 -333h400l-29 -84h-393q-20 -107 -25 -203h394l-29 -84h-367q6 -206 98 -316t267 -110q158 0 272 87z" />
    <glyph glyph-name="uni20BF" unicode="&#x20bf;" horiz-adv-x="1253" 
d="M621 1649l-37 -215h182l39 215h92l-43 -219q154 -15 239 -100t85 -220q0 -154 -87 -250t-243 -129q130 -22 203 -95q71 -71 71 -194q0 -205 -140 -317q-141 -113 -372 -123l-39 -199h-92l35 197h-184l-35 -197h-94l35 197h-181l254 1434h183l36 215h93zM303 782h387
q175 0 276 85t101 235q0 106 -77 169q-75 62 -222 62h-367zM895 187q115 88 115 253q0 119 -89 181q-88 61 -259 61h-375l-103 -582h396q201 0 315 87z" />
    <glyph glyph-name="trademark" unicode="&#x2122;" horiz-adv-x="1417" 
d="M231 1434h486l-15 -72h-202l-84 -479h-80l86 479h-205zM797 1434h104l139 -455l303 455h109l-98 -551h-74l84 463l-307 -463h-64l-137 463l-84 -463h-74z" />
    <glyph glyph-name="uni2126" unicode="&#x2126;" horiz-adv-x="1527" 
d="M864 233q242 119 370 281q128 163 128 381q0 128 -62 231q-63 104 -167 160q-107 57 -240 57q-182 0 -325 -85q-145 -86 -225 -230q-81 -146 -81 -319q0 -144 73 -260t224 -216l-41 -233h-487l18 102h393l19 93q-158 95 -234 220q-75 124 -75 292q0 207 96 377t266 266
t381 96q166 0 298 -69q134 -70 206 -191q74 -124 74 -281q0 -243 -136 -424q-135 -180 -383 -288l-16 -91h393l-18 -102h-488z" />
    <glyph glyph-name="uni2153" unicode="&#x2153;" horiz-adv-x="1349" 
d="M207 690l94 522q-14 -14 -43 -14h-141l14 72h137q19 0 32 14q12 14 17 35l21 117h72l-131 -746h-72zM-63 0l1161 1434h92l-1163 -1434h-90zM883 699q79 59 186 59q103 0 164 -48t61 -126q0 -77 -50 -129q-49 -51 -128 -66q60 -10 98 -51q37 -40 37 -102q0 -107 -80 -178
q-79 -70 -215 -70q-118 0 -183 60q-64 60 -64 175h73q0 -84 47 -126t134 -42q93 0 152 49q61 50 61 125q0 61 -48 95q-45 32 -129 32h-51l10 56h46q91 0 153 44t62 117q0 51 -42 83q-43 32 -110 32q-83 0 -139 -41q-55 -40 -70 -110h-74q21 103 99 162z" />
    <glyph glyph-name="uni2155" unicode="&#x2155;" horiz-adv-x="1308" 
d="M207 690l94 522q-14 -14 -43 -14h-141l14 72h137q19 0 32 14q12 14 17 35l21 117h72l-131 -746h-72zM-63 0l1161 1434h92l-1163 -1434h-90zM1243 672h-385l-61 -269q37 43 84 64q44 20 110 20q101 0 163 -59q63 -60 63 -152q0 -130 -83 -211q-82 -81 -210 -81
q-119 0 -181 62q-63 63 -59 153h72q0 -65 48 -106q47 -40 124 -40q91 0 151 63t60 154q0 71 -46 111q-47 41 -118 41q-60 0 -110 -28q-47 -27 -77 -75h-71l96 422h444z" />
    <glyph glyph-name="uni2156" unicode="&#x2156;" horiz-adv-x="1599" 
d="M635 1396q59 -49 59 -136q0 -88 -51 -153q-53 -67 -145 -134l-289 -213h409l-12 -72h-522l10 70l350 256q88 63 130 115q42 53 42 120q0 60 -39 93q-40 34 -108 34q-86 0 -142 -49q-57 -49 -73 -139h-72q18 124 96 191t193 67q103 0 164 -50zM227 0l1162 1434h92
l-1164 -1434h-90zM1534 672h-385l-62 -269q37 43 84 64q44 20 111 20q101 0 163 -59t62 -152q0 -130 -83 -211q-82 -81 -210 -81q-118 0 -180 62q-63 63 -59 153h72q0 -65 48 -106q47 -40 124 -40q91 0 151 63t60 154q0 70 -47 111t-117 41q-60 0 -110 -28q-47 -27 -77 -75
h-71l96 422h444z" />
    <glyph glyph-name="uni2157" unicode="&#x2157;" horiz-adv-x="1619" 
d="M295 1392q77 58 186 58q103 0 164 -48q62 -48 62 -126q0 -76 -51 -129q-49 -51 -128 -66q62 -11 99 -51t37 -102q0 -106 -80 -177t-215 -71q-119 0 -184 60q-64 60 -64 175h74q0 -83 47 -125q46 -42 133 -42q93 0 152 49q61 50 61 125q0 61 -47 94t-129 33h-52l11 55h45
q91 0 153 44t62 118q0 52 -42 83q-41 31 -110 31q-83 0 -139 -41q-55 -40 -70 -110h-73q21 105 98 163zM246 0l1161 1434h92l-1163 -1434h-90zM1552 672h-385l-61 -269q37 43 84 64q44 20 110 20q101 0 163 -59q63 -60 63 -152q0 -130 -83 -211t-210 -81q-118 0 -180 62
q-64 64 -60 153h72q0 -65 48 -106q47 -40 124 -40q92 0 152 63q59 62 59 154q0 71 -46 111q-47 41 -118 41q-59 0 -109 -28q-47 -27 -77 -75h-72l96 422h445z" />
    <glyph glyph-name="uni2158" unicode="&#x2158;" horiz-adv-x="1646" 
d="M578 1434h90l-84 -480h127l-13 -69h-127l-34 -197h-74l35 197h-392l11 69zM580 1346l-375 -392h305zM272 0l1162 1434h92l-1164 -1434h-90zM1579 672h-385l-61 -269q37 43 84 64q44 20 110 20q101 0 163 -59t62 -152q0 -130 -83 -211t-209 -81q-119 0 -181 62
q-63 63 -59 153h72q0 -65 48 -106q47 -40 124 -40q91 0 151 63t60 154q0 70 -47 111t-117 41q-60 0 -110 -28q-47 -27 -77 -75h-71l96 422h444z" />
    <glyph glyph-name="uni2159" unicode="&#x2159;" horiz-adv-x="1292" 
d="M207 690l94 522q-14 -14 -43 -14h-141l14 72h137q19 0 32 14q12 14 17 35l21 117h72l-131 -746h-72zM-63 0l1161 1434h92l-1163 -1434h-90zM1187 700q59 -57 58 -155h-69q-2 73 -42 108q-41 35 -104 35q-104 0 -181 -83t-104 -226q-6 -38 -6 -74q21 76 85 124t157 48
q100 0 160 -54q59 -53 59 -144q0 -127 -84 -209q-83 -82 -215 -82q-118 0 -178 69q-59 68 -59 193q0 129 45 246q45 116 128 189q84 73 195 73q94 0 155 -58zM810 352q-62 -61 -62 -151q0 -70 43 -109t114 -39q96 0 158 62q61 61 61 153q0 70 -42 108q-43 38 -113 38
q-95 0 -159 -62z" />
    <glyph glyph-name="oneeighth" unicode="&#x215b;" horiz-adv-x="1318" 
d="M207 690l94 522q-14 -14 -43 -14h-141l14 72h137q19 0 32 14q12 14 17 35l21 117h72l-131 -746h-72zM-63 0l1161 1434h92l-1163 -1434h-90zM1197 710q63 -48 63 -124t-49 -130q-48 -53 -128 -71q63 -11 100 -54q38 -44 38 -106q0 -100 -86 -169q-84 -68 -217 -68
q-114 0 -184 50q-68 49 -68 130q0 85 59 144q61 62 149 79q-54 10 -89 48q-33 36 -33 96q0 94 82 158q83 65 200 65q100 0 163 -48zM886 646q-59 -47 -59 -111q0 -59 43 -89q44 -30 111 -30q85 0 144 48t59 114q0 54 -43 84t-111 30q-86 0 -144 -46zM806 302
q-63 -50 -63 -122q0 -57 51 -93q49 -34 128 -34q98 0 159 49q62 50 62 123q0 61 -50 94t-128 33q-95 0 -159 -50z" />
    <glyph glyph-name="threeeighths" unicode="&#x215c;" horiz-adv-x="1630" 
d="M295 1392q77 58 186 58q103 0 164 -48q62 -48 62 -126q0 -76 -51 -129q-49 -51 -128 -66q62 -11 99 -51t37 -102q0 -106 -80 -177t-215 -71q-119 0 -184 60q-64 60 -64 175h74q0 -83 47 -125q46 -42 133 -42q93 0 152 49q61 50 61 125q0 61 -47 94t-129 33h-52l11 55h45
q91 0 153 44t62 118q0 52 -42 83q-41 31 -110 31q-83 0 -139 -41q-55 -40 -70 -110h-73q21 105 98 163zM246 0l1161 1434h92l-1163 -1434h-90zM1506 710q63 -48 63 -124q0 -78 -48 -130q-48 -53 -128 -71q61 -11 99 -54q38 -44 38 -106q0 -100 -86 -169q-84 -68 -217 -68
q-114 0 -184 50q-68 49 -68 130q0 85 59 144q61 61 150 79q-54 10 -89 48q-34 37 -34 96q0 94 82 158q83 65 200 65q100 0 163 -48zM1195 646q-58 -46 -58 -111q0 -59 43 -89t110 -30q86 0 145 48q58 48 58 114q0 54 -43 84q-44 30 -111 30q-86 0 -144 -46zM1115 302
q-62 -49 -62 -122q0 -58 50 -93q49 -34 128 -34q99 0 160 49t61 123q0 61 -50 94t-128 33q-95 0 -159 -50z" />
    <glyph glyph-name="fiveeighths" unicode="&#x215d;" horiz-adv-x="1613" 
d="M682 1360h-385l-61 -268q36 42 83 63q46 21 111 21q100 0 163 -60q62 -59 62 -151q0 -131 -83 -212q-82 -81 -210 -81q-118 0 -180 62q-63 63 -59 153h72q0 -65 48 -106q47 -40 124 -40q91 0 151 63t60 154q0 70 -47 111t-117 41q-60 0 -110 -28q-48 -27 -77 -74h-71
l96 422h444zM231 0l1162 1434h92l-1163 -1434h-91zM1492 710q62 -47 62 -124q0 -78 -48 -130q-48 -53 -128 -71q63 -11 100 -54q38 -44 38 -106q0 -100 -86 -169q-84 -68 -218 -68q-113 0 -183 50q-68 49 -68 130q0 85 59 144q62 62 149 79q-54 10 -89 48q-33 36 -33 96
q0 95 81 158q83 65 201 65q100 0 163 -48zM1181 646q-59 -47 -59 -111q0 -59 43 -89t111 -30q86 0 144 48q59 48 59 114q0 54 -43 84q-44 30 -111 30q-86 0 -144 -46zM1101 302q-63 -50 -63 -122q0 -57 51 -93q49 -34 128 -34q98 0 159 49q62 50 62 123q0 61 -50 94t-128 33
q-95 0 -159 -50z" />
    <glyph glyph-name="seveneighths" unicode="&#x215e;" horiz-adv-x="1589" 
d="M207 1434h522l-8 -64l-479 -684h-86l479 680l-438 -2zM207 0l1161 1434h92l-1163 -1434h-90zM1467 710q63 -48 63 -124q0 -78 -48 -130q-48 -53 -128 -71q62 -11 99 -54q38 -44 38 -106q0 -100 -86 -169q-84 -68 -217 -68q-113 0 -183 50q-69 50 -69 130q0 85 59 144
q61 61 150 79q-54 10 -89 48q-34 37 -34 96q0 94 82 158q83 65 201 65q99 0 162 -48zM1156 646q-58 -46 -58 -111q0 -59 43 -89q44 -30 110 -30q87 0 145 48t58 114q0 54 -43 84t-111 30q-86 0 -144 -46zM1076 302q-62 -49 -62 -122q0 -58 50 -93q49 -34 128 -34
q99 0 160 49t61 123q0 61 -50 94t-128 33q-95 0 -159 -50z" />
    <glyph glyph-name="arrowleft" unicode="&#x2190;" horiz-adv-x="1150" 
d="M20 549l529 530l65 -65l-417 -416h831v-96h-831l417 -418l-65 -66z" />
    <glyph glyph-name="arrowup" unicode="&#x2191;" horiz-adv-x="1298" 
d="M1180 524l-68 -67l-416 420v-877h-96v877l-416 -418l-65 65l528 527z" />
    <glyph glyph-name="arrowright" unicode="&#x2192;" horiz-adv-x="1150" 
d="M1130 551l-528 -531l-65 66l417 418h-831v96h831l-417 416l65 65z" />
    <glyph glyph-name="arrowdown" unicode="&#x2193;" horiz-adv-x="1298" 
d="M1180 514l-533 -526l-528 526l65 66l416 -418v876h96v-876l416 420z" />
    <glyph glyph-name="arrowboth" unicode="&#x2194;" horiz-adv-x="1746" 
d="M1133 1055l503 -506l-503 -506l-66 66l395 393h-1177l395 -393l-66 -66l-503 506l503 506l66 -66l-395 -391h1177l-395 391z" />
    <glyph glyph-name="arrowupdn" unicode="&#x2195;" horiz-adv-x="1232" 
d="M111 961l505 503l506 -503l-65 -66l-393 395v-1153l393 395l65 -65l-506 -504l-505 504l65 65l391 -395v1153l-391 -395z" />
    <glyph glyph-name="uni2196" unicode="&#x2196;" horiz-adv-x="1001" 
d="M119 1038h747v-92l-592 4l592 -590l-69 -67l-590 592l4 -596h-92v749z" />
    <glyph glyph-name="uni2197" unicode="&#x2197;" horiz-adv-x="1001" 
d="M883 1038v-749h-92l4 596l-590 -592l-70 67l592 590l-592 -4v92h748z" />
    <glyph glyph-name="uni2198" unicode="&#x2198;" horiz-adv-x="1001" 
d="M135 90l594 -4l-594 590l70 69l590 -593l-4 596h92v-750h-748v92z" />
    <glyph glyph-name="uni2199" unicode="&#x2199;" horiz-adv-x="1001" 
d="M211 748l-2 -594l588 591l69 -67l-594 -590l596 4v-94h-749v750h92z" />
    <glyph glyph-name="partialdiff" unicode="&#x2202;" horiz-adv-x="1175" 
d="M834 909q94 -51 139 -131q-68 539 -588 572l10 94q375 -17 528 -247q152 -229 152 -562q0 -178 -67 -325t-197 -235q-129 -87 -301 -87q-132 0 -230 49q-100 50 -154 138q-54 89 -54 206q0 158 70 291t196 210q124 76 278 76q127 0 218 -49zM396 804q-100 -62 -159 -169
t-59 -238q0 -141 90 -229q89 -88 240 -88q128 0 232 63q102 62 163 172q60 108 60 242q0 141 -98 225q-97 84 -242 84q-127 0 -227 -62z" />
    <glyph glyph-name="emptyset" unicode="&#x2205;" horiz-adv-x="1243" 
d="M1112 1075q80 -113 80 -260q0 -164 -83 -309q-81 -141 -224 -228q-140 -85 -305 -85q-100 0 -182 30q-80 29 -142 88l-119 -104l-49 55l119 105q-84 117 -84 266q0 164 83 309q81 141 224 228q140 85 305 85q104 0 185 -32q83 -33 145 -93l143 127l49 -53zM285 436
l704 627q-47 50 -112 75t-146 25q-135 0 -252 -72q-115 -71 -184 -195q-68 -122 -68 -259q0 -114 58 -201zM1034 1006l-702 -625q48 -47 111 -70q65 -24 141 -24q135 0 251 72q113 71 184 195q68 120 68 259q0 110 -53 193z" />
    <glyph glyph-name="uni2206" unicode="&#x2206;" horiz-adv-x="1351" 
d="M-43 0l16 90l791 1344h137l320 -1344l-17 -90h-1247zM96 100h1004l-287 1219z" />
    <glyph glyph-name="product" unicode="&#x220f;" horiz-adv-x="1466" 
d="M1563 1434l-19 -103h-190l-273 -1548h-110l272 1548h-737l-275 -1548h-110l274 1548h-190l20 103h1338z" />
    <glyph glyph-name="summation" unicode="&#x2211;" horiz-adv-x="1251" 
d="M-31 -125l738 752l-435 714l17 93h1026l-19 -101h-880l405 -669l-10 -72l-698 -711h944l-19 -98h-1085z" />
    <glyph glyph-name="minus" unicode="&#x2212;" horiz-adv-x="1083" 
d="M164 545l16 88h811l-16 -88h-811z" />
    <glyph glyph-name="radical" unicode="&#x221a;" horiz-adv-x="1142" 
d="M252 795l-150 -52l-24 88l248 84l180 -786l622 1305h109l-688 -1434h-113z" />
    <glyph glyph-name="infinity" unicode="&#x221e;" horiz-adv-x="1593" 
d="M1445 859q75 -79 75 -208q0 -117 -52 -219q-51 -100 -142 -160q-90 -59 -204 -59q-112 0 -183 62q-72 63 -146 221q-130 -161 -224 -223q-91 -60 -198 -60q-133 0 -208 79q-75 80 -75 210q0 116 51 217q50 99 143 160q90 59 201 59q115 0 186 -61t144 -220
q133 163 224 221q93 60 200 60q133 0 208 -79zM329 796q-70 -49 -107 -126q-38 -79 -38 -168q0 -92 52 -144q51 -51 141 -51q92 0 172 59t201 214q-62 147 -121 206q-58 58 -142 58q-89 0 -158 -48zM1058 785q-81 -58 -202 -214q61 -147 121 -207q57 -57 143 -57
q90 0 159 48q68 47 106 126t38 166q0 93 -52 145t-142 52q-89 0 -171 -59z" />
    <glyph glyph-name="integral" unicode="&#x222b;" horiz-adv-x="778" 
d="M84 -121q79 0 114 34t52 114l205 1167q23 132 79 185q58 55 181 55h159l-18 -97h-133q-80 0 -114 -33q-35 -33 -50 -114l-207 -1167q-24 -132 -80 -186t-180 -54h-158l17 96h133z" />
    <glyph glyph-name="approxequal" unicode="&#x2248;" horiz-adv-x="1150" 
d="M129 211q21 120 89 186q70 68 161 68q62 0 105 -23q44 -24 87 -65q37 -33 67 -51q28 -17 67 -17q65 0 109 45q43 44 58 115h89q-21 -118 -89 -186t-161 -68q-65 0 -108 23q-44 24 -87 65q-39 35 -66 51q-28 17 -67 17q-61 0 -105 -45q-45 -46 -61 -115h-88zM205 641
q21 120 89 186q70 68 161 68q62 0 105 -23q44 -24 87 -65q37 -33 67 -51q28 -17 66 -17q66 0 110 45q43 44 58 115h88q-21 -119 -88 -186q-68 -68 -162 -68q-64 0 -107 23q-44 24 -87 65q-37 33 -67 51q-28 17 -66 17q-63 0 -106 -45t-60 -115h-88z" />
    <glyph glyph-name="notequal" unicode="&#x2260;" horiz-adv-x="1083" 
d="M985 727h-280l-173 -332h398l-17 -88h-426l-110 -213h-94l110 213h-250l17 88h278l172 332h-395l18 90h424l107 207h94l-106 -207h252z" />
    <glyph glyph-name="lessequal" unicode="&#x2264;" horiz-adv-x="1067" 
d="M170 612l16 103l824 354l-19 -102l-696 -303l588 -302l-17 -104zM59 0l17 90h760l-17 -90h-760z" />
    <glyph glyph-name="greaterequal" unicode="&#x2265;" horiz-adv-x="1067" 
d="M946 715l-16 -103l-824 -354l17 104l696 302l-588 303l17 102zM61 0l17 90h760l-17 -90h-760z" />
    <glyph glyph-name="dotmath" unicode="&#x22c5;" horiz-adv-x="376" 
d="M258 643q18 -18 18 -47q0 -37 -26 -62q-28 -26 -64 -26q-31 2 -49 20t-18 47q0 39 26 62q28 25 64 25q30 0 49 -19z" />
    <glyph glyph-name="filledbox" unicode="&#x25a0;" horiz-adv-x="1736" 
d="M147 1434h1442v-1434h-1442v1434z" />
    <glyph glyph-name="uni25A1" unicode="&#x25a1;" horiz-adv-x="1730" 
d="M147 1434h1436v-1434h-1436v1434zM254 1335v-1237h1223v1237h-1223z" />
    <glyph glyph-name="uni25AF" unicode="&#x25af;" horiz-adv-x="1220" 
d="M147 1434h926v-1434h-926v1434zM254 1335v-1237h711v1237h-711z" />
    <glyph glyph-name="triagup" unicode="&#x25b2;" horiz-adv-x="1810" 
d="M907 1458l838 -1458h-1679z" />
    <glyph glyph-name="uni25B3" unicode="&#x25b3;" horiz-adv-x="1810" 
d="M907 1458l838 -1458h-1679zM907 1260l-674 -1164h1344z" />
    <glyph glyph-name="uni25B6" unicode="&#x25b6;" horiz-adv-x="1071" 
d="M123 1036l913 -524l-913 -524v1048z" />
    <glyph glyph-name="uni25B7" unicode="&#x25b7;" horiz-adv-x="1079" 
d="M123 1049l921 -529l-921 -530v1059zM205 127l684 393l-684 393v-786z" />
    <glyph glyph-name="uni25C0" unicode="&#x25c0;" horiz-adv-x="1071" 
d="M948 1036v-1048l-913 524z" />
    <glyph glyph-name="uni25C1" unicode="&#x25c1;" horiz-adv-x="1079" 
d="M956 1049v-1059l-921 530zM874 127v786l-684 -393z" />
    <glyph glyph-name="lozenge" unicode="&#x25ca;" horiz-adv-x="1187" 
d="M815 1434l297 -717l-537 -719h-135l-297 719l539 717h133zM516 86l473 631l-250 631l-473 -631z" />
    <glyph glyph-name="circle" unicode="&#x25cb;" horiz-adv-x="1662" 
d="M1203 1350q165 -95 264 -264q98 -167 98 -369q0 -203 -98 -370t-264 -263q-167 -96 -372 -96q-204 0 -372 96q-167 95 -265 263q-98 167 -98 370q0 202 98 369q99 169 265 264q168 96 372 96q205 0 372 -96zM498 1289q-151 -87 -236 -237q-86 -151 -86 -335t86 -335
t236 -238t333 -87t333 87q151 88 237 238q86 151 86 335t-86 335q-85 149 -237 237q-150 87 -333 87t-333 -87z" />
    <glyph glyph-name="uni25CF" unicode="&#x25cf;" horiz-adv-x="1652" 
d="M1459 1089q-95 167 -262 262t-372 95q-204 0 -371 -95q-169 -96 -263 -262q-95 -167 -95 -372t95 -372q94 -166 263 -262q167 -95 371 -95q205 0 372 95t262 262t95 372t-95 372z" />
    <glyph glyph-name="uni25FD" unicode="&#x25fd;" horiz-adv-x="1284" 
d="M123 1038h1038v-1040h-1038v1040zM207 956v-876h868v876h-868z" />
    <glyph glyph-name="uni25FE" unicode="&#x25fe;" horiz-adv-x="1284" 
d="M123 1038h1038v-1038h-1038v1038z" />
    <glyph glyph-name="uni262E" unicode="&#x262e;" horiz-adv-x="1656" 
d="M191 1091q94 165 263 261q166 94 373 94q208 0 374 -94q168 -95 262 -261q96 -169 96 -374t-96 -374q-94 -166 -262 -261q-166 -94 -374 -94q-207 0 -373 94q-169 96 -263 261q-95 167 -95 374t95 374zM786 1352q-168 -7 -306 -94q-136 -85 -214 -226t-78 -315
q0 -118 40 -219q42 -105 112 -181l446 459v576zM868 776l447 -459q69 74 111 180q40 102 40 220q0 175 -76 315q-76 139 -214 226q-138 86 -308 94v-576zM868 82q122 6 226 49q105 44 182 119l-408 420v-588zM381 250q77 -75 182 -119q104 -43 223 -49v586z" />
    <glyph glyph-name="uni26AA" unicode="&#x26aa;" horiz-adv-x="1230" 
d="M881 975q120 -68 191 -191q71 -122 71 -264t-71 -264q-70 -121 -191 -191q-122 -71 -267 -71q-142 0 -264 71q-121 70 -191 191q-71 122 -71 264t71 264q71 123 191 191q121 69 264 69q146 0 267 -69zM389 907q-104 -61 -163 -163q-60 -104 -60 -224q0 -123 60 -225
q60 -103 163 -163q102 -60 225 -60q124 0 227 60t164 163q60 102 60 225t-60 225t-164 162q-103 60 -227 60q-123 0 -225 -60z" />
    <glyph glyph-name="uni26AB" unicode="&#x26ab;" horiz-adv-x="1230" 
d="M881 975q120 -68 191 -191q71 -122 71 -264t-71 -264q-70 -121 -191 -191q-122 -71 -267 -71q-142 0 -264 71q-121 70 -191 191q-71 122 -71 264t71 264q71 123 191 191q121 69 264 69q146 0 267 -69z" />
    <glyph glyph-name="uni2713" unicode="&#x2713;" horiz-adv-x="2199" 
d="M66 715l75 78l639 -639l1276 1280l78 -78l-1354 -1356z" />
    <glyph glyph-name="uni2715" unicode="&#x2715;" horiz-adv-x="1613" 
d="M168 1434l639 -637l639 637l76 -78l-639 -637l639 -641l-76 -76l-639 637l-639 -637l-76 76l639 641l-639 637z" />
    <glyph glyph-name="uni2780" unicode="&#x2780;" horiz-adv-x="1648" 
d="M1282 1366q146 -79 229 -221q82 -140 82 -318q0 -236 -105 -428q-105 -193 -294 -302q-188 -109 -426 -109q-186 0 -334 80q-146 79 -229 221q-82 140 -82 317q0 236 106 427t295 302t424 111q186 0 334 -80zM560 1277q-169 -102 -264 -278t-95 -393q0 -157 71 -281
q72 -126 201 -198t295 -72q213 0 384 102t267 277q97 177 97 391q0 158 -72 284t-202 198q-129 71 -298 71q-216 0 -384 -101zM772 346l94 522q-14 -14 -43 -14h-141l14 72h138q18 0 31 14q14 15 18 35l20 117h72l-131 -746h-72z" />
    <glyph glyph-name="uni2781" unicode="&#x2781;" horiz-adv-x="1648" 
d="M1282 1366q146 -79 229 -221q82 -140 82 -318q0 -236 -105 -428q-105 -193 -294 -302q-188 -109 -426 -109q-186 0 -334 80q-146 79 -229 221q-82 140 -82 317q0 236 106 427t295 302t424 111q186 0 334 -80zM560 1277q-169 -102 -264 -278t-95 -393q0 -157 71 -281
q72 -126 201 -198t295 -72q213 0 384 102t267 277q97 177 97 391q0 158 -72 284t-202 198q-129 71 -298 71q-216 0 -384 -101zM1077 1054q60 -50 60 -136q0 -87 -52 -153q-53 -67 -145 -134l-289 -213h410l-12 -72h-523l11 70l350 256q88 63 130 115q42 53 42 120
q0 59 -40 93t-108 34q-86 0 -142 -49q-57 -49 -73 -139h-71q18 125 95 191q78 67 193 67q103 0 164 -50z" />
    <glyph glyph-name="uni2782" unicode="&#x2782;" horiz-adv-x="1648" 
d="M1282 1366q146 -79 229 -221q82 -140 82 -318q0 -236 -105 -428q-105 -193 -294 -302q-188 -109 -426 -109q-186 0 -334 80q-146 79 -229 221q-82 140 -82 317q0 236 106 427t295 302t424 111q186 0 334 -80zM560 1277q-169 -102 -264 -278t-95 -393q0 -157 71 -281
q72 -126 201 -198t295 -72q213 0 384 102t267 277q97 177 97 391q0 158 -72 284t-202 198q-129 71 -298 71q-216 0 -384 -101zM723 1043q79 59 186 59q103 0 164 -48q62 -48 62 -126q0 -76 -51 -129q-49 -51 -128 -66q62 -11 99 -51t37 -102q0 -107 -80 -178
q-79 -70 -215 -70q-119 0 -184 60q-64 60 -64 175h74q0 -84 47 -126q46 -42 133 -42q91 0 152 50t61 124q0 62 -47 95q-45 32 -129 32h-52l11 56h45q91 0 153 44t62 118q0 50 -42 82q-43 32 -110 32q-83 0 -139 -41q-55 -40 -70 -110h-73q21 104 98 162z" />
    <glyph glyph-name="uni2783" unicode="&#x2783;" horiz-adv-x="1648" 
d="M1282 1366q146 -79 229 -221q82 -140 82 -318q0 -236 -105 -428q-105 -193 -294 -302q-188 -109 -426 -109q-186 0 -334 80q-146 79 -229 221q-82 140 -82 317q0 236 106 427t295 302t424 111q186 0 334 -80zM560 1277q-169 -102 -264 -278t-95 -393q0 -157 71 -281
q72 -126 201 -198t295 -72q213 0 384 102t267 277q97 177 97 391q0 158 -72 284t-202 198q-129 71 -298 71q-216 0 -384 -101zM967 1092h90l-84 -480h127l-13 -69h-126l-35 -197h-74l35 197h-391l10 69zM969 1004l-375 -392h305z" />
    <glyph glyph-name="uni2784" unicode="&#x2784;" horiz-adv-x="1648" 
d="M1282 1366q146 -79 229 -221q82 -140 82 -318q0 -236 -105 -428q-105 -193 -294 -302q-188 -109 -426 -109q-186 0 -334 80q-146 79 -229 221q-82 140 -82 317q0 236 106 427t295 302t424 111q186 0 334 -80zM560 1277q-169 -102 -264 -278t-95 -393q0 -157 71 -281
q72 -126 201 -198t295 -72q213 0 384 102t267 277q97 177 97 391q0 158 -72 284t-202 198q-129 71 -298 71q-216 0 -384 -101zM1128 1016h-385l-61 -268q35 41 84 63q44 20 111 20q100 0 162 -59q63 -60 63 -151q0 -131 -83 -212t-210 -81q-118 0 -180 62q-64 64 -60 153h72
q0 -65 48 -106q47 -40 124 -40q92 0 152 63q59 62 59 154q0 71 -46 111q-47 41 -118 41q-59 0 -109 -28q-48 -27 -77 -74h-72l96 421h445z" />
    <glyph glyph-name="uni2785" unicode="&#x2785;" horiz-adv-x="1648" 
d="M1282 1366q146 -79 229 -221q82 -140 82 -318q0 -236 -105 -428q-105 -193 -294 -302q-188 -109 -426 -109q-186 0 -334 80q-146 79 -229 221q-82 140 -82 317q0 236 106 427t295 302t424 111q186 0 334 -80zM560 1277q-169 -102 -264 -278t-95 -393q0 -157 71 -281
q72 -126 201 -198t295 -72q213 0 384 102t267 277q97 177 97 391q0 158 -72 284t-202 198q-129 71 -298 71q-216 0 -384 -101zM1084 1047q60 -57 59 -156h-70q-1 73 -42 108t-103 35q-105 0 -182 -83q-76 -82 -103 -226q-6 -37 -6 -74q21 76 85 124q65 48 157 48
q99 0 159 -54t60 -144q0 -127 -84 -209q-83 -82 -215 -82q-118 0 -178 69t-60 193q0 129 45 246q45 116 128 189q84 73 196 73q94 0 154 -57zM708 698q-63 -62 -63 -151q0 -70 43 -109q44 -39 115 -39q96 0 158 62q61 61 61 153q0 70 -42 108q-43 38 -114 38q-94 0 -158 -62
z" />
    <glyph glyph-name="uni2786" unicode="&#x2786;" horiz-adv-x="1648" 
d="M1282 1366q146 -79 229 -221q82 -140 82 -318q0 -236 -105 -428q-105 -193 -294 -302q-188 -109 -426 -109q-186 0 -334 80q-146 79 -229 221q-82 140 -82 317q0 236 106 427t295 302t424 111q186 0 334 -80zM560 1277q-169 -102 -264 -278t-95 -393q0 -157 71 -281
q72 -126 201 -198t295 -72q213 0 384 102t267 277q97 177 97 391q0 158 -72 284t-202 198q-129 71 -298 71q-216 0 -384 -101zM674 1094h522l-8 -64l-479 -684h-86l479 680l-438 -2z" />
    <glyph glyph-name="uni2787" unicode="&#x2787;" horiz-adv-x="1648" 
d="M1282 1366q146 -79 229 -221q82 -140 82 -318q0 -236 -105 -428q-105 -193 -294 -302q-188 -109 -426 -109q-186 0 -334 80q-146 79 -229 221q-82 140 -82 317q0 236 106 427t295 302t424 111q186 0 334 -80zM560 1277q-169 -102 -264 -278t-95 -393q0 -157 71 -281
q72 -126 201 -198t295 -72q213 0 384 102t267 277q97 177 97 391q0 158 -72 284t-202 198q-129 71 -298 71q-216 0 -384 -101zM1086 1060q63 -48 63 -124q0 -78 -48 -130q-48 -53 -128 -71q61 -11 99 -54q38 -44 38 -106q0 -99 -86 -168t-217 -69q-113 0 -183 50
q-69 50 -69 130q0 86 59 145q60 60 150 78q-53 10 -89 49q-34 37 -34 95q0 94 82 158q83 65 201 65q99 0 162 -48zM775 996q-58 -46 -58 -111q0 -58 43 -88q45 -31 110 -31q86 0 145 48q58 48 58 114q0 54 -43 84q-44 30 -110 30q-87 0 -145 -46zM695 652q-62 -49 -62 -122
q0 -58 50 -93q49 -34 128 -34q98 0 160 50q61 49 61 122q0 62 -50 95q-48 32 -128 32q-95 0 -159 -50z" />
    <glyph glyph-name="uni2788" unicode="&#x2788;" horiz-adv-x="1648" 
d="M1282 1366q146 -79 229 -221q82 -140 82 -318q0 -236 -105 -428q-105 -193 -294 -302q-188 -109 -426 -109q-186 0 -334 80q-146 79 -229 221q-82 140 -82 317q0 236 106 427t295 302t424 111q186 0 334 -80zM560 1277q-169 -102 -264 -278t-95 -393q0 -157 71 -281
q72 -126 201 -198t295 -72q213 0 384 102t267 277q97 177 97 391q0 158 -72 284t-202 198q-129 71 -298 71q-216 0 -384 -101zM630 391q-60 57 -59 156h72q2 -74 41 -109q40 -35 102 -35q106 0 182 84t105 226q3 14 5 43q1 12 1 30q-21 -76 -86 -123q-67 -49 -157 -49
q-98 0 -159 55t-61 144q0 127 84 209q83 82 215 82q118 0 179 -70q59 -68 59 -192q0 -129 -45 -246q-45 -116 -128 -189q-84 -73 -196 -73q-94 0 -154 57zM1007 739q62 61 62 152q0 69 -43 108q-44 39 -113 39q-98 0 -159 -61q-62 -62 -62 -154q0 -69 42 -107
q43 -38 114 -38q97 0 159 61z" />
    <glyph glyph-name="uni278A" unicode="&#x278a;" horiz-adv-x="1648" 
d="M524 1335q-189 -111 -295 -302t-106 -427q0 -177 82 -317q83 -142 229 -221q148 -80 334 -80q238 0 426 109q189 109 294 302q105 192 105 428q0 178 -82 318q-83 142 -229 221q-148 80 -334 80q-235 0 -424 -111zM772 346l94 522q-14 -14 -43 -14h-141l14 72h138
q18 0 31 14q14 15 18 35l20 117h72l-131 -746h-72z" />
    <glyph glyph-name="uni278B" unicode="&#x278b;" horiz-adv-x="1648" 
d="M524 1335q-189 -111 -295 -302t-106 -427q0 -177 82 -317q83 -142 229 -221q148 -80 334 -80q238 0 426 109q189 109 294 302q105 192 105 428q0 178 -82 318q-83 142 -229 221q-148 80 -334 80q-235 0 -424 -111zM1077 1054q60 -50 60 -137q0 -86 -52 -152
q-53 -67 -145 -134l-289 -213h410l-12 -72h-523l11 70l350 256q88 63 130 115q42 53 42 120q0 59 -40 93t-108 34q-86 0 -142 -49q-57 -49 -73 -139h-71q18 125 95 191q78 67 193 67q103 0 164 -50z" />
    <glyph glyph-name="uni278C" unicode="&#x278c;" horiz-adv-x="1648" 
d="M524 1335q-189 -111 -295 -302t-106 -427q0 -177 82 -317q83 -142 229 -221q148 -80 334 -80q238 0 426 109q189 109 294 302q105 192 105 428q0 178 -82 318q-83 142 -229 221q-148 80 -334 80q-235 0 -424 -111zM723 1043q79 59 186 59q103 0 164 -48q62 -48 62 -126
q0 -76 -51 -129q-49 -51 -128 -66q62 -11 99 -51t37 -102q0 -107 -80 -178q-79 -70 -215 -70q-119 0 -184 60q-64 60 -64 175h74q0 -84 47 -126q46 -42 133 -42q91 0 152 50t61 124q0 62 -47 95q-45 32 -129 32h-52l11 56h45q91 0 153 44t62 118q0 50 -42 82q-43 32 -110 32
q-83 0 -139 -41q-55 -40 -70 -110h-73q21 104 98 162z" />
    <glyph glyph-name="uni278D" unicode="&#x278d;" horiz-adv-x="1648" 
d="M524 1335q-189 -111 -295 -302t-106 -427q0 -177 82 -317q83 -142 229 -221q148 -80 334 -80q238 0 426 109q189 109 294 302q105 192 105 428q0 178 -82 318q-83 142 -229 221q-148 80 -334 80q-235 0 -424 -111zM967 1092h90l-84 -480h127l-13 -69h-126l-35 -197h-74
l35 197h-391l10 69zM969 1004l-375 -392h305z" />
    <glyph glyph-name="uni278E" unicode="&#x278e;" horiz-adv-x="1648" 
d="M524 1335q-189 -111 -295 -302t-106 -427q0 -177 82 -317q83 -142 229 -221q148 -80 334 -80q238 0 426 109q189 109 294 302q105 192 105 428q0 178 -82 318q-83 142 -229 221q-148 80 -334 80q-235 0 -424 -111zM1128 1016h-385l-61 -268q35 41 84 63q44 20 111 20
q100 0 162 -59q63 -60 63 -151q0 -131 -83 -212t-210 -81q-118 0 -180 62q-64 64 -60 153h72q0 -65 48 -106q47 -40 124 -40q92 0 152 63q59 62 59 154q0 71 -46 111q-47 41 -118 41q-59 0 -109 -28q-48 -27 -77 -74h-72l96 421h445z" />
    <glyph glyph-name="uni278F" unicode="&#x278f;" horiz-adv-x="1648" 
d="M524 1335q-189 -111 -295 -302t-106 -427q0 -177 82 -317q83 -142 229 -221q148 -80 334 -80q238 0 426 109q189 109 294 302q105 192 105 428q0 178 -82 318q-83 142 -229 221q-148 80 -334 80q-235 0 -424 -111zM1084 1047q60 -57 59 -156h-70q-1 73 -42 108t-103 35
q-105 0 -182 -83q-76 -82 -103 -226q-6 -37 -6 -74q21 76 85 124q65 48 157 48q99 0 159 -54t60 -144q0 -127 -84 -209q-83 -82 -215 -82q-118 0 -178 69t-60 193q0 129 45 246q45 116 128 189q84 73 196 73q94 0 154 -57zM708 698q-63 -62 -63 -151q0 -70 43 -109
q44 -39 115 -39q96 0 158 62q61 61 61 153q0 70 -42 108q-43 38 -114 38q-94 0 -158 -62z" />
    <glyph glyph-name="uni2790" unicode="&#x2790;" horiz-adv-x="1648" 
d="M524 1335q-189 -111 -295 -302t-106 -427q0 -177 82 -317q83 -142 229 -221q148 -80 334 -80q238 0 426 109q189 109 294 302q105 192 105 428q0 178 -82 318q-83 142 -229 221q-148 80 -334 80q-235 0 -424 -111zM674 1094h522l-8 -64l-479 -684h-86l479 680l-438 -2z
" />
    <glyph glyph-name="uni2791" unicode="&#x2791;" horiz-adv-x="1648" 
d="M524 1335q-189 -111 -295 -302t-106 -427q0 -177 82 -317q83 -142 229 -221q148 -80 334 -80q238 0 426 109q189 109 294 302q105 192 105 428q0 178 -82 318q-83 142 -229 221q-148 80 -334 80q-235 0 -424 -111zM1086 1060q63 -48 63 -124q0 -78 -48 -130
q-48 -53 -128 -71q61 -11 99 -54q38 -44 38 -106q0 -99 -86 -168t-217 -69q-113 0 -183 50q-69 50 -69 130q0 86 59 145q60 60 150 78q-53 10 -89 49q-34 37 -34 95q0 94 82 158q83 65 201 65q99 0 162 -48zM775 996q-58 -46 -58 -111q0 -58 43 -88q45 -31 110 -31
q86 0 145 48q58 48 58 114q0 54 -43 84q-44 30 -110 30q-87 0 -145 -46zM695 652q-62 -49 -62 -122q0 -58 50 -93q49 -34 128 -34q98 0 160 50q61 49 61 122q0 62 -50 95q-48 32 -128 32q-95 0 -159 -50z" />
    <glyph glyph-name="uni2792" unicode="&#x2792;" horiz-adv-x="1648" 
d="M524 1335q-189 -111 -295 -302t-106 -427q0 -177 82 -317q83 -142 229 -221q148 -80 334 -80q238 0 426 109q189 109 294 302q105 192 105 428q0 178 -82 318q-83 142 -229 221q-148 80 -334 80q-235 0 -424 -111zM630 391q-60 57 -59 156h72q2 -74 41 -109
q40 -35 102 -35q106 0 182 84t105 226q3 14 5 43q1 12 1 30q-21 -76 -86 -123q-67 -49 -157 -49q-98 0 -159 55t-61 144q0 127 84 209q83 82 215 82q118 0 179 -70q59 -68 59 -192q0 -129 -45 -246q-45 -116 -128 -189q-84 -73 -196 -73q-94 0 -154 57zM1007 739
q62 61 62 152q0 69 -43 108q-44 39 -113 39q-98 0 -159 -61q-62 -62 -62 -154q0 -69 42 -107q43 -38 114 -38q97 0 159 61z" />
    <glyph glyph-name="fl" unicode="&#xfb02;" horiz-adv-x="952" 
d="M283 1038l28 156q22 126 87 183t194 57h180l-18 -97h-166q-79 0 -119 -34t-55 -113l-27 -152h311l-16 -96h-311l-166 -942h-105l166 942h-196l16 96h197zM885 1434h104l-254 -1434h-104z" />
    <glyph glyph-name="u1F10B" unicode="&#x1f10b;" horiz-adv-x="1648" 
d="M1282 1366q146 -79 229 -221q82 -140 82 -318q0 -236 -105 -428q-105 -193 -294 -302q-188 -109 -426 -109q-186 0 -334 80q-146 79 -229 221q-82 140 -82 317q0 236 106 427t295 302t424 111q186 0 334 -80zM560 1277q-169 -102 -264 -278t-95 -393q0 -157 71 -281
q72 -126 201 -198t295 -72q213 0 384 102t267 277q97 177 97 391q0 158 -72 284t-202 198q-129 71 -298 71q-216 0 -384 -101zM1098 1024q61 -77 61 -211q0 -122 -46 -232q-48 -114 -128 -181q-81 -68 -186 -68q-115 0 -176 78q-62 79 -62 211q0 121 45 232q45 112 127 180
q83 69 187 69q116 0 178 -78zM772 970q-64 -64 -98 -160q-35 -99 -35 -196q0 -94 43 -153q44 -60 119 -60q81 0 146 62t100 157q34 93 34 193q0 97 -43 158t-118 61q-86 0 -148 -62z" />
    <glyph glyph-name="u1F10C" unicode="&#x1f10c;" horiz-adv-x="1648" 
d="M524 1335q-189 -111 -295 -302t-106 -427q0 -177 82 -317q83 -142 229 -221q148 -80 334 -80q238 0 426 109q189 109 294 302q105 192 105 428q0 178 -82 318q-83 142 -229 221q-148 80 -334 80q-235 0 -424 -111zM1098 1024q61 -77 61 -211q0 -122 -46 -232
q-48 -114 -128 -181q-81 -68 -186 -68q-115 0 -176 78q-62 79 -62 211q0 121 45 232q45 112 127 180q83 69 187 69q116 0 178 -78zM772 970q-64 -64 -98 -160q-35 -99 -35 -196q0 -94 43 -153q44 -60 119 -60q81 0 146 62t100 157q34 93 34 193q0 97 -43 158t-118 61
q-86 0 -148 -62z" />
    <glyph glyph-name="J.ss06" horiz-adv-x="1153" 
d="M178 508q-10 -69 -10 -119q0 -142 74 -221q74 -78 213 -78q182 0 294 103t152 331l160 910h110l-161 -916q-49 -281 -186 -406q-136 -124 -369 -124q-193 0 -296 100q-104 101 -104 289q0 56 13 131h110z" />
    <glyph glyph-name="Jcircumflex.ss06" horiz-adv-x="1153" 
d="M178 508q-10 -69 -10 -119q0 -142 74 -221q74 -78 213 -78q182 0 294 103t152 331l160 910h110l-161 -916q-49 -281 -186 -406q-136 -124 -369 -124q-193 0 -296 100q-104 101 -104 289q0 56 13 131h110zM1180 1765l-234 -202h-117l308 272h102l213 -272h-102z" />
    <glyph glyph-name="Q.ss07" horiz-adv-x="1529" 
d="M1359 377q-122 -215 -331 -316l98 -221h-110l-82 185q-110 -37 -236 -37q-174 0 -304 74q-132 75 -204 210q-71 133 -71 308q0 234 99 432q98 196 279 316q178 118 408 118q173 0 303 -75q132 -76 202 -209q71 -134 71 -308q0 -262 -122 -477zM1264 439q104 187 104 411
q0 144 -58 256t-165 175q-105 62 -246 62q-192 0 -345 -105q-151 -104 -238 -282q-85 -174 -85 -374q0 -142 60 -254q60 -113 167 -175q108 -63 247 -63q94 0 186 29l-139 309h110l121 -270q176 92 281 281z" />
    <glyph glyph-name="a.ss01" horiz-adv-x="1193" 
d="M1163 1038l-184 -1038h-90l18 209q-68 -102 -172 -162q-103 -59 -235 -59q-126 0 -220 55q-96 56 -148 155q-52 98 -52 224q0 173 74 318q75 147 202 228q130 83 289 83q148 0 243 -68q97 -69 126 -178l57 233h92zM757 157q106 76 164 193t58 250q0 167 -88 262
q-89 96 -238 96q-138 0 -242 -73q-105 -74 -164 -194q-59 -121 -59 -249q0 -169 88 -264q88 -96 238 -96q138 0 243 75z" />
    <glyph glyph-name="a.ss02" horiz-adv-x="1056" 
d="M881 974q98 -76 98 -216q0 -45 -10 -99l-115 -659h-92l20 168q-147 -180 -405 -180q-155 0 -247 73q-93 73 -93 197q0 170 125 253t334 83h354l16 82q8 48 8 76q0 99 -71 152q-72 54 -197 54q-260 0 -342 -210h-106q45 145 161 224t297 79q165 0 265 -77zM836 504h-359
q-154 0 -244 -60t-90 -178q0 -85 67 -137q66 -51 177 -51q179 0 293 96t141 250z" />
    <glyph glyph-name="aacute.ss01" horiz-adv-x="1193" 
d="M1163 1038l-184 -1038h-90l18 209q-68 -102 -172 -162q-103 -59 -235 -59q-126 0 -220 55q-96 56 -148 155q-52 98 -52 224q0 173 74 318q75 147 202 228q130 83 289 83q148 0 243 -68q97 -69 126 -178l57 233h92zM757 157q106 76 164 193t58 250q0 167 -88 262
q-89 96 -238 96q-138 0 -242 -73q-105 -74 -164 -194q-59 -121 -59 -249q0 -169 88 -264q88 -96 238 -96q138 0 243 75zM659 1169l234 271h127l-272 -271h-89z" />
    <glyph glyph-name="aacute.ss02" horiz-adv-x="1056" 
d="M881 974q98 -76 98 -216q0 -45 -10 -99l-115 -659h-92l20 168q-147 -180 -405 -180q-155 0 -247 73q-93 73 -93 197q0 170 125 253t334 83h354l16 82q8 48 8 76q0 99 -71 152q-72 54 -197 54q-260 0 -342 -210h-106q45 145 161 224t297 79q165 0 265 -77zM836 504h-359
q-154 0 -244 -60t-90 -178q0 -85 67 -137q66 -51 177 -51q179 0 293 96t141 250zM608 1169l234 271h127l-273 -271h-88z" />
    <glyph glyph-name="abreve.ss01" horiz-adv-x="1193" 
d="M1163 1038l-184 -1038h-90l18 209q-68 -102 -172 -162q-103 -59 -235 -59q-126 0 -220 55q-96 56 -148 155q-52 98 -52 224q0 173 74 318q75 147 202 228q130 83 289 83q148 0 243 -68q97 -69 126 -178l57 233h92zM757 157q106 76 164 193t58 250q0 167 -88 262
q-89 96 -238 96q-138 0 -242 -73q-105 -74 -164 -194q-59 -121 -59 -249q0 -169 88 -264q88 -96 238 -96q138 0 243 75zM573 1440q0 -81 41 -130q40 -48 113 -48q75 0 128 50q52 49 69 128h82q-22 -121 -100 -191q-76 -69 -185 -69q-112 0 -172 70q-60 71 -60 190h84z" />
    <glyph glyph-name="abreve.ss02" horiz-adv-x="1056" 
d="M881 974q98 -76 98 -216q0 -45 -10 -99l-115 -659h-92l20 168q-147 -180 -405 -180q-155 0 -247 73q-93 73 -93 197q0 170 125 253t334 83h354l16 82q8 48 8 76q0 99 -71 152q-72 54 -197 54q-260 0 -342 -210h-106q45 145 161 224t297 79q165 0 265 -77zM836 504h-359
q-154 0 -244 -60t-90 -178q0 -85 67 -137q66 -51 177 -51q179 0 293 96t141 250zM522 1440q0 -81 41 -130q40 -48 113 -48q75 0 128 50q51 48 68 128h82q-23 -122 -99 -191t-185 -69q-112 0 -172 70q-60 71 -60 190h84z" />
    <glyph glyph-name="acircumflex.ss01" horiz-adv-x="1193" 
d="M1163 1038l-184 -1038h-90l18 209q-68 -102 -172 -162q-103 -59 -235 -59q-126 0 -220 55q-96 56 -148 155q-52 98 -52 224q0 173 74 318q75 147 202 228q130 83 289 83q148 0 243 -68q97 -69 126 -178l57 233h92zM757 157q106 76 164 193t58 250q0 167 -88 262
q-89 96 -238 96q-138 0 -242 -73q-105 -74 -164 -194q-59 -121 -59 -249q0 -169 88 -264q88 -96 238 -96q138 0 243 75zM737 1370l-233 -203h-117l307 273h103l213 -273h-103z" />
    <glyph glyph-name="acircumflex.ss02" horiz-adv-x="1056" 
d="M881 974q98 -76 98 -216q0 -45 -10 -99l-115 -659h-92l20 168q-147 -180 -405 -180q-155 0 -247 73q-93 73 -93 197q0 170 125 253t334 83h354l16 82q8 48 8 76q0 99 -71 152q-72 54 -197 54q-260 0 -342 -210h-106q45 145 161 224t297 79q165 0 265 -77zM836 504h-359
q-154 0 -244 -60t-90 -178q0 -85 67 -137q66 -51 177 -51q179 0 293 96t141 250zM686 1370l-233 -203h-117l307 273h102l213 -273h-102z" />
    <glyph glyph-name="adieresis.ss01" horiz-adv-x="1193" 
d="M1163 1038l-184 -1038h-90l18 209q-68 -102 -172 -162q-103 -59 -235 -59q-126 0 -220 55q-96 56 -148 155q-52 98 -52 224q0 173 74 318q75 147 202 228q130 83 289 83q148 0 243 -68q97 -69 126 -178l57 233h92zM757 157q106 76 164 193t58 250q0 167 -88 262
q-89 96 -238 96q-138 0 -242 -73q-105 -74 -164 -194q-59 -121 -59 -249q0 -169 88 -264q88 -96 238 -96q138 0 243 75zM608 1377q19 -19 19 -44q0 -32 -23 -55t-55 -23q-27 0 -48 19q-20 18 -20 45q0 33 23 54q24 22 55 22t49 -18zM949 1377q20 -18 20 -44q0 -32 -23 -55
t-55 -23q-31 0 -49 18q-19 19 -19 46q0 33 23 54q24 22 55 22q29 0 48 -18z" />
    <glyph glyph-name="adieresis.ss02" horiz-adv-x="1056" 
d="M881 974q98 -76 98 -216q0 -45 -10 -99l-115 -659h-92l20 168q-147 -180 -405 -180q-155 0 -247 73q-93 73 -93 197q0 170 125 253t334 83h354l16 82q8 48 8 76q0 99 -71 152q-72 54 -197 54q-260 0 -342 -210h-106q45 145 161 224t297 79q165 0 265 -77zM836 504h-359
q-154 0 -244 -60t-90 -178q0 -85 67 -137q66 -51 177 -51q179 0 293 96t141 250zM557 1377q18 -18 18 -44q0 -33 -22 -55q-23 -23 -55 -23q-27 0 -48 19q-20 18 -20 45q0 33 23 54q24 22 55 22t49 -18zM898 1377q20 -18 20 -44q0 -32 -23 -55t-55 -23q-31 0 -49 18
q-19 19 -19 46q0 33 23 54q24 22 55 22q28 0 48 -18z" />
    <glyph glyph-name="agrave.ss01" horiz-adv-x="1193" 
d="M1163 1038l-184 -1038h-90l18 209q-68 -102 -172 -162q-103 -59 -235 -59q-126 0 -220 55q-96 56 -148 155q-52 98 -52 224q0 173 74 318q75 147 202 228q130 83 289 83q148 0 243 -68q97 -69 126 -178l57 233h92zM757 157q106 76 164 193t58 250q0 167 -88 262
q-89 96 -238 96q-138 0 -242 -73q-105 -74 -164 -194q-59 -121 -59 -249q0 -169 88 -264q88 -96 238 -96q138 0 243 75zM483 1440h119l137 -271h-82z" />
    <glyph glyph-name="agrave.ss02" horiz-adv-x="1056" 
d="M881 974q98 -76 98 -216q0 -45 -10 -99l-115 -659h-92l20 168q-147 -180 -405 -180q-155 0 -247 73q-93 73 -93 197q0 170 125 253t334 83h354l16 82q8 48 8 76q0 99 -71 152q-72 54 -197 54q-260 0 -342 -210h-106q45 145 161 224t297 79q165 0 265 -77zM836 504h-359
q-154 0 -244 -60t-90 -178q0 -85 67 -137q66 -51 177 -51q179 0 293 96t141 250zM432 1440h119l137 -271h-82z" />
    <glyph glyph-name="amacron.ss01" horiz-adv-x="1193" 
d="M1163 1038l-184 -1038h-90l18 209q-68 -102 -172 -162q-103 -59 -235 -59q-126 0 -220 55q-96 56 -148 155q-52 98 -52 224q0 173 74 318q75 147 202 228q130 83 289 83q148 0 243 -68q97 -69 126 -178l57 233h92zM757 157q106 76 164 193t58 250q0 167 -88 262
q-89 96 -238 96q-138 0 -242 -73q-105 -74 -164 -194q-59 -121 -59 -249q0 -169 88 -264q88 -96 238 -96q138 0 243 75zM459 1288l14 80h524l-14 -80h-524z" />
    <glyph glyph-name="amacron.ss02" horiz-adv-x="1056" 
d="M881 974q98 -76 98 -216q0 -45 -10 -99l-115 -659h-92l20 168q-147 -180 -405 -180q-155 0 -247 73q-93 73 -93 197q0 170 125 253t334 83h354l16 82q8 48 8 76q0 99 -71 152q-72 54 -197 54q-260 0 -342 -210h-106q45 145 161 224t297 79q165 0 265 -77zM836 504h-359
q-154 0 -244 -60t-90 -178q0 -85 67 -137q66 -51 177 -51q179 0 293 96t141 250zM408 1288l14 80h524l-14 -80h-524z" />
    <glyph glyph-name="aogonek.ss01" horiz-adv-x="1193" 
d="M784 -135q-67 -60 -67 -119q0 -39 22 -58q23 -20 74 -20h123l-12 -78h-136q-76 0 -119 36q-44 36 -44 100q0 84 65 149q67 67 201 152l16 182q-68 -102 -172 -162q-103 -59 -235 -59q-126 0 -220 55q-96 56 -148 155q-52 98 -52 224q0 173 74 318q75 147 202 228
q130 83 289 83q148 0 243 -68q97 -69 126 -178l57 233h92l-184 -1038q-133 -80 -195 -135zM757 157q106 76 164 193t58 250q0 167 -88 262q-89 96 -238 96q-138 0 -242 -73q-105 -74 -164 -194q-59 -121 -59 -249q0 -169 88 -264q88 -96 238 -96q138 0 243 75z" />
    <glyph glyph-name="aogonek.ss02" horiz-adv-x="1056" 
d="M881 974q98 -76 98 -216q0 -45 -10 -99l-115 -659q-133 -80 -195 -135q-67 -60 -67 -119q0 -39 22 -58q23 -20 74 -20h123l-12 -78h-135q-76 0 -120 36t-44 100q0 84 65 149q67 67 201 152l16 141q-147 -180 -405 -180q-155 0 -247 73q-93 73 -93 197q0 170 125 253
t334 83h354l16 82q8 48 8 76q0 99 -71 152q-72 54 -197 54q-260 0 -342 -210h-106q45 145 161 224t297 79q165 0 265 -77zM680 174q114 96 141 250l15 80h-359q-154 0 -244 -60t-90 -178q0 -85 67 -137q66 -51 177 -51q179 0 293 96z" />
    <glyph glyph-name="aring.ss01" horiz-adv-x="1193" 
d="M1163 1038l-184 -1038h-90l18 209q-68 -102 -172 -162q-103 -59 -235 -59q-126 0 -220 55q-96 56 -148 155q-52 98 -52 224q0 173 74 318q75 147 202 228q130 83 289 83q148 0 243 -68q97 -69 126 -178l57 233h92zM757 157q106 76 164 193t58 250q0 167 -88 262
q-89 96 -238 96q-138 0 -242 -73q-105 -74 -164 -194q-59 -121 -59 -249q0 -169 88 -264q88 -96 238 -96q138 0 243 75zM571 1524q66 65 162 65t161 -65q67 -67 67 -158t-67 -158q-65 -65 -161 -65t-162 65q-67 66 -67 158t67 158zM845 1480q-46 46 -112 46q-65 0 -111 -46
q-47 -47 -47 -114t47 -114q46 -46 111 -46q66 0 112 46t46 114t-46 114z" />
    <glyph glyph-name="aring.ss02" horiz-adv-x="1056" 
d="M881 974q98 -76 98 -216q0 -45 -10 -99l-115 -659h-92l20 168q-147 -180 -405 -180q-155 0 -247 73q-93 73 -93 197q0 170 125 253t334 83h354l16 82q8 48 8 76q0 99 -71 152q-72 54 -197 54q-260 0 -342 -210h-106q45 145 161 224t297 79q165 0 265 -77zM836 504h-359
q-154 0 -244 -60t-90 -178q0 -85 67 -137q66 -51 177 -51q179 0 293 96t141 250zM520 1524q66 65 162 65t161 -65q66 -66 66 -158t-66 -158q-65 -65 -161 -65t-162 65q-67 66 -67 158t67 158zM794 1480q-46 46 -112 46t-112 -46t-46 -114t46 -114t112 -46t112 46t46 114
t-46 114z" />
    <glyph glyph-name="atilde.ss01" horiz-adv-x="1193" 
d="M1163 1038l-184 -1038h-90l18 209q-68 -102 -172 -162q-103 -59 -235 -59q-126 0 -220 55q-96 56 -148 155q-52 98 -52 224q0 173 74 318q75 147 202 228q130 83 289 83q148 0 243 -68q97 -69 126 -178l57 233h92zM757 157q106 76 164 193t58 250q0 167 -88 262
q-89 96 -238 96q-138 0 -242 -73q-105 -74 -164 -194q-59 -121 -59 -249q0 -169 88 -264q88 -96 238 -96q138 0 243 75zM694 1405q29 -20 56 -51q26 -30 36 -37q16 -12 43 -12q47 0 74 31q27 32 35 79l68 -4q-15 -88 -61 -133q-47 -45 -114 -45q-47 0 -72 16q-26 17 -54 49
q-24 28 -38 38q-19 14 -44 14q-86 0 -107 -111l-70 2q16 87 62 134q45 46 115 46q48 0 71 -16z" />
    <glyph glyph-name="atilde.ss02" horiz-adv-x="1056" 
d="M881 974q98 -76 98 -216q0 -45 -10 -99l-115 -659h-92l20 168q-147 -180 -405 -180q-155 0 -247 73q-93 73 -93 197q0 170 125 253t334 83h354l16 82q8 48 8 76q0 99 -71 152q-72 54 -197 54q-260 0 -342 -210h-106q45 145 161 224t297 79q165 0 265 -77zM836 504h-359
q-154 0 -244 -60t-90 -178q0 -85 67 -137q66 -51 177 -51q179 0 293 96t141 250zM643 1405q26 -18 55 -51q24 -28 37 -37q16 -12 43 -12q47 0 74 31q27 32 35 79l67 -4q-15 -90 -60 -133q-46 -45 -114 -45q-47 0 -72 16q-29 19 -55 49q-24 28 -38 38q-19 14 -44 14
q-85 0 -106 -111l-70 2q16 87 62 134q45 46 114 46q49 0 72 -16z" />
    <glyph glyph-name="f.calt" horiz-adv-x="532" 
d="M327 1377q65 57 193 57h180l-18 -97h-166q-79 0 -119 -34q-41 -35 -53 -113l-27 -152h312l-17 -96h-313l-166 -942h-104l211 1194q22 126 87 183z" />
    <glyph glyph-name="i.ss03" horiz-adv-x="395" 
d="M330 1398q22 18 49 13q28 -5 39 -23q12 -20 8 -47q-1 -30 -25 -47q-23 -16 -51 -12q-27 4 -39 24t-8 44q5 30 27 48zM242 942h-162l16 96h266l-182 -1038h-104z" />
    <glyph glyph-name="dotlessi.ss03" horiz-adv-x="395" 
d="M96 1038h266l-182 -1038h-104l166 942h-162z" />
    <glyph glyph-name="iacute.ss03" horiz-adv-x="395" 
d="M96 1038h266l-182 -1038h-104l166 942h-162zM291 1169l233 271h127l-272 -271h-88z" />
    <glyph glyph-name="ibreve.ss03" horiz-adv-x="395" 
d="M96 1038h266l-182 -1038h-104l166 942h-162zM205 1440q0 -81 41 -130q41 -48 112 -48q75 0 128 50q52 49 69 128h82q-23 -122 -99 -191t-186 -69q-112 0 -172 70q-59 69 -59 190h84z" />
    <glyph glyph-name="icircumflex.ss03" horiz-adv-x="395" 
d="M96 1038h266l-182 -1038h-104l166 942h-162zM369 1370l-234 -203h-117l308 273h102l213 -273h-102z" />
    <glyph glyph-name="idieresis.ss03" horiz-adv-x="395" 
d="M96 1038h266l-182 -1038h-104l166 942h-162zM240 1377q18 -18 18 -44q0 -33 -22 -55q-23 -23 -56 -23q-27 0 -48 19q-19 18 -19 45q0 33 22 54q24 22 55 22q32 0 50 -18zM581 1377q19 -18 19 -44q0 -33 -22 -55q-23 -23 -56 -23q-31 0 -49 18t-18 46q0 33 22 54
q24 22 55 22q30 0 49 -18z" />
    <glyph glyph-name="i.loclTRK" horiz-adv-x="348" 
d="M213 1038h104l-184 -1038h-104zM376 1402q19 -18 19 -44q0 -36 -23 -58t-55 -22q-31 0 -49 18t-18 45q0 36 21 57t57 21q30 0 48 -17z" />
    <glyph glyph-name="i.loclTRK.ss03" horiz-adv-x="395" 
d="M96 1038h266l-182 -1038h-104l166 942h-162zM417 1402q19 -18 19 -44q0 -36 -23 -58t-55 -22q-31 0 -49 18t-18 45q0 36 21 57t57 21q30 0 48 -17z" />
    <glyph glyph-name="igrave.ss03" horiz-adv-x="395" 
d="M96 1038h266l-182 -1038h-104l166 942h-162zM115 1440h118l138 -271h-82z" />
    <glyph glyph-name="ij.ss03" horiz-adv-x="749" 
d="M373 1401q18 -18 18 -47q0 -36 -22 -59t-56 -23q-29 0 -48 19t-19 48q0 36 23 58t57 22q29 0 47 -18zM213 1038h104l-184 -1038h-104zM669 1397q23 22 56 22q29 0 48 -18q20 -18 20 -47q0 -35 -24 -59q-23 -23 -56 -23q-29 0 -48 19q-20 20 -20 48q0 35 24 58zM227 -313
q79 0 119 34q41 35 53 113l197 1108h-164l17 96h268l-213 -1208q-22 -126 -87 -183t-194 -57h-149l16 97h137z" />
    <glyph glyph-name="ij.ss04" horiz-adv-x="700" 
d="M373 1401q18 -18 18 -47q0 -36 -22 -59t-56 -23q-29 0 -48 19t-19 48q0 36 23 58t57 22q29 0 47 -18zM213 1038h104l-184 -1038h-104zM620 1397q23 22 56 22q29 0 47 -18t18 -47q0 -36 -22 -59t-55 -23q-30 0 -49 19t-19 48q0 35 24 58zM563 1038h105l-256 -1448h-105z
" />
    <glyph glyph-name="imacron.ss03" horiz-adv-x="395" 
d="M96 1038h266l-182 -1038h-104l166 942h-162zM90 1288l14 80h525l-15 -80h-524z" />
    <glyph glyph-name="iogonek.ss03" horiz-adv-x="395" 
d="M418 1388q12 -20 8 -47q-1 -30 -25 -47q-23 -16 -51 -12q-27 4 -39 24t-8 44q5 30 27 48t49 13q28 -5 39 -23zM96 1038h266l-182 -1038q-130 -78 -194 -135q-68 -60 -68 -119q0 -38 23 -58t73 -20h123l-12 -78h-135q-76 0 -120 36t-44 100q0 82 63 146q59 61 191 146
l162 924h-162z" />
    <glyph glyph-name="itilde.ss03" horiz-adv-x="395" 
d="M96 1038h266l-182 -1038h-104l166 942h-162zM326 1405q26 -18 55 -51q24 -28 37 -37q16 -12 43 -12q47 0 74 31q26 31 34 79l68 -4q-15 -90 -60 -133q-47 -45 -114 -45q-48 0 -73 16q-26 17 -54 49q-24 28 -38 38q-19 14 -44 14q-86 0 -107 -111l-69 2q16 88 61 134
t115 46q49 0 72 -16z" />
    <glyph glyph-name="j.short" horiz-adv-x="360" 
d="M280 1397q23 22 56 22q31 0 49 -18t18 -47q0 -36 -23 -59t-56 -23q-30 0 -49 19t-19 48q0 35 24 58zM-162 -313q79 0 119 34q41 35 53 113l213 1204h105l-213 -1208q-22 -126 -87 -183q-64 -57 -194 -57h-63l16 97h51z" />
    <glyph glyph-name="j.ss03" horiz-adv-x="399" 
d="M318 1397q23 22 57 22q29 0 48 -18t19 -47q0 -36 -23 -59t-57 -23q-29 0 -48 19t-19 48q0 36 23 58zM-123 -313q79 0 119 34q41 35 53 113l197 1108h-164l16 96h269l-213 -1208q-22 -126 -87 -183q-64 -57 -194 -57h-149l16 97h137z" />
    <glyph glyph-name="j.ss04" horiz-adv-x="350" 
d="M269 1397q23 22 57 22q29 0 47 -18t18 -47q0 -36 -22 -59t-56 -23q-29 0 -48 19t-19 48q0 36 23 58zM213 1038h104l-256 -1448h-104z" />
    <glyph glyph-name="uni0237.short" horiz-adv-x="358" 
d="M-162 -313q79 0 119 34q41 35 53 113l213 1204h105l-213 -1208q-22 -126 -87 -183q-64 -57 -194 -57h-63l16 97h51z" />
    <glyph glyph-name="uni0237.ss03" horiz-adv-x="397" 
d="M-123 -313q79 0 119 34q41 35 53 113l197 1108h-164l16 96h269l-213 -1208q-22 -126 -87 -183q-64 -57 -194 -57h-149l16 97h137z" />
    <glyph glyph-name="uni0237.ss04" horiz-adv-x="348" 
d="M211 1038h104l-254 -1448h-104z" />
    <glyph glyph-name="jcircumflex.short" horiz-adv-x="358" 
d="M-162 -313q79 0 119 34q41 35 53 113l213 1204h105l-213 -1208q-22 -126 -87 -183q-64 -57 -194 -57h-63l16 97h51zM338 1370l-234 -203h-116l307 273h102l213 -273h-102z" />
    <glyph glyph-name="jcircumflex.ss03" horiz-adv-x="397" 
d="M-123 -313q79 0 119 34q41 35 53 113l197 1108h-164l16 96h269l-213 -1208q-22 -126 -87 -183q-64 -57 -194 -57h-149l16 97h137zM377 1370l-234 -203h-116l307 273h102l213 -273h-102z" />
    <glyph glyph-name="jcircumflex.ss04" horiz-adv-x="348" 
d="M211 1038h104l-254 -1448h-104zM326 1370l-234 -203h-117l308 273h102l213 -273h-102z" />
    <glyph glyph-name="t.calt" horiz-adv-x="542" 
d="M264 1329h105l-52 -291h277l-16 -96h-277l-125 -702q-6 -27 -6 -52q0 -49 29 -70q30 -22 92 -22h155l-18 -96h-154q-108 0 -158 42t-50 128q0 29 10 92z" />
    <glyph glyph-name="t.ss05" horiz-adv-x="591" 
d="M86 1038h199l51 291h104l-51 -291h273l-17 -96h-272l-168 -942h-105l168 942h-198z" />
    <glyph glyph-name="tbar.calt" horiz-adv-x="542" 
d="M301 942l-53 -301h274l-14 -90h-277l-55 -311q-6 -27 -6 -52q0 -49 29 -70q30 -22 92 -22h155l-18 -96h-154q-108 0 -158 42t-50 128q0 29 10 92l188 1067h105l-52 -291h277l-16 -96h-277z" />
    <glyph glyph-name="tbar.ss05" horiz-adv-x="616" 
d="M653 942h-272l-57 -317h272l-16 -90h-271l-96 -535h-104l96 535h-201l19 90h196l57 317h-198l16 96h199l51 291h105l-52 -291h273z" />
    <glyph glyph-name="tcaron.calt" horiz-adv-x="542" 
d="M264 1329h105l-52 -291h277l-16 -96h-277l-125 -702q-6 -27 -6 -52q0 -49 29 -70q30 -22 92 -22h155l-18 -96h-154q-108 0 -158 42t-50 128q0 29 10 92zM590 1458h100l-160 -297h-79z" />
    <glyph glyph-name="tcaron.ss05" horiz-adv-x="606" 
d="M86 1038h199l51 291h104l-51 -291h273l-17 -96h-272l-168 -942h-105l168 942h-198zM662 1444h100l-160 -297h-80z" />
    <glyph glyph-name="uni0163.calt" horiz-adv-x="542" 
d="M264 1329h105l-52 -291h277l-16 -96h-277l-125 -702q-6 -27 -6 -52q0 -49 29 -70q30 -22 92 -22h155l-18 -96h-154q-108 0 -158 42t-50 128q0 29 10 92zM160 -109h106l-172 -288h-80z" />
    <glyph glyph-name="uni0163.ss05" horiz-adv-x="591" 
d="M86 1038h199l51 291h104l-51 -291h273l-17 -96h-272l-168 -942h-105l168 942h-198zM78 -109h106l-172 -288h-80z" />
    <glyph glyph-name="uni021B.calt" horiz-adv-x="542" 
d="M264 1329h105l-52 -291h277l-16 -96h-277l-125 -702q-6 -27 -6 -52q0 -49 29 -70q30 -22 92 -22h155l-18 -96h-154q-108 0 -158 42t-50 128q0 29 10 92zM160 -109h106l-172 -288h-80z" />
    <glyph glyph-name="uni021B.ss05" horiz-adv-x="591" 
d="M86 1038h199l51 291h104l-51 -291h273l-17 -96h-272l-168 -942h-105l168 942h-198zM78 -109h106l-172 -288h-80z" />
    <glyph glyph-name="y.ss01" horiz-adv-x="1103" 
d="M1073 1038l-182 -1024q-37 -208 -163 -322t-347 -114q-181 0 -283 87t-94 243h105q1 -116 72 -176t204 -60q165 0 269 91q105 92 134 260l35 208q-68 -113 -167 -176t-228 -63q-157 0 -248 85q-92 86 -92 251q0 59 12 127l103 583h104l-102 -583q-10 -63 -10 -107
q0 -128 65 -193q67 -67 186 -67q162 0 280 121q119 122 153 323l88 506h106z" />
    <glyph glyph-name="yacute.ss01" horiz-adv-x="1103" 
d="M1073 1038l-182 -1024q-37 -208 -163 -322t-347 -114q-181 0 -283 87t-94 243h105q1 -116 72 -176t204 -60q165 0 269 91q105 92 134 260l35 208q-68 -113 -167 -176t-228 -63q-157 0 -248 85q-92 86 -92 251q0 59 12 127l103 583h104l-102 -583q-10 -63 -10 -107
q0 -128 65 -193q67 -67 186 -67q162 0 280 121q119 122 153 323l88 506h106zM623 1169l233 271h127l-272 -271h-88z" />
    <glyph glyph-name="ycircumflex.ss01" horiz-adv-x="1103" 
d="M1073 1038l-182 -1024q-37 -208 -163 -322t-347 -114q-181 0 -283 87t-94 243h105q1 -116 72 -176t204 -60q165 0 269 91q105 92 134 260l35 208q-68 -113 -167 -176t-228 -63q-157 0 -248 85q-92 86 -92 251q0 59 12 127l103 583h104l-102 -583q-10 -63 -10 -107
q0 -128 65 -193q67 -67 186 -67q162 0 280 121q119 122 153 323l88 506h106zM700 1370l-233 -203h-117l307 273h103l213 -273h-103z" />
    <glyph glyph-name="ydieresis.ss01" horiz-adv-x="1103" 
d="M1073 1038l-182 -1024q-37 -208 -163 -322t-347 -114q-181 0 -283 87t-94 243h105q1 -116 72 -176t204 -60q165 0 269 91q105 92 134 260l35 208q-68 -113 -167 -176t-228 -63q-157 0 -248 85q-92 86 -92 251q0 59 12 127l103 583h104l-102 -583q-10 -63 -10 -107
q0 -128 65 -193q67 -67 186 -67q162 0 280 121q119 122 153 323l88 506h106zM571 1377q19 -19 19 -44q0 -32 -23 -55t-55 -23q-27 0 -48 19q-20 18 -20 45q0 33 23 54q24 22 55 22t49 -18zM912 1377q20 -18 20 -44q0 -32 -23 -55t-55 -23q-31 0 -49 18q-19 19 -19 46
q0 33 23 54q24 22 55 22q28 0 48 -18z" />
    <glyph glyph-name="ygrave.ss01" horiz-adv-x="1103" 
d="M1073 1038l-182 -1024q-37 -208 -163 -322t-347 -114q-181 0 -283 87t-94 243h105q1 -116 72 -176t204 -60q165 0 269 91q105 92 134 260l35 208q-68 -113 -167 -176t-228 -63q-157 0 -248 85q-92 86 -92 251q0 59 12 127l103 583h104l-102 -583q-10 -63 -10 -107
q0 -128 65 -193q67 -67 186 -67q162 0 280 121q119 122 153 323l88 506h106zM446 1440h119l137 -271h-81z" />
    <glyph glyph-name="w_w_w" horiz-adv-x="4472" 
d="M4432 1038h110l-552 -1038h-113l-137 872l-461 -872l-115 -2l-143 891l-473 -889h-113l-137 872l-461 -872l-115 -2l-143 887l-471 -885h-113l-137 872l-461 -872l-114 -2l-168 1040h106l141 -913l476 913h98l133 -913l481 913h111l141 -913l475 913h99l133 -913l481 913
h113l141 -913l475 913h98l134 -913z" />
    <glyph glyph-name="zero.osf" horiz-adv-x="1255" 
d="M943 993q105 -58 161 -157q57 -100 57 -226q0 -164 -83 -309q-81 -141 -224 -228q-140 -85 -305 -85q-135 0 -239 57q-102 56 -160 158t-58 225q0 164 83 309q82 143 224 229q140 85 306 85q133 0 238 -58zM1012 790q-44 77 -126 123q-81 45 -186 45q-134 0 -251 -72
q-116 -72 -185 -195q-67 -121 -67 -259q0 -102 45 -181t126 -124t185 -45q134 0 251 73q114 71 184 194q69 121 69 259q0 102 -45 182z" />
    <glyph glyph-name="one.osf" horiz-adv-x="544" 
d="M244 768q47 0 78 31q30 30 38 82l29 157h103l-183 -1038h-106l127 700q-34 -28 -97 -28h-202l18 96h195z" />
    <glyph glyph-name="two.osf" horiz-adv-x="1056" 
d="M182 92h697l-17 -92h-866l14 88l527 303q159 89 237 166q80 78 80 193q0 94 -71 151t-189 57q-146 0 -243 -84t-126 -237h-106q38 201 164 307q128 107 315 107q105 0 189 -38q82 -37 128 -106t46 -151q0 -136 -84 -227t-250 -187z" />
    <glyph glyph-name="three.osf" horiz-adv-x="1165" 
d="M907 257q76 -72 76 -191q0 -128 -71 -231q-71 -102 -193 -159q-123 -57 -273 -57q-200 0 -322 93t-122 251q0 44 8 86h105q-6 -37 -6 -74q0 -127 93 -194q94 -68 249 -68q124 0 220 46t152 126t56 178q0 111 -89 171q-90 61 -249 61h-109l19 96h96q116 0 211 45t147 121
q53 77 53 166q0 107 -80 169t-214 62q-167 0 -274 -82t-134 -221h-102q33 187 168 292q136 106 348 106q118 0 207 -40q90 -40 139 -112q49 -71 49 -162q0 -153 -102 -258t-267 -129q133 -18 211 -91z" />
    <glyph glyph-name="four.osf" horiz-adv-x="1191" 
d="M860 1038h141l-165 -942h231l-16 -96h-234l-65 -369h-101l66 369h-756l16 106zM881 926l-785 -830h637z" />
    <glyph glyph-name="five.osf" horiz-adv-x="1179" 
d="M362 940l-135 -549q67 83 162 124q93 40 199 40q116 0 213 -50q95 -49 151 -138t56 -201q0 -147 -69 -272q-70 -127 -191 -199q-124 -74 -279 -74q-139 0 -238 51q-98 50 -148 140q-50 89 -50 196q0 26 4 51h106q-2 -8 -2 -18q-4 -139 82 -232q86 -92 250 -92
q128 0 225 62t148 162q51 101 51 213q0 136 -90 222q-89 85 -232 85q-113 0 -216 -55q-102 -55 -169 -173l-102 3l193 802h794l-18 -98h-695z" />
    <glyph glyph-name="six.osf" 
d="M339 49q-99 62 -149 164q-63 119 -63 291q0 275 79 481q80 209 226 322q147 114 348 114q190 0 304 -99t112 -275h-106q-1 135 -85 208q-83 72 -229 72q-165 0 -278 -94q-114 -94 -177 -248q-62 -151 -79 -338l-2 -49q41 154 168 247t299 93q121 0 215 -51
q93 -50 145 -142q51 -90 51 -204q0 -155 -69 -283q-68 -126 -195 -199q-123 -71 -285 -71q-132 0 -230 61zM804 141q99 60 153 162q55 104 55 227q0 136 -88 224t-234 88q-126 0 -228 -57q-101 -57 -158 -155q-56 -97 -56 -222q0 -89 41 -165q40 -75 115 -118
q74 -43 171 -43q132 0 229 59z" />
    <glyph glyph-name="seven.osf" horiz-adv-x="1024" 
d="M131 1038h930l-14 -92l-918 -1315h-119l916 1311h-811z" />
    <glyph glyph-name="eight.osf" horiz-adv-x="1216" 
d="M1016 627q69 -78 69 -201q0 -136 -72 -235q-71 -97 -198 -151q-123 -52 -280 -52q-136 0 -241 44q-102 43 -160 122q-56 77 -56 176q0 172 108 278q107 106 291 133q-103 24 -169 94q-64 68 -64 175q0 124 65 217q66 95 181 144q117 50 264 50q124 0 217 -43
q95 -44 145 -116q51 -73 51 -164q0 -151 -97 -245q-99 -96 -255 -118q132 -30 201 -108zM439 845q92 -65 231 -65q171 0 281 85q112 86 112 227q0 105 -91 172t-233 67q-109 0 -198 -40q-93 -42 -142 -111q-51 -72 -51 -164q0 -107 91 -171zM767 121q101 43 158 121
q56 77 56 182q0 114 -96 189t-256 75q-125 0 -227 -42q-100 -41 -160 -121q-60 -79 -60 -185q0 -74 45 -134q44 -59 126 -94q80 -34 186 -34q127 0 228 43z" />
    <glyph glyph-name="nine.osf" horiz-adv-x="1230" 
d="M888 988q98 -59 148 -163q64 -123 64 -278q0 -279 -78 -488t-225 -323q-148 -115 -351 -115q-190 0 -304 99t-109 274h104q5 -138 86 -208q83 -71 228 -71q240 0 374 192q133 191 160 482l2 49q-41 -154 -168 -247t-299 -93q-119 0 -214 52q-92 51 -145 141
q-52 89 -52 205q0 154 69 282q68 126 195 199q125 72 284 72q130 0 231 -61zM424 895q-100 -60 -153 -161q-54 -102 -54 -228q0 -135 88 -223t234 -88q126 0 228 57q100 56 158 158q56 99 56 223q0 91 -42 164q-41 72 -116 115q-74 42 -170 42q-132 0 -229 -59z" />
    <glyph glyph-name="one.osf.ss08" 
d="M1024 90l-14 -90h-936l16 90h408l110 617q-31 -31 -94 -31h-276l16 86h268q45 0 76 31t41 79l29 166h102l-166 -948h420z" />
    <glyph glyph-name="seven.osf.ss08" horiz-adv-x="1044" 
d="M133 1038h948l-14 -92l-920 -1315h-116l915 1311h-737l-49 -283h-94z" />
    <glyph glyph-name="four.osf.ss09" horiz-adv-x="1062" 
d="M870 1038h136l-250 -1407h-107l66 369h-756l16 96zM881 926l-787 -830h639z" />
    <glyph glyph-name="zero.osf.zero" horiz-adv-x="1257" 
d="M950 994q103 -57 159 -155q56 -97 56 -227q0 -50 -8 -100q-27 -146 -116 -267q-88 -120 -221 -189q-130 -68 -277 -68q-134 0 -237 55q-102 55 -160 155q-56 97 -56 226q0 50 10 104q24 144 115 266q89 118 222 188q132 69 278 69q133 0 235 -57zM195 428q0 -107 53 -190
l719 620q-46 49 -112 75q-63 25 -142 25q-124 0 -230 -59q-107 -60 -184 -162q-75 -99 -96 -225q-8 -61 -8 -84zM1061 606q0 112 -53 197l-717 -623q98 -98 252 -98q123 0 229 59q107 60 184 162q76 102 99 225q6 40 6 78z" />
    <glyph glyph-name="one.ss08" horiz-adv-x="1056" 
d="M907 98l-18 -98h-914l17 98h416l172 965q-28 -27 -86 -27h-263l19 97h242q45 0 76 31q33 33 40 81l35 189h105l-236 -1336h395z" />
    <glyph glyph-name="seven.ss08" horiz-adv-x="1062" 
d="M1184 1434l-13 -78l-972 -1356h-127l964 1335h-774l-51 -282h-90l67 381h996z" />
    <glyph glyph-name="four.ss09" horiz-adv-x="1054" 
d="M45 485l899 949h148l-254 -1434h-107l68 377h-770zM168 475h647l150 836z" />
    <glyph glyph-name="zero.tf" 
d="M1069 1302q107 -145 107 -382q0 -234 -78 -449q-79 -216 -225 -349q-148 -134 -345 -134q-194 0 -301 141q-106 140 -106 379q0 234 79 449q80 217 226 353t344 136q192 0 299 -144zM478 1221q-122 -128 -185 -323q-64 -198 -64 -398q0 -196 77 -305t224 -109
q169 0 290 127q124 130 186 324q63 197 63 397q0 196 -77 305t-224 109q-169 0 -290 -127z" />
    <glyph glyph-name="one.tf" 
d="M1024 98l-18 -98h-914l17 98h415l172 965q-28 -27 -86 -27h-262l19 97h241q46 0 77 31q33 33 40 81l35 189h104l-235 -1336h395z" />
    <glyph glyph-name="two.tf" 
d="M684 600q122 96 192 162t118 151q48 86 48 189q0 118 -79 184t-222 66q-164 0 -278 -99q-116 -101 -144 -266l-4 -24h-106l4 38q39 210 181 328q143 119 351 119q190 0 297 -97q109 -98 109 -251q0 -124 -52 -219q-55 -100 -128 -166q-96 -87 -223 -189l-555 -428h806
l-18 -98h-956l14 92z" />
    <glyph glyph-name="three.tf" 
d="M1012 643q80 -77 80 -197q0 -136 -77 -240t-206 -161t-281 -57q-202 0 -324 93t-122 253q0 44 8 86h109q-9 -54 -9 -68q0 -126 92 -197t248 -71q121 0 226 48q104 48 167 133q62 84 62 192q0 110 -92 170q-90 59 -262 59h-115l16 92h103q119 0 217 46q100 47 156 125
q57 79 57 177q0 103 -84 163q-85 61 -221 61q-165 0 -276 -81t-138 -220h-106q33 192 170 294q138 103 350 103q124 0 217 -40q94 -40 145 -111q52 -72 52 -162q0 -157 -102 -263t-267 -133q128 -18 207 -94z" />
    <glyph glyph-name="four.tf" 
d="M49 485l899 949h148l-168 -959h243l-16 -98h-246l-67 -377h-107l68 377h-770zM172 475h647l150 836z" />
    <glyph glyph-name="five.tf" 
d="M457 1335l-138 -559q76 87 185 131q105 43 215 43q181 0 286 -108t105 -283q0 -157 -76 -287q-76 -129 -208 -206q-131 -76 -289 -76q-136 0 -232 51t-144 138t-48 196q0 24 4 53h106q-2 -8 -2 -20q-4 -138 79 -231q82 -91 241 -91q126 0 232 65q105 65 167 173
q61 107 61 237q0 135 -78 213q-80 80 -225 80q-119 0 -232 -56q-117 -58 -179 -169l-105 2l193 803h807l-19 -99h-706z" />
    <glyph glyph-name="six.tf" 
d="M337 49q-99 62 -149 164q-63 119 -63 291q0 281 79 493q79 213 226 331q146 118 348 118q188 0 302 -105t110 -280h-105q-5 138 -86 214q-83 77 -225 77q-240 0 -373 -201q-132 -199 -161 -504l-2 -49q40 153 169 248q127 94 298 94q121 0 215 -51t145 -141t51 -205
q0 -155 -69 -283q-69 -127 -195 -200q-124 -72 -285 -72q-132 0 -230 61zM800 141q99 60 154 163q56 104 56 228q0 136 -88 224t-234 88q-124 0 -228 -58q-101 -56 -158 -156q-56 -97 -56 -222q0 -91 40 -165q41 -75 113 -118q73 -43 170 -43q134 0 231 59z" />
    <glyph glyph-name="seven.tf" 
d="M281 1434h1003l-12 -78l-985 -1356h-129l979 1335h-875z" />
    <glyph glyph-name="eight.tf" 
d="M1014 630q78 -82 78 -204q0 -135 -73 -235q-71 -97 -198 -151q-123 -52 -280 -52q-136 0 -241 44q-102 43 -160 122q-56 77 -56 176q0 170 118 279t300 136q-109 22 -181 100q-71 77 -71 185q0 128 65 221q66 95 182 146t263 51q121 0 217 -44q93 -43 145 -119t52 -167
q0 -157 -104 -258q-103 -100 -263 -123q128 -24 207 -107zM447 860q92 -67 235 -67q109 0 196 40q90 41 140 112q51 72 51 167q0 109 -91 176q-92 68 -233 68q-112 0 -199 -40q-89 -41 -140 -113q-52 -73 -52 -167q0 -108 93 -176zM773 121q101 43 158 121q56 77 56 182
q0 114 -96 189t-256 75q-124 0 -226 -42q-101 -42 -161 -121t-60 -185q0 -74 45 -134q44 -59 126 -94q80 -34 186 -34q127 0 228 43z" />
    <glyph glyph-name="nine.tf" 
d="M958 1385q99 -60 148 -164q63 -123 63 -279q0 -288 -77 -501q-78 -216 -227 -335q-148 -118 -351 -118q-190 0 -301 104q-113 106 -109 281h105q5 -138 86 -214q83 -77 225 -77q240 0 372 201q133 202 161 503q4 21 4 50q-40 -153 -169 -248q-127 -94 -298 -94
q-120 0 -215 51t-146 141t-51 205q0 154 70 283q68 126 194 199t285 73q130 0 231 -61zM493 1292q-101 -61 -154 -163q-54 -103 -54 -228q0 -135 88 -223t233 -88q127 0 229 57q98 55 157 157q57 99 57 222q0 89 -41 165q-40 73 -115 118q-73 43 -170 43q-131 0 -230 -60z
" />
    <glyph glyph-name="seven.tf.ss08" 
d="M1212 1434l-12 -78l-973 -1356h-127l965 1335h-774l-51 -282h-90l67 381h995z" />
    <glyph glyph-name="four.tf.ss09" 
d="M98 485l899 949h148l-254 -1434h-107l68 377h-770zM221 475h647l150 836z" />
    <glyph glyph-name="zero.tf.zero" 
d="M1069 1302q107 -145 107 -382q0 -234 -78 -449q-79 -216 -225 -349q-148 -134 -345 -134q-194 0 -301 141q-106 140 -106 379q0 234 79 449q80 217 226 353t344 136q192 0 299 -144zM478 1221q-122 -128 -185 -323q-64 -198 -64 -398q0 -43 7 -97l811 721
q-30 108 -102 166t-177 58q-169 0 -290 -127zM820 213q124 130 186 324q63 197 63 397q0 53 -6 98l-811 -721q30 -108 101 -167q70 -58 177 -58q169 0 290 127z" />
    <glyph glyph-name="zero.tosf" 
d="M211 793q87 120 218 189q130 69 271 69q132 0 231 -57t154 -155q56 -100 56 -227q0 -52 -8 -102q-27 -146 -115 -265q-89 -120 -217 -189q-127 -68 -273 -68q-130 0 -229 56q-101 57 -156 156q-55 98 -55 226q0 50 8 100q27 146 115 267zM1036 610q0 152 -93 249t-243 97
q-118 0 -224 -59q-107 -60 -181 -162q-73 -102 -96 -225q-6 -44 -6 -80q0 -154 93 -251t244 -97q119 0 224 59q108 61 180 161q73 101 94 224q8 42 8 84z" />
    <glyph glyph-name="one.tosf" 
d="M1032 90l-16 -90h-934l14 90h410l110 617q-34 -31 -96 -31h-274l14 86h268q47 0 78 31q32 32 39 79l29 166h104l-168 -948h422z" />
    <glyph glyph-name="two.tosf" 
d="M297 92h696l-16 -92h-866l14 88l526 303q161 90 238 166q80 78 80 193q0 94 -71 151q-70 57 -189 57q-145 0 -243 -84t-126 -237h-107q38 201 164 307q128 107 316 107q105 0 189 -38q82 -37 128 -106q45 -68 45 -151q0 -136 -84 -227t-250 -187z" />
    <glyph glyph-name="three.tosf" 
d="M1006 248q79 -76 79 -197q0 -137 -76 -240q-77 -104 -206 -161q-131 -58 -281 -58q-201 0 -324 94q-122 93 -122 253q0 44 8 86h109q-9 -54 -9 -68q0 -128 91 -198t249 -70q121 0 226 48q103 47 166 133t63 191q0 110 -92 170q-91 60 -262 60h-115l16 92h103
q119 0 217 46q99 46 155 125q58 81 58 177q0 103 -84 163t-221 60q-165 0 -276 -81t-138 -220h-107q33 193 170 295q138 103 351 103q124 0 217 -40q94 -40 145 -111q51 -70 51 -163q0 -157 -101 -262q-102 -106 -267 -133q128 -18 207 -94z" />
    <glyph glyph-name="four.tosf" 
d="M860 1038h141l-165 -942h231l-16 -96h-234l-65 -369h-101l66 369h-756l16 106zM881 926l-785 -830h637z" />
    <glyph glyph-name="five.tosf" 
d="M379 942l-135 -549q67 83 162 124q93 40 198 40q116 0 213 -50t152 -138t55 -201q0 -148 -69 -272q-70 -127 -191 -199q-124 -74 -279 -74q-138 0 -237 51t-149 140t-50 196q0 26 4 51h107q-2 -8 -2 -18q-4 -139 82 -232q86 -92 249 -92q129 0 226 62q96 61 147 162
t51 213q0 136 -90 222q-89 85 -231 85q-113 0 -216 -55t-169 -172l-103 2l193 802h795l-19 -98h-694z" />
    <glyph glyph-name="six.tosf" 
d="M353 49q-98 61 -148 164q-64 120 -64 291q0 275 79 481q80 209 226 322q147 114 349 114q190 0 304 -99q113 -98 111 -275h-106q-1 135 -85 208q-83 72 -228 72q-166 0 -279 -94q-114 -94 -177 -248q-62 -151 -79 -338l-2 -49q41 154 168 247q128 93 299 93
q121 0 215 -51q93 -50 145 -142t52 -204q0 -154 -70 -283q-68 -126 -195 -199q-123 -71 -284 -71q-133 0 -231 61zM818 141q100 61 154 162q54 102 54 227q0 136 -88 224t-233 88q-127 0 -229 -57q-101 -57 -158 -155q-56 -97 -56 -222q0 -89 41 -165q40 -74 116 -118
q74 -43 171 -43q131 0 228 59z" />
    <glyph glyph-name="seven.tosf" 
d="M217 1038h930l-14 -92l-918 -1315h-119l916 1311h-811z" />
    <glyph glyph-name="eight.tosf" 
d="M1024 627q70 -79 70 -201q0 -135 -73 -235q-71 -97 -198 -151q-123 -52 -280 -52q-136 0 -241 44q-102 43 -160 122q-56 77 -56 176q0 171 109 278q108 106 290 133q-103 24 -169 94q-64 68 -64 175q0 124 65 217q66 94 182 144q117 50 263 50q124 0 217 -43
q95 -44 145 -116q52 -75 52 -164q0 -150 -98 -245q-99 -96 -255 -118q132 -30 201 -108zM447 845q92 -65 231 -65q171 0 281 85q112 86 112 227q0 105 -91 172t-232 67q-110 0 -199 -40q-92 -41 -141 -111q-52 -73 -52 -164q0 -107 91 -171zM775 121q101 43 158 121
q56 77 56 182q0 114 -96 189t-256 75q-124 0 -226 -42q-101 -42 -161 -121t-60 -185q0 -73 46 -134q45 -60 125 -94t186 -34q127 0 228 43z" />
    <glyph glyph-name="nine.tosf" 
d="M888 988q98 -59 148 -163q64 -123 64 -278q0 -279 -78 -488t-225 -323q-148 -115 -351 -115q-190 0 -304 99t-109 274h104q5 -138 86 -208q83 -71 228 -71q240 0 374 192q133 191 160 482l2 49q-41 -154 -168 -247t-299 -93q-119 0 -214 52q-92 51 -145 141
q-52 89 -52 205q0 154 69 282q68 126 195 199q125 72 284 72q130 0 231 -61zM424 895q-100 -60 -153 -161q-54 -102 -54 -228q0 -135 88 -223t234 -88q126 0 228 57q100 56 158 158q56 99 56 223q0 91 -42 164q-41 72 -116 115q-74 42 -170 42q-132 0 -229 -59z" />
    <glyph glyph-name="seven.tosf.ss08" 
d="M240 1038h948l-14 -92l-920 -1315h-117l916 1311h-738l-49 -283h-94z" />
    <glyph glyph-name="four.tosf.ss09" 
d="M29 86l899 948h147l-254 -1433h-106l67 376h-770zM152 76h647l149 835z" />
    <glyph glyph-name="zero.tosf.zero" 
d="M931 994q99 -57 154 -155q56 -100 56 -227q0 -52 -8 -102q-27 -146 -115 -265q-89 -120 -217 -189q-127 -68 -273 -68q-130 0 -229 56q-101 57 -156 156q-55 98 -55 226q0 50 8 100q27 146 115 267q87 120 218 189q130 69 271 69q132 0 231 -57zM193 428q0 -108 45 -184
l710 610q-44 49 -108 76q-61 26 -140 26q-118 0 -224 -59q-107 -60 -181 -162q-73 -102 -96 -225q-6 -44 -6 -82zM1036 610q0 98 -47 187l-708 -613q43 -47 109 -75q64 -27 140 -27q119 0 224 59q108 61 180 161q73 101 94 224q8 61 8 84z" />
    <glyph glyph-name="zero.zero" horiz-adv-x="1257" 
d="M1008 1379q93 -65 143 -185q49 -117 49 -274q0 -233 -80 -449q-80 -215 -230 -349q-151 -134 -349 -134q-196 0 -307 142t-111 378q0 233 81 449q81 217 231 353q149 136 349 136q128 0 224 -67zM487 1221q-125 -128 -191 -324q-67 -199 -67 -397q0 -43 7 -97l827 736
q-34 99 -107 154t-176 55q-169 0 -293 -127zM838 213q124 127 190 324q66 196 66 397q0 59 -9 115l-831 -738q35 -109 108 -167t183 -58q169 0 293 127z" />
    <glyph glyph-name="u1F10C.zero" horiz-adv-x="1648" 
d="M524 1335q-189 -111 -295 -302t-106 -427q0 -177 82 -317q83 -142 229 -221q148 -80 334 -80q238 0 426 109q189 109 294 302q105 192 105 428q0 178 -82 318q-83 142 -229 221q-148 80 -334 80q-235 0 -424 -111zM1100 1022q61 -77 61 -211q0 -122 -46 -232
q-48 -114 -128 -181q-81 -68 -186 -68q-115 0 -176 78q-62 79 -62 210q0 122 45 233q45 112 127 180q82 69 187 69q116 0 178 -78zM775 969q-64 -61 -99 -157t-35 -194q0 -33 6 -63l414 377q-18 46 -55 72q-36 26 -84 26q-83 0 -147 -61zM949 461q66 63 100 156t34 194
q0 37 -8 66l-413 -377q44 -101 141 -101q81 0 146 62z" />
    <glyph glyph-name="u1F10B.zero" horiz-adv-x="1648" 
d="M955 807q30 -29 30 -74q0 -58 -38 -98q-37 -39 -97 -39q-46 0 -77 29q-30 29 -30 73q0 60 39 99t97 39q45 0 76 -29zM791 788q-35 -38 -35 -90q0 -41 26 -66q28 -26 68 -26q54 0 88 37q35 38 35 90q0 41 -27 67q-26 25 -67 25q-54 0 -88 -37zM905 766q10 -11 10 -35
q0 -33 -17 -56q-18 -24 -42 -24q-20 0 -31 13q-10 11 -10 34q0 32 18 56t41 24q20 0 31 -12zM842 745q-13 -23 -13 -47v-10l68 62q-6 16 -23 16q-20 0 -32 -21zM889 684q12 21 12 47v10l-70 -61q10 -16 25 -16q22 0 33 20z" />
    <glyph glyph-name="zero.dnom" horiz-adv-x="688" 
d="M555 680q61 -77 61 -211q0 -122 -46 -232q-48 -114 -128 -181q-81 -68 -186 -68q-114 0 -176 78q-62 79 -62 210q0 122 45 233q45 112 127 180q82 69 187 69q117 0 178 -78zM229 626q-64 -64 -98 -160q-35 -99 -35 -196q0 -94 43 -153q44 -60 119 -60q81 0 146 62
q66 63 100 156q35 96 35 194q0 97 -43 158t-119 61q-86 0 -148 -62z" />
    <glyph glyph-name="one.dnom" horiz-adv-x="344" 
d="M86 0l94 522q-14 -14 -43 -14h-141l14 72h137q19 0 32 14q14 15 18 35l20 116h72l-131 -745h-72z" />
    <glyph glyph-name="two.dnom" horiz-adv-x="634" 
d="M514 708q59 -49 59 -137q0 -87 -51 -152q-53 -67 -145 -134l-289 -213h410l-13 -72h-522l10 70l351 256q88 63 130 115q42 53 42 120q0 59 -40 93t-108 34q-86 0 -142 -49q-57 -49 -73 -139h-72q18 124 96 191t193 67q103 0 164 -50z" />
    <glyph glyph-name="three.dnom" horiz-adv-x="653" 
d="M172 699q79 59 186 59q102 0 164 -48t62 -126q0 -77 -50 -129q-49 -51 -128 -66q60 -10 98 -51q37 -40 37 -102q0 -107 -80 -178q-79 -70 -215 -70q-120 0 -184 60t-64 175h74q0 -84 47 -126t133 -42q93 0 152 49q61 50 61 125q0 62 -47 95q-45 32 -129 32h-51l10 56h45
q91 0 153 44t62 117q0 51 -42 83q-43 32 -110 32q-83 0 -139 -41q-55 -40 -70 -110h-73q21 104 98 162z" />
    <glyph glyph-name="four.dnom" horiz-adv-x="679" 
d="M457 745h90l-84 -479h127l-12 -69h-127l-35 -197h-74l35 197h-391l10 69zM459 657l-375 -391h305z" />
    </font>
</defs>
</svg>
