<?xml version="1.0" standalone="no"?>
<!DOCTYPE svg PUBLIC "-//W3C//DTD SVG 1.1//EN" "http://www.w3.org/Graphics/SVG/1.1/DTD/svg11.dtd" >
<svg xmlns="http://www.w3.org/2000/svg" xmlns:xlink="http://www.w3.org/1999/xlink" version="1.1">
<metadata>
Created by FontForge 20170731 at Sun Dec 13 02:15:26 2020
 By Aleksey,,,
Mark Bloom and Joe Leadbeater (c) 2018
</metadata>
<defs>
<font id="Aeonik-BoldItalic" horiz-adv-x="1228" >
  <font-face 
    font-family="Aeonik"
    font-weight="700"
    font-style="italic"
    font-stretch="normal"
    units-per-em="2048"
    panose-1="2 1 5 3 3 3 0 0 0 0"
    ascent="1638"
    descent="-410"
    x-height="1053"
    cap-height="1434"
    bbox="-965 -422 4542 1892"
    underline-thickness="176"
    underline-position="-585"
    slope="-10"
    unicode-range="U+0020-1F10C"
  />
<missing-glyph 
d="M305 1434h942l-276 -1573h-942z" />
    <glyph glyph-name="fi" unicode="fi" horiz-adv-x="1216" 
d="M1237 1448q43 -43 43 -109q0 -75 -52 -124q-53 -50 -126 -50q-70 0 -113 43t-43 109q0 75 52 124q53 50 126 50q70 0 113 -43zM1024 0h-289l142 809h-371l-144 -809h-288l143 809h-174l43 244h174l16 90q29 146 108 218q81 73 239 73h231l-43 -246h-143q-54 0 -78 -21
q-26 -23 -33 -65l-8 -49h659z" />
    <glyph glyph-name="f_f.liga" unicode="ff" horiz-adv-x="1394" 
d="M1264 1167q-25 -22 -31 -65l-8 -49h256l-43 -244h-256l-144 -809h-288l143 809h-387l-144 -809h-288l143 809h-174l43 244h174l16 90q29 146 108 218q81 73 239 73h231l-43 -246h-143q-54 0 -78 -21q-26 -23 -33 -65l-8 -49h387l16 90q29 146 107 218q79 73 239 73h250
l-43 -246h-162q-55 0 -79 -21z" />
    <glyph glyph-name="f_f_i.liga" unicode="ffi" horiz-adv-x="1896" 
d="M1917 1448q43 -43 43 -109q0 -75 -52 -124q-53 -50 -126 -50q-70 0 -113 43t-43 109q0 75 52 124q53 50 126 50q70 0 113 -43zM1704 0h-289l141 809h-376l-144 -809h-288l143 809h-385l-144 -809h-288l143 809h-174l43 244h174l16 90q29 146 108 218q81 73 239 73h231
l-43 -246h-143q-54 0 -78 -21q-26 -23 -33 -65l-8 -49h383l18 90q29 146 107 218q79 73 237 73h232l-43 -246h-142q-55 0 -79 -21q-25 -22 -31 -65l-8 -49h665z" />
    <glyph glyph-name="f_f_t.liga" unicode="fft" horiz-adv-x="2078" 
d="M1772 346l-5 -41q0 -31 20 -46q19 -15 62 -15h158l-43 -244h-217q-133 0 -205 59q-74 60 -74 172q0 12 9 80l90 498h-385l-144 -809h-288l143 809h-387l-144 -809h-288l143 809h-174l43 244h174l16 90q29 146 108 218q81 73 239 73h231l-43 -246h-143q-54 0 -78 -21
q-26 -23 -33 -65l-8 -49h387l16 90q29 146 107 218q79 73 239 73h232l-45 -246h-142q-55 0 -79 -21q-25 -22 -31 -65l-8 -49h385l51 295h289l-52 -295h240l-43 -244h-240z" />
    <glyph glyph-name="f_t.liga" unicode="ft" horiz-adv-x="1402" 
d="M1098 346l-4 -41q0 -31 18 -46t62 -15h157l-43 -244h-217q-133 0 -204 59q-72 60 -72 172q0 32 10 91l86 487h-385l-144 -809h-288l143 809h-174l43 244h174l16 90q29 146 108 218q81 73 239 73h231l-43 -246h-143q-54 0 -78 -21q-26 -23 -33 -65l-8 -49h385l51 295h291
l-53 -295h239l-43 -244h-239z" />
    <glyph glyph-name="t_t.liga" unicode="tt" horiz-adv-x="1421" 
d="M1114 338q-2 -16 -2 -35q0 -33 17 -46t63 -13h158l-43 -244h-230q-130 0 -196 59q-68 60 -68 172q0 38 8 80l88 498h-403l-84 -471q-2 -16 -2 -35q0 -33 17 -46t63 -13h133l-43 -244h-205q-131 0 -197 59q-67 60 -67 172q0 38 8 80l88 498h-174l43 244h174l53 295h289
l-53 -295h403l52 295h288l-51 -295h240l-43 -244h-240z" />
    <glyph glyph-name=".notdef" 
d="M305 1434h942l-276 -1573h-942z" />
    <glyph glyph-name=".null" horiz-adv-x="0" 
 />
    <glyph glyph-name="nonmarkingreturn" horiz-adv-x="682" 
 />
    <glyph glyph-name="space" unicode=" " horiz-adv-x="507" 
 />
    <glyph glyph-name="exclam" unicode="!" horiz-adv-x="581" 
d="M168 444l127 990h311l-221 -990h-217zM99 30q-44 42 -44 109q0 76 53 127q52 51 128 51q70 0 113 -42q44 -42 44 -109q0 -76 -52 -127q-53 -51 -128 -51q-71 0 -114 42z" />
    <glyph glyph-name="quotedbl" unicode="&#x22;" horiz-adv-x="845" 
d="M248 1399q40 45 117 45q71 0 109 -35t38 -90q0 -34 -16 -82l-121 -358h-178l8 401q1 73 43 119zM651 1399q41 45 117 45q72 0 110 -35q37 -34 37 -90q0 -34 -16 -82l-121 -358h-178l8 401q1 73 43 119z" />
    <glyph glyph-name="numbersign" unicode="#" horiz-adv-x="1150" 
d="M453 1241h239l-96 -289h203l94 289h240l-97 -289h142l-43 -239h-174l-60 -185h158l-41 -239h-195l-94 -289h-240l97 289h-201l-96 -289h-238l94 289h-141l43 239h176l58 185h-158l41 239h194zM520 713l-59 -185h203l59 185h-203z" />
    <glyph glyph-name="dollar" unicode="$" horiz-adv-x="1267" 
d="M1084 698q108 -89 108 -241q0 -207 -140 -328t-374 -139l-37 -209h-256l41 225q-176 41 -275 164q-100 124 -100 301l297 -4q12 -114 85 -175t183 -61q121 0 189 46q69 47 69 133q0 69 -69 111q-70 43 -227 83q-196 51 -302 145q-104 92 -104 255q0 202 137 315t371 125
l37 211h254l-41 -234q151 -43 239 -151q88 -107 88 -271h-299q-6 88 -72 145q-65 56 -165 56q-106 0 -170 -44t-64 -126q0 -65 62 -106q64 -42 215 -82q212 -55 320 -144z" />
    <glyph glyph-name="percent" unicode="%" horiz-adv-x="1912" 
d="M852 1361q92 -86 92 -220q0 -113 -57 -205t-154 -145q-99 -54 -211 -54q-149 0 -240 85q-92 86 -92 220q0 114 57 205q59 95 152 146q97 53 211 53q151 0 242 -85zM227 0l1235 1434h291l-1235 -1434h-291zM469 1184q-51 -52 -51 -125q0 -50 34 -81q35 -32 85 -32
q76 0 128 52t52 126q0 50 -34 81q-35 32 -85 32q-78 0 -129 -53zM1700 611q92 -86 92 -220q0 -113 -57 -205t-154 -145t-211 -53q-151 0 -242 85q-92 86 -92 220q0 112 58 205t153 145q97 53 211 53q151 0 242 -85zM1316 434q-52 -52 -52 -125q0 -51 33 -81q34 -31 87 -31
q74 0 126 52q53 53 53 126q0 50 -34 81t-85 31q-75 0 -128 -53z" />
    <glyph glyph-name="ampersand" unicode="&#x26;" horiz-adv-x="1568" 
d="M1278 240h156l-43 -240h-152q-94 0 -169 25q-73 25 -120 86l-16 20q-101 -73 -202 -108q-100 -35 -208 -35q-209 0 -336 88t-127 250q0 300 381 456q-46 69 -66 129q-20 62 -20 136q0 183 137 291t357 108q114 0 204 -41q89 -41 137 -113t48 -159q0 -144 -103 -244
q-104 -101 -298 -174l6 -6l176 -228l237 293h279l-377 -473l8 -12q39 -49 111 -49zM702 1193q-53 -50 -53 -136q0 -43 15 -83q15 -41 49 -91q125 50 188 102q64 53 64 133q0 56 -35 91q-34 34 -99 34q-76 0 -129 -50zM693 232q56 21 114 65l-248 326q-197 -89 -197 -242
q0 -82 56 -126t147 -44q71 0 128 21z" />
    <glyph glyph-name="quotesingle" unicode="'" horiz-adv-x="442" 
d="M248 1399q40 45 117 45q71 0 109 -35t38 -90q0 -34 -16 -82l-121 -358h-178l8 401q1 73 43 119z" />
    <glyph glyph-name="parenleft" unicode="(" horiz-adv-x="688" 
d="M110 -69q-47 171 -47 352q0 330 127 608q128 279 375 543h309q-271 -306 -403 -574q-131 -265 -131 -573q0 -189 47 -354q45 -159 154 -343h-291q-93 170 -140 341z" />
    <glyph glyph-name="parenright" unicode=")" horiz-adv-x="688" 
d="M574 1093q47 -171 47 -352q0 -330 -127 -608q-128 -279 -375 -543h-309q271 306 403 574q131 265 131 573q0 189 -47 354q-45 159 -154 343h291q93 -170 140 -341z" />
    <glyph glyph-name="asterisk" unicode="*" horiz-adv-x="888" 
d="M924 1122l-250 -84l131 -178l-166 -129l-115 215l-192 -213l-133 129l192 178l-221 86l111 181l192 -107l35 234h194l-51 -236l221 107z" />
    <glyph glyph-name="plus" unicode="+" horiz-adv-x="1054" 
d="M510 1032h262l-57 -327h311l-43 -244h-311l-60 -330h-260l60 330h-312l41 244h312z" />
    <glyph glyph-name="comma" unicode="," horiz-adv-x="507" 
d="M317 265q50 -59 50 -156q0 -193 -119 -298q-120 -107 -318 -108l9 150q98 1 155 39t74 96q4 21 4 37q-21 -21 -55 -21q-55 0 -91 36t-36 101q0 17 2 31q8 64 62 108q55 44 128 44q85 0 135 -59z" />
    <glyph glyph-name="hyphen" unicode="-" horiz-adv-x="880" 
d="M70 465l41 233h718l-41 -233h-718z" />
    <glyph glyph-name="period" unicode="." horiz-adv-x="507" 
d="M318 285q44 -44 44 -113q0 -79 -55 -131q-56 -53 -133 -53q-72 0 -115 43t-43 110q0 81 55 134t132 53q72 0 115 -43z" />
    <glyph glyph-name="slash" unicode="/" horiz-adv-x="694" 
d="M-256 -410l926 1844h276l-926 -1844h-276z" />
    <glyph glyph-name="zero" unicode="0" horiz-adv-x="1323" 
d="M1073 1378q114 -68 173 -191q61 -127 61 -288q0 -246 -88 -453q-89 -209 -253 -333q-166 -125 -384 -125q-154 0 -265 65q-113 66 -173 189t-60 288q0 243 88 452q88 210 253 337q164 127 384 127q151 0 264 -68zM956 1122q-57 74 -159 74q-132 0 -226 -100
q-93 -99 -143 -256q-49 -154 -49 -316q0 -143 58 -214q59 -72 161 -72q130 0 224 100q97 103 144 256q48 156 48 313q0 140 -58 215z" />
    <glyph glyph-name="one" unicode="1" horiz-adv-x="755" 
d="M788 1434l-251 -1434h-295l170 913q-35 -8 -80 -8h-248l43 244h205q52 0 92 38q39 37 49 97l27 150h288z" />
    <glyph glyph-name="two" unicode="2" horiz-adv-x="1179" 
d="M627 684q136 100 203 177q69 79 69 181q0 74 -50 116q-49 42 -136 42q-113 0 -189 -72q-75 -71 -96 -188l-2 -12h-297l6 49q27 139 105 246q78 106 200 166q121 59 275 59q225 0 354 -109q127 -108 127 -290q0 -116 -47 -210q-45 -90 -127 -169q-74 -72 -205 -166
l-373 -256h623l-45 -248h-1053l39 227z" />
    <glyph glyph-name="three" unicode="3" horiz-adv-x="1243" 
d="M1087 638q72 -72 72 -189q0 -146 -82 -250q-83 -106 -221 -158q-141 -53 -309 -53q-232 0 -365 106t-133 291q0 49 10 92h289q-4 -47 -4 -59q0 -98 59 -148q60 -51 162 -51q125 0 213 69t88 175q0 65 -56 105t-169 40h-152l41 236h119q125 0 210 63t85 164q0 66 -54 105
q-53 38 -134 38q-110 0 -185 -59t-98 -154h-285q39 220 186 332q148 113 388 113q147 0 254 -43q109 -44 167 -120t58 -177q0 -148 -92 -240t-248 -125q113 -30 186 -103z" />
    <glyph glyph-name="four" unicode="4" horiz-adv-x="1286" 
d="M45 559l770 875h387l-153 -881h198l-43 -246h-198l-56 -307h-288l53 307h-711zM334 553h426l106 594z" />
    <glyph glyph-name="five" unicode="5" horiz-adv-x="1222" 
d="M524 1186l-67 -305q127 96 293 96q122 0 216 -52q96 -53 148 -146q53 -94 53 -216q0 -169 -81 -299q-82 -133 -222 -204q-141 -72 -317 -72q-152 0 -261 55t-166 150t-57 213q0 42 5 55h286v-2q-4 -102 58 -166t161 -64q131 0 214 92t83 226q0 88 -55 142q-56 54 -145 54
q-80 0 -153 -35q-75 -36 -120 -122l-288 8l188 840h942l-43 -248h-672z" />
    <glyph glyph-name="six" unicode="6" horiz-adv-x="1257" 
d="M355 45q-110 57 -173 156q-90 145 -90 350q0 264 79 465q80 204 235 317q157 115 376 115q225 0 353 -113q126 -111 120 -305h-282q-29 180 -207 180q-158 0 -242 -106q-83 -105 -116 -299q-5 -17 -5 -33q52 85 148 134q95 48 207 48q194 0 312 -109t118 -292
q0 -163 -74 -293q-73 -128 -208 -201q-132 -71 -304 -71q-138 0 -247 57zM817 303q78 84 78 213q0 92 -57 152q-56 59 -150 59q-84 0 -150 -39q-67 -40 -104 -106q-37 -67 -37 -148q0 -89 60 -152t153 -63q129 0 207 84z" />
    <glyph glyph-name="seven" unicode="7" horiz-adv-x="1114" 
d="M182 1434h1057l-31 -191l-848 -1243h-333l835 1184h-723z" />
    <glyph glyph-name="eight" unicode="8" horiz-adv-x="1239" 
d="M1081 630q68 -82 68 -202q0 -142 -78 -241q-79 -100 -211 -149q-135 -50 -301 -50q-160 0 -276 49q-118 50 -180 134t-62 189q0 163 101 267q102 105 268 129q-89 29 -148 104t-59 180q0 130 71 220q72 92 197 140t283 48q147 0 252 -46q106 -46 163 -126q58 -81 58 -180
q0 -140 -90 -234q-89 -94 -226 -121q103 -30 170 -111zM560 1179q-73 -61 -73 -153q0 -72 58 -116t143 -44q108 0 181 61t73 154q0 72 -56 115t-143 43q-111 0 -183 -60zM779 264q81 69 81 176q0 82 -66 134q-67 53 -167 53q-129 0 -213 -70q-82 -69 -82 -174q0 -83 66 -136
q65 -52 167 -52q133 0 214 69z" />
    <glyph glyph-name="nine" unicode="9" horiz-adv-x="1257" 
d="M970 1391q109 -57 171 -158q92 -142 92 -350q0 -262 -80 -464q-81 -204 -235 -317q-156 -114 -377 -114q-230 0 -356 113q-128 114 -122 305h285q24 -181 209 -181q159 0 245 107t116 297q2 22 2 35q-52 -91 -146 -139q-91 -46 -209 -46q-128 0 -225 50t-150 142t-53 210
q0 165 74 295q73 128 207 200t303 72q139 0 249 -57zM508 1133q-78 -84 -78 -213q0 -93 56 -152t149 -59q84 0 150 39q67 39 104 105q37 65 37 146q0 91 -60 154q-61 64 -153 64q-127 0 -205 -84z" />
    <glyph glyph-name="colon" unicode=":" horiz-adv-x="507" 
d="M318 285q44 -44 44 -113q0 -79 -55 -131q-56 -53 -133 -53q-72 0 -115 43t-43 110q0 81 55 134t132 53q72 0 115 -43zM443 997q44 -44 44 -112q0 -79 -55 -131q-57 -54 -133 -54q-72 0 -115 43t-43 111q0 81 55 134q53 52 132 52q72 0 115 -43z" />
    <glyph glyph-name="semicolon" unicode=";" horiz-adv-x="507" 
d="M317 265q50 -59 50 -156q0 -193 -119 -298q-120 -107 -318 -108l9 150q98 1 155 39t74 96q4 21 4 37q-21 -21 -55 -21q-55 0 -91 36t-36 101q0 17 2 31q8 64 62 108q55 44 128 44q85 0 135 -59zM429 995q44 -44 44 -112q0 -79 -55 -131q-57 -54 -133 -54q-72 0 -115 43
t-43 111q0 82 54 134q53 52 132 52q73 0 116 -43z" />
    <glyph glyph-name="less" unicode="&#x3c;" horiz-adv-x="1054" 
d="M135 446l45 271l869 336l-48 -279l-524 -192l455 -193l-45 -278z" />
    <glyph glyph-name="equal" unicode="=" horiz-adv-x="1105" 
d="M156 670l45 243h841l-43 -243h-843zM80 229l41 242h844l-43 -242h-842z" />
    <glyph glyph-name="greater" unicode="&#x3e;" horiz-adv-x="1054" 
d="M989 717l-45 -271l-868 -335l47 278l522 193l-452 192l47 279z" />
    <glyph glyph-name="question" unicode="?" horiz-adv-x="1093" 
d="M387 526q18 116 79 183t181 135q96 52 146 106q51 56 51 127q0 55 -46 92t-116 37q-104 0 -180 -72q-75 -70 -90 -186h-291q33 238 183 368q149 130 388 130q138 0 238 -45q101 -45 153 -124q54 -82 54 -179q0 -123 -61 -204q-59 -78 -173 -157l-37 -22
q-100 -61 -150 -108t-65 -115l-4 -31h-268zM341 30q-44 42 -44 109q0 76 53 127q52 51 129 51q71 0 114 -42q44 -42 44 -109q0 -76 -53 -127q-52 -51 -129 -51q-71 0 -114 42z" />
    <glyph glyph-name="at" unicode="@" horiz-adv-x="2009" 
d="M1570 1305q179 -89 278 -243q100 -156 100 -347q0 -173 -73 -317q-71 -141 -198 -222q-125 -80 -276 -80q-201 0 -246 123q-12 31 -14 62q-57 -88 -136 -136q-80 -49 -176 -49q-135 0 -217 90q-82 89 -82 238q0 139 67 265q66 124 177 199t236 75q171 0 233 -142l60 127
h235l-160 -559q-8 -29 -8 -53q0 -74 80 -74q78 0 144 60q69 63 108 163q41 106 41 238q0 139 -72 253q-71 113 -205 179t-307 66q-233 0 -435 -110q-201 -110 -323 -299q-120 -187 -120 -421q0 -155 72 -277t211 -190q137 -67 329 -67q244 0 477 110l-24 -198
q-86 -44 -208 -68q-130 -25 -266 -25q-234 0 -416 92t-282 255t-100 372q0 277 147 505q148 230 397 361q251 132 541 132q234 0 411 -88zM932 714q-60 -41 -98 -111q-37 -68 -37 -146q0 -73 37 -111q38 -39 100 -39q64 0 125 44q58 42 95 116q36 72 36 147q0 65 -37 103
q-37 39 -92 39q-67 0 -129 -42z" />
    <glyph glyph-name="A" unicode="A" horiz-adv-x="1411" 
d="M995 0l-51 313h-534l-162 -313h-332l768 1434h367l260 -1434h-316zM537 561h370l-90 541z" />
    <glyph glyph-name="B" unicode="B" horiz-adv-x="1312" 
d="M805 1434q220 0 343 -96q122 -95 122 -257q0 -301 -342 -352q136 -21 210 -94t74 -199q0 -217 -169 -326q-170 -110 -441 -110h-573l254 1434h522zM485 844h246q109 0 172 54q64 55 64 144q0 72 -48 111t-143 39h-229zM379 244h268q124 0 191 54t67 153q0 71 -53 113
t-154 42h-256z" />
    <glyph glyph-name="C" unicode="C" horiz-adv-x="1435" 
d="M376 67q-140 81 -211 218q-73 141 -73 317q0 238 98 428q100 194 280 304q183 112 423 112q169 0 294 -66q124 -66 188 -182q65 -118 65 -272h-303q-6 118 -81 189q-76 71 -196 71q-139 0 -244 -81q-102 -79 -159 -215q-56 -135 -56 -288q0 -155 83 -255q82 -99 223 -99
q133 0 220 69t140 195h305q-66 -245 -243 -385q-176 -139 -429 -139q-187 0 -324 79z" />
    <glyph glyph-name="D" unicode="D" horiz-adv-x="1396" 
d="M283 1434h430q202 0 351 -77q147 -76 227 -216q79 -139 79 -324q0 -249 -101 -433q-102 -186 -291 -285t-448 -99h-501zM567 256q151 0 263 71t171 194q60 125 60 280q0 180 -98 278q-99 99 -269 99h-151l-162 -922h186z" />
    <glyph glyph-name="E" unicode="E" horiz-adv-x="1159" 
d="M283 1434h950l-47 -265h-643l-58 -321h523l-45 -252h-521l-59 -332h668l-47 -264h-975z" />
    <glyph glyph-name="F" unicode="F" horiz-adv-x="1101" 
d="M283 1434h936l-48 -265h-628l-60 -335h514l-45 -252h-514l-102 -582h-307z" />
    <glyph glyph-name="G" unicode="G" horiz-adv-x="1525" 
d="M1184 1386q128 -61 202 -180t74 -282h-295q-6 125 -86 194q-81 70 -202 70q-147 0 -254 -80q-105 -79 -163 -212q-57 -132 -57 -288q0 -158 90 -260q88 -100 238 -100q135 0 242 74q106 73 145 213l2 18h-352l41 244h643l-139 -795h-215v170q-78 -88 -177 -134
q-102 -48 -241 -48q-177 0 -310 76q-136 78 -207 213q-73 138 -73 317q0 245 98 437q99 193 280 304q182 111 419 111q167 0 297 -62z" />
    <glyph glyph-name="H" unicode="H" horiz-adv-x="1415" 
d="M283 1434h307l-103 -576h557l103 576h307l-254 -1434h-307l106 592h-557l-106 -592h-307z" />
    <glyph glyph-name="I" unicode="I" horiz-adv-x="550" 
d="M283 1434h307l-254 -1434h-307z" />
    <glyph glyph-name="J" unicode="J" horiz-adv-x="808" 
d="M846 1434l-187 -1063q-33 -182 -145 -276q-113 -95 -295 -95h-266l47 266h156q87 0 140 47q52 46 69 138l174 983h307z" />
    <glyph glyph-name="K" unicode="K" horiz-adv-x="1429" 
d="M1532 1434l-627 -592l404 -842h-336l-301 623l-264 -246l-72 -377h-307l254 1434h307l-115 -629l664 629h393z" />
    <glyph glyph-name="L" unicode="L" horiz-adv-x="1038" 
d="M29 0l254 1434h307l-207 -1170h565l-47 -264h-872z" />
    <glyph glyph-name="M" unicode="M" horiz-adv-x="1826" 
d="M283 1434h397l211 -1053l573 1053h400l-252 -1434h-295l172 961l-541 -961h-250l-204 961l-170 -961h-295z" />
    <glyph glyph-name="N" unicode="N" horiz-adv-x="1429" 
d="M283 1434h270l448 -910l166 910h301l-251 -1434h-277l-446 903l-162 -903h-303z" />
    <glyph glyph-name="O" unicode="O" horiz-adv-x="1542" 
d="M1224 1367q141 -80 217 -219q77 -142 77 -317q0 -236 -102 -428q-103 -194 -286 -304q-184 -111 -421 -111q-184 0 -324 79q-143 81 -218 219q-77 142 -77 316q0 234 103 428t287 304q188 112 421 112q183 0 323 -79zM629 1105q-110 -80 -170 -214q-60 -133 -60 -285
q0 -98 41 -182q40 -82 116 -129t173 -47q144 0 252 81t168 213q59 130 59 283q0 155 -89 258t-236 103q-143 0 -254 -81z" />
    <glyph glyph-name="P" unicode="P" horiz-adv-x="1265" 
d="M809 1434q148 0 260 -56q111 -55 169 -151q58 -95 58 -215q0 -171 -75 -287q-76 -118 -211 -181t-310 -63h-278l-86 -481h-307l254 1434h526zM467 737h238q126 0 203 68t77 186q0 90 -54 138q-55 49 -153 49h-235z" />
    <glyph glyph-name="Q" unicode="Q" horiz-adv-x="1542" 
d="M1343 260h150l-45 -260h-139q-78 0 -119 23q-43 24 -76 67q-178 -102 -405 -102q-184 0 -324 79q-143 81 -218 219q-77 142 -77 316q0 234 103 428t287 304q188 112 421 112q183 0 323 -79q141 -80 217 -219q77 -142 77 -317q0 -160 -52 -310q-51 -147 -145 -259
q8 -2 22 -2zM440 424q40 -82 116 -129t173 -47q125 0 227 63l-26 37q-22 32 -39 43q-18 12 -51 12h-142l43 261h148q55 0 92 -16q35 -15 54 -36q19 -20 46 -61l43 -59q84 151 84 333q0 155 -89 258t-236 103q-143 0 -254 -81q-110 -80 -170 -214q-60 -133 -60 -285
q0 -98 41 -182z" />
    <glyph glyph-name="R" unicode="R" horiz-adv-x="1314" 
d="M1211 710q-86 -126 -236 -182l188 -528h-325l-164 481h-252l-86 -481h-307l254 1434h526q148 0 260 -56q111 -55 169 -151q58 -95 58 -215q0 -178 -85 -302zM467 737h238q126 0 203 68t77 186q0 90 -54 138q-55 49 -153 49h-235z" />
    <glyph glyph-name="S" unicode="S" horiz-adv-x="1267" 
d="M348 467q12 -114 85 -175t183 -61q121 0 189 46q69 47 69 133q0 69 -69 111q-70 43 -227 83q-196 51 -302 145q-104 92 -104 255q0 216 155 329t412 113q151 0 269 -53q116 -52 183 -154q66 -101 66 -240h-299q-6 88 -72 145q-65 56 -165 56q-106 0 -170 -44t-64 -126
q0 -65 62 -106q64 -42 215 -82q212 -55 320 -144t108 -241q0 -225 -164 -347t-428 -122q-168 0 -290 59q-124 60 -191 169q-68 110 -68 255z" />
    <glyph glyph-name="T" unicode="T" horiz-adv-x="1220" 
d="M205 1434h1130l-47 -265h-411l-207 -1169h-308l207 1169h-411z" />
    <glyph glyph-name="U" unicode="U" horiz-adv-x="1394" 
d="M580 1434l-150 -842q-8 -74 -8 -96q0 -119 61 -181q61 -63 179 -63q141 0 219 91q77 90 110 269l144 822h307l-146 -826q-55 -312 -211 -466q-155 -154 -446 -154q-257 0 -390 124q-134 125 -134 353q0 75 16 164l141 805h308z" />
    <glyph glyph-name="V" unicode="V" horiz-adv-x="1343" 
d="M1174 1434h327l-739 -1434h-367l-233 1434h315l156 -1061z" />
    <glyph glyph-name="W" unicode="W" horiz-adv-x="2002" 
d="M172 1434l315 2l74 -1049l461 1047h276l78 -1047l457 1047h317l-649 -1434h-356l-70 952l-405 -952h-355z" />
    <glyph glyph-name="X" unicode="X" horiz-adv-x="1388" 
d="M225 1430l357 4l200 -451l373 451h350l-575 -703l334 -731h-361l-215 481l-399 -481h-348l600 731z" />
    <glyph glyph-name="Y" unicode="Y" horiz-adv-x="1351" 
d="M1165 1434h346l-680 -902l-100 -532h-303l96 532l-362 902h342l215 -603z" />
    <glyph glyph-name="Z" unicode="Z" horiz-adv-x="1273" 
d="M236 1434h1124l-33 -203l-891 -969h738l-48 -262h-1161l33 203l889 968h-699z" />
    <glyph glyph-name="bracketleft" unicode="[" horiz-adv-x="673" 
d="M264 1434h547l-43 -252h-279l-235 -1340h276l-43 -252h-546z" />
    <glyph glyph-name="backslash" unicode="\" horiz-adv-x="694" 
d="M950 -410h-276l-926 1844h277z" />
    <glyph glyph-name="bracketright" unicode="]" horiz-adv-x="673" 
d="M410 -410h-547l43 252h278l236 1340h-277l43 252h547z" />
    <glyph glyph-name="asciicircum" unicode="^" horiz-adv-x="1077" 
d="M111 795l473 639h225l248 -639h-256l-148 385l-286 -385h-256z" />
    <glyph glyph-name="underscore" unicode="_" horiz-adv-x="1032" 
d="M-41 -279l49 267h826l-48 -267h-827z" />
    <glyph glyph-name="grave" unicode="`" horiz-adv-x="819" 
d="M203 1434h321l92 -295h-210z" />
    <glyph glyph-name="a" unicode="a" horiz-adv-x="1138" 
d="M1077 244l-43 -244h-139q-88 0 -132 38t-44 97v2q-63 -73 -146 -112q-78 -37 -192 -37q-160 0 -261 75q-104 77 -104 218q0 183 129 275q128 91 365 91h254l6 39q6 24 6 51q0 56 -46 86q-48 31 -122 31q-98 0 -144 -33t-67 -96h-280q88 340 512 340q195 0 311 -82
q117 -83 117 -246q0 -45 -10 -104l-54 -301q-6 -27 -6 -43q0 -45 49 -45h41zM635 264q71 66 92 174l2 17h-213q-105 0 -156 -36t-51 -110q0 -53 39 -83q38 -29 98 -29q118 0 189 67z" />
    <glyph glyph-name="b" unicode="b" horiz-adv-x="1239" 
d="M978 1006q97 -60 152 -164q56 -106 56 -236q0 -173 -76 -313q-76 -141 -205 -223q-128 -82 -280 -82q-217 0 -312 147l-51 -135h-254l252 1434h289l-84 -486q117 117 291 117q126 0 222 -59zM748 273q68 49 107 134q38 84 38 177q0 119 -57 182t-156 63q-90 0 -161 -50
q-70 -49 -108 -133t-38 -177q0 -120 58 -182q59 -64 157 -64q90 0 160 50z" />
    <glyph glyph-name="c" unicode="c" horiz-adv-x="1167" 
d="M900 91q-137 -103 -355 -103q-146 0 -257 60q-112 61 -172 167q-61 108 -61 240q0 183 74 322q73 138 210 213t318 75q139 0 244 -52q106 -52 165 -145q58 -91 58 -209h-293q-6 78 -58 124t-134 46q-91 0 -157 -51t-101 -134q-35 -84 -35 -175q0 -111 60 -178
q60 -68 157 -68q81 0 140 47q60 48 88 129h299q-50 -203 -190 -308z" />
    <glyph glyph-name="d" unicode="d" horiz-adv-x="1241" 
d="M1300 1434l-253 -1434h-238l-6 137q-118 -149 -320 -149q-126 0 -222 59q-97 60 -152 164q-56 106 -56 235q0 174 76 314t204 223q127 82 281 82q216 0 310 -141l88 510h288zM720 273q69 49 108 134q38 84 38 177q0 120 -58 182q-58 63 -157 63q-89 0 -159 -50
q-71 -51 -108 -133q-38 -84 -38 -177q0 -119 57 -182q58 -64 156 -64q90 0 161 50z" />
    <glyph glyph-name="e" unicode="e" horiz-adv-x="1177" 
d="M903 1009q107 -57 164 -156t57 -228q0 -99 -18 -166h-762l-2 -35q0 -88 60 -153q60 -64 163 -64q94 0 146 37q54 39 86 112h286q-40 -167 -182 -268q-140 -100 -342 -100q-156 0 -269 61t-173 169t-60 243q0 173 73 311q72 136 208 215q135 78 313 78q147 0 252 -56z
M836 649v23q0 87 -54 133q-52 45 -143 45q-95 0 -163 -56q-69 -57 -93 -145h453z" />
    <glyph glyph-name="f" unicode="f" horiz-adv-x="727" 
d="M260 1053l16 90q29 146 108 218q81 73 239 73h258l-43 -246h-170q-54 0 -78 -21q-26 -23 -33 -65l-8 -49h264l-43 -244h-264l-144 -809h-288l143 809h-174l43 244h174z" />
    <glyph glyph-name="g" unicode="g" horiz-adv-x="1241" 
d="M1233 1053l-182 -1033q-38 -214 -169 -327q-133 -115 -411 -115q-221 0 -355 96t-134 279h284q6 -77 67 -117q60 -39 156 -39q250 0 291 254l13 72q-121 -135 -306 -135q-126 0 -223 59t-154 164t-57 235q0 174 76 314t204 223q127 82 281 82q230 0 318 -162l53 150h248z
M720 273q69 49 108 134q38 84 38 177q0 120 -58 182q-58 63 -157 63q-89 0 -159 -50q-71 -51 -108 -133q-38 -84 -38 -177q0 -119 57 -182q58 -64 156 -64q90 0 161 50z" />
    <glyph glyph-name="h" unicode="h" horiz-adv-x="1202" 
d="M1033 978q106 -88 106 -276q0 -69 -15 -141l-98 -561h-289l99 559q10 59 10 107q0 77 -44 119t-126 42q-117 0 -189 -78q-74 -80 -98 -221l-92 -528h-289l252 1434h289l-84 -490q130 121 303 121q160 0 265 -87z" />
    <glyph glyph-name="i" unicode="i" horiz-adv-x="489" 
d="M510 1448q43 -43 43 -109q0 -75 -52 -124q-53 -50 -126 -50q-70 0 -113 43t-43 109q0 75 52 124q53 50 126 50q70 0 113 -43zM193 1053h288l-184 -1053h-289z" />
    <glyph glyph-name="j" unicode="j" horiz-adv-x="499" 
d="M282 1441q53 50 126 50q69 0 112 -43t43 -109q0 -75 -52 -124q-53 -50 -126 -50q-70 0 -113 43t-43 109q0 74 53 124zM-123 -166q62 0 92 32q31 32 41 95l195 1092h289l-205 -1153q-24 -150 -113 -230t-235 -80h-201l43 244h94z" />
    <glyph glyph-name="k" unicode="k" horiz-adv-x="1153" 
d="M260 1434h289l-148 -822l486 441l350 6l-469 -420l281 -639h-310l-192 436l-205 -186l-45 -250h-289z" />
    <glyph glyph-name="l" unicode="l" horiz-adv-x="489" 
d="M260 1434h289l-252 -1434h-289z" />
    <glyph glyph-name="m" unicode="m" horiz-adv-x="1826" 
d="M1663 984q102 -81 102 -257q0 -80 -14 -160l-100 -567h-289l100 569q13 67 13 113q0 66 -38 106q-37 39 -110 39q-99 0 -167 -74t-91 -212l-96 -541h-289l100 569q13 67 13 113q0 66 -38 106q-37 39 -110 39q-98 0 -167 -76q-68 -76 -91 -212l-94 -539h-289l185 1053h251
l5 -119q59 62 129 97q68 34 167 34q104 0 186 -43q83 -44 120 -133q63 82 155 129t203 47q152 0 254 -81z" />
    <glyph glyph-name="n" unicode="n" horiz-adv-x="1202" 
d="M1031 978q108 -87 108 -276q0 -69 -15 -141l-98 -561h-289l99 559q10 59 10 107q0 77 -44 119t-126 42q-119 0 -190 -77q-73 -79 -97 -222l-92 -528h-289l185 1053h251l5 -119q131 131 315 131q159 0 267 -87z" />
    <glyph glyph-name="o" unicode="o" horiz-adv-x="1216" 
d="M291 49q-111 61 -172 169q-62 109 -62 241q0 184 76 320q77 137 215 211q140 75 324 75q144 0 254 -61q111 -61 172 -169q61 -107 61 -241q0 -185 -76 -321q-77 -137 -215 -211t-323 -74q-144 0 -254 61zM729 272q70 51 106 132q35 80 35 182q0 107 -61 175t-158 68
q-92 0 -162 -50q-68 -48 -106 -133q-37 -81 -37 -179q0 -105 62 -175q61 -69 159 -69q94 0 162 49z" />
    <glyph glyph-name="p" unicode="p" horiz-adv-x="1239" 
d="M978 1006q96 -59 152 -165t56 -237q0 -173 -76 -313q-77 -141 -205 -222q-129 -81 -280 -81q-219 0 -310 143l-92 -541h-289l259 1463h237l4 -140q125 152 322 152q126 0 222 -59zM748 273q68 49 107 134q38 84 38 177q0 119 -57 182t-156 63q-90 0 -161 -50
q-70 -49 -108 -133t-38 -177q0 -120 58 -182q59 -64 157 -64q90 0 160 50z" />
    <glyph glyph-name="q" unicode="q" horiz-adv-x="1239" 
d="M1231 1053l-256 -1463h-279l90 527q-118 -129 -303 -129q-126 0 -222 59q-97 60 -152 164q-56 106 -56 235q0 174 76 314t204 223q127 82 281 82q221 0 316 -152l51 140h250zM720 273q69 49 108 134q38 84 38 177q0 120 -58 182q-58 63 -157 63q-89 0 -159 -50
q-71 -51 -108 -133q-38 -84 -38 -177q0 -119 57 -182q58 -64 156 -64q90 0 161 50z" />
    <glyph glyph-name="r" unicode="r" horiz-adv-x="770" 
d="M836 1053l-48 -262h-106q-123 0 -199 -79q-75 -78 -98 -206l-88 -506h-289l185 1053h262v-144q57 72 132 108t189 36h60z" />
    <glyph glyph-name="s" unicode="s" horiz-adv-x="1103" 
d="M925 979q126 -90 126 -254h-271q-1 64 -49 101q-47 36 -135 36q-94 0 -143 -29q-52 -31 -52 -81q0 -44 45 -65q48 -22 134 -34q194 -27 305 -89q114 -63 114 -214q0 -180 -141 -271q-140 -91 -364 -91q-208 0 -333 94q-126 94 -126 272h270q1 -79 56 -120q52 -39 143 -39
q102 0 158 30q55 30 55 90q0 45 -47 69q-44 23 -150 40q-120 21 -205 48q-83 27 -139 87q-55 59 -55 158q0 166 131 259q130 93 346 93q201 0 327 -90z" />
    <glyph glyph-name="t" unicode="t" horiz-adv-x="729" 
d="M217 809h-174l43 244h174l53 295h289l-53 -295h239l-43 -244h-239l-82 -463l-4 -41q0 -31 18 -46t62 -15h157l-43 -244h-217q-132 0 -203 59q-73 61 -73 172q0 32 10 91z" />
    <glyph glyph-name="u" unicode="u" horiz-adv-x="1193" 
d="M1186 1053l-185 -1053h-253l-5 117q-129 -129 -321 -129q-154 0 -255 85t-101 271q0 81 14 148l98 561h289l-98 -564q-13 -80 -13 -108q0 -76 43 -116t123 -40q114 0 186 83q72 82 99 231l90 514h289z" />
    <glyph glyph-name="v" unicode="v" horiz-adv-x="1112" 
d="M895 1053h311l-563 -1053h-358l-195 1053h299l117 -760z" />
    <glyph glyph-name="w" unicode="w" horiz-adv-x="1679" 
d="M92 1053h301l80 -742l332 742h258l59 -744l351 744h299l-533 -1053h-307l-70 635l-303 -635h-307z" />
    <glyph glyph-name="x" unicode="x" horiz-adv-x="1130" 
d="M1210 1053l-471 -523l297 -530h-315l-184 330l-301 -330h-324l502 553l-279 500h314l167 -299l271 299h323z" />
    <glyph glyph-name="y" unicode="y" horiz-adv-x="1118" 
d="M393 1053l119 -756l385 756h313l-678 -1213q-77 -137 -146 -193q-70 -57 -189 -57h-275l43 244h152q54 0 88 20q33 19 61 70l39 70l-215 1059h303z" />
    <glyph glyph-name="z" unicode="z" horiz-adv-x="1024" 
d="M164 1053h887l-31 -197l-631 -612h543l-43 -244h-934l31 197l630 612h-495z" />
    <glyph glyph-name="braceleft" unicode="{" horiz-adv-x="702" 
d="M797 1184l-78 -2q-87 -1 -131 -44q-43 -42 -43 -132q0 -47 6 -107q4 -47 4 -49q2 -40 2 -72q0 -113 -65 -178q-66 -66 -181 -90q77 -18 121 -65q43 -46 43 -119q0 -54 -17 -98q-20 -52 -55 -126q-25 -59 -36 -91q-13 -37 -13 -64q0 -45 32 -75t91 -30l82 -2l-43 -252h-51
q-183 0 -286 75t-103 208q0 64 16 112q17 52 51 128q47 108 47 165q0 110 -159 111l41 250q107 1 161 43t54 129l-4 111q-7 93 -7 159q0 185 116 271t347 86h103z" />
    <glyph glyph-name="bar" unicode="|" horiz-adv-x="534" 
d="M283 1434h288l-325 -1844h-289z" />
    <glyph glyph-name="braceright" unicode="}" horiz-adv-x="702" 
d="M-98 -162l78 2q87 1 131 44q43 42 43 132q0 40 -7 107q-4 47 -4 49q-2 40 -2 72q0 112 66 178t180 90q-77 18 -121 65q-43 46 -43 119q0 52 18 98q25 64 54 126q31 73 37 91q12 35 12 64q0 45 -32 75t-91 30l-82 2l43 252h51q183 0 286 -75q104 -75 104 -208
q0 -61 -17 -112q-17 -52 -51 -128q-47 -108 -47 -166q0 -105 160 -110l-41 -250q-108 -2 -162 -43q-53 -41 -53 -129l4 -107q6 -77 6 -153q1 -190 -113 -279q-113 -88 -350 -88h-102z" />
    <glyph glyph-name="asciitilde" unicode="~" horiz-adv-x="1054" 
d="M80 369q30 184 110 273t197 89q76 0 118 -19t89 -55q27 -21 48 -31q22 -10 44 -10q53 0 83 33q29 32 40 82h225q-30 -184 -110 -273t-197 -89q-72 0 -109 17q-39 18 -77 50q-27 23 -52 36q-21 11 -57 11q-55 0 -85 -33q-31 -34 -42 -81h-225z" />
    <glyph glyph-name="exclamdown" unicode="&#xa1;" horiz-adv-x="583" 
d="M550 1404q44 -42 44 -110q0 -76 -52 -127t-128 -51q-70 0 -114 42t-44 110q0 76 52 127q53 51 128 51q70 0 114 -42zM481 989l-127 -989h-311l221 989h217z" />
    <glyph glyph-name="cent" unicode="&#xa2;" horiz-adv-x="1169" 
d="M738 459q58 47 87 129h299q-45 -181 -157 -282t-289 -124l-31 -182h-254l33 197q-157 41 -246 161q-90 122 -90 285q0 259 140 420q141 162 382 186l33 185h254l-37 -205q138 -40 218 -143q79 -101 79 -238h-293q-6 78 -58 124t-134 46q-91 0 -157 -51t-101 -134
q-35 -84 -35 -176q0 -112 59 -178q60 -67 158 -67q81 0 140 47z" />
    <glyph glyph-name="sterling" unicode="&#xa3;" horiz-adv-x="1273" 
d="M248 756l-4 49q-6 53 -6 102q0 158 74 278q75 121 205 190q131 69 290 69q245 0 365 -131t120 -369h-293q0 114 -53 182t-160 68q-124 0 -192 -87q-68 -88 -68 -218q0 -53 11 -133h395l-37 -209h-367q-6 -74 -50 -155q-42 -78 -107 -136l794 4l-45 -260h-1114l39 256
q84 63 135 137q55 80 56 154h-175l37 209h150z" />
    <glyph glyph-name="currency" unicode="&#xa4;" horiz-adv-x="1429" 
d="M230 819q30 86 77 148l-127 127l213 202l129 -133q68 40 138 59t141 19q77 0 143 -20q68 -21 115 -52l147 125l189 -202l-152 -134q47 -85 47 -206q0 -79 -29 -163q-30 -87 -75 -147l129 -129l-215 -202l-131 133q-124 -76 -279 -76q-79 0 -146 19t-112 53l-149 -125
l-189 202l154 134q-47 80 -47 206q0 79 29 162zM975 930q-73 67 -182 67q-97 0 -178 -48q-82 -49 -128 -127q-47 -80 -47 -167q0 -109 76 -176q77 -68 182 -69q96 0 176 48q81 49 127 127q48 82 48 167q0 110 -74 178z" />
    <glyph glyph-name="yen" unicode="&#xa5;" horiz-adv-x="1392" 
d="M1532 1434l-545 -723h250l-37 -207h-354l-23 -123h355l-35 -207h-359l-32 -174h-303l30 174h-354l37 207h356l21 123h-355l35 207h254l-291 723h342l215 -603l447 603h346z" />
    <glyph glyph-name="brokenbar" unicode="&#xa6;" horiz-adv-x="534" 
d="M283 1434h288l-149 -842h-289zM104 422h289l-147 -832h-289z" />
    <glyph glyph-name="section" unicode="&#xa7;" horiz-adv-x="1296" 
d="M1007 898q84 -37 136 -98q51 -60 51 -151q0 -103 -72 -180q-71 -75 -211 -119q103 -83 103 -217q0 -161 -131 -256q-130 -94 -348 -94q-182 0 -295 86t-113 235h276q6 -57 46 -88q39 -30 102 -30q85 0 132 32q48 33 48 93q0 53 -48 83q-47 29 -142 58q-133 39 -225 79
q-85 37 -135 98t-50 151q0 104 72 180q71 75 211 119q-105 83 -105 217q0 161 131 256q130 94 351 94q181 0 293 -86t112 -236h-276q-5 58 -42 88q-39 31 -104 31q-84 0 -132 -33t-48 -92q0 -54 47 -84t141 -57q133 -39 225 -79zM741 438q154 56 154 168q0 54 -43 85
q-46 33 -156 67q-81 22 -114 35q-154 -56 -154 -170q0 -55 46 -89t155 -63q76 -20 112 -33z" />
    <glyph glyph-name="dieresis" unicode="&#xa8;" horiz-adv-x="819" 
d="M446 1419q41 -39 41 -100q0 -68 -48 -113t-115 -45q-64 0 -104 40t-40 99q0 68 47 113t115 45q64 0 104 -39zM877 1419q41 -39 41 -100q0 -67 -49 -113q-48 -45 -115 -45q-64 0 -104 40t-40 99q0 68 47 113t115 45q64 0 105 -39z" />
    <glyph glyph-name="copyright" unicode="&#xa9;" horiz-adv-x="1628" 
d="M1279 1365q153 -81 240 -222t87 -318q0 -233 -109 -427q-107 -190 -301 -301q-191 -109 -436 -109q-188 0 -341 81q-152 81 -241 222q-88 140 -88 317q0 231 109 425q107 190 302 302q194 111 437 111q188 0 341 -81zM568 1224q-154 -93 -240 -253t-86 -353
q0 -147 68 -259q68 -113 191 -178q121 -64 275 -64q194 0 349 92q154 91 243 251q88 158 88 349q0 144 -70 261q-68 114 -191 181q-121 66 -275 66q-198 0 -352 -93zM1059 376q-104 -79 -254 -79q-111 0 -194 47q-82 46 -126 128q-43 80 -43 179q0 134 61 247
q60 111 167 177q106 66 235 66q153 0 248 -85t88 -229h-176q-6 72 -51 111t-115 39q-125 0 -200 -94q-74 -93 -74 -230q0 -87 51 -140q51 -52 135 -52q144 0 213 147h182q-44 -154 -147 -232z" />
    <glyph glyph-name="ordfeminine" unicode="&#xaa;" horiz-adv-x="868" 
d="M238 823q-66 45 -66 127q0 114 95 171t249 57h131q8 43 8 55q0 33 -24 51q-25 19 -68 19q-103 0 -133 -76h-194q24 109 111 164q86 55 218 55q133 0 207 -54t74 -153q0 -15 -4 -55l-39 -215v-11q0 -12 6 -18t22 -6h29l-24 -148h-86q-47 0 -79 19q-31 18 -38 51
q-2 8 -2 25q-46 -55 -96 -78q-55 -25 -127 -25q-104 0 -170 45zM567 952q50 41 58 109h-117q-137 0 -137 -88q0 -29 21 -45q22 -17 59 -17q66 0 116 41zM86 494l29 161h696l-29 -161h-696z" />
    <glyph glyph-name="guillemotleft" unicode="&#xab;" horiz-adv-x="1245" 
d="M760 1053l-404 -527l209 -526h-282l-220 526l400 527h297zM1274 1053l-404 -527l209 -526h-282l-219 526l399 527h297z" />
    <glyph glyph-name="logicalnot" unicode="&#xac;" horiz-adv-x="1054" 
d="M150 741h808l-100 -571h-258l59 328h-553z" />
    <glyph glyph-name="registered" unicode="&#xae;" horiz-adv-x="1087" 
d="M892 1396q95 -50 148 -139q54 -91 54 -200q0 -143 -71 -256q-70 -112 -187 -175t-254 -63q-121 0 -216 50q-97 51 -149 139q-53 89 -53 200q0 144 70 256q70 111 188 175q117 63 254 63q121 0 216 -50zM482 1297q-89 -50 -143 -140t-54 -201q0 -130 84 -213
q82 -81 213 -81q102 0 193 49q92 50 146 138q54 89 54 200q0 131 -86 215q-85 84 -215 84q-101 0 -192 -51zM662 1237q87 0 136 -37q50 -38 50 -104q0 -56 -30 -96q-29 -39 -85 -60l72 -170h-125l-57 150h-64l-29 -150h-114l84 467h162zM578 1016h59q41 0 66 18q26 18 26 53
q0 56 -63 56h-66z" />
    <glyph glyph-name="macron" unicode="&#xaf;" horiz-adv-x="819" 
d="M211 1206l37 205h635l-35 -205h-637z" />
    <glyph glyph-name="degree" unicode="&#xb0;" horiz-adv-x="890" 
d="M823 1360q92 -86 92 -223q0 -105 -58 -193q-59 -89 -152 -139q-95 -51 -199 -51q-143 0 -235 86q-91 85 -91 223q0 104 58 193t151 139q95 51 199 51q143 0 235 -86zM656 992q55 60 55 136q0 66 -37 102q-38 36 -99 36q-79 0 -136 -60q-56 -59 -56 -137q0 -63 38 -99
q37 -36 101 -36q80 0 134 58z" />
    <glyph glyph-name="plusminus" unicode="&#xb1;" horiz-adv-x="1116" 
d="M31 0l41 244h884l-43 -244h-882zM557 1241h262l-57 -328h311l-43 -243h-311l-60 -330h-260l60 330h-312l41 243h312z" />
    <glyph glyph-name="uni00B2" unicode="&#xb2;" horiz-adv-x="669" 
d="M708 1590q72 -60 72 -163q0 -157 -168 -258l-176 -100h295l-33 -176h-592l27 166l332 211q67 44 91 71q26 29 26 70q0 31 -22 50q-21 18 -60 18q-51 0 -84 -33t-43 -92h-193q22 140 112 219q88 78 220 78q123 0 196 -61z" />
    <glyph glyph-name="uni00B3" unicode="&#xb3;" horiz-adv-x="688" 
d="M312 1589q87 64 216 64q126 0 197 -54q70 -53 70 -139q0 -69 -41 -113t-113 -65q55 -11 85 -50q32 -41 32 -99q0 -118 -92 -184t-244 -66q-143 0 -218 66q-76 66 -65 200h193q0 -44 24 -71t76 -27q55 0 88 24t33 66q0 30 -25 50q-23 19 -71 19h-49l22 129h35q53 0 92 22
q37 21 37 64q0 26 -23 43t-57 17q-94 0 -117 -84h-188q18 125 103 188z" />
    <glyph glyph-name="acute" unicode="&#xb4;" horiz-adv-x="819" 
d="M414 1145l202 289h336l-319 -289h-219z" />
    <glyph glyph-name="uni00B5" unicode="&#xb5;" horiz-adv-x="1208" 
d="M1200 1053l-186 -1053h-252l-4 119q-66 -66 -132 -99q-64 -32 -147 -32q-113 0 -176 63l-80 -461h-289l259 1463h288l-100 -564q-10 -59 -10 -108q0 -75 43 -115q44 -41 123 -41q112 0 184 82q71 81 98 232l92 514h289z" />
    <glyph glyph-name="paragraph" unicode="&#xb6;" horiz-adv-x="1529" 
d="M717 453h-96q-237 0 -371 107q-135 108 -135 308q0 166 78 294q79 129 217 200q139 72 317 72h436l-254 -1434h-272zM1294 1434h275l-254 -1434h-273z" />
    <glyph glyph-name="periodcentered" unicode="&#xb7;" horiz-adv-x="505" 
d="M396 731q44 -44 44 -113q0 -79 -55 -131q-56 -53 -133 -53q-72 0 -115 43t-43 111q0 82 54 134q53 52 133 52q72 0 115 -43z" />
    <glyph glyph-name="cedilla" unicode="&#xb8;" horiz-adv-x="819" 
d="M420 66l-55 -127h16q82 -1 129 -44q47 -42 47 -106q0 -90 -71 -144q-72 -55 -177 -55h-233l24 140h179q31 0 50 15t19 42q0 43 -53 43h-131l102 236h154z" />
    <glyph glyph-name="uni00B9" unicode="&#xb9;" horiz-adv-x="417" 
d="M231 893l86 440q-11 -4 -41 -4h-135l31 174h104q72 0 82 84l9 51h186l-131 -745h-191z" />
    <glyph glyph-name="ordmasculine" unicode="&#xba;" horiz-adv-x="870" 
d="M273 855q-80 76 -80 206q0 106 49 194q50 90 137 140q89 51 201 51q140 0 223 -78q82 -78 82 -207q0 -105 -50 -193q-49 -87 -140 -139q-89 -51 -199 -51q-141 0 -223 77zM418 969q30 -35 84 -35q83 0 136 70q52 68 52 151q0 65 -32 100t-85 35q-84 0 -135 -69t-51 -154
q0 -62 31 -98zM113 655h690l-29 -161h-688z" />
    <glyph glyph-name="guillemotright" unicode="&#xbb;" horiz-adv-x="1245" 
d="M-29 0l404 526l-209 527h283l219 -527l-400 -526h-297zM485 0l404 526l-209 527h283l219 -527l-400 -526h-297z" />
    <glyph glyph-name="onequarter" unicode="&#xbc;" horiz-adv-x="1384" 
d="M195 688l86 440q-11 -4 -41 -4h-136l31 174h105q72 0 82 84l8 52h186l-131 -746h-190zM-49 0l1161 1434h238l-1162 -1434h-237zM1087 745h246l-73 -415h110l-29 -166h-110l-29 -164h-192l28 164h-352l29 170zM1112 557l-205 -227h162z" />
    <glyph glyph-name="onehalf" unicode="&#xbd;" horiz-adv-x="1449" 
d="M195 688l86 440q-11 -4 -41 -4h-136l31 174h105q72 0 82 84l8 52h186l-131 -746h-190zM-49 0l1161 1434h238l-1162 -1434h-237zM1345 697q72 -60 72 -162q0 -159 -168 -259l-176 -100h295l-33 -176h-592l27 166l332 211q65 43 91 72t26 69q0 31 -22 50q-21 18 -60 18
q-51 0 -84 -33t-43 -92h-193q22 140 112 219q89 78 220 78q123 0 196 -61z" />
    <glyph glyph-name="threequarters" unicode="&#xbe;" horiz-adv-x="1654" 
d="M275 1384q87 64 217 64q126 0 196 -53t70 -140q0 -69 -41 -113t-113 -65q55 -11 85 -50q32 -41 32 -99q0 -118 -92 -184q-91 -66 -244 -66q-143 0 -218 66q-76 66 -65 200h193q0 -44 24 -71t76 -27q55 0 88 24t33 66q0 30 -24 50q-25 20 -72 20h-49l22 129h35q55 0 92 21
t37 65q0 27 -22 43t-58 16q-95 0 -117 -84h-188q18 125 103 188zM223 0l1161 1434h238l-1161 -1434h-238zM1360 745h246l-74 -415h110l-28 -166h-111l-28 -164h-193l29 164h-353l29 170zM1384 557l-204 -227h161z" />
    <glyph glyph-name="questiondown" unicode="&#xbf;" horiz-adv-x="1093" 
d="M818 1404q44 -42 44 -110q0 -76 -53 -127t-127 -51q-70 0 -114 42t-44 110q0 76 53 127t128 51q69 0 113 -42zM772 907q-17 -119 -78 -185q-63 -67 -182 -132q-93 -50 -145 -107t-52 -127q0 -55 46 -92t116 -37q104 0 182 73q77 72 89 185h290q-33 -236 -183 -367
q-149 -130 -388 -130q-137 0 -238 45t-153 124q-53 80 -53 179q0 126 61 206t174 154l37 23q101 63 148 107q50 47 65 116l4 31h268z" />
    <glyph glyph-name="Agrave" unicode="&#xc0;" horiz-adv-x="1411" 
d="M995 0l-51 313h-534l-162 -313h-332l768 1434h367l260 -1434h-316zM537 561h370l-90 541zM575 1835h322l92 -295h-211z" />
    <glyph glyph-name="Aacute" unicode="&#xc1;" horiz-adv-x="1411" 
d="M995 0l-51 313h-534l-162 -313h-332l768 1434h367l260 -1434h-316zM537 561h370l-90 541zM786 1546l203 289h336l-319 -289h-220z" />
    <glyph glyph-name="Acircumflex" unicode="&#xc2;" horiz-adv-x="1411" 
d="M995 0l-51 313h-534l-162 -313h-332l768 1434h367l260 -1434h-316zM537 561h370l-90 541zM920 1665l-146 -121h-278l315 291h258l211 -291h-260z" />
    <glyph glyph-name="Atilde" unicode="&#xc3;" horiz-adv-x="1411" 
d="M995 0l-51 313h-534l-162 -313h-332l768 1434h367l260 -1434h-316zM537 561h370l-90 541zM888 1823q33 -16 60 -41q20 -19 33 -25q16 -8 33 -8q39 0 58 25t26 65l164 -10q-45 -262 -228 -262q-54 0 -80 13q-25 12 -59 42q-17 17 -32 26t-36 9q-69 0 -86 -90l-168 10
q24 130 82 196q57 64 150 64q55 0 83 -14z" />
    <glyph glyph-name="Adieresis" unicode="&#xc4;" horiz-adv-x="1411" 
d="M995 0l-51 313h-534l-162 -313h-332l768 1434h367l260 -1434h-316zM537 561h370l-90 541zM819 1821q41 -39 41 -101q0 -67 -48 -112t-116 -45q-63 0 -103 40t-40 99q0 68 47 113q46 45 115 45q63 0 104 -39zM1249 1821q41 -39 41 -101q0 -67 -48 -112t-116 -45
q-63 0 -103 40t-40 99q0 68 47 113q46 45 115 45q63 0 104 -39z" />
    <glyph glyph-name="Aring" unicode="&#xc5;" horiz-adv-x="1411" 
d="M1311 0h-316l-51 313h-534l-162 -313h-332l766 1430q-57 68 -57 155q0 103 76 175q78 73 190 73q111 0 189 -73q77 -72 77 -175q0 -59 -27 -109q-29 -53 -71 -85zM807 1670q-35 -35 -35 -85q0 -51 35 -86t84 -35q48 0 85 35q36 35 36 86q0 49 -36 84q-37 35 -85 35
q-50 0 -84 -34zM537 561h370l-90 541z" />
    <glyph glyph-name="AE" unicode="&#xc6;" horiz-adv-x="2039" 
d="M2066 1169h-643l-57 -321h522l-45 -252h-520l-59 -332h667l-47 -264h-975l54 303h-502l-234 -303h-331l1093 1434h1125zM647 551h361l108 620z" />
    <glyph glyph-name="Ccedilla" unicode="&#xc7;" horiz-adv-x="1435" 
d="M927 317q87 69 140 195h305q-62 -231 -220 -367q-160 -137 -384 -155l-23 -51h17q82 -1 129 -44q47 -42 47 -106q0 -90 -71 -144q-72 -55 -177 -55h-233l24 140h178q31 0 51 15q19 15 19 42q0 43 -53 43h-131l69 162q-161 18 -279 100q-117 81 -180 214q-63 132 -63 296
q0 238 98 428q100 194 280 304q183 112 423 112q169 0 294 -66q124 -66 188 -182q65 -118 65 -272h-303q-6 118 -81 189q-76 71 -196 71q-139 0 -244 -81q-102 -79 -159 -215q-56 -135 -56 -288q0 -155 83 -255q82 -99 223 -99q133 0 220 69z" />
    <glyph glyph-name="Egrave" unicode="&#xc8;" horiz-adv-x="1159" 
d="M283 1434h950l-47 -265h-643l-58 -321h523l-45 -252h-521l-59 -332h668l-47 -264h-975zM475 1835h322l92 -295h-211z" />
    <glyph glyph-name="Eacute" unicode="&#xc9;" horiz-adv-x="1159" 
d="M283 1434h950l-47 -265h-643l-58 -321h523l-45 -252h-521l-59 -332h668l-47 -264h-975zM686 1546l203 289h336l-320 -289h-219z" />
    <glyph glyph-name="Ecircumflex" unicode="&#xca;" horiz-adv-x="1159" 
d="M283 1434h950l-47 -265h-643l-58 -321h523l-45 -252h-521l-59 -332h668l-47 -264h-975zM819 1665l-145 -121h-279l316 291h258l211 -291h-260z" />
    <glyph glyph-name="Edieresis" unicode="&#xcb;" horiz-adv-x="1159" 
d="M283 1434h950l-47 -265h-643l-58 -321h523l-45 -252h-521l-59 -332h668l-47 -264h-975zM719 1821q41 -39 41 -101q0 -67 -48 -112t-116 -45q-63 0 -103 40t-40 99q0 68 47 113q46 45 114 45q64 0 105 -39zM1149 1821q41 -39 41 -101q0 -67 -48 -112t-116 -45
q-63 0 -103 40t-40 99q0 68 47 113q46 45 114 45q64 0 105 -39z" />
    <glyph glyph-name="Igrave" unicode="&#xcc;" horiz-adv-x="550" 
d="M283 1434h307l-254 -1434h-307zM137 1835h322l92 -295h-211z" />
    <glyph glyph-name="Iacute" unicode="&#xcd;" horiz-adv-x="550" 
d="M283 1434h307l-254 -1434h-307zM348 1546l203 289h336l-320 -289h-219z" />
    <glyph glyph-name="Icircumflex" unicode="&#xce;" horiz-adv-x="550" 
d="M283 1434h307l-254 -1434h-307zM481 1665l-145 -121h-279l316 291h258l211 -291h-260z" />
    <glyph glyph-name="Idieresis" unicode="&#xcf;" horiz-adv-x="550" 
d="M283 1434h307l-254 -1434h-307zM381 1821q41 -39 41 -101q0 -67 -48 -112t-116 -45q-63 0 -103 40t-40 99q0 68 47 113q46 45 114 45q64 0 105 -39zM811 1821q41 -39 41 -101q0 -67 -48 -112t-116 -45q-63 0 -103 40t-40 99q0 68 47 113t115 45q63 0 104 -39z" />
    <glyph glyph-name="Eth" unicode="&#xd0;" horiz-adv-x="1433" 
d="M1099 1357q147 -76 227 -216q79 -139 79 -324q0 -249 -101 -433q-102 -186 -291 -285t-448 -99h-502l111 621h-164l39 213h162l106 600h431q202 0 351 -77zM865 327q112 71 171 194q60 125 60 280q0 179 -99 278t-268 99h-151l-60 -344h230l-37 -213h-232l-63 -365h186
q151 0 263 71z" />
    <glyph glyph-name="Ntilde" unicode="&#xd1;" horiz-adv-x="1429" 
d="M283 1434h270l448 -910l166 910h301l-251 -1434h-277l-446 903l-162 -903h-303zM867 1823q35 -17 61 -41q20 -19 33 -25q16 -8 32 -8q40 0 59 25q17 23 25 65l164 -10q-45 -262 -227 -262q-54 0 -80 13q-27 14 -60 42q-18 19 -31 26q-15 9 -36 9q-69 0 -86 -90l-168 10
q24 130 82 196q57 64 149 64q55 0 83 -14z" />
    <glyph glyph-name="Ograve" unicode="&#xd2;" horiz-adv-x="1542" 
d="M1224 1367q141 -80 217 -219q77 -142 77 -317q0 -236 -102 -428q-103 -194 -286 -304q-184 -111 -421 -111q-184 0 -324 79q-143 81 -218 219q-77 142 -77 316q0 234 103 428t287 304q188 112 421 112q183 0 323 -79zM629 1105q-110 -80 -170 -214q-60 -133 -60 -285
q0 -98 41 -182q40 -82 116 -129t173 -47q144 0 252 81t168 213q59 130 59 283q0 155 -89 258t-236 103q-143 0 -254 -81zM631 1837h321l92 -295h-210z" />
    <glyph glyph-name="Oacute" unicode="&#xd3;" horiz-adv-x="1542" 
d="M1224 1367q141 -80 217 -219q77 -142 77 -317q0 -236 -102 -428q-103 -194 -286 -304q-184 -111 -421 -111q-184 0 -324 79q-143 81 -218 219q-77 142 -77 316q0 234 103 428t287 304q188 112 421 112q183 0 323 -79zM629 1105q-110 -80 -170 -214q-60 -133 -60 -285
q0 -98 41 -182q40 -82 116 -129t173 -47q144 0 252 81t168 213q59 130 59 283q0 155 -89 258t-236 103q-143 0 -254 -81zM842 1548l202 289h336l-319 -289h-219z" />
    <glyph glyph-name="Ocircumflex" unicode="&#xd4;" horiz-adv-x="1542" 
d="M1224 1367q141 -80 217 -219q77 -142 77 -317q0 -236 -102 -428q-103 -194 -286 -304q-184 -111 -421 -111q-184 0 -324 79q-143 81 -218 219q-77 142 -77 316q0 234 103 428t287 304q188 112 421 112q183 0 323 -79zM629 1105q-110 -80 -170 -214q-60 -133 -60 -285
q0 -98 41 -182q40 -82 116 -129t173 -47q144 0 252 81t168 213q59 130 59 283q0 155 -89 258t-236 103q-143 0 -254 -81zM975 1667l-146 -121h-278l315 291h258l211 -291h-260z" />
    <glyph glyph-name="Otilde" unicode="&#xd5;" horiz-adv-x="1542" 
d="M1224 1367q141 -80 217 -219q77 -142 77 -317q0 -236 -102 -428q-103 -194 -286 -304q-184 -111 -421 -111q-184 0 -324 79q-143 81 -218 219q-77 142 -77 316q0 234 103 428t287 304q188 112 421 112q183 0 323 -79zM629 1105q-110 -80 -170 -214q-60 -133 -60 -285
q0 -98 41 -182q40 -82 116 -129t173 -47q144 0 252 81t168 213q59 130 59 283q0 155 -89 258t-236 103q-143 0 -254 -81zM943 1825q35 -17 61 -41q22 -20 32 -25q16 -8 33 -8q39 0 58 25t26 65l164 -10q-45 -262 -227 -262q-54 0 -80 13q-27 14 -60 42q-18 18 -31 26
q-15 9 -36 9q-69 0 -86 -90l-168 10q24 130 82 196q57 64 149 64q55 0 83 -14z" />
    <glyph glyph-name="Odieresis" unicode="&#xd6;" horiz-adv-x="1542" 
d="M1224 1367q141 -80 217 -219q77 -142 77 -317q0 -236 -102 -428q-103 -194 -286 -304q-184 -111 -421 -111q-184 0 -324 79q-143 81 -218 219q-77 142 -77 316q0 234 103 428t287 304q188 112 421 112q183 0 323 -79zM629 1105q-110 -80 -170 -214q-60 -133 -60 -285
q0 -98 41 -182q40 -82 116 -129t173 -47q144 0 252 81t168 213q59 130 59 283q0 155 -89 258t-236 103q-143 0 -254 -81zM875 1823q40 -39 40 -101q0 -67 -48 -112t-115 -45q-64 0 -104 40t-40 99q0 68 47 113t115 45q64 0 105 -39zM1305 1823q41 -39 41 -101
q0 -66 -49 -112q-48 -45 -115 -45q-64 0 -104 40t-40 99q0 68 47 113t115 45q64 0 105 -39z" />
    <glyph glyph-name="multiply" unicode="&#xd7;" horiz-adv-x="1054" 
d="M1057 848l-326 -275l236 -280l-187 -162l-235 281l-312 -260l-155 172l319 264l-233 278l188 162l230 -274l317 266z" />
    <glyph glyph-name="Oslash" unicode="&#xd8;" horiz-adv-x="1542" 
d="M1438 1155q80 -145 80 -324q0 -236 -102 -428q-103 -194 -286 -304q-184 -111 -421 -111q-241 0 -402 133l-145 -133l-131 149l145 133q-86 148 -86 332q0 234 103 428t287 304q188 112 421 112q244 0 410 -139l151 137l129 -148zM416 487l680 621q-88 78 -213 78
q-143 0 -254 -81q-110 -80 -170 -214q-60 -133 -60 -285q0 -57 17 -119zM1196 934l-674 -615q87 -71 207 -71q144 0 252 81t168 213q59 130 59 283q0 58 -12 109z" />
    <glyph glyph-name="Ugrave" unicode="&#xd9;" horiz-adv-x="1394" 
d="M580 1434l-150 -842q-8 -74 -8 -96q0 -119 61 -181q61 -63 179 -63q141 0 219 91q77 90 110 269l144 822h307l-146 -826q-55 -312 -211 -466q-155 -154 -446 -154q-257 0 -390 124q-134 125 -134 353q0 75 16 164l141 805h308zM561 1835h322l92 -295h-211z" />
    <glyph glyph-name="Uacute" unicode="&#xda;" horiz-adv-x="1394" 
d="M580 1434l-150 -842q-8 -74 -8 -96q0 -119 61 -181q61 -63 179 -63q141 0 219 91q77 90 110 269l144 822h307l-146 -826q-55 -312 -211 -466q-155 -154 -446 -154q-257 0 -390 124q-134 125 -134 353q0 75 16 164l141 805h308zM772 1546l203 289h336l-320 -289h-219z" />
    <glyph glyph-name="Ucircumflex" unicode="&#xdb;" horiz-adv-x="1394" 
d="M580 1434l-150 -842q-8 -74 -8 -96q0 -119 61 -181q61 -63 179 -63q141 0 219 91q77 90 110 269l144 822h307l-146 -826q-55 -312 -211 -466q-155 -154 -446 -154q-257 0 -390 124q-134 125 -134 353q0 75 16 164l141 805h308zM905 1665l-145 -121h-279l316 291h258
l211 -291h-260z" />
    <glyph glyph-name="Udieresis" unicode="&#xdc;" horiz-adv-x="1394" 
d="M580 1434l-150 -842q-8 -74 -8 -96q0 -119 61 -181q61 -63 179 -63q141 0 219 91q77 90 110 269l144 822h307l-146 -826q-55 -312 -211 -466q-155 -154 -446 -154q-257 0 -390 124q-134 125 -134 353q0 75 16 164l141 805h308zM805 1821q41 -39 41 -101q0 -67 -48 -112
t-116 -45q-63 0 -103 40t-40 99q0 68 47 113q46 45 114 45q64 0 105 -39zM1235 1821q41 -39 41 -101q0 -67 -48 -112t-116 -45q-63 0 -103 40t-40 99q0 68 47 113q46 45 114 45q64 0 105 -39z" />
    <glyph glyph-name="Yacute" unicode="&#xdd;" horiz-adv-x="1351" 
d="M1165 1434h346l-680 -902l-100 -532h-303l96 532l-362 902h342l215 -603zM754 1546l202 289h336l-319 -289h-219z" />
    <glyph glyph-name="Thorn" unicode="&#xde;" horiz-adv-x="1275" 
d="M590 1434l-39 -222h233q147 0 258 -51t169 -145q59 -95 59 -217q0 -171 -81 -292t-223 -184t-327 -63h-258l-45 -260h-307l254 1434h307zM428 516h229q133 0 219 78q85 78 85 194q0 75 -55 122q-53 46 -152 46h-250z" />
    <glyph glyph-name="germandbls" unicode="&#xdf;" horiz-adv-x="1275" 
d="M453 25l39 223q85 -35 182 -35q101 0 174 61q74 62 74 162q0 90 -62 135t-172 45q-50 0 -88 -6l35 217q129 0 213 66t84 174q0 63 -49 105t-129 42q-221 0 -260 -229l-175 -985h-290l174 991q41 238 194 346q154 109 373 109q134 0 239 -44q101 -43 159 -123
q57 -79 57 -181q0 -122 -70 -216q-69 -93 -188 -137q115 -33 178 -105t63 -200q0 -138 -70 -239q-71 -103 -193 -157q-123 -55 -271 -56q-116 1 -221 37z" />
    <glyph glyph-name="agrave" unicode="&#xe0;" horiz-adv-x="1138" 
d="M1077 244l-43 -244h-139q-88 0 -132 38t-44 97v2q-63 -73 -146 -112q-78 -37 -192 -37q-160 0 -261 75q-104 77 -104 218q0 183 129 275q128 91 365 91h254l6 39q6 24 6 51q0 56 -46 86q-48 31 -122 31q-98 0 -144 -33t-67 -96h-280q88 340 512 340q195 0 311 -82
q117 -83 117 -246q0 -45 -10 -104l-54 -301q-6 -27 -6 -43q0 -45 49 -45h41zM635 264q71 66 92 174l2 17h-213q-105 0 -156 -36t-51 -110q0 -53 39 -83q38 -29 98 -29q118 0 189 67zM342 1454h322l92 -295h-211z" />
    <glyph glyph-name="aacute" unicode="&#xe1;" horiz-adv-x="1138" 
d="M1077 244l-43 -244h-139q-88 0 -132 38t-44 97v2q-63 -73 -146 -112q-78 -37 -192 -37q-160 0 -261 75q-104 77 -104 218q0 183 129 275q128 91 365 91h254l6 39q6 24 6 51q0 56 -46 86q-48 31 -122 31q-98 0 -144 -33t-67 -96h-280q88 340 512 340q195 0 311 -82
q117 -83 117 -246q0 -45 -10 -104l-54 -301q-6 -27 -6 -43q0 -45 49 -45h41zM635 264q71 66 92 174l2 17h-213q-105 0 -156 -36t-51 -110q0 -53 39 -83q38 -29 98 -29q118 0 189 67zM553 1165l203 289h336l-320 -289h-219z" />
    <glyph glyph-name="acircumflex" unicode="&#xe2;" horiz-adv-x="1138" 
d="M1077 244l-43 -244h-139q-88 0 -132 38t-44 97v2q-63 -73 -146 -112q-78 -37 -192 -37q-160 0 -261 75q-104 77 -104 218q0 183 129 275q128 91 365 91h254l6 39q6 24 6 51q0 56 -46 86q-48 31 -122 31q-98 0 -144 -33t-67 -96h-280q88 340 512 340q195 0 311 -82
q117 -83 117 -246q0 -45 -10 -104l-54 -301q-6 -27 -6 -43q0 -45 49 -45h41zM635 264q71 66 92 174l2 17h-213q-105 0 -156 -36t-51 -110q0 -53 39 -83q38 -29 98 -29q118 0 189 67zM686 1284l-145 -121h-279l316 291h258l211 -291h-261z" />
    <glyph glyph-name="atilde" unicode="&#xe3;" horiz-adv-x="1138" 
d="M1077 244l-43 -244h-139q-88 0 -132 38t-44 97v2q-63 -73 -146 -112q-78 -37 -192 -37q-160 0 -261 75q-104 77 -104 218q0 183 129 275q128 91 365 91h254l6 39q6 24 6 51q0 56 -46 86q-48 31 -122 31q-98 0 -144 -33t-67 -96h-280q88 340 512 340q195 0 311 -82
q117 -83 117 -246q0 -45 -10 -104l-54 -301q-6 -27 -6 -43q0 -45 49 -45h41zM635 264q71 66 92 174l2 17h-213q-105 0 -156 -36t-51 -110q0 -53 39 -83q38 -29 98 -29q118 0 189 67zM654 1442q35 -17 61 -41q20 -19 33 -25q16 -8 32 -8q40 0 59 25q17 23 25 65l164 -10
q-45 -262 -227 -262q-54 0 -80 13q-25 12 -59 42q-17 17 -32 26t-36 9q-70 0 -86 -90l-168 10q24 130 82 196q57 64 149 64q55 0 83 -14z" />
    <glyph glyph-name="adieresis" unicode="&#xe4;" horiz-adv-x="1138" 
d="M1077 244l-43 -244h-139q-88 0 -132 38t-44 97v2q-63 -73 -146 -112q-78 -37 -192 -37q-160 0 -261 75q-104 77 -104 218q0 183 129 275q128 91 365 91h254l6 39q6 24 6 51q0 56 -46 86q-48 31 -122 31q-98 0 -144 -33t-67 -96h-280q88 340 512 340q195 0 311 -82
q117 -83 117 -246q0 -45 -10 -104l-54 -301q-6 -27 -6 -43q0 -45 49 -45h41zM635 264q71 66 92 174l2 17h-213q-105 0 -156 -36t-51 -110q0 -53 39 -83q38 -29 98 -29q118 0 189 67zM586 1440q41 -39 41 -101q0 -67 -48 -112t-116 -45q-64 0 -104 40t-40 99q0 67 48 113
q47 45 114 45q65 0 105 -39zM1016 1440q41 -39 41 -101q0 -67 -48 -112t-116 -45q-63 0 -103 40t-40 99q0 68 47 113t114 45q65 0 105 -39z" />
    <glyph glyph-name="aring" unicode="&#xe5;" horiz-adv-x="1138" 
d="M1077 244l-43 -244h-139q-88 0 -132 38t-44 97v2q-63 -73 -146 -112q-78 -37 -192 -37q-160 0 -261 75q-104 77 -104 218q0 183 129 275q128 91 365 91h254l6 39q6 24 6 51q0 56 -46 86q-48 31 -122 31q-98 0 -144 -33t-67 -96h-280q88 340 512 340q195 0 311 -82
q117 -83 117 -246q0 -45 -10 -104l-54 -301q-6 -27 -6 -43q0 -45 49 -45h41zM635 264q71 66 92 174l2 17h-213q-105 0 -156 -36t-51 -110q0 -53 39 -83q38 -29 98 -29q118 0 189 67zM503 1555q78 73 189 73q112 0 190 -73q76 -72 76 -175q0 -104 -76 -176q-75 -71 -190 -71
q-114 0 -189 71q-77 72 -77 176q0 103 77 175zM777 1464q-37 35 -85 35q-50 0 -84 -34q-35 -35 -35 -85q0 -51 35 -86q34 -34 84 -34t85 34q36 34 36 86q0 50 -36 84z" />
    <glyph glyph-name="ae" unicode="&#xe6;" horiz-adv-x="1863" 
d="M623 1065q122 0 214 -34q95 -35 146 -99q146 133 354 133q147 0 252 -56q107 -57 164 -156t57 -228q0 -99 -18 -166h-762l-2 -35q0 -87 61 -153q60 -64 162 -64q93 0 145 37q54 38 87 112h286q-40 -167 -182 -268q-140 -100 -342 -100q-146 0 -248 60q-101 60 -157 165
q-63 -111 -182 -168q-118 -57 -261 -57q-172 0 -276 74q-105 75 -105 219q0 183 129 275q128 91 365 91h254l6 39q6 24 6 51q0 56 -46 86q-48 31 -122 31q-98 0 -144 -33t-67 -96h-280q88 340 506 340zM1164 794q-69 -57 -93 -145h453q2 10 2 23q0 87 -55 133
q-54 45 -144 45q-95 0 -163 -56zM516 455q-105 0 -156 -36t-51 -110q0 -53 39 -83q38 -29 98 -29q118 0 189 67q71 66 92 174l2 17h-213z" />
    <glyph glyph-name="ccedilla" unicode="&#xe7;" horiz-adv-x="1167" 
d="M703 270q60 48 88 129h299q-50 -191 -172 -294t-316 -115l-22 -51h16q82 -1 129 -44q47 -42 47 -106q0 -90 -71 -144q-72 -55 -177 -55h-233l24 140h179q30 0 50 15q19 15 19 42q0 43 -53 43h-131l72 164q-183 28 -289 154q-107 127 -107 307q0 183 74 322
q73 138 210 213t318 75q139 0 244 -52q106 -52 165 -145q58 -91 58 -209h-293q-6 78 -58 124t-134 46q-91 0 -157 -51t-101 -134q-35 -84 -35 -175q0 -111 60 -178q60 -68 157 -68q81 0 140 47z" />
    <glyph glyph-name="egrave" unicode="&#xe8;" horiz-adv-x="1177" 
d="M903 1009q107 -57 164 -156t57 -228q0 -99 -18 -166h-762l-2 -35q0 -88 60 -153q60 -64 163 -64q94 0 146 37q54 39 86 112h286q-40 -167 -182 -268q-140 -100 -342 -100q-156 0 -269 61t-173 169t-60 243q0 173 73 311q72 136 208 215q135 78 313 78q147 0 252 -56z
M836 649v23q0 87 -54 133q-52 45 -143 45q-95 0 -163 -56q-69 -57 -93 -145h453zM377 1454h321l93 -295h-211z" />
    <glyph glyph-name="eacute" unicode="&#xe9;" horiz-adv-x="1177" 
d="M903 1009q107 -57 164 -156t57 -228q0 -99 -18 -166h-762l-2 -35q0 -88 60 -153q60 -64 163 -64q94 0 146 37q54 39 86 112h286q-40 -167 -182 -268q-140 -100 -342 -100q-156 0 -269 61t-173 169t-60 243q0 173 73 311q72 136 208 215q135 78 313 78q147 0 252 -56z
M836 649v23q0 87 -54 133q-52 45 -143 45q-95 0 -163 -56q-69 -57 -93 -145h453zM588 1165l203 289h335l-319 -289h-219z" />
    <glyph glyph-name="ecircumflex" unicode="&#xea;" horiz-adv-x="1177" 
d="M903 1009q107 -57 164 -156t57 -228q0 -99 -18 -166h-762l-2 -35q0 -88 60 -153q60 -64 163 -64q94 0 146 37q54 39 86 112h286q-40 -167 -182 -268q-140 -100 -342 -100q-156 0 -269 61t-173 169t-60 243q0 173 73 311q72 136 208 215q135 78 313 78q147 0 252 -56z
M836 649v23q0 87 -54 133q-52 45 -143 45q-95 0 -163 -56q-69 -57 -93 -145h453zM721 1284l-146 -121h-278l315 291h258l211 -291h-260z" />
    <glyph glyph-name="edieresis" unicode="&#xeb;" horiz-adv-x="1177" 
d="M903 1009q107 -57 164 -156t57 -228q0 -99 -18 -166h-762l-2 -35q0 -88 60 -153q60 -64 163 -64q94 0 146 37q54 39 86 112h286q-40 -167 -182 -268q-140 -100 -342 -100q-156 0 -269 61t-173 169t-60 243q0 173 73 311q72 136 208 215q135 78 313 78q147 0 252 -56z
M836 649v23q0 87 -54 133q-52 45 -143 45q-95 0 -163 -56q-69 -57 -93 -145h453zM621 1440q41 -39 41 -101q0 -66 -49 -112q-48 -45 -115 -45q-64 0 -104 40t-40 99q0 68 47 113q46 45 115 45q64 0 105 -39zM1051 1440q41 -39 41 -101q0 -66 -49 -112q-48 -45 -115 -45
q-64 0 -104 40t-40 99q0 68 47 113t115 45q64 0 105 -39z" />
    <glyph glyph-name="igrave" unicode="&#xec;" horiz-adv-x="491" 
d="M193 1053h290l-186 -1053h-289zM41 1454h321l93 -295h-211z" />
    <glyph glyph-name="iacute" unicode="&#xed;" horiz-adv-x="491" 
d="M193 1053h290l-186 -1053h-289zM252 1165l203 289h336l-320 -289h-219z" />
    <glyph glyph-name="icircumflex" unicode="&#xee;" horiz-adv-x="491" 
d="M193 1053h290l-186 -1053h-289zM385 1284l-145 -121h-279l315 291h259l210 -291h-260z" />
    <glyph glyph-name="idieresis" unicode="&#xef;" horiz-adv-x="491" 
d="M193 1053h290l-186 -1053h-289zM285 1440q41 -39 41 -101q0 -67 -48 -112t-116 -45q-64 0 -104 40t-40 99q0 67 48 113q46 45 114 45q65 0 105 -39zM715 1440q41 -39 41 -101q0 -67 -48 -112t-116 -45q-64 0 -104 40q-39 39 -39 99q0 68 47 113q46 45 114 45
q64 0 105 -39z" />
    <glyph glyph-name="eth" unicode="&#xf0;" horiz-adv-x="1226" 
d="M1163 686q0 -200 -78 -359t-222 -249t-337 -90q-151 0 -259 52q-111 53 -167 146q-57 95 -57 215q0 154 71 276t194 189q125 68 276 68q96 0 165 -27q68 -27 128 -82q-29 139 -156 262l-232 -122l-83 153l161 86q-96 59 -180 99l178 139q126 -50 228 -119l262 139
l82 -155l-195 -103q221 -221 221 -518zM696 261q72 42 113 113t41 154q0 92 -59 145q-60 54 -152 54q-87 0 -156 -42q-68 -42 -109 -114q-40 -71 -40 -153q0 -91 54 -145t147 -54q89 0 161 42z" />
    <glyph glyph-name="ntilde" unicode="&#xf1;" horiz-adv-x="1202" 
d="M1031 978q108 -87 108 -276q0 -69 -15 -141l-98 -561h-289l99 559q10 59 10 107q0 77 -44 119t-126 42q-119 0 -190 -77q-73 -79 -97 -222l-92 -528h-289l185 1053h251l5 -119q131 131 315 131q159 0 267 -87zM767 1442q33 -16 60 -41q20 -19 33 -25q16 -8 33 -8
q39 0 58 25t26 65l164 -10q-45 -262 -228 -262q-53 0 -79 13q-27 13 -60 42q-17 17 -32 26t-35 9q-69 0 -86 -90l-168 10q24 130 82 196q57 64 149 64q55 0 83 -14z" />
    <glyph glyph-name="ograve" unicode="&#xf2;" horiz-adv-x="1216" 
d="M291 49q-111 61 -172 169q-62 109 -62 241q0 184 76 320q77 137 215 211q140 75 324 75q144 0 254 -61q111 -61 172 -169q61 -107 61 -241q0 -185 -76 -321q-77 -137 -215 -211t-323 -74q-144 0 -254 61zM729 272q70 51 106 132q35 80 35 182q0 107 -61 175t-158 68
q-92 0 -162 -50q-68 -48 -106 -133q-37 -81 -37 -179q0 -105 62 -175q61 -69 159 -69q94 0 162 49zM403 1454h322l92 -295h-211z" />
    <glyph glyph-name="oacute" unicode="&#xf3;" horiz-adv-x="1216" 
d="M291 49q-111 61 -172 169q-62 109 -62 241q0 184 76 320q77 137 215 211q140 75 324 75q144 0 254 -61q111 -61 172 -169q61 -107 61 -241q0 -185 -76 -321q-77 -137 -215 -211t-323 -74q-144 0 -254 61zM729 272q70 51 106 132q35 80 35 182q0 107 -61 175t-158 68
q-92 0 -162 -50q-68 -48 -106 -133q-37 -81 -37 -179q0 -105 62 -175q61 -69 159 -69q94 0 162 49zM614 1165l203 289h336l-319 -289h-220z" />
    <glyph glyph-name="ocircumflex" unicode="&#xf4;" horiz-adv-x="1216" 
d="M291 49q-111 61 -172 169q-62 109 -62 241q0 184 76 320q77 137 215 211q140 75 324 75q144 0 254 -61q111 -61 172 -169q61 -107 61 -241q0 -185 -76 -321q-77 -137 -215 -211t-323 -74q-144 0 -254 61zM729 272q70 51 106 132q35 80 35 182q0 107 -61 175t-158 68
q-92 0 -162 -50q-68 -48 -106 -133q-37 -81 -37 -179q0 -105 62 -175q61 -69 159 -69q94 0 162 49zM748 1284l-146 -121h-278l315 291h258l211 -291h-260z" />
    <glyph glyph-name="otilde" unicode="&#xf5;" horiz-adv-x="1216" 
d="M291 49q-111 61 -172 169q-62 109 -62 241q0 184 76 320q77 137 215 211q140 75 324 75q144 0 254 -61q111 -61 172 -169q61 -107 61 -241q0 -185 -76 -321q-77 -137 -215 -211t-323 -74q-144 0 -254 61zM729 272q70 51 106 132q35 80 35 182q0 107 -61 175t-158 68
q-92 0 -162 -50q-68 -48 -106 -133q-37 -81 -37 -179q0 -105 62 -175q61 -69 159 -69q94 0 162 49zM716 1442q32 -16 60 -41q20 -19 33 -25q16 -8 33 -8q39 0 58 25t26 65l164 -10q-45 -262 -228 -262q-54 0 -80 13q-25 12 -59 42q-17 17 -32 26t-36 9q-69 0 -86 -90
l-168 10q24 130 82 196q57 64 150 64q55 0 83 -14z" />
    <glyph glyph-name="odieresis" unicode="&#xf6;" horiz-adv-x="1216" 
d="M291 49q-111 61 -172 169q-62 109 -62 241q0 184 76 320q77 137 215 211q140 75 324 75q144 0 254 -61q111 -61 172 -169q61 -107 61 -241q0 -185 -76 -321q-77 -137 -215 -211t-323 -74q-144 0 -254 61zM729 272q70 51 106 132q35 80 35 182q0 107 -61 175t-158 68
q-92 0 -162 -50q-68 -48 -106 -133q-37 -81 -37 -179q0 -105 62 -175q61 -69 159 -69q94 0 162 49zM647 1440q41 -39 41 -101q0 -67 -48 -112t-116 -45q-63 0 -103 40t-40 99q0 68 47 113t115 45q63 0 104 -39zM1077 1440q41 -39 41 -101q0 -67 -48 -112t-116 -45
q-63 0 -103 40t-40 99q0 68 47 113q46 45 115 45q63 0 104 -39z" />
    <glyph glyph-name="divide" unicode="&#xf7;" horiz-adv-x="1054" 
d="M752 1099q43 -42 43 -108q0 -75 -54 -127q-53 -51 -127 -51q-69 0 -110 41t-41 107q0 81 52 130q53 50 126 50q67 0 111 -42zM100 461l41 244h885l-43 -244h-883zM618 318q44 -42 44 -107q0 -75 -54 -127q-52 -51 -127 -51q-69 0 -110 41t-41 106q0 81 52 130
q53 50 126 50q66 0 110 -42z" />
    <glyph glyph-name="oslash" unicode="&#xf8;" horiz-adv-x="1230" 
d="M1110 811q49 -94 49 -217q0 -185 -76 -321q-77 -137 -215 -211t-323 -74q-188 0 -316 100l-123 -100l-118 143l123 100q-54 105 -54 228q0 184 76 320q77 137 215 211q140 75 324 75q191 0 323 -109l131 109l119 -143zM348 428l436 356q-57 45 -133 45q-92 0 -162 -50
q-68 -48 -106 -133q-37 -81 -37 -179q0 -23 2 -39zM868 612l-428 -350q55 -39 127 -39q94 0 162 49q70 51 106 132q35 80 35 182q0 16 -2 26z" />
    <glyph glyph-name="ugrave" unicode="&#xf9;" horiz-adv-x="1193" 
d="M1186 1053l-185 -1053h-253l-5 117q-129 -129 -321 -129q-154 0 -255 85t-101 271q0 81 14 148l98 561h289l-98 -564q-13 -80 -13 -108q0 -76 43 -116t123 -40q114 0 186 83q72 82 99 231l90 514h289zM385 1454h322l92 -295h-211z" />
    <glyph glyph-name="uacute" unicode="&#xfa;" horiz-adv-x="1193" 
d="M1186 1053l-185 -1053h-253l-5 117q-129 -129 -321 -129q-154 0 -255 85t-101 271q0 81 14 148l98 561h289l-98 -564q-13 -80 -13 -108q0 -76 43 -116t123 -40q114 0 186 83q72 82 99 231l90 514h289zM596 1165l203 289h336l-320 -289h-219z" />
    <glyph glyph-name="ucircumflex" unicode="&#xfb;" horiz-adv-x="1193" 
d="M1186 1053l-185 -1053h-253l-5 117q-129 -129 -321 -129q-154 0 -255 85t-101 271q0 81 14 148l98 561h289l-98 -564q-13 -80 -13 -108q0 -76 43 -116t123 -40q114 0 186 83q72 82 99 231l90 514h289zM729 1284l-145 -121h-279l316 291h258l211 -291h-261z" />
    <glyph glyph-name="udieresis" unicode="&#xfc;" horiz-adv-x="1193" 
d="M1186 1053l-185 -1053h-253l-5 117q-129 -129 -321 -129q-154 0 -255 85t-101 271q0 81 14 148l98 561h289l-98 -564q-13 -80 -13 -108q0 -76 43 -116t123 -40q114 0 186 83q72 82 99 231l90 514h289zM629 1440q41 -39 41 -101q0 -67 -48 -112t-116 -45q-64 0 -104 40
t-40 99q0 67 48 113q46 45 114 45q64 0 105 -39zM1059 1440q41 -39 41 -101q0 -67 -48 -112t-116 -45q-63 0 -103 40t-40 99q0 68 47 113q46 45 114 45q64 0 105 -39z" />
    <glyph glyph-name="yacute" unicode="&#xfd;" horiz-adv-x="1118" 
d="M393 1053l119 -756l385 756h313l-678 -1213q-77 -137 -146 -193q-70 -57 -189 -57h-275l43 244h152q54 0 88 20q33 19 61 70l39 70l-215 1059h303zM559 1165l203 289h336l-320 -289h-219z" />
    <glyph glyph-name="thorn" unicode="&#xfe;" horiz-adv-x="1239" 
d="M978 1006q96 -59 152 -165t56 -237q0 -171 -76 -311q-76 -141 -205 -223q-128 -82 -280 -82q-219 0 -310 143l-92 -541h-289l326 1844h289l-88 -490q114 121 295 121q126 0 222 -59zM748 273q68 49 107 134q38 84 38 177q0 119 -57 182t-156 63q-90 0 -161 -50
q-70 -49 -108 -133t-38 -177q0 -120 58 -182q59 -64 157 -64q90 0 160 50z" />
    <glyph glyph-name="ydieresis" unicode="&#xff;" horiz-adv-x="1118" 
d="M393 1053l119 -756l385 756h313l-678 -1213q-77 -137 -146 -193q-70 -57 -189 -57h-275l43 244h152q54 0 88 20q33 19 61 70l39 70l-215 1059h303zM592 1440q41 -39 41 -101q0 -67 -48 -112t-116 -45q-63 0 -103 40t-40 99q0 68 47 113t114 45q65 0 105 -39zM1022 1440
q41 -39 41 -101q0 -67 -48 -112t-116 -45q-63 0 -103 40t-40 99q0 68 47 113t115 45q63 0 104 -39z" />
    <glyph glyph-name="Amacron" unicode="&#x100;" horiz-adv-x="1411" 
d="M995 0l-51 313h-534l-162 -313h-332l768 1434h367l260 -1434h-316zM537 561h370l-90 541zM584 1608l37 204h634l-34 -204h-637z" />
    <glyph glyph-name="amacron" unicode="&#x101;" horiz-adv-x="1138" 
d="M1077 244l-43 -244h-139q-88 0 -132 38t-44 97v2q-63 -73 -146 -112q-78 -37 -192 -37q-160 0 -261 75q-104 77 -104 218q0 183 129 275q128 91 365 91h254l6 39q6 24 6 51q0 56 -46 86q-48 31 -122 31q-98 0 -144 -33t-67 -96h-280q88 340 512 340q195 0 311 -82
q117 -83 117 -246q0 -45 -10 -104l-54 -301q-6 -27 -6 -43q0 -45 49 -45h41zM635 264q71 66 92 174l2 17h-213q-105 0 -156 -36t-51 -110q0 -53 39 -83q38 -29 98 -29q118 0 189 67zM350 1227l37 205h635l-35 -205h-637z" />
    <glyph glyph-name="Abreve" unicode="&#x102;" horiz-adv-x="1411" 
d="M995 0l-51 313h-534l-162 -313h-332l768 1434h367l260 -1434h-316zM537 561h370l-90 541zM827 1835q0 -57 26 -86t73 -29q54 0 89 33q33 32 44 82h201q-28 -142 -119 -222q-89 -79 -223 -79q-140 0 -216 84q-75 82 -75 217h200z" />
    <glyph glyph-name="abreve" unicode="&#x103;" horiz-adv-x="1138" 
d="M1077 244l-43 -244h-139q-88 0 -132 38t-44 97v2q-63 -73 -146 -112q-78 -37 -192 -37q-160 0 -261 75q-104 77 -104 218q0 183 129 275q128 91 365 91h254l6 39q6 24 6 51q0 56 -46 86q-48 31 -122 31q-98 0 -144 -33t-67 -96h-280q88 340 512 340q195 0 311 -82
q117 -83 117 -246q0 -45 -10 -104l-54 -301q-6 -27 -6 -43q0 -45 49 -45h41zM635 264q71 66 92 174l2 17h-213q-105 0 -156 -36t-51 -110q0 -53 39 -83q38 -29 98 -29q118 0 189 67zM594 1454q0 -57 26 -86t72 -29q54 0 89 33q33 32 44 82h201q-28 -142 -119 -222
q-89 -79 -223 -79q-138 0 -215 84q-76 83 -76 217h201z" />
    <glyph glyph-name="Aogonek" unicode="&#x104;" horiz-adv-x="1411" 
d="M1111 -206q12 -11 44 -11h133l-33 -193h-176q-98 0 -158 45q-61 46 -61 138q0 122 139 227h-4l-51 313h-534l-162 -313h-332l768 1434h367l260 -1434q-98 -40 -155 -85q-58 -46 -58 -85q0 -24 13 -36zM537 561h370l-90 541z" />
    <glyph glyph-name="aogonek" unicode="&#x105;" horiz-adv-x="1138" 
d="M880 -85q-59 -47 -59 -85q0 -24 14 -36q12 -11 44 -11h133l-33 -193h-176q-99 0 -159 45t-60 138q0 78 49 140q51 64 137 120q-51 37 -51 102v2q-63 -73 -146 -112q-78 -37 -192 -37q-160 0 -261 75q-104 77 -104 218q0 183 129 275q128 91 365 91h254l6 39q6 24 6 51
q0 56 -46 86q-48 31 -122 31q-98 0 -144 -33t-67 -96h-280q88 340 512 340q195 0 311 -82q117 -83 117 -246q0 -45 -10 -104l-54 -301q-6 -27 -6 -43q0 -45 49 -45h41l-43 -244q-96 -39 -154 -85zM635 264q71 66 92 174l2 17h-213q-105 0 -156 -36t-51 -110q0 -53 39 -83
q38 -29 98 -29q118 0 189 67z" />
    <glyph glyph-name="Cacute" unicode="&#x106;" horiz-adv-x="1435" 
d="M376 67q-140 81 -211 218q-73 141 -73 317q0 238 98 428q100 194 280 304q183 112 423 112q169 0 294 -66q124 -66 188 -182q65 -118 65 -272h-303q-6 118 -81 189q-76 71 -196 71q-139 0 -244 -81q-102 -79 -159 -215q-56 -135 -56 -288q0 -155 83 -255q82 -99 223 -99
q133 0 220 69t140 195h305q-66 -245 -243 -385q-176 -139 -429 -139q-187 0 -324 79zM813 1546l203 289h336l-320 -289h-219z" />
    <glyph glyph-name="cacute" unicode="&#x107;" horiz-adv-x="1167" 
d="M900 91q-137 -103 -355 -103q-146 0 -257 60q-112 61 -172 167q-61 108 -61 240q0 183 74 322q73 138 210 213t318 75q139 0 244 -52q106 -52 165 -145q58 -91 58 -209h-293q-6 78 -58 124t-134 46q-91 0 -157 -51t-101 -134q-35 -84 -35 -175q0 -111 60 -178
q60 -68 157 -68q81 0 140 47q60 48 88 129h299q-50 -203 -190 -308zM618 1165l203 289h336l-319 -289h-220z" />
    <glyph glyph-name="Ccircumflex" unicode="&#x108;" horiz-adv-x="1435" 
d="M376 67q-140 81 -211 218q-73 141 -73 317q0 238 98 428q100 194 280 304q183 112 423 112q169 0 294 -66q124 -66 188 -182q65 -118 65 -272h-303q-6 118 -81 189q-76 71 -196 71q-139 0 -244 -81q-102 -79 -159 -215q-56 -135 -56 -288q0 -155 83 -255q82 -99 223 -99
q133 0 220 69t140 195h305q-66 -245 -243 -385q-176 -139 -429 -139q-187 0 -324 79zM946 1665l-145 -121h-279l316 291h258l211 -291h-260z" />
    <glyph glyph-name="ccircumflex" unicode="&#x109;" horiz-adv-x="1167" 
d="M900 91q-137 -103 -355 -103q-146 0 -257 60q-112 61 -172 167q-61 108 -61 240q0 183 74 322q73 138 210 213t318 75q139 0 244 -52q106 -52 165 -145q58 -91 58 -209h-293q-6 78 -58 124t-134 46q-91 0 -157 -51t-101 -134q-35 -84 -35 -175q0 -111 60 -178
q60 -68 157 -68q81 0 140 47q60 48 88 129h299q-50 -203 -190 -308zM752 1284l-146 -121h-278l315 291h258l211 -291h-260z" />
    <glyph glyph-name="Cdotaccent" unicode="&#x10a;" horiz-adv-x="1435" 
d="M376 67q-140 81 -211 218q-73 141 -73 317q0 238 98 428q100 194 280 304q183 112 423 112q169 0 294 -66q124 -66 188 -182q65 -118 65 -272h-303q-6 118 -81 189q-76 71 -196 71q-139 0 -244 -81q-102 -79 -159 -215q-56 -135 -56 -288q0 -155 83 -255q82 -99 223 -99
q133 0 220 69t140 195h305q-66 -245 -243 -385q-176 -139 -429 -139q-187 0 -324 79zM1073 1851q43 -40 43 -106q0 -77 -51 -126q-52 -50 -125 -50q-70 0 -113 42t-43 107q0 74 53 124t126 50q66 0 110 -41z" />
    <glyph glyph-name="cdotaccent" unicode="&#x10b;" horiz-adv-x="1167" 
d="M900 91q-137 -103 -355 -103q-146 0 -257 60q-112 61 -172 167q-61 108 -61 240q0 183 74 322q73 138 210 213t318 75q139 0 244 -52q106 -52 165 -145q58 -91 58 -209h-293q-6 78 -58 124t-134 46q-91 0 -157 -51t-101 -134q-35 -84 -35 -175q0 -111 60 -178
q60 -68 157 -68q81 0 140 47q60 48 88 129h299q-50 -203 -190 -308zM879 1470q43 -40 43 -106q0 -76 -52 -126t-125 -50q-69 0 -112 42t-43 107q0 75 52 124q53 50 126 50q67 0 111 -41z" />
    <glyph glyph-name="Ccaron" unicode="&#x10c;" horiz-adv-x="1435" 
d="M376 67q-140 81 -211 218q-73 141 -73 317q0 238 98 428q100 194 280 304q183 112 423 112q169 0 294 -66q124 -66 188 -182q65 -118 65 -272h-303q-6 118 -81 189q-76 71 -196 71q-139 0 -244 -81q-102 -79 -159 -215q-56 -135 -56 -288q0 -155 83 -255q82 -99 223 -99
q133 0 220 69t140 195h305q-66 -245 -243 -385q-176 -139 -429 -139q-187 0 -324 79zM942 1714l152 121h270l-313 -291h-258l-211 291h260z" />
    <glyph glyph-name="ccaron" unicode="&#x10d;" horiz-adv-x="1167" 
d="M900 91q-137 -103 -355 -103q-146 0 -257 60q-112 61 -172 167q-61 108 -61 240q0 183 74 322q73 138 210 213t318 75q139 0 244 -52q106 -52 165 -145q58 -91 58 -209h-293q-6 78 -58 124t-134 46q-91 0 -157 -51t-101 -134q-35 -84 -35 -175q0 -111 60 -178
q60 -68 157 -68q81 0 140 47q60 48 88 129h299q-50 -203 -190 -308zM748 1333l151 121h270l-313 -291h-258l-211 291h260z" />
    <glyph glyph-name="Dcaron" unicode="&#x10e;" horiz-adv-x="1396" 
d="M283 1434h430q202 0 351 -77q147 -76 227 -216q79 -139 79 -324q0 -249 -101 -433q-102 -186 -291 -285t-448 -99h-501zM567 256q151 0 263 71t171 194q60 125 60 280q0 180 -98 278q-99 99 -269 99h-151l-162 -922h186zM852 1714l152 121h270l-313 -291h-259l-210 291
h260z" />
    <glyph glyph-name="dcaron" unicode="&#x10f;" horiz-adv-x="1390" 
d="M1300 1434l-253 -1434h-238l-6 137q-118 -149 -320 -149q-126 0 -222 59q-97 60 -152 164q-56 106 -56 235q0 174 76 314t204 223q127 82 281 82q216 0 310 -141l88 510h288zM720 273q69 49 108 134q38 84 38 177q0 120 -58 182q-58 63 -157 63q-89 0 -159 -50
q-71 -51 -108 -133q-38 -84 -38 -177q0 -119 57 -182q58 -64 156 -64q90 0 161 50zM1452 1434h274l-190 -304h-209z" />
    <glyph glyph-name="Dcroat" unicode="&#x110;" horiz-adv-x="1431" 
d="M1099 1357q147 -76 227 -216q79 -139 79 -324q0 -249 -101 -433q-102 -186 -291 -285t-448 -99h-502l111 621h-164l39 213h162l106 600h431q202 0 351 -77zM865 327q112 71 171 194q60 125 60 280q0 179 -99 278t-268 99h-151l-60 -344h230l-37 -213h-232l-63 -365h186
q151 0 263 71z" />
    <glyph glyph-name="dcroat" unicode="&#x111;" horiz-adv-x="1273" 
d="M1411 1122h-166l-198 -1122h-238l-6 137q-118 -149 -320 -149q-126 0 -222 59q-97 60 -152 164q-56 106 -56 235q0 174 76 314t204 223q127 82 281 82q216 0 310 -141l34 198h-268l37 211h266l19 101h288l-18 -101h166zM720 273q69 49 108 134q38 84 38 177
q0 120 -58 182q-58 63 -157 63q-89 0 -159 -50q-71 -51 -108 -133q-38 -84 -38 -177q0 -119 57 -182q58 -64 156 -64q90 0 161 50z" />
    <glyph glyph-name="Emacron" unicode="&#x112;" horiz-adv-x="1159" 
d="M283 1434h950l-47 -265h-643l-58 -321h523l-45 -252h-521l-59 -332h668l-47 -264h-975zM483 1608l37 204h635l-35 -204h-637z" />
    <glyph glyph-name="emacron" unicode="&#x113;" horiz-adv-x="1177" 
d="M903 1009q107 -57 164 -156t57 -228q0 -99 -18 -166h-762l-2 -35q0 -88 60 -153q60 -64 163 -64q94 0 146 37q54 39 86 112h286q-40 -167 -182 -268q-140 -100 -342 -100q-156 0 -269 61t-173 169t-60 243q0 173 73 311q72 136 208 215q135 78 313 78q147 0 252 -56z
M836 649v23q0 87 -54 133q-52 45 -143 45q-95 0 -163 -56q-69 -57 -93 -145h453zM385 1227l37 205h635l-35 -205h-637z" />
    <glyph glyph-name="Ebreve" unicode="&#x114;" horiz-adv-x="1159" 
d="M283 1434h950l-47 -265h-643l-58 -321h523l-45 -252h-521l-59 -332h668l-47 -264h-975zM727 1835q0 -57 26 -86t72 -29q55 0 89 33q33 32 44 82h201q-28 -142 -119 -222q-89 -79 -223 -79q-139 0 -215 84q-76 83 -76 217h201z" />
    <glyph glyph-name="ebreve" unicode="&#x115;" horiz-adv-x="1177" 
d="M903 1009q107 -57 164 -156t57 -228q0 -99 -18 -166h-762l-2 -35q0 -88 60 -153q60 -64 163 -64q94 0 146 37q54 39 86 112h286q-40 -167 -182 -268q-140 -100 -342 -100q-156 0 -269 61t-173 169t-60 243q0 173 73 311q72 136 208 215q135 78 313 78q147 0 252 -56z
M836 649v23q0 87 -54 133q-52 45 -143 45q-95 0 -163 -56q-69 -57 -93 -145h453zM629 1454q0 -58 25 -86q26 -29 73 -29q55 0 89 33q33 32 44 82h201q-28 -142 -119 -222q-89 -79 -223 -79q-139 0 -215 84q-76 83 -76 217h201z" />
    <glyph glyph-name="Edotaccent" unicode="&#x116;" horiz-adv-x="1159" 
d="M283 1434h950l-47 -265h-643l-58 -321h523l-45 -252h-521l-59 -332h668l-47 -264h-975zM946 1851q43 -40 43 -106q0 -77 -51 -126q-52 -50 -125 -50q-69 0 -113 42q-43 42 -43 107q0 74 53 124t126 50q66 0 110 -41z" />
    <glyph glyph-name="edotaccent" unicode="&#x117;" horiz-adv-x="1177" 
d="M903 1009q107 -57 164 -156t57 -228q0 -99 -18 -166h-762l-2 -35q0 -88 60 -153q60 -64 163 -64q94 0 146 37q54 39 86 112h286q-40 -167 -182 -268q-140 -100 -342 -100q-156 0 -269 61t-173 169t-60 243q0 173 73 311q72 136 208 215q135 78 313 78q147 0 252 -56z
M836 649v23q0 87 -54 133q-52 45 -143 45q-95 0 -163 -56q-69 -57 -93 -145h453zM848 1470q43 -40 43 -106q0 -76 -51 -126q-52 -50 -125 -50q-69 0 -113 42q-43 42 -43 107q0 75 52 124q53 50 126 50q67 0 111 -41z" />
    <glyph glyph-name="Eogonek" unicode="&#x118;" horiz-adv-x="1159" 
d="M543 1169l-58 -321h523l-45 -252h-521l-59 -332h668l-47 -264q-98 -40 -155 -85q-58 -46 -58 -85q0 -24 13 -36q12 -11 44 -11h133l-33 -193h-176q-99 0 -159 45t-60 138q0 122 139 227h-663l254 1434h950l-47 -265h-643z" />
    <glyph glyph-name="eogonek" unicode="&#x119;" horiz-adv-x="1177" 
d="M903 1009q107 -57 164 -156t57 -228q0 -99 -18 -166h-762l-2 -35q0 -88 60 -153q60 -64 163 -64q94 0 146 37q54 39 86 112h286q-45 -184 -249 -305q-90 -58 -150 -117q-63 -62 -63 -104q0 -47 61 -47h143l-34 -193h-189q-100 0 -159 43q-60 43 -60 125q0 65 41 120
t115 112q-25 0 -47 2q-124 11 -221 68q-99 58 -156 161q-58 104 -58 240q0 173 73 311q72 136 208 215q135 78 313 78q147 0 252 -56zM476 794q-69 -57 -93 -145h453v23q0 87 -54 133q-52 45 -143 45q-95 0 -163 -56z" />
    <glyph glyph-name="Ecaron" unicode="&#x11a;" horiz-adv-x="1159" 
d="M283 1434h950l-47 -265h-643l-58 -321h523l-45 -252h-521l-59 -332h668l-47 -264h-975zM815 1714l152 121h270l-313 -291h-258l-211 291h260z" />
    <glyph glyph-name="ecaron" unicode="&#x11b;" horiz-adv-x="1177" 
d="M903 1009q107 -57 164 -156t57 -228q0 -99 -18 -166h-762l-2 -35q0 -88 60 -153q60 -64 163 -64q94 0 146 37q54 39 86 112h286q-40 -167 -182 -268q-140 -100 -342 -100q-156 0 -269 61t-173 169t-60 243q0 173 73 311q72 136 208 215q135 78 313 78q147 0 252 -56z
M836 649v23q0 87 -54 133q-52 45 -143 45q-95 0 -163 -56q-69 -57 -93 -145h453zM717 1333l151 121h271l-314 -291h-258l-211 291h260z" />
    <glyph glyph-name="Gcircumflex" unicode="&#x11c;" horiz-adv-x="1525" 
d="M1184 1386q128 -61 202 -180t74 -282h-295q-6 125 -86 194q-81 70 -202 70q-147 0 -254 -80q-105 -79 -163 -212q-57 -132 -57 -288q0 -158 90 -260q88 -100 238 -100q135 0 242 74q106 73 145 213l2 18h-352l41 244h643l-139 -795h-215v170q-78 -88 -177 -134
q-102 -48 -241 -48q-177 0 -310 76q-136 78 -207 213q-73 138 -73 317q0 245 98 437q99 193 280 304q182 111 419 111q167 0 297 -62zM965 1665l-146 -121h-278l315 291h258l211 -291h-260z" />
    <glyph glyph-name="gcircumflex" unicode="&#x11d;" horiz-adv-x="1241" 
d="M1233 1053l-182 -1033q-38 -214 -169 -327q-133 -115 -411 -115q-221 0 -355 96t-134 279h284q6 -77 67 -117q60 -39 156 -39q250 0 291 254l13 72q-121 -135 -306 -135q-126 0 -223 59t-154 164t-57 235q0 174 76 314t204 223q127 82 281 82q230 0 318 -162l53 150h248z
M720 273q69 49 108 134q38 84 38 177q0 120 -58 182q-58 63 -157 63q-89 0 -159 -50q-71 -51 -108 -133q-38 -84 -38 -177q0 -119 57 -182q58 -64 156 -64q90 0 161 50zM743 1284l-145 -121h-279l316 291h258l211 -291h-260z" />
    <glyph glyph-name="Gbreve" unicode="&#x11e;" horiz-adv-x="1525" 
d="M1184 1386q128 -61 202 -180t74 -282h-295q-6 125 -86 194q-81 70 -202 70q-147 0 -254 -80q-105 -79 -163 -212q-57 -132 -57 -288q0 -158 90 -260q88 -100 238 -100q135 0 242 74q106 73 145 213l2 18h-352l41 244h643l-139 -795h-215v170q-78 -88 -177 -134
q-102 -48 -241 -48q-177 0 -310 76q-136 78 -207 213q-73 138 -73 317q0 245 98 437q99 193 280 304q182 111 419 111q167 0 297 -62zM872 1835q0 -57 26 -86t73 -29q55 0 89 33q33 32 44 82h201q-28 -142 -119 -222q-89 -79 -223 -79q-139 0 -215 84q-76 83 -76 217h200z
" />
    <glyph glyph-name="gbreve" unicode="&#x11f;" horiz-adv-x="1241" 
d="M1233 1053l-182 -1033q-38 -214 -169 -327q-133 -115 -411 -115q-221 0 -355 96t-134 279h284q6 -77 67 -117q60 -39 156 -39q250 0 291 254l13 72q-121 -135 -306 -135q-126 0 -223 59t-154 164t-57 235q0 174 76 314t204 223q127 82 281 82q230 0 318 -162l53 150h248z
M720 273q69 49 108 134q38 84 38 177q0 120 -58 182q-58 63 -157 63q-89 0 -159 -50q-71 -51 -108 -133q-38 -84 -38 -177q0 -119 57 -182q58 -64 156 -64q90 0 161 50zM651 1454q0 -57 26 -86t73 -29q54 0 89 33q33 32 44 82h200q-28 -143 -118 -222q-89 -79 -224 -79
q-139 0 -215 84q-75 82 -75 217h200z" />
    <glyph glyph-name="Gdotaccent" unicode="&#x120;" horiz-adv-x="1525" 
d="M1184 1386q128 -61 202 -180t74 -282h-295q-6 125 -86 194q-81 70 -202 70q-147 0 -254 -80q-105 -79 -163 -212q-57 -132 -57 -288q0 -158 90 -260q88 -100 238 -100q135 0 242 74q106 73 145 213l2 18h-352l41 244h643l-139 -795h-215v170q-78 -88 -177 -134
q-102 -48 -241 -48q-177 0 -310 76q-136 78 -207 213q-73 138 -73 317q0 245 98 437q99 193 280 304q182 111 419 111q167 0 297 -62zM1092 1851q43 -40 43 -106q0 -76 -52 -126t-125 -50q-68 0 -112 42q-43 42 -43 107q0 75 52 124q53 50 126 50q67 0 111 -41z" />
    <glyph glyph-name="gdotaccent" unicode="&#x121;" horiz-adv-x="1241" 
d="M1233 1053l-182 -1033q-38 -214 -169 -327q-133 -115 -411 -115q-221 0 -355 96t-134 279h284q6 -77 67 -117q60 -39 156 -39q250 0 291 254l13 72q-121 -135 -306 -135q-126 0 -223 59t-154 164t-57 235q0 174 76 314t204 223q127 82 281 82q230 0 318 -162l53 150h248z
M720 273q69 49 108 134q38 84 38 177q0 120 -58 182q-58 63 -157 63q-89 0 -159 -50q-71 -51 -108 -133q-38 -84 -38 -177q0 -119 57 -182q58 -64 156 -64q90 0 161 50zM870 1470q43 -40 43 -106q0 -76 -51 -126q-52 -50 -125 -50q-69 0 -112 42t-43 107q0 75 52 124
q53 50 126 50q66 0 110 -41z" />
    <glyph glyph-name="Gcommaaccent" unicode="&#x122;" horiz-adv-x="1525" 
d="M1184 1386q128 -61 202 -180t74 -282h-295q-6 125 -86 194q-81 70 -202 70q-147 0 -254 -80q-105 -79 -163 -212q-57 -132 -57 -288q0 -158 90 -260q88 -100 238 -100q135 0 242 74q106 73 145 213l2 18h-352l41 244h643l-139 -795h-215v170q-78 -88 -177 -134
q-102 -48 -241 -48q-177 0 -310 76q-136 78 -207 213q-73 138 -73 317q0 245 98 437q99 193 280 304q182 111 419 111q167 0 297 -62zM502 -98h286l-225 -301h-223z" />
    <glyph glyph-name="gcommaaccent" unicode="&#x123;" horiz-adv-x="1241" 
d="M1233 1053l-182 -1033q-38 -214 -169 -327q-133 -115 -411 -115q-221 0 -355 96t-134 279h284q6 -77 67 -117q60 -39 156 -39q250 0 291 254l13 72q-121 -135 -306 -135q-126 0 -223 59t-154 164t-57 235q0 174 76 314t204 223q127 82 281 82q230 0 318 -162l53 150h248z
M720 273q69 49 108 134q38 84 38 177q0 120 -58 182q-58 63 -157 63q-89 0 -159 -50q-71 -51 -108 -133q-38 -84 -38 -177q0 -119 57 -182q58 -64 156 -64q90 0 161 50zM840 1155h-287l225 299h223z" />
    <glyph glyph-name="Hcircumflex" unicode="&#x124;" horiz-adv-x="1415" 
d="M283 1434h307l-103 -576h557l103 576h307l-254 -1434h-307l106 592h-557l-106 -592h-307zM920 1665l-146 -121h-278l315 291h258l211 -291h-260z" />
    <glyph glyph-name="hcircumflex" unicode="&#x125;" horiz-adv-x="1202" 
d="M1033 978q106 -88 106 -276q0 -69 -15 -141l-98 -561h-289l99 559q10 59 10 107q0 77 -44 119t-126 42q-117 0 -189 -78q-74 -80 -98 -221l-92 -528h-289l252 1434h289l-84 -490q130 121 303 121q160 0 265 -87zM449 1651l-146 -121h-278l315 291h258l211 -291h-260z" />
    <glyph glyph-name="Hbar" unicode="&#x126;" horiz-adv-x="1478" 
d="M1608 1223l-37 -211h-154l-178 -1012h-307l96 545h-569l-97 -545h-307l178 1012h-153l37 211h153l37 211h307l-36 -211h569l37 211h307l-37 -211h154zM1075 811l35 201h-569l-35 -201h569z" />
    <glyph glyph-name="hbar" unicode="&#x127;" horiz-adv-x="1222" 
d="M1054 978q105 -87 105 -276q0 -74 -14 -141l-98 -561h-289l98 559q10 59 10 107q0 77 -44 119t-126 42q-116 0 -188 -78q-74 -80 -98 -221l-93 -528h-288l196 1122h-153l37 211h153l19 101h288l-16 -101h278l-36 -211h-279l-31 -178q130 121 303 121q161 0 266 -87z" />
    <glyph glyph-name="Itilde" unicode="&#x128;" horiz-adv-x="550" 
d="M283 1434h307l-254 -1434h-307zM450 1823q32 -16 60 -41q20 -19 33 -25q16 -8 32 -8q40 0 59 25q17 23 25 65l164 -10q-45 -262 -227 -262q-54 0 -80 13q-25 12 -59 42q-17 17 -32 26t-36 9q-69 0 -86 -90l-168 10q24 130 82 196q57 64 150 64q55 0 83 -14z" />
    <glyph glyph-name="itilde" unicode="&#x129;" horiz-adv-x="491" 
d="M193 1053h290l-186 -1053h-289zM353 1442q35 -17 61 -41q22 -20 32 -25q16 -8 33 -8q40 0 59 25q17 23 25 65l164 -10q-45 -262 -227 -262q-54 0 -80 13q-27 13 -60 42q-19 19 -31 26q-15 9 -36 9q-69 0 -86 -90l-168 10q24 130 82 196q57 64 149 64q55 0 83 -14z" />
    <glyph glyph-name="Imacron" unicode="&#x12a;" horiz-adv-x="550" 
d="M283 1434h307l-254 -1434h-307zM145 1608l37 204h635l-35 -204h-637z" />
    <glyph glyph-name="imacron" unicode="&#x12b;" horiz-adv-x="491" 
d="M193 1053h290l-186 -1053h-289zM49 1227l37 205h635l-35 -205h-637z" />
    <glyph glyph-name="Ibreve" unicode="&#x12c;" horiz-adv-x="550" 
d="M283 1434h307l-254 -1434h-307zM389 1835q0 -57 26 -86t72 -29q55 0 90 33q33 32 44 82h200q-28 -142 -119 -222q-89 -79 -223 -79q-139 0 -215 84q-76 83 -76 217h201z" />
    <glyph glyph-name="ibreve" unicode="&#x12d;" horiz-adv-x="491" 
d="M193 1053h290l-186 -1053h-289zM293 1454q0 -58 25 -86q26 -29 73 -29q55 0 89 33q33 32 44 82h201q-28 -142 -119 -222q-89 -79 -223 -79q-139 0 -215 84q-76 83 -76 217h201z" />
    <glyph glyph-name="Iogonek" unicode="&#x12e;" horiz-adv-x="550" 
d="M181 -85q-58 -46 -58 -85q0 -24 13 -36q12 -11 44 -11h133l-32 -193h-177q-98 0 -158 45q-61 46 -61 138q0 68 37 124q36 54 107 107l254 1430h307l-254 -1434q-98 -40 -155 -85z" />
    <glyph glyph-name="iogonek" unicode="&#x12f;" horiz-adv-x="489" 
d="M510 1448q43 -43 43 -109q0 -75 -52 -124q-53 -50 -126 -50q-70 0 -113 43t-43 109q0 75 52 124q53 50 126 50q70 0 113 -43zM193 1053h288l-184 -1053q-98 -40 -155 -85q-58 -46 -58 -85q0 -24 13 -36q12 -11 44 -11h133l-32 -193h-176q-99 0 -159 45q-61 46 -61 138
q0 74 43 133t123 112z" />
    <glyph glyph-name="Idotaccent" unicode="&#x130;" horiz-adv-x="550" 
d="M283 1434h307l-254 -1434h-307zM608 1851q43 -40 43 -106q0 -77 -51 -126q-52 -50 -125 -50q-69 0 -113 42q-43 42 -43 107q0 74 53 124t126 50q66 0 110 -41z" />
    <glyph glyph-name="dotlessi" unicode="&#x131;" horiz-adv-x="491" 
d="M193 1053h290l-186 -1053h-289z" />
    <glyph glyph-name="IJ" unicode="&#x132;" horiz-adv-x="1335" 
d="M426 559q-10 -54 -10 -100q0 -101 49 -156t147 -55q253 0 310 317l151 869h309l-155 -881q-49 -286 -200 -426q-149 -139 -425 -139q-244 0 -370 113q-128 114 -128 329q0 56 13 129h309zM272 1434h308l-123 -695h-307z" />
    <glyph glyph-name="ij" unicode="&#x133;" horiz-adv-x="989" 
d="M510 1448q43 -43 43 -109q0 -75 -52 -124q-53 -50 -126 -50q-70 0 -113 43t-43 109q0 75 52 124q53 50 126 50q70 0 113 -43zM193 1053h288l-184 -1053h-289zM771 1441q53 50 126 50q70 0 113 -43t43 -109q0 -74 -53 -124t-126 -50q-69 0 -112 43t-43 109q0 75 52 124z
M367 -166q62 0 92 32q31 32 41 95l194 1092h289l-205 -1153q-24 -151 -112 -230q-89 -80 -236 -80h-201l43 244h95z" />
    <glyph glyph-name="Jcircumflex" unicode="&#x134;" horiz-adv-x="808" 
d="M846 1434l-187 -1063q-33 -182 -145 -276q-113 -95 -295 -95h-266l47 266h156q87 0 140 47q52 46 69 138l174 983h307zM739 1665l-145 -121h-279l316 291h258l211 -291h-260z" />
    <glyph glyph-name="jcircumflex" unicode="&#x135;" horiz-adv-x="499" 
d="M-123 -166q62 0 92 32q31 32 41 95l195 1092h289l-205 -1153q-24 -150 -113 -230t-235 -80h-201l43 244h94zM395 1284l-145 -121h-279l316 291h258l211 -291h-260z" />
    <glyph glyph-name="Kcommaaccent" unicode="&#x136;" horiz-adv-x="1429" 
d="M1532 1434l-627 -592l404 -842h-336l-301 623l-264 -246l-72 -377h-307l254 1434h307l-115 -629l664 629h393zM389 -98h287l-225 -301h-224z" />
    <glyph glyph-name="kcommaaccent" unicode="&#x137;" horiz-adv-x="1153" 
d="M260 1434h289l-148 -822l486 441l350 6l-469 -420l281 -639h-310l-192 436l-205 -186l-45 -250h-289zM344 -98h287l-225 -301h-224z" />
    <glyph glyph-name="Lacute" unicode="&#x139;" horiz-adv-x="1038" 
d="M29 0l254 1434h307l-207 -1170h565l-47 -264h-872zM348 1546l203 289h336l-320 -289h-219z" />
    <glyph glyph-name="lacute" unicode="&#x13a;" horiz-adv-x="489" 
d="M260 1434h289l-252 -1434h-289zM315 1532l203 289h336l-319 -289h-220z" />
    <glyph glyph-name="Lcommaaccent" unicode="&#x13b;" horiz-adv-x="1038" 
d="M29 0l254 1434h307l-207 -1170h565l-47 -264h-872zM293 -98h287l-226 -301h-223z" />
    <glyph glyph-name="lcommaaccent" unicode="&#x13c;" horiz-adv-x="489" 
d="M260 1434h289l-252 -1434h-289zM-16 -98h286l-225 -301h-223z" />
    <glyph glyph-name="Lcaron" unicode="&#x13d;" horiz-adv-x="1038" 
d="M29 0l254 1434h307l-207 -1170h565l-47 -264h-872zM743 1434h275l-191 -304h-209z" />
    <glyph glyph-name="lcaron" unicode="&#x13e;" horiz-adv-x="624" 
d="M260 1434h289l-252 -1434h-289zM688 1434h275l-191 -304h-209z" />
    <glyph glyph-name="Ldot" unicode="&#x13f;" horiz-adv-x="1103" 
d="M29 0l254 1434h307l-207 -1170h565l-47 -264h-872zM1051 903q43 -40 43 -106q0 -76 -52 -126t-124 -50q-70 0 -113 42t-43 107q0 75 52 124q53 50 126 50q67 0 111 -41z" />
    <glyph glyph-name="ldot" unicode="&#x140;" horiz-adv-x="776" 
d="M260 1434h289l-252 -1434h-289zM784 809q43 -40 43 -107q0 -76 -51 -125q-53 -51 -125 -51q-69 0 -112 42t-43 108q0 75 52 124q53 50 126 50q66 0 110 -41z" />
    <glyph glyph-name="Lslash" unicode="&#x141;" horiz-adv-x="1067" 
d="M408 264h565l-47 -264h-873l97 543l-164 -80l39 237l168 80l114 654h307l-86 -492l314 152l-41 -236l-316 -153z" />
    <glyph glyph-name="lslash" unicode="&#x142;" horiz-adv-x="632" 
d="M702 1022l-40 -250l-170 -70l-123 -702h-289l100 573l-166 -67l41 250l170 69l107 609h289l-84 -480z" />
    <glyph glyph-name="Nacute" unicode="&#x143;" horiz-adv-x="1429" 
d="M283 1434h270l448 -910l166 910h301l-251 -1434h-277l-446 903l-162 -903h-303zM766 1546l203 289h336l-320 -289h-219z" />
    <glyph glyph-name="nacute" unicode="&#x144;" horiz-adv-x="1202" 
d="M1031 978q108 -87 108 -276q0 -69 -15 -141l-98 -561h-289l99 559q10 59 10 107q0 77 -44 119t-126 42q-119 0 -190 -77q-73 -79 -97 -222l-92 -528h-289l185 1053h251l5 -119q131 131 315 131q159 0 267 -87zM666 1165l202 289h336l-319 -289h-219z" />
    <glyph glyph-name="Ncommaaccent" unicode="&#x145;" horiz-adv-x="1429" 
d="M283 1434h270l448 -910l166 910h301l-251 -1434h-277l-446 903l-162 -903h-303zM446 -98h287l-225 -301h-223z" />
    <glyph glyph-name="ncommaaccent" unicode="&#x146;" horiz-adv-x="1202" 
d="M1031 978q108 -87 108 -276q0 -69 -15 -141l-98 -561h-289l99 559q10 59 10 107q0 77 -44 119t-126 42q-119 0 -190 -77q-73 -79 -97 -222l-92 -528h-289l185 1053h251l5 -119q131 131 315 131q159 0 267 -87zM354 -98h287l-225 -301h-223z" />
    <glyph glyph-name="Ncaron" unicode="&#x147;" horiz-adv-x="1429" 
d="M283 1434h270l448 -910l166 910h301l-251 -1434h-277l-446 903l-162 -903h-303zM895 1714l152 121h270l-313 -291h-259l-210 291h260z" />
    <glyph glyph-name="ncaron" unicode="&#x148;" horiz-adv-x="1202" 
d="M1031 978q108 -87 108 -276q0 -69 -15 -141l-98 -561h-289l99 559q10 59 10 107q0 77 -44 119t-126 42q-119 0 -190 -77q-73 -79 -97 -222l-92 -528h-289l185 1053h251l5 -119q131 131 315 131q159 0 267 -87zM795 1333l151 121h271l-314 -291h-258l-211 291h260z" />
    <glyph glyph-name="napostrophe" unicode="&#x149;" horiz-adv-x="1646" 
d="M516 1388q49 -58 49 -157q0 -193 -119 -298q-120 -107 -317 -108l8 150q97 1 156 40q57 38 74 95q4 21 4 37q-21 -21 -56 -21q-55 0 -91 36t-36 102q0 16 2 30q8 63 63 108q55 44 128 44q86 0 135 -58zM1474 978q107 -86 107 -276q0 -74 -14 -141l-99 -561h-288l98 559
q10 59 10 107q0 77 -44 119t-126 42q-118 0 -189 -77q-74 -81 -98 -222l-92 -528h-288l184 1053h252l4 -119q131 131 315 131q160 0 268 -87z" />
    <glyph glyph-name="Eng" unicode="&#x14a;" horiz-adv-x="1429" 
d="M1468 1434l-268 -1520q-57 -324 -366 -324h-189l43 250h90q124 0 140 121l10 66l-434 876l-162 -903h-303l254 1434h270l448 -910l166 910h301z" />
    <glyph glyph-name="eng" unicode="&#x14b;" horiz-adv-x="1202" 
d="M1031 978q108 -87 108 -276q0 -69 -15 -141l-108 -612q-29 -185 -117 -272q-89 -87 -254 -87h-190l43 244h96q61 0 92 28q30 27 41 91l109 606q10 59 10 107q0 77 -44 119t-126 42q-119 0 -190 -77q-73 -79 -97 -222l-92 -528h-289l185 1053h251l2 -121q133 133 318 133
q159 0 267 -87z" />
    <glyph glyph-name="Omacron" unicode="&#x14c;" horiz-adv-x="1542" 
d="M1224 1367q141 -80 217 -219q77 -142 77 -317q0 -236 -102 -428q-103 -194 -286 -304q-184 -111 -421 -111q-184 0 -324 79q-143 81 -218 219q-77 142 -77 316q0 234 103 428t287 304q188 112 421 112q183 0 323 -79zM629 1105q-110 -80 -170 -214q-60 -133 -60 -285
q0 -98 41 -182q40 -82 116 -129t173 -47q144 0 252 81t168 213q59 130 59 283q0 155 -89 258t-236 103q-143 0 -254 -81zM639 1610l37 205h635l-35 -205h-637z" />
    <glyph glyph-name="omacron" unicode="&#x14d;" horiz-adv-x="1216" 
d="M291 49q-111 61 -172 169q-62 109 -62 241q0 184 76 320q77 137 215 211q140 75 324 75q144 0 254 -61q111 -61 172 -169q61 -107 61 -241q0 -185 -76 -321q-77 -137 -215 -211t-323 -74q-144 0 -254 61zM729 272q70 51 106 132q35 80 35 182q0 107 -61 175t-158 68
q-92 0 -162 -50q-68 -48 -106 -133q-37 -81 -37 -179q0 -105 62 -175q61 -69 159 -69q94 0 162 49zM412 1227l37 205h634l-34 -205h-637z" />
    <glyph glyph-name="Obreve" unicode="&#x14e;" horiz-adv-x="1542" 
d="M1224 1367q141 -80 217 -219q77 -142 77 -317q0 -236 -102 -428q-103 -194 -286 -304q-184 -111 -421 -111q-184 0 -324 79q-143 81 -218 219q-77 142 -77 316q0 234 103 428t287 304q188 112 421 112q183 0 323 -79zM629 1105q-110 -80 -170 -214q-60 -133 -60 -285
q0 -98 41 -182q40 -82 116 -129t173 -47q144 0 252 81t168 213q59 130 59 283q0 155 -89 258t-236 103q-143 0 -254 -81zM883 1837q0 -58 25 -86q26 -29 73 -29q55 0 89 33q33 32 44 82h201q-28 -142 -119 -222q-89 -79 -223 -79q-139 0 -215 84q-76 83 -76 217h201z" />
    <glyph glyph-name="obreve" unicode="&#x14f;" horiz-adv-x="1216" 
d="M291 49q-111 61 -172 169q-62 109 -62 241q0 184 76 320q77 137 215 211q140 75 324 75q144 0 254 -61q111 -61 172 -169q61 -107 61 -241q0 -185 -76 -321q-77 -137 -215 -211t-323 -74q-144 0 -254 61zM729 272q70 51 106 132q35 80 35 182q0 107 -61 175t-158 68
q-92 0 -162 -50q-68 -48 -106 -133q-37 -81 -37 -179q0 -105 62 -175q61 -69 159 -69q94 0 162 49zM655 1454q0 -57 26 -86t73 -29q54 0 89 33q33 32 44 82h200q-28 -143 -118 -222q-89 -79 -224 -79q-139 0 -215 84q-75 82 -75 217h200z" />
    <glyph glyph-name="Ohungarumlaut" unicode="&#x150;" horiz-adv-x="1542" 
d="M1224 1367q141 -80 217 -219q77 -142 77 -317q0 -236 -102 -428q-103 -194 -286 -304q-184 -111 -421 -111q-184 0 -324 79q-143 81 -218 219q-77 142 -77 316q0 234 103 428t287 304q188 112 421 112q183 0 323 -79zM629 1105q-110 -80 -170 -214q-60 -133 -60 -285
q0 -98 41 -182q40 -82 116 -129t173 -47q144 0 252 81t168 213q59 130 59 283q0 155 -89 258t-236 103q-143 0 -254 -81zM614 1542l203 295h322l-322 -295h-203zM1022 1542l205 295h319l-319 -295h-205z" />
    <glyph glyph-name="ohungarumlaut" unicode="&#x151;" horiz-adv-x="1216" 
d="M291 49q-111 61 -172 169q-62 109 -62 241q0 184 76 320q77 137 215 211q140 75 324 75q144 0 254 -61q111 -61 172 -169q61 -107 61 -241q0 -185 -76 -321q-77 -137 -215 -211t-323 -74q-144 0 -254 61zM729 272q70 51 106 132q35 80 35 182q0 107 -61 175t-158 68
q-92 0 -162 -50q-68 -48 -106 -133q-37 -81 -37 -179q0 -105 62 -175q61 -69 159 -69q94 0 162 49zM387 1159l203 295h321l-321 -295h-203zM795 1159l204 295h320l-320 -295h-204z" />
    <glyph glyph-name="OE" unicode="&#x152;" horiz-adv-x="2230" 
d="M1614 1169l-58 -321h523l-45 -252h-521l-59 -332h668l-47 -264h-975l24 137q-188 -149 -434 -149q-169 0 -305 79q-138 81 -217 217q-80 139 -80 312q0 231 106 428q105 194 287 308q183 114 404 114q142 0 252 -52t184 -149l33 189h950l-47 -265h-643zM981 329
q108 81 168 213q59 130 59 283q0 155 -89 258t-236 103q-143 0 -254 -81q-110 -80 -170 -214q-60 -133 -60 -285q0 -98 41 -182q40 -82 116 -129t173 -47q144 0 252 81z" />
    <glyph glyph-name="oe" unicode="&#x153;" horiz-adv-x="1959" 
d="M1126 424q0 -88 60 -153q60 -64 162 -64q94 0 146 37q54 38 87 112h285q-40 -163 -183 -267q-140 -101 -340 -101q-124 0 -221 41q-95 40 -157 114q-74 -74 -184 -115q-107 -40 -236 -40q-144 0 -254 61q-111 61 -172 169q-62 109 -62 241q0 184 76 320q77 137 215 211
q140 75 324 75q114 0 207 -41q90 -40 153 -115q156 156 402 156q147 0 252 -56q106 -57 163 -156q58 -101 58 -228q0 -92 -17 -166h-762q-2 -16 -2 -35zM1260 795q-68 -56 -95 -146h453q2 10 2 23q0 88 -54 133t-145 45q-94 0 -161 -55zM729 272q70 51 106 132q35 80 35 182
q0 107 -61 175t-158 68q-92 0 -162 -50q-68 -48 -106 -133q-37 -81 -37 -179q0 -105 62 -175q61 -69 159 -69q94 0 162 49z" />
    <glyph glyph-name="Racute" unicode="&#x154;" horiz-adv-x="1314" 
d="M1211 710q-86 -126 -236 -182l188 -528h-325l-164 481h-252l-86 -481h-307l254 1434h526q148 0 260 -56q111 -55 169 -151q58 -95 58 -215q0 -178 -85 -302zM467 737h238q126 0 203 68t77 186q0 90 -54 138q-55 49 -153 49h-235zM676 1546l203 289h335l-319 -289h-219z
" />
    <glyph glyph-name="racute" unicode="&#x155;" horiz-adv-x="770" 
d="M836 1053l-48 -262h-106q-123 0 -199 -79q-75 -78 -98 -206l-88 -506h-289l185 1053h262v-144q57 72 132 108t189 36h60zM438 1165l203 289h336l-320 -289h-219z" />
    <glyph glyph-name="Rcommaaccent" unicode="&#x156;" horiz-adv-x="1314" 
d="M1211 710q-86 -126 -236 -182l188 -528h-325l-164 481h-252l-86 -481h-307l254 1434h526q148 0 260 -56q111 -55 169 -151q58 -95 58 -215q0 -178 -85 -302zM467 737h238q126 0 203 68t77 186q0 90 -54 138q-55 49 -153 49h-235zM414 -98h286l-225 -301h-223z" />
    <glyph glyph-name="rcommaaccent" unicode="&#x157;" horiz-adv-x="770" 
d="M836 1053l-48 -262h-106q-123 0 -199 -79q-75 -78 -98 -206l-88 -506h-289l185 1053h262v-144q57 72 132 108t189 36h60zM-16 -98h286l-225 -301h-223z" />
    <glyph glyph-name="Rcaron" unicode="&#x158;" horiz-adv-x="1314" 
d="M1211 710q-86 -126 -236 -182l188 -528h-325l-164 481h-252l-86 -481h-307l254 1434h526q148 0 260 -56q111 -55 169 -151q58 -95 58 -215q0 -178 -85 -302zM467 737h238q126 0 203 68t77 186q0 90 -54 138q-55 49 -153 49h-235zM805 1714l151 121h271l-314 -291h-258
l-211 291h261z" />
    <glyph glyph-name="rcaron" unicode="&#x159;" horiz-adv-x="770" 
d="M836 1053l-48 -262h-106q-123 0 -199 -79q-75 -78 -98 -206l-88 -506h-289l185 1053h262v-144q57 72 132 108t189 36h60zM567 1333l152 121h270l-313 -291h-258l-211 291h260z" />
    <glyph glyph-name="Sacute" unicode="&#x15a;" horiz-adv-x="1267" 
d="M348 467q12 -114 85 -175t183 -61q121 0 189 46q69 47 69 133q0 69 -69 111q-70 43 -227 83q-196 51 -302 145q-104 92 -104 255q0 216 155 329t412 113q151 0 269 -53q116 -52 183 -154q66 -101 66 -240h-299q-6 88 -72 145q-65 56 -165 56q-106 0 -170 -44t-64 -126
q0 -65 62 -106q64 -42 215 -82q212 -55 320 -144t108 -241q0 -225 -164 -347t-428 -122q-168 0 -290 59q-124 60 -191 169q-68 110 -68 255zM692 1546l203 289h336l-320 -289h-219z" />
    <glyph glyph-name="sacute" unicode="&#x15b;" horiz-adv-x="1103" 
d="M925 979q126 -90 126 -254h-271q-1 64 -49 101q-47 36 -135 36q-94 0 -143 -29q-52 -31 -52 -81q0 -44 45 -65q48 -22 134 -34q194 -27 305 -89q114 -63 114 -214q0 -180 -141 -271q-140 -91 -364 -91q-208 0 -333 94q-126 94 -126 272h270q1 -79 56 -120q52 -39 143 -39
q102 0 158 30q55 30 55 90q0 45 -47 69q-44 23 -150 40q-120 21 -205 48q-83 27 -139 87q-55 59 -55 158q0 166 131 259q130 93 346 93q201 0 327 -90zM541 1165l202 289h336l-319 -289h-219z" />
    <glyph glyph-name="Scircumflex" unicode="&#x15c;" horiz-adv-x="1267" 
d="M348 467q12 -114 85 -175t183 -61q121 0 189 46q69 47 69 133q0 69 -69 111q-70 43 -227 83q-196 51 -302 145q-104 92 -104 255q0 216 155 329t412 113q151 0 269 -53q116 -52 183 -154q66 -101 66 -240h-299q-6 88 -72 145q-65 56 -165 56q-106 0 -170 -44t-64 -126
q0 -65 62 -106q64 -42 215 -82q212 -55 320 -144t108 -241q0 -225 -164 -347t-428 -122q-168 0 -290 59q-124 60 -191 169q-68 110 -68 255zM825 1665l-145 -121h-279l316 291h258l211 -291h-260z" />
    <glyph glyph-name="scircumflex" unicode="&#x15d;" horiz-adv-x="1103" 
d="M925 979q126 -90 126 -254h-271q-1 64 -49 101q-47 36 -135 36q-94 0 -143 -29q-52 -31 -52 -81q0 -44 45 -65q48 -22 134 -34q194 -27 305 -89q114 -63 114 -214q0 -180 -141 -271q-140 -91 -364 -91q-208 0 -333 94q-126 94 -126 272h270q1 -79 56 -120q52 -39 143 -39
q102 0 158 30q55 30 55 90q0 45 -47 69q-44 23 -150 40q-120 21 -205 48q-83 27 -139 87q-55 59 -55 158q0 166 131 259q130 93 346 93q201 0 327 -90zM674 1284l-146 -121h-278l315 291h258l211 -291h-260z" />
    <glyph glyph-name="Scedilla" unicode="&#x15e;" horiz-adv-x="1267" 
d="M1084 698q108 -89 108 -241q0 -216 -152 -338q-150 -120 -399 -131l-23 -49h17q82 -1 129 -44q47 -42 47 -106q0 -90 -71 -144q-72 -55 -177 -55h-233l24 140h178q32 0 51 15t19 42q0 43 -53 43h-131l71 166q-201 28 -320 155q-118 125 -118 320l297 -4q12 -114 85 -175
t183 -61q121 0 189 46q69 47 69 133q0 69 -69 111q-70 43 -227 83q-196 51 -302 145q-104 92 -104 255q0 216 155 329t412 113q151 0 269 -53q116 -52 183 -154q66 -101 66 -240h-299q-6 88 -72 145q-65 56 -165 56q-106 0 -170 -44t-64 -126q0 -65 62 -106q64 -42 215 -82
q212 -55 320 -144z" />
    <glyph glyph-name="scedilla" unicode="&#x15f;" horiz-adv-x="1103" 
d="M885 564q114 -63 114 -214q0 -169 -122 -258q-123 -90 -324 -102l-23 -53h17q81 -1 129 -45q47 -42 47 -105q0 -90 -71 -144q-72 -55 -177 -55h-233l24 140h178q32 0 51 15t19 42q0 43 -53 43h-131l71 166q-168 18 -268 110q-98 91 -98 250h270q1 -79 56 -120
q52 -39 143 -39q102 0 157 30q56 30 56 90q0 45 -47 69q-44 23 -150 40q-120 21 -205 48q-83 27 -139 87q-55 59 -55 158q0 166 131 259q130 93 346 93q201 0 327 -90t126 -254h-271q-1 64 -49 101q-47 36 -135 36q-94 0 -143 -29q-52 -31 -52 -81q0 -44 45 -65
q48 -22 134 -34q194 -27 305 -89z" />
    <glyph glyph-name="Scaron" unicode="&#x160;" horiz-adv-x="1267" 
d="M348 467q12 -114 85 -175t183 -61q121 0 189 46q69 47 69 133q0 69 -69 111q-70 43 -227 83q-196 51 -302 145q-104 92 -104 255q0 216 155 329t412 113q151 0 269 -53q116 -52 183 -154q66 -101 66 -240h-299q-6 88 -72 145q-65 56 -165 56q-106 0 -170 -44t-64 -126
q0 -65 62 -106q64 -42 215 -82q212 -55 320 -144t108 -241q0 -225 -164 -347t-428 -122q-168 0 -290 59q-124 60 -191 169q-68 110 -68 255zM821 1714l152 121h270l-313 -291h-258l-211 291h260z" />
    <glyph glyph-name="scaron" unicode="&#x161;" horiz-adv-x="1103" 
d="M925 979q126 -90 126 -254h-271q-1 64 -49 101q-47 36 -135 36q-94 0 -143 -29q-52 -31 -52 -81q0 -44 45 -65q48 -22 134 -34q194 -27 305 -89q114 -63 114 -214q0 -180 -141 -271q-140 -91 -364 -91q-208 0 -333 94q-126 94 -126 272h270q1 -79 56 -120q52 -39 143 -39
q102 0 158 30q55 30 55 90q0 45 -47 69q-44 23 -150 40q-120 21 -205 48q-83 27 -139 87q-55 59 -55 158q0 166 131 259q130 93 346 93q201 0 327 -90zM670 1333l151 121h271l-314 -291h-258l-211 291h260z" />
    <glyph glyph-name="uni0162" unicode="&#x162;" horiz-adv-x="1220" 
d="M205 1434h1130l-47 -265h-411l-207 -1169h-308l207 1169h-411zM350 -98h287l-225 -301h-224z" />
    <glyph glyph-name="uni0163" unicode="&#x163;" horiz-adv-x="729" 
d="M217 809h-174l43 244h174l53 295h289l-53 -295h239l-43 -244h-239l-82 -463l-4 -41q0 -31 18 -46t62 -15h157l-43 -244h-217q-132 0 -203 59q-73 61 -73 172q0 32 10 91zM184 -98h287l-225 -301h-223z" />
    <glyph glyph-name="Tcaron" unicode="&#x164;" horiz-adv-x="1220" 
d="M205 1434h1130l-47 -265h-411l-207 -1169h-308l207 1169h-411zM821 1714l152 121h270l-313 -291h-258l-211 291h260z" />
    <glyph glyph-name="tcaron" unicode="&#x165;" horiz-adv-x="770" 
d="M217 809h-174l43 244h174l53 295h289l-53 -295h239l-43 -244h-239l-82 -463l-4 -41q0 -31 18 -46t62 -15h157l-43 -244h-217q-132 0 -203 59q-73 61 -73 172q0 32 10 91zM776 1444h275l-191 -303h-209z" />
    <glyph glyph-name="Tbar" unicode="&#x166;" horiz-adv-x="1224" 
d="M1288 1169h-411l-66 -370h227l-37 -213h-227l-104 -586h-308l105 586h-221l37 213h221l65 370h-411l47 265h1130z" />
    <glyph glyph-name="tbar" unicode="&#x167;" horiz-adv-x="770" 
d="M520 809l-26 -147h241l-37 -211h-241l-21 -113q-2 -16 -2 -35q0 -33 18 -46q17 -13 64 -13h156l-43 -244h-230q-130 0 -196 59q-68 60 -68 172q0 19 8 80l25 140h-172l37 211h172l26 147h-174l43 244h174l54 295h288l-53 -295h242l-43 -244h-242z" />
    <glyph glyph-name="Utilde" unicode="&#x168;" horiz-adv-x="1394" 
d="M580 1434l-150 -842q-8 -74 -8 -96q0 -119 61 -181q61 -63 179 -63q141 0 219 91q77 90 110 269l144 822h307l-146 -826q-55 -312 -211 -466q-155 -154 -446 -154q-257 0 -390 124q-134 125 -134 353q0 75 16 164l141 805h308zM873 1823q35 -17 61 -41q20 -19 33 -25
q16 -8 32 -8q40 0 59 25q17 23 25 65l164 -10q-45 -262 -227 -262q-54 0 -80 13q-25 12 -59 42q-17 17 -32 26t-36 9q-69 0 -86 -90l-168 10q24 130 82 196q57 64 150 64q54 0 82 -14z" />
    <glyph glyph-name="utilde" unicode="&#x169;" horiz-adv-x="1193" 
d="M1186 1053l-185 -1053h-253l-5 117q-129 -129 -321 -129q-154 0 -255 85t-101 271q0 81 14 148l98 561h289l-98 -564q-13 -80 -13 -108q0 -76 43 -116t123 -40q114 0 186 83q72 82 99 231l90 514h289zM697 1442q35 -17 61 -41q20 -19 33 -25q16 -8 32 -8q40 0 59 25
q17 23 25 65l164 -10q-45 -262 -227 -262q-54 0 -80 13q-25 12 -59 42q-17 17 -32 26t-36 9q-69 0 -86 -90l-168 10q24 130 82 196q57 64 149 64q55 0 83 -14z" />
    <glyph glyph-name="Umacron" unicode="&#x16a;" horiz-adv-x="1394" 
d="M580 1434l-150 -842q-8 -74 -8 -96q0 -119 61 -181q61 -63 179 -63q141 0 219 91q77 90 110 269l144 822h307l-146 -826q-55 -312 -211 -466q-155 -154 -446 -154q-257 0 -390 124q-134 125 -134 353q0 75 16 164l141 805h308zM569 1608l37 204h635l-35 -204h-637z" />
    <glyph glyph-name="umacron" unicode="&#x16b;" horiz-adv-x="1193" 
d="M1186 1053l-185 -1053h-253l-5 117q-129 -129 -321 -129q-154 0 -255 85t-101 271q0 81 14 148l98 561h289l-98 -564q-13 -80 -13 -108q0 -76 43 -116t123 -40q114 0 186 83q72 82 99 231l90 514h289zM393 1227l37 205h635l-35 -205h-637z" />
    <glyph glyph-name="Ubreve" unicode="&#x16c;" horiz-adv-x="1394" 
d="M580 1434l-150 -842q-8 -74 -8 -96q0 -119 61 -181q61 -63 179 -63q141 0 219 91q77 90 110 269l144 822h307l-146 -826q-55 -312 -211 -466q-155 -154 -446 -154q-257 0 -390 124q-134 125 -134 353q0 75 16 164l141 805h308zM813 1835q0 -57 26 -86t72 -29q55 0 89 33
q33 32 44 82h201q-28 -142 -119 -222q-89 -79 -223 -79q-139 0 -215 84q-76 83 -76 217h201z" />
    <glyph glyph-name="ubreve" unicode="&#x16d;" horiz-adv-x="1193" 
d="M1186 1053l-185 -1053h-253l-5 117q-129 -129 -321 -129q-154 0 -255 85t-101 271q0 81 14 148l98 561h289l-98 -564q-13 -80 -13 -108q0 -76 43 -116t123 -40q114 0 186 83q72 82 99 231l90 514h289zM637 1454q0 -57 26 -86t72 -29q55 0 89 33q33 32 44 82h201
q-28 -142 -119 -222q-89 -79 -223 -79q-139 0 -215 84q-76 83 -76 217h201z" />
    <glyph glyph-name="Uring" unicode="&#x16e;" horiz-adv-x="1394" 
d="M580 1434l-150 -842q-8 -74 -8 -96q0 -119 61 -181q61 -63 179 -63q141 0 219 91q77 90 110 269l144 822h307l-146 -826q-55 -312 -211 -466q-155 -154 -446 -154q-257 0 -390 124q-134 125 -134 353q0 75 16 164l141 805h308zM667 1799q78 73 189 73q112 0 190 -73
q76 -72 76 -175q0 -104 -76 -176t-190 -72q-112 0 -189 72t-77 176q0 103 77 175zM941 1708q-37 35 -85 35q-50 0 -84 -34q-35 -35 -35 -85q0 -51 35 -86t84 -35q48 0 85 35q36 34 36 86q0 50 -36 84z" />
    <glyph glyph-name="uring" unicode="&#x16f;" horiz-adv-x="1193" 
d="M1186 1053l-185 -1053h-253l-5 117q-129 -129 -321 -129q-154 0 -255 85t-101 271q0 81 14 148l98 561h289l-98 -564q-13 -80 -13 -108q0 -76 43 -116t123 -40q114 0 186 83q72 82 99 231l90 514h289zM546 1555q78 73 189 73q112 0 190 -73q76 -72 76 -175
q0 -104 -76 -176q-75 -71 -190 -71q-114 0 -189 71q-77 72 -77 176q0 103 77 175zM820 1464q-37 35 -85 35q-50 0 -84 -34q-35 -35 -35 -85q0 -51 35 -86q34 -34 84 -34t85 34q36 34 36 86q0 50 -36 84z" />
    <glyph glyph-name="Uhungarumlaut" unicode="&#x170;" horiz-adv-x="1394" 
d="M580 1434l-150 -842q-8 -74 -8 -96q0 -119 61 -181q61 -63 179 -63q141 0 219 91q77 90 110 269l144 822h307l-146 -826q-55 -312 -211 -466q-155 -154 -446 -154q-257 0 -390 124q-134 125 -134 353q0 75 16 164l141 805h308zM545 1540l203 295h321l-321 -295h-203z
M952 1540l205 295h320l-320 -295h-205z" />
    <glyph glyph-name="uhungarumlaut" unicode="&#x171;" horiz-adv-x="1193" 
d="M1186 1053l-185 -1053h-253l-5 117q-129 -129 -321 -129q-154 0 -255 85t-101 271q0 81 14 148l98 561h289l-98 -564q-13 -80 -13 -108q0 -76 43 -116t123 -40q114 0 186 83q72 82 99 231l90 514h289zM369 1159l202 295h322l-322 -295h-202zM776 1159l205 295h319
l-319 -295h-205z" />
    <glyph glyph-name="Uogonek" unicode="&#x172;" horiz-adv-x="1394" 
d="M1442 1434l-146 -826q-50 -273 -173 -425q-124 -152 -347 -185q-91 -38 -150 -84q-57 -45 -57 -84q0 -24 14 -36q12 -11 44 -11h133l-33 -193h-176q-99 0 -159 45t-60 138q0 68 37 124t106 107q-176 35 -268 154t-92 307q0 75 16 164l141 805h308l-150 -842
q-8 -74 -8 -96q0 -119 61 -181q61 -63 179 -63q141 0 219 91q77 90 110 269l144 822h307z" />
    <glyph glyph-name="uogonek" unicode="&#x173;" horiz-adv-x="1193" 
d="M847 -85q-59 -47 -59 -85q0 -24 14 -36q12 -11 44 -11h133l-33 -193h-176q-99 0 -159 45t-60 138q0 78 50 142q49 62 144 124l-2 78q-129 -129 -321 -129q-154 0 -255 85t-101 271q0 81 14 148l98 561h289l-98 -564q-13 -80 -13 -108q0 -76 43 -116t123 -40q114 0 186 83
q72 82 99 231l90 514h289l-185 -1053q-96 -39 -154 -85z" />
    <glyph glyph-name="Wcircumflex" unicode="&#x174;" horiz-adv-x="2002" 
d="M172 1434l315 2l74 -1049l461 1047h276l78 -1047l457 1047h317l-649 -1434h-356l-70 952l-405 -952h-355zM1200 1665l-145 -121h-279l316 291h258l211 -291h-261z" />
    <glyph glyph-name="wcircumflex" unicode="&#x175;" horiz-adv-x="1679" 
d="M92 1053h301l80 -742l332 742h258l59 -744l351 744h299l-533 -1053h-307l-70 635l-303 -635h-307zM981 1284l-145 -121h-279l315 291h258l211 -291h-260z" />
    <glyph glyph-name="Ycircumflex" unicode="&#x176;" horiz-adv-x="1351" 
d="M1165 1434h346l-680 -902l-100 -532h-303l96 532l-362 902h342l215 -603zM887 1665l-146 -121h-278l315 291h258l211 -291h-260z" />
    <glyph glyph-name="ycircumflex" unicode="&#x177;" horiz-adv-x="1118" 
d="M393 1053l119 -756l385 756h313l-678 -1213q-77 -137 -146 -193q-70 -57 -189 -57h-275l43 244h152q54 0 88 20q33 19 61 70l39 70l-215 1059h303zM692 1284l-145 -121h-279l316 291h258l211 -291h-260z" />
    <glyph glyph-name="Ydieresis" unicode="&#x178;" horiz-adv-x="1351" 
d="M1165 1434h346l-680 -902l-100 -532h-303l96 532l-362 902h342l215 -603zM786 1821q41 -39 41 -101q0 -67 -48 -112t-115 -45q-64 0 -104 40t-40 99q0 68 47 113t115 45q64 0 104 -39zM1217 1821q40 -39 40 -101q0 -67 -48 -112t-115 -45q-64 0 -104 40t-40 99
q0 68 47 113t115 45q64 0 105 -39z" />
    <glyph glyph-name="Zacute" unicode="&#x179;" horiz-adv-x="1273" 
d="M236 1434h1124l-33 -203l-891 -969h738l-48 -262h-1161l33 203l889 968h-699zM717 1546l203 289h335l-319 -289h-219z" />
    <glyph glyph-name="zacute" unicode="&#x17a;" horiz-adv-x="1024" 
d="M164 1053h887l-31 -197l-631 -612h543l-43 -244h-934l31 197l630 612h-495zM520 1165l203 289h336l-320 -289h-219z" />
    <glyph glyph-name="Zdotaccent" unicode="&#x17b;" horiz-adv-x="1273" 
d="M236 1434h1124l-33 -203l-891 -969h738l-48 -262h-1161l33 203l889 968h-699zM977 1851q43 -40 43 -106q0 -77 -51 -126q-52 -50 -125 -50q-70 0 -113 42t-43 107q0 75 52 124q53 50 126 50q67 0 111 -41z" />
    <glyph glyph-name="zdotaccent" unicode="&#x17c;" horiz-adv-x="1024" 
d="M164 1053h887l-31 -197l-631 -612h543l-43 -244h-934l31 197l630 612h-495zM780 1470q43 -40 43 -106q0 -76 -51 -126q-52 -50 -125 -50q-69 0 -112 42t-43 107q0 75 52 124q53 50 126 50q66 0 110 -41z" />
    <glyph glyph-name="Zcaron" unicode="&#x17d;" horiz-adv-x="1273" 
d="M236 1434h1124l-33 -203l-891 -969h738l-48 -262h-1161l33 203l889 968h-699zM846 1714l151 121h271l-314 -291h-258l-211 291h260z" />
    <glyph glyph-name="zcaron" unicode="&#x17e;" horiz-adv-x="1024" 
d="M164 1053h887l-31 -197l-631 -612h543l-43 -244h-934l31 197l630 612h-495zM649 1333l152 121h270l-313 -291h-258l-211 291h260z" />
    <glyph glyph-name="florin" unicode="&#x192;" horiz-adv-x="985" 
d="M780 1085l-80 -301h220l-37 -213h-240l-137 -518q-35 -136 -120 -203t-230 -67h-258l43 246h172q48 0 78 26q34 29 45 76l116 440h-211l37 213h230l100 379q38 136 121 203q85 68 229 68h258l-43 -246h-170q-100 0 -123 -103z" />
    <glyph glyph-name="AEacute" unicode="&#x1fc;" horiz-adv-x="2039" 
d="M2105 1835l-319 -289h-219l202 289h336zM2066 1169h-643l-57 -321h522l-45 -252h-520l-59 -332h667l-47 -264h-975l54 303h-502l-234 -303h-331l1093 1434h1125zM647 551h361l108 620z" />
    <glyph glyph-name="aeacute" unicode="&#x1fd;" horiz-adv-x="1863" 
d="M907 1145l203 289h336l-320 -289h-219zM623 1065q122 0 214 -34q95 -35 146 -99q146 133 354 133q147 0 252 -56q107 -57 164 -156t57 -228q0 -99 -18 -166h-762l-2 -35q0 -87 61 -153q60 -64 162 -64q93 0 145 37q54 38 87 112h286q-40 -167 -182 -268
q-140 -100 -342 -100q-146 0 -248 60q-101 60 -157 165q-63 -111 -182 -168q-118 -57 -261 -57q-172 0 -276 74q-105 75 -105 219q0 183 129 275q128 91 365 91h254l6 39q6 24 6 51q0 56 -46 86q-48 31 -122 31q-98 0 -144 -33t-67 -96h-280q88 340 506 340zM1164 794
q-69 -57 -93 -145h453q2 10 2 23q0 87 -55 133q-54 45 -144 45q-95 0 -163 -56zM516 455q-105 0 -156 -36t-51 -110q0 -53 39 -83q38 -29 98 -29q118 0 189 67q71 66 92 174l2 17h-213z" />
    <glyph glyph-name="Scommaaccent" unicode="&#x218;" horiz-adv-x="1267" 
d="M348 467q12 -114 85 -175t183 -61q121 0 189 46q69 47 69 133q0 69 -69 111q-70 43 -227 83q-196 51 -302 145q-104 92 -104 255q0 216 155 329t412 113q151 0 269 -53q116 -52 183 -154q66 -101 66 -240h-299q-6 88 -72 145q-65 56 -165 56q-106 0 -170 -44t-64 -126
q0 -65 62 -106q64 -42 215 -82q212 -55 320 -144t108 -241q0 -225 -164 -347t-428 -122q-168 0 -290 59q-124 60 -191 169q-68 110 -68 255zM389 -98h287l-225 -301h-224z" />
    <glyph glyph-name="scommaaccent" unicode="&#x219;" horiz-adv-x="1103" 
d="M925 979q126 -90 126 -254h-271q-1 64 -49 101q-47 36 -135 36q-94 0 -143 -29q-52 -31 -52 -81q0 -44 45 -65q48 -22 134 -34q194 -27 305 -89q114 -63 114 -214q0 -180 -141 -271q-140 -91 -364 -91q-208 0 -333 94q-126 94 -126 272h270q1 -79 56 -120q52 -39 143 -39
q102 0 158 30q55 30 55 90q0 45 -47 69q-44 23 -150 40q-120 21 -205 48q-83 27 -139 87q-55 59 -55 158q0 166 131 259q130 93 346 93q201 0 327 -90zM301 -100h287l-226 -301h-223z" />
    <glyph glyph-name="uni021A" unicode="&#x21a;" horiz-adv-x="1220" 
d="M205 1434h1130l-47 -265h-411l-207 -1169h-308l207 1169h-411zM350 -98h287l-225 -301h-224z" />
    <glyph glyph-name="uni021B" unicode="&#x21b;" horiz-adv-x="729" 
d="M217 809h-174l43 244h174l53 295h289l-53 -295h239l-43 -244h-239l-82 -463l-4 -41q0 -31 18 -46t62 -15h157l-43 -244h-217q-132 0 -203 59q-73 61 -73 172q0 32 10 91zM184 -98h287l-225 -301h-223z" />
    <glyph glyph-name="uni0237" unicode="&#x237;" horiz-adv-x="499" 
d="M-123 -166q62 0 92 32q31 32 41 95l195 1092h289l-205 -1153q-24 -150 -113 -230t-235 -80h-201l43 244h94z" />
    <glyph glyph-name="uni02BC" unicode="&#x2bc;" horiz-adv-x="774" 
d="M455 1434h274l-190 -304h-209z" />
    <glyph glyph-name="circumflex" unicode="&#x2c6;" horiz-adv-x="819" 
d="M547 1264l-146 -121h-278l315 291h258l211 -291h-260z" />
    <glyph glyph-name="caron" unicode="&#x2c7;" horiz-adv-x="819" 
d="M543 1313l151 121h271l-314 -291h-258l-211 291h260z" />
    <glyph glyph-name="breve" unicode="&#x2d8;" horiz-adv-x="819" 
d="M455 1434q0 -58 25 -86q26 -29 73 -29q55 0 89 33q33 32 44 82h201q-28 -143 -119 -223q-88 -78 -223 -78q-139 0 -215 84q-76 83 -76 217h201z" />
    <glyph glyph-name="dotaccent" unicode="&#x2d9;" horiz-adv-x="819" 
d="M674 1450q43 -40 43 -107q0 -75 -51 -125q-53 -51 -125 -51q-69 0 -113 42q-43 42 -43 108q0 75 52 124q53 50 126 50q67 0 111 -41z" />
    <glyph glyph-name="ring" unicode="&#x2da;" horiz-adv-x="819" 
d="M364 1535q78 73 189 73t189 -73q77 -72 77 -175q0 -104 -77 -176q-76 -72 -189 -72t-189 72q-77 72 -77 176q0 103 77 175zM638 1444q-37 35 -85 35q-50 0 -84 -34q-35 -35 -35 -85q0 -51 35 -86t84 -35q48 0 85 35q36 34 36 86q0 50 -36 84z" />
    <glyph glyph-name="ogonek" unicode="&#x2db;" horiz-adv-x="819" 
d="M-89 -78q57 66 159 129l235 -51q-96 -39 -154 -85q-59 -47 -59 -85q0 -24 13 -36q12 -11 45 -11h133l-33 -193h-176q-99 0 -159 45t-60 138q0 84 56 149z" />
    <glyph glyph-name="tilde" unicode="&#x2dc;" horiz-adv-x="819" 
d="M515 1421q33 -16 60 -41q18 -16 33 -24q16 -8 33 -8q40 0 58 24t26 66l164 -11q-45 -262 -227 -262q-52 0 -80 14q-27 13 -60 42q-14 15 -32 25q-15 9 -35 9q-69 0 -86 -90l-168 11q24 129 82 195q57 65 149 65q53 0 83 -15z" />
    <glyph glyph-name="hungarumlaut" unicode="&#x2dd;" horiz-adv-x="821" 
d="M186 1139l203 295h322l-322 -295h-203zM594 1139l205 295h319l-319 -295h-205z" />
    <glyph glyph-name="gravecomb" unicode="&#x300;" horiz-adv-x="0" 
d="M-616 1434h321l92 -295h-211z" />
    <glyph glyph-name="acutecomb" unicode="&#x301;" horiz-adv-x="0" 
d="M-406 1145l203 289h336l-319 -289h-220z" />
    <glyph glyph-name="uni0302" unicode="&#x302;" horiz-adv-x="0" 
d="M-272 1264l-146 -121h-278l315 291h258l211 -291h-260z" />
    <glyph glyph-name="tildecomb" unicode="&#x303;" horiz-adv-x="0" 
d="M-304 1421q33 -16 60 -41q18 -16 33 -24q16 -8 33 -8q40 0 58 24t26 66l164 -11q-45 -262 -228 -262q-52 0 -80 14q-25 12 -59 42q-14 15 -32 25q-15 9 -36 9q-70 0 -86 -90l-167 11q24 130 81 195t150 65q53 0 83 -15z" />
    <glyph glyph-name="uni0304" unicode="&#x304;" horiz-adv-x="0" 
d="M-608 1206l37 205h634l-34 -205h-637z" />
    <glyph glyph-name="uni0306" unicode="&#x306;" horiz-adv-x="0" 
d="M-365 1434q0 -57 26 -86t73 -29q54 0 89 33q33 32 44 82h201q-28 -143 -119 -223q-88 -78 -223 -78q-138 0 -215 84q-76 83 -76 217h200z" />
    <glyph glyph-name="uni0307" unicode="&#x307;" horiz-adv-x="0" 
d="M-145 1450q43 -40 43 -107q0 -75 -52 -125q-53 -51 -125 -51q-69 0 -112 42t-43 108q0 75 52 124q53 50 126 50q67 0 111 -41z" />
    <glyph glyph-name="uni0308" unicode="&#x308;" horiz-adv-x="0" 
d="M-373 1419q41 -39 41 -100q0 -68 -48 -113t-116 -45q-63 0 -103 40t-40 99q0 68 47 113q46 45 115 45q63 0 104 -39zM57 1419q41 -39 41 -100q0 -68 -48 -113t-116 -45q-63 0 -103 40t-40 99q0 68 47 113t115 45q63 0 104 -39z" />
    <glyph glyph-name="uni030A" unicode="&#x30a;" horiz-adv-x="0" 
d="M-456 1535q78 73 190 73q111 0 189 -73q77 -72 77 -175q0 -104 -77 -176t-189 -72q-114 0 -190 72t-76 176q0 103 76 175zM-181 1444q-37 35 -85 35q-50 0 -84 -34q-35 -35 -35 -85q0 -51 35 -86t84 -35q48 0 85 35q36 34 36 86q0 50 -36 84z" />
    <glyph glyph-name="uni030B" unicode="&#x30b;" horiz-adv-x="0" 
d="M-633 1139l203 295h321l-321 -295h-203zM-225 1139l205 295h319l-319 -295h-205z" />
    <glyph glyph-name="uni030C" unicode="&#x30c;" horiz-adv-x="0" 
d="M-276 1313l151 121h270l-313 -291h-258l-211 291h260z" />
    <glyph glyph-name="uni0312" unicode="&#x312;" horiz-adv-x="0" 
d="M-176 1135h-287l225 299h224z" />
    <glyph glyph-name="uni0326" unicode="&#x326;" horiz-adv-x="0" 
d="M-670 -98h287l-225 -301h-223z" />
    <glyph glyph-name="uni0327" unicode="&#x327;" horiz-adv-x="0" 
d="M-399 66l-56 -127h17q82 -1 129 -44q47 -42 47 -106q0 -90 -71 -144q-72 -55 -177 -55h-233l24 140h178q31 0 51 15q19 15 19 42q0 43 -53 43h-131l102 236h154z" />
    <glyph glyph-name="uni0328" unicode="&#x328;" horiz-adv-x="0" 
d="M-908 -78q58 67 158 129l236 -51q-98 -40 -155 -85q-58 -46 -58 -85q0 -24 13 -36q12 -11 44 -11h133l-32 -193h-176q-99 0 -159 45q-61 46 -61 138q0 83 57 149z" />
    <glyph glyph-name="pi" unicode="&#x3c0;" horiz-adv-x="1273" 
d="M1341 1053l-43 -246h-135l-141 -807h-289l141 807h-378l-142 -807h-288l143 807h-133l41 246h1224z" />
    <glyph glyph-name="uni0E3F" unicode="&#xe3f;" horiz-adv-x="1331" 
d="M1158 635q75 -73 75 -199q0 -215 -165 -323q-166 -109 -433 -113l-35 -199h-162l35 199h-444l254 1434h444l37 211h160l-37 -213q191 -15 296 -108t105 -243q0 -301 -340 -352q136 -21 210 -94zM535 1192l-64 -348h152l61 348h-149zM965 1145q-40 39 -121 45l-62 -346
q104 5 163 58q61 55 61 140q0 64 -41 103zM367 244h149l64 362h-150zM869 298q69 54 69 153q0 69 -50 111t-147 44l-63 -362q122 0 191 54z" />
    <glyph glyph-name="Wgrave" unicode="&#x1e80;" horiz-adv-x="2002" 
d="M172 1434l315 2l74 -1049l461 1047h276l78 -1047l457 1047h317l-649 -1434h-356l-70 952l-405 -952h-355zM856 1835h322l92 -295h-211z" />
    <glyph glyph-name="wgrave" unicode="&#x1e81;" horiz-adv-x="1679" 
d="M92 1053h301l80 -742l332 742h258l59 -744l351 744h299l-533 -1053h-307l-70 635l-303 -635h-307zM637 1454h321l93 -295h-211z" />
    <glyph glyph-name="Wacute" unicode="&#x1e82;" horiz-adv-x="2002" 
d="M172 1434l315 2l74 -1049l461 1047h276l78 -1047l457 1047h317l-649 -1434h-356l-70 952l-405 -952h-355zM1067 1546l203 289h336l-320 -289h-219z" />
    <glyph glyph-name="wacute" unicode="&#x1e83;" horiz-adv-x="1679" 
d="M92 1053h301l80 -742l332 742h258l59 -744l351 744h299l-533 -1053h-307l-70 635l-303 -635h-307zM848 1165l203 289h335l-319 -289h-219z" />
    <glyph glyph-name="Wdieresis" unicode="&#x1e84;" horiz-adv-x="2002" 
d="M172 1434l315 2l74 -1049l461 1047h276l78 -1047l457 1047h317l-649 -1434h-356l-70 952l-405 -952h-355zM1100 1821q41 -39 41 -101q0 -67 -48 -112t-116 -45q-64 0 -104 40q-39 39 -39 99q0 68 47 113t114 45q65 0 105 -39zM1530 1821q41 -39 41 -101q0 -67 -48 -112
t-116 -45q-63 0 -103 40t-40 99q0 68 47 113t114 45q65 0 105 -39z" />
    <glyph glyph-name="wdieresis" unicode="&#x1e85;" horiz-adv-x="1679" 
d="M92 1053h301l80 -742l332 742h258l59 -744l351 744h299l-533 -1053h-307l-70 635l-303 -635h-307zM881 1440q41 -39 41 -101q0 -66 -49 -112q-48 -45 -115 -45q-64 0 -104 40t-40 99q0 67 48 113q46 45 114 45q64 0 105 -39zM1311 1440q41 -39 41 -101q0 -67 -48 -112
t-116 -45q-64 0 -104 40t-40 99q0 67 48 113q46 45 114 45q64 0 105 -39z" />
    <glyph glyph-name="Ygrave" unicode="&#x1ef2;" horiz-adv-x="1351" 
d="M1165 1434h346l-680 -902l-100 -532h-303l96 532l-362 902h342l215 -603zM543 1835h321l92 -295h-211z" />
    <glyph glyph-name="ygrave" unicode="&#x1ef3;" horiz-adv-x="1118" 
d="M393 1053l119 -756l385 756h313l-678 -1213q-77 -137 -146 -193q-70 -57 -189 -57h-275l43 244h152q54 0 88 20q33 19 61 70l39 70l-215 1059h303zM348 1454h322l92 -295h-211z" />
    <glyph glyph-name="endash" unicode="&#x2013;" 
d="M70 465l41 233h1067l-41 -233h-1067z" />
    <glyph glyph-name="emdash" unicode="&#x2014;" horiz-adv-x="1892" 
d="M111 700h1732l-43 -233h-1730z" />
    <glyph glyph-name="quoteleft" unicode="&#x2018;" horiz-adv-x="507" 
d="M207 884q-49 58 -49 156q0 193 118 298q120 107 318 108l-8 -150q-97 -1 -156 -40q-57 -38 -74 -95q-4 -21 -4 -37q21 21 56 21q55 0 91 -36t36 -101q0 -10 -3 -31q-8 -64 -62 -108q-55 -44 -128 -44q-85 0 -135 59z" />
    <glyph glyph-name="quoteright" unicode="&#x2019;" horiz-adv-x="507" 
d="M516 1388q49 -58 49 -157q0 -193 -119 -298q-120 -107 -317 -108l8 150q97 1 156 40q57 38 74 95q4 21 4 37q-21 -21 -56 -21q-55 0 -91 36t-36 102q0 16 2 30q8 63 63 108q55 44 128 44q86 0 135 -58z" />
    <glyph glyph-name="quotesinglbase" unicode="&#x201a;" horiz-adv-x="507" 
d="M317 265q50 -59 50 -156q0 -193 -119 -298q-120 -107 -318 -108l9 150q98 1 155 39t74 96q4 21 4 37q-21 -21 -55 -21q-55 0 -91 36t-36 101q0 17 2 31q8 64 62 108q55 44 128 44q85 0 135 -59z" />
    <glyph glyph-name="quotedblleft" unicode="&#x201c;" horiz-adv-x="950" 
d="M207 884q-49 58 -49 156q0 193 118 298q120 107 318 108l-8 -150q-97 -1 -156 -40q-57 -38 -74 -95q-4 -21 -4 -37q21 21 56 21q55 0 91 -36t36 -101q0 -10 -3 -31q-8 -64 -62 -108q-55 -44 -128 -44q-85 0 -135 59zM651 884q-49 58 -49 156q0 193 119 298
q120 107 317 108l-8 -150q-97 -1 -156 -40q-56 -37 -73 -95q-4 -21 -4 -37q21 21 55 21q55 0 91 -36t36 -101q0 -17 -2 -31q-8 -63 -63 -108q-55 -44 -128 -44q-85 0 -135 59z" />
    <glyph glyph-name="quotedblright" unicode="&#x201d;" horiz-adv-x="950" 
d="M516 1388q49 -58 49 -157q0 -193 -119 -298q-120 -107 -317 -108l8 150q97 1 156 40q57 38 74 95q4 21 4 37q-21 -21 -56 -21q-55 0 -91 36t-36 102q0 16 2 30q8 63 63 108q55 44 128 44q86 0 135 -58zM961 1388q49 -58 49 -157q0 -193 -119 -298q-120 -107 -318 -108
l9 150q96 1 155 40q57 38 74 95q4 21 4 37q-21 -21 -55 -21q-55 0 -91 36t-36 102q0 16 2 30q8 64 62 108q55 44 128 44q87 0 136 -58z" />
    <glyph glyph-name="quotedblbase" unicode="&#x201e;" horiz-adv-x="950" 
d="M317 265q50 -59 50 -156q0 -193 -119 -298q-120 -107 -318 -108l9 150q98 1 155 39t74 96q4 21 4 37q-21 -21 -55 -21q-55 0 -91 36t-36 101q0 17 2 31q8 64 62 108q55 44 128 44q85 0 135 -59zM762 265q49 -58 49 -156q0 -193 -119 -298q-120 -107 -317 -108l8 150
q99 1 156 39q56 37 73 96q4 21 4 37q-21 -21 -55 -21q-55 0 -91 36t-36 101q0 17 2 31q8 63 63 108q55 44 128 44q85 0 135 -59z" />
    <glyph glyph-name="dagger" unicode="&#x2020;" horiz-adv-x="1062" 
d="M1102 1038l-43 -235h-350l-142 -803h-258l142 803h-353l43 235h353l69 396h256l-69 -396h352z" />
    <glyph glyph-name="daggerdbl" unicode="&#x2021;" horiz-adv-x="1161" 
d="M1139 881h-367l-57 -328h368l-41 -234h-368l-58 -319h-258l58 319h-369l41 234h369l57 328h-369l43 233h367l57 320h258l-57 -320h369z" />
    <glyph glyph-name="bullet" unicode="&#x2022;" horiz-adv-x="915" 
d="M587 786q40 -37 40 -94q0 -61 -42 -103t-104 -42q-60 0 -97 37q-38 38 -38 92q0 66 40 106q41 41 101 41t100 -37z" />
    <glyph glyph-name="ellipsis" unicode="&#x2026;" horiz-adv-x="1474" 
d="M318 285q44 -44 44 -113q0 -79 -55 -131q-56 -53 -133 -53q-72 0 -115 43t-43 110q0 81 55 134t132 53q72 0 115 -43zM802 285q44 -44 44 -113q0 -79 -55 -131q-56 -53 -134 -53q-71 0 -114 43t-43 110q0 81 54 134q55 53 132 53q73 0 116 -43zM1285 285q44 -44 44 -113
q0 -79 -55 -131q-56 -53 -133 -53q-72 0 -115 43t-43 110q0 81 54 134q55 53 132 53q73 0 116 -43z" />
    <glyph glyph-name="perthousand" unicode="&#x2030;" horiz-adv-x="2738" 
d="M852 1361q92 -86 92 -220q0 -113 -57 -205t-154 -145q-99 -54 -211 -54q-149 0 -240 85q-92 86 -92 220q0 114 57 205q59 95 152 146q97 53 211 53q151 0 242 -85zM227 0l1235 1434h291l-1235 -1434h-291zM469 1184q-51 -52 -51 -125q0 -50 34 -81q35 -32 85 -32
q76 0 128 52t52 126q0 50 -34 81q-35 32 -85 32q-78 0 -129 -53zM1700 611q92 -86 92 -220q0 -113 -57 -205t-154 -145t-211 -53q-151 0 -242 85q-92 86 -92 220q0 112 58 205t153 145q97 53 211 53q151 0 242 -85zM2522 611q91 -85 91 -222q0 -113 -56 -203
q-58 -93 -154 -145q-98 -53 -212 -53q-149 0 -240 85t-91 220q0 113 57 205t154 145t210 53q150 0 241 -85zM1316 434q-52 -52 -52 -125q0 -51 33 -81q34 -31 87 -31q74 0 126 52q53 53 53 126q0 50 -34 81t-85 31q-75 0 -128 -53zM2138 434q-51 -53 -51 -125q0 -50 34 -81
t85 -31q76 0 128 52t52 126q0 50 -34 81t-85 31q-78 0 -129 -53z" />
    <glyph glyph-name="guilsinglleft" unicode="&#x2039;" horiz-adv-x="731" 
d="M760 1053l-404 -527l209 -526h-282l-220 526l400 527h297z" />
    <glyph glyph-name="guilsinglright" unicode="&#x203a;" horiz-adv-x="731" 
d="M-29 0l404 526l-209 527h283l219 -527l-400 -526h-297z" />
    <glyph glyph-name="uni2042" unicode="&#x2042;" horiz-adv-x="2015" 
d="M1462 1204l-250 -84l131 -178l-165 -129l-115 215l-193 -213l-133 129l193 178l-221 86l110 181l193 -107l35 234h194l-51 -236l221 106zM834 293l-250 -84l131 -178l-166 -129l-115 215l-192 -213l-133 129l192 178l-221 86l110 180l193 -106l35 233h194l-51 -235
l221 106zM1851 293l-249 -84l131 -178l-166 -129l-115 215l-192 -213l-134 129l193 178l-221 86l110 180l193 -106l35 233h194l-51 -235l221 106z" />
    <glyph glyph-name="fraction" unicode="&#x2044;" horiz-adv-x="401" 
d="M-465 0l1161 1434h238l-1161 -1434h-238z" />
    <glyph glyph-name="uni2051" unicode="&#x2051;" horiz-adv-x="1003" 
d="M999 1204l-249 -84l131 -178l-166 -129l-115 215l-192 -213l-134 129l193 178l-221 86l110 181l193 -107l35 234h194l-51 -236l221 106zM831 287l-249 -84l131 -178l-166 -129l-115 215l-192 -213l-134 129l193 178l-221 86l110 180l193 -106l35 233h194l-51 -236
l221 107z" />
    <glyph glyph-name="uni2070" unicode="&#x2070;" horiz-adv-x="710" 
d="M740 1571q73 -84 73 -223q0 -128 -45 -234q-44 -105 -131 -169q-84 -62 -203 -62q-134 0 -206 82t-72 223q0 124 45 231t131 170q87 64 203 64q133 0 205 -82zM430 1435q-38 -46 -58 -114q-20 -69 -20 -129q0 -62 26 -100q25 -37 66 -37q84 0 129 93t45 195q0 67 -25 102
q-25 36 -69 36q-55 0 -94 -46z" />
    <glyph glyph-name="uni2074" unicode="&#x2074;" horiz-adv-x="722" 
d="M528 1638h246l-74 -415h111l-29 -166h-110l-29 -164h-192l28 164h-352l29 170zM553 1450l-205 -227h162z" />
    <glyph glyph-name="uni2075" unicode="&#x2075;" horiz-adv-x="651" 
d="M741 1468h-354l-27 -118q52 45 138 45q104 0 166 -60q61 -60 61 -155q0 -135 -89 -218t-226 -83q-125 0 -193 68t-67 173h184q2 -35 26 -53t60 -18q53 0 83 33q32 35 32 83q0 36 -24 57t-60 21q-34 0 -60 -16q-25 -15 -41 -41h-180l94 450h508z" />
    <glyph glyph-name="uni2076" unicode="&#x2076;" horiz-adv-x="677" 
d="M726 1588q72 -65 71 -165h-183q-2 42 -26 60t-64 18q-64 0 -111 -48t-63 -130l-6 -27q30 39 76 62q44 22 102 22q106 0 169 -57t63 -156q0 -125 -89 -205q-88 -79 -233 -79q-130 0 -202 82t-72 217q0 124 47 233q47 108 134 173q88 65 202 65q112 0 185 -65zM389 1201
q-35 -35 -35 -85q0 -38 25 -60t65 -22q54 0 88 33q35 33 35 84q0 39 -24 61q-25 23 -66 23q-54 0 -88 -34z" />
    <glyph glyph-name="uni2077" unicode="&#x2077;" horiz-adv-x="616" 
d="M227 1638h557l-22 -155l-389 -592h-219l385 579h-340z" />
    <glyph glyph-name="uni2078" unicode="&#x2078;" horiz-adv-x="694" 
d="M730 1601q73 -53 73 -137q0 -71 -39 -113q-40 -43 -113 -73q55 -17 84 -56q31 -42 31 -98q0 -106 -90 -174q-89 -67 -244 -67q-140 0 -218 56q-79 57 -79 146q0 153 180 209q-94 43 -94 140q0 105 88 162q89 57 221 57q129 0 200 -52zM437 1480q-34 -25 -34 -65
q0 -32 25 -51q24 -18 66 -18q52 0 84 26t32 64q0 30 -24 50q-23 19 -64 19q-51 0 -85 -25zM375 1183q-37 -27 -37 -71q0 -31 31 -53q30 -21 80 -21q60 0 97 28q36 27 36 71q0 31 -31 53q-29 20 -78 20q-61 0 -98 -27z" />
    <glyph glyph-name="uni2079" unicode="&#x2079;" horiz-adv-x="679" 
d="M213 947q-73 65 -72 165h187q2 -41 26 -59q25 -19 62 -19q66 0 112 49q48 52 66 129l4 27q-29 -37 -76 -61q-46 -23 -102 -23q-108 0 -171 57t-63 156q0 126 90 206q89 79 232 79q132 0 204 -81t72 -218q0 -125 -47 -234t-135 -173t-203 -64q-113 0 -186 64zM553 1334
q35 35 35 85q0 39 -25 61q-24 21 -65 21q-54 0 -88 -33q-35 -33 -35 -84q0 -38 24 -61q25 -23 66 -23q54 0 88 34z" />
    <glyph glyph-name="uni2080" unicode="&#x2080;" horiz-adv-x="712" 
d="M550 471q73 -84 73 -223q0 -128 -45 -234q-44 -104 -132 -169q-84 -62 -202 -62q-134 0 -206 82q-73 84 -73 223q0 124 45 231t131 170q87 64 203 64q134 0 206 -82zM240 335q-40 -47 -59 -114q-19 -66 -19 -129t25 -100t67 -37q84 0 129 93t45 196q0 64 -26 101
q-25 36 -68 36q-55 0 -94 -46z" />
    <glyph glyph-name="uni2081" unicode="&#x2081;" horiz-adv-x="417" 
d="M37 -205l86 441q-13 -5 -41 -5h-135l30 175h105q72 0 82 83l8 52h186l-131 -746h-190z" />
    <glyph glyph-name="uni2082" unicode="&#x2082;" horiz-adv-x="667" 
d="M513 493q73 -61 73 -163q0 -158 -168 -258l-176 -101h295l-33 -176h-592l27 166l331 211q65 43 91 72t26 69q0 33 -21 51q-20 17 -61 17q-51 0 -84 -33t-43 -92h-192q22 141 111 219t220 78q124 0 196 -60z" />
    <glyph glyph-name="uni2083" unicode="&#x2083;" horiz-adv-x="690" 
d="M120 489q87 64 216 64q126 0 196 -53t70 -140q0 -69 -41 -113t-112 -65q55 -11 85 -50q31 -40 31 -99q0 -118 -92 -184q-91 -66 -244 -66q-143 0 -218 66t-64 200h192q0 -43 25 -71q24 -27 76 -27q55 0 88 24q32 23 32 66q0 31 -24 50q-25 20 -72 20h-49l23 129h34
q56 0 93 21q36 20 36 65q0 27 -22 43t-57 16q-94 0 -117 -84h-189q18 125 104 188z" />
    <glyph glyph-name="uni2084" unicode="&#x2084;" horiz-adv-x="724" 
d="M336 541h246l-74 -416h110l-28 -166h-111l-28 -164h-193l29 164h-353l29 170zM360 352l-204 -227h161z" />
    <glyph glyph-name="uni2085" unicode="&#x2085;" horiz-adv-x="651" 
d="M547 371h-354l-27 -119q52 45 137 45q106 0 166 -59q61 -60 61 -156q0 -135 -89 -218t-226 -83q-124 0 -192 68q-69 69 -68 174h184q2 -35 27 -54q24 -18 59 -18q52 0 83 34q32 35 32 83q0 35 -24 56t-60 21q-33 0 -59 -16q-25 -15 -41 -41h-181l95 451h508z" />
    <glyph glyph-name="uni2086" unicode="&#x2086;" horiz-adv-x="675" 
d="M531 488q72 -65 71 -164h-182q-1 40 -27 59q-24 18 -63 18q-66 0 -112 -48q-45 -47 -62 -130l-6 -26q29 38 75 61t103 23q105 0 169 -58q62 -56 62 -155q0 -126 -89 -206q-88 -79 -232 -79q-130 0 -202 82q-73 84 -73 217q0 124 47 233q47 108 134 173q88 65 202 65
q112 0 185 -65zM195 101q-35 -35 -35 -85q0 -39 24 -60q25 -22 66 -22q54 0 88 33q35 33 35 84q0 39 -25 62q-23 22 -65 22q-54 0 -88 -34z" />
    <glyph glyph-name="uni2087" unicode="&#x2087;" horiz-adv-x="616" 
d="M33 543h557l-23 -156l-389 -592h-219l385 580h-340z" />
    <glyph glyph-name="uni2088" unicode="&#x2088;" horiz-adv-x="694" 
d="M536 501q72 -52 72 -136q0 -72 -39 -114q-41 -44 -112 -73q55 -17 84 -56q30 -41 30 -97q0 -107 -90 -175q-89 -67 -243 -67q-141 0 -219 56t-78 147q0 154 180 209q-94 43 -94 139q0 106 88 163q87 56 221 56q129 0 200 -52zM243 380q-34 -25 -34 -65q0 -33 24 -51
t66 -18q52 0 84 26q33 27 33 64q0 30 -25 50t-63 20q-50 0 -85 -26zM180 83q-37 -27 -37 -71q0 -31 31 -53q29 -20 80 -20q61 0 97 27t36 71q0 31 -31 53q-30 21 -77 21q-60 0 -99 -28z" />
    <glyph glyph-name="uni2089" unicode="&#x2089;" horiz-adv-x="679" 
d="M18 -153q-73 64 -71 165h186q1 -40 27 -59q25 -19 61 -19q66 0 113 50t65 129l4 26q-29 -38 -75 -61t-103 -23q-107 0 -171 58q-62 56 -62 155q0 126 90 206q89 79 231 79q132 0 204 -81q73 -82 73 -218q0 -125 -47 -234t-135 -173t-203 -64q-114 0 -187 64zM358 234
q35 35 35 85q0 40 -24 61t-66 21q-55 0 -88 -32q-35 -33 -35 -84q0 -39 25 -62q23 -22 65 -22q55 0 88 33z" />
    <glyph glyph-name="franc" unicode="&#x20a3;" horiz-adv-x="1150" 
d="M1221 1169h-629l-60 -335h515l-46 -252h-514l-30 -181h248l-35 -208h-250l-35 -193h-307l35 193h-174l36 208h175l182 1033h936z" />
    <glyph glyph-name="uni20A8" unicode="&#x20a8;" horiz-adv-x="1204" 
d="M1303 1434l-66 -179h-293q82 -85 88 -211h197l-53 -176h-160q-23 -107 -108 -198q-82 -88 -195 -121l184 -549h-340l-156 481h-286l45 250h286q100 0 163 36t85 101h-510l31 176h502q-5 65 -52 102q-49 38 -139 38h-288l45 250h1020z" />
    <glyph glyph-name="Euro" unicode="&#x20ac;" horiz-adv-x="1400" 
d="M920 313q76 71 116 203h301q-61 -251 -218 -390q-156 -138 -400 -138q-224 0 -367 133q-144 133 -166 368h-163l32 179h131q0 6 11 94h-125l32 176h134q77 236 243 371q169 137 408 137q257 0 378 -143q123 -145 124 -388h-297q-4 135 -59 206q-54 71 -171 71
q-99 0 -181 -68q-81 -68 -132 -186h313l-65 -176h-299q-12 -66 -15 -94h330l-65 -179h-263q16 -122 81 -185q63 -62 167 -62q108 0 185 71z" />
    <glyph glyph-name="uni20BF" unicode="&#x20bf;" horiz-adv-x="1312" 
d="M698 1647l-39 -213h125l39 213h185l-50 -228q148 -27 230 -115t82 -223q0 -301 -342 -352q136 -21 210 -94t74 -199q0 -193 -133 -301t-354 -129l-43 -203h-184l34 197h-124l-35 -197h-187l35 197h-192l254 1434h192l39 213h184zM485 844h246q109 0 172 54q64 55 64 144
q0 72 -48 111t-143 39h-229zM838 298q67 54 67 153q0 71 -53 113t-154 42h-256l-63 -362h268q124 0 191 54z" />
    <glyph glyph-name="trademark" unicode="&#x2122;" horiz-adv-x="1460" 
d="M252 1434h489l-24 -138h-170l-72 -411h-149l73 411h-172zM803 1434h207l84 -359l211 359h206l-96 -549h-145l65 354l-217 -354h-110l-88 354l-68 -354h-145z" />
    <glyph glyph-name="uni2126" unicode="&#x2126;" horiz-adv-x="1497" 
d="M827 385q174 100 258 216q86 119 86 276q0 85 -38 154q-39 71 -110 113t-163 42q-126 0 -227 -64q-98 -62 -151 -169q-52 -104 -52 -226q0 -105 46 -187q48 -86 134 -151l-63 -389h-541l47 264h336l8 41q-144 72 -210 178q-66 107 -66 260q0 201 95 361q94 159 265 251
q169 91 389 91q179 0 317 -66q139 -67 216 -186q78 -122 78 -276q0 -224 -117 -380q-118 -157 -330 -235l-6 -39h324l-47 -264h-537z" />
    <glyph glyph-name="uni2153" unicode="&#x2153;" horiz-adv-x="1478" 
d="M195 688l86 440q-11 -4 -41 -4h-136l31 174h105q72 0 82 84l8 52h186l-131 -746h-190zM-49 0l1161 1434h238l-1162 -1434h-237zM957 694q87 64 217 64q126 0 196 -53t70 -140q0 -69 -41 -113t-113 -65q55 -11 85 -50q32 -41 32 -99q0 -118 -92 -184q-91 -66 -244 -66
q-143 0 -218 66q-76 66 -65 200h193q0 -44 24 -71t76 -27q55 0 88 24t33 66q0 30 -24 50q-23 19 -72 19h-49l22 129h35q53 0 92 22q37 21 37 64q0 27 -22 43q-23 17 -58 17q-95 0 -117 -84h-188q18 125 103 188z" />
    <glyph glyph-name="uni2155" unicode="&#x2155;" horiz-adv-x="1452" 
d="M195 688l86 440q-11 -4 -41 -4h-136l31 174h105q72 0 82 84l8 52h186l-131 -746h-190zM-49 0l1161 1434h238l-1162 -1434h-237zM1399 575h-355l-26 -118q52 45 137 45q105 0 166 -60t61 -155q0 -135 -89 -218t-226 -83q-124 0 -192 68q-69 69 -68 173h184q1 -34 27 -53
q24 -18 59 -18q53 0 83 33q32 35 32 83q0 36 -24 57t-60 21q-33 0 -59 -16q-25 -15 -41 -41h-181l95 450h508z" />
    <glyph glyph-name="uni2156" unicode="&#x2156;" horiz-adv-x="1703" 
d="M671 1385q72 -60 72 -162q0 -157 -168 -258l-176 -101h295l-32 -176h-592l26 166l332 211q65 43 91 72t26 69q0 31 -22 50q-21 18 -60 18q-51 0 -84 -33t-43 -92h-193q22 140 112 219q89 78 220 78q123 0 196 -61zM205 0l1161 1434h238l-1162 -1434h-237zM1653 575h-355
l-26 -118q52 45 137 45q105 0 166 -60t61 -155q0 -135 -89 -218t-226 -83q-125 0 -193 68t-67 173h184q1 -34 27 -53q24 -18 59 -18q53 0 83 33q32 35 32 83q0 36 -24 57t-60 21q-33 0 -59 -16q-25 -15 -41 -41h-181l95 450h507z" />
    <glyph glyph-name="uni2157" unicode="&#x2157;" horiz-adv-x="1722" 
d="M275 1384q87 64 217 64q126 0 196 -53t70 -140q0 -69 -41 -113t-113 -65q55 -11 85 -50q32 -41 32 -99q0 -118 -92 -184q-91 -66 -244 -66q-143 0 -218 66q-76 66 -65 200h193q0 -44 24 -71t76 -27q55 0 88 24t33 66q0 30 -24 50q-25 20 -72 20h-49l22 129h35q55 0 92 21
t37 65q0 27 -22 43t-58 16q-95 0 -117 -84h-188q18 125 103 188zM223 0l1161 1434h238l-1161 -1434h-238zM1671 575h-354l-27 -118q52 45 137 45q105 0 166 -60q62 -60 62 -155q0 -135 -89 -218t-227 -83q-124 0 -192 68q-69 69 -68 173h185q2 -35 26 -53t60 -18q53 0 83 33
q31 34 31 83q0 37 -23 57q-24 21 -61 21q-33 0 -59 -16q-25 -15 -41 -41h-180l94 450h508z" />
    <glyph glyph-name="uni2158" unicode="&#x2158;" horiz-adv-x="1757" 
d="M492 1434h245l-73 -416h110l-29 -166h-110l-29 -164h-192l28 164h-352l29 170zM516 1245l-205 -227h162zM258 0l1161 1434h238l-1161 -1434h-238zM1706 575h-354l-27 -118q53 45 137 45q104 0 166 -60t62 -155q0 -135 -89 -218t-227 -83q-124 0 -192 68q-69 69 -68 173
h184q1 -34 27 -53q24 -18 59 -18q53 0 83 33q32 35 32 83q0 37 -23 57q-24 21 -61 21q-33 0 -59 -16q-25 -15 -41 -41h-180l94 450h508z" />
    <glyph glyph-name="uni2159" unicode="&#x2159;" horiz-adv-x="1439" 
d="M195 688l86 440q-11 -4 -41 -4h-136l31 174h105q72 0 82 84l8 52h186l-131 -746h-190zM-49 0l1161 1434h238l-1162 -1434h-237zM1340 693q72 -65 71 -165h-182q-2 41 -27 60q-24 18 -63 18q-65 0 -112 -48q-45 -47 -62 -130l-7 -27q30 39 76 62q44 22 103 22
q106 0 169 -57q62 -56 62 -156q0 -125 -89 -205q-88 -79 -232 -79q-130 0 -202 82q-73 84 -73 217q0 124 47 233q47 108 134 173q88 65 202 65q112 0 185 -65zM1004 306q-35 -35 -35 -85q0 -39 24 -60q25 -22 66 -22q53 0 88 33t35 84q0 38 -25 61t-65 23q-54 0 -88 -34z
" />
    <glyph glyph-name="oneeighth" unicode="&#x215b;" horiz-adv-x="1470" 
d="M195 688l86 440q-11 -4 -41 -4h-136l31 174h105q72 0 82 84l8 52h186l-131 -746h-190zM-49 0l1161 1434h238l-1162 -1434h-237zM1361 706q73 -53 73 -137q0 -71 -39 -113q-40 -43 -113 -73q55 -17 84 -56q31 -42 31 -98q0 -107 -90 -174q-89 -67 -244 -67q-140 0 -218 56
q-79 57 -79 146q0 154 180 209q-94 43 -94 140q0 105 88 162t221 57q129 0 200 -52zM1068 585q-34 -25 -34 -65q0 -32 25 -51q24 -18 65 -18q52 0 84 26q33 27 33 64q0 31 -24 50q-23 19 -64 19q-51 0 -85 -25zM1006 288q-37 -27 -37 -71q0 -32 30 -53t80 -21q61 0 98 28
q35 26 35 71q0 32 -30 53q-29 20 -78 20q-60 0 -98 -27z" />
    <glyph glyph-name="threeeighths" unicode="&#x215c;" horiz-adv-x="1740" 
d="M275 1384q87 64 217 64q126 0 196 -53t70 -140q0 -69 -41 -113t-113 -65q55 -11 85 -50q32 -41 32 -99q0 -118 -92 -184q-91 -66 -244 -66q-143 0 -218 66q-76 66 -65 200h193q0 -44 24 -71t76 -27q55 0 88 24t33 66q0 30 -24 50q-25 20 -72 20h-49l22 129h35q55 0 92 21
t37 65q0 27 -22 43t-58 16q-95 0 -117 -84h-188q18 125 103 188zM223 0l1161 1434h238l-1161 -1434h-238zM1633 706q73 -53 73 -137q0 -71 -39 -113q-40 -43 -113 -73q55 -17 84 -56q31 -42 31 -98q0 -107 -90 -174q-89 -67 -244 -67q-140 0 -218 56q-79 57 -79 146
q0 153 181 209q-95 44 -95 140q0 105 88 162t222 57q128 0 199 -52zM1340 585q-33 -24 -33 -65q0 -33 24 -51t66 -18q52 0 84 26t32 64q0 31 -24 50q-23 19 -64 19q-51 0 -85 -25zM1278 288q-37 -27 -37 -71q0 -31 31 -53q30 -21 80 -21q60 0 97 28q36 27 36 71q0 31 -31 53
q-29 20 -78 20q-60 0 -98 -27z" />
    <glyph glyph-name="fiveeighths" unicode="&#x215d;" horiz-adv-x="1703" 
d="M705 1264h-355l-26 -119q53 45 137 45q105 0 166 -60t61 -155q0 -135 -89 -218t-226 -83q-125 0 -193 68t-67 173h184q1 -34 27 -53q24 -18 59 -18q52 0 83 34q32 35 32 83q0 35 -24 56t-60 21q-34 0 -60 -16q-25 -15 -41 -41h-180l94 451h508zM186 0l1162 1434h237
l-1161 -1434h-238zM1596 706q73 -53 73 -137q0 -71 -39 -113q-41 -44 -112 -73q55 -17 84 -56q30 -41 30 -98q0 -107 -90 -174q-89 -67 -244 -67q-140 0 -218 56q-79 57 -79 146q0 153 181 209q-95 44 -95 140q0 105 89 162q88 57 221 57q128 0 199 -52zM1304 585
q-34 -25 -34 -65q0 -33 24 -51t66 -18q52 0 84 26q33 27 33 64q0 30 -25 50q-23 19 -63 19q-51 0 -85 -25zM1241 288q-37 -27 -37 -71q0 -31 31 -53q30 -21 80 -21q60 0 97 28q36 27 36 71q0 31 -31 53q-29 20 -78 20q-61 0 -98 -27z" />
    <glyph glyph-name="seveneighths" unicode="&#x215e;" horiz-adv-x="1669" 
d="M190 1434h558l-23 -156l-389 -592h-219l385 580h-340zM152 0l1161 1434h237l-1161 -1434h-237zM1562 706q72 -53 72 -137q0 -71 -39 -113q-41 -44 -112 -73q55 -17 84 -56q30 -41 30 -98q0 -107 -90 -174q-89 -67 -243 -67q-140 0 -218 56q-79 57 -79 146q0 154 180 209
q-94 43 -94 140q0 105 88 162q89 57 221 57q129 0 200 -52zM1269 585q-34 -25 -34 -65q0 -32 25 -51q24 -18 65 -18q52 0 84 26q33 27 33 64q0 30 -25 50q-23 19 -63 19q-51 0 -85 -25zM1206 288q-37 -27 -37 -71q0 -31 31 -53q30 -21 80 -21q60 0 97 28q36 27 36 71
q0 31 -31 53q-29 20 -77 20q-61 0 -99 -27z" />
    <glyph glyph-name="arrowleft" unicode="&#x2190;" horiz-adv-x="1267" 
d="M18 549l584 586l176 -179l-289 -274h685v-264h-685l289 -275l-176 -178z" />
    <glyph glyph-name="arrowup" unicode="&#x2191;" horiz-adv-x="1347" 
d="M1257 483l-176 -176l-276 289v-598h-264v598l-275 -289l-178 176l586 584z" />
    <glyph glyph-name="arrowright" unicode="&#x2192;" horiz-adv-x="1267" 
d="M1249 549l-583 -584l-177 178l289 275h-684v264h684l-289 274l177 179z" />
    <glyph glyph-name="arrowdown" unicode="&#x2193;" horiz-adv-x="1347" 
d="M1257 565l-583 -583l-586 583l178 176l275 -288v598h264v-598l276 288z" />
    <glyph glyph-name="arrowboth" unicode="&#x2194;" horiz-adv-x="1763" 
d="M1153 1079l530 -530l-530 -531l-176 179l233 219h-659l235 -219l-176 -179l-530 531l530 530l176 -178l-235 -219h659l-233 219z" />
    <glyph glyph-name="arrowupdn" unicode="&#x2195;" horiz-adv-x="1220" 
d="M80 961l530 528l531 -528l-178 -177l-220 234v-619l220 234l178 -176l-533 -529l-528 529l178 176l219 -234v619l-219 -234z" />
    <glyph glyph-name="uni2196" unicode="&#x2196;" horiz-adv-x="1075" 
d="M90 1053h825l3 -230l-437 2l506 -483l-186 -188l-486 505l2 -434h-227v828z" />
    <glyph glyph-name="uni2197" unicode="&#x2197;" horiz-adv-x="1075" 
d="M985 1053v-828h-227l2 434l-486 -505l-186 188l506 483l-436 -2l2 230h825z" />
    <glyph glyph-name="uni2198" unicode="&#x2198;" horiz-adv-x="1075" 
d="M158 227l436 -2l-506 486l186 186l486 -504l-2 432h227v-825h-825z" />
    <glyph glyph-name="uni2199" unicode="&#x2199;" horiz-adv-x="1075" 
d="M317 827l-2 -436l484 506l188 -186l-506 -486l434 2v-227h-827v827h229z" />
    <glyph glyph-name="partialdiff" unicode="&#x2202;" horiz-adv-x="1226" 
d="M752 911q71 -28 127 -84q-80 332 -523 367l27 252q271 0 447 -105q175 -105 254 -275t79 -380q0 -200 -78 -359t-222 -249t-337 -90q-151 0 -259 52q-111 53 -167 146q-57 95 -57 215q0 153 71 277q70 122 194 191t276 69q99 0 168 -27zM483 685q-68 -42 -109 -114
q-40 -71 -40 -153q0 -91 54 -145t147 -54q89 0 161 42t113 113t41 154q0 92 -59 145q-60 54 -152 54q-87 0 -156 -42z" />
    <glyph glyph-name="emptyset" unicode="&#x2205;" horiz-adv-x="1263" 
d="M1184 1044q59 -100 59 -233q0 -173 -84 -314q-84 -142 -230 -222q-145 -80 -327 -80q-193 0 -326 94l-108 -90l-119 133l107 88q-62 103 -62 233q0 175 84 316t231 222t326 81q195 0 330 -96l121 100l117 -133zM389 614l459 381q-56 33 -125 33q-95 0 -174 -50
q-77 -49 -121 -132q-43 -82 -43 -176q0 -23 4 -56zM946 846l-454 -379q54 -31 124 -31q96 0 172 49t119 131t43 177q0 24 -4 53z" />
    <glyph glyph-name="uni2206" unicode="&#x2206;" horiz-adv-x="1441" 
d="M-41 0l41 244l692 1190h375l272 -1190l-41 -244h-1339zM336 276h670l-185 848z" />
    <glyph glyph-name="product" unicode="&#x220f;" horiz-adv-x="1513" 
d="M1622 1434l-45 -265h-156l-245 -1386h-308l246 1386h-487l-246 -1386h-307l245 1386h-157l47 265h1413z" />
    <glyph glyph-name="summation" unicode="&#x2211;" horiz-adv-x="1284" 
d="M-23 27l662 610l-412 553l39 244h1080l-46 -265h-688l328 -432l-27 -194l-546 -500h749l-45 -260h-1134z" />
    <glyph glyph-name="minus" unicode="&#x2212;" horiz-adv-x="1054" 
d="M100 461l41 244h885l-43 -244h-883z" />
    <glyph glyph-name="radical" unicode="&#x221a;" horiz-adv-x="1280" 
d="M240 672l-99 -33l-61 215l360 127l160 -627l535 1080h284l-712 -1434h-285z" />
    <glyph glyph-name="infinity" unicode="&#x221e;" horiz-adv-x="1730" 
d="M1530 1004q82 -52 123 -141q41 -88 41 -191q0 -137 -64 -256q-62 -116 -175 -186q-109 -68 -249 -68q-119 0 -205 53q-85 53 -159 186q-121 -134 -216 -187q-94 -52 -200 -52q-117 0 -199 52q-81 52 -122 139q-39 84 -39 192q0 140 62 257t173 186t248 69q119 0 205 -53
q84 -52 159 -189q124 136 219 189t199 53q116 0 199 -53zM383 728q-61 -70 -61 -171q0 -60 34 -98q34 -39 99 -39q63 0 126 45q61 43 152 156q-50 104 -91 140q-43 38 -103 38q-94 0 -156 -71zM1178 754q-63 -46 -154 -158q46 -100 89 -138t104 -38q93 0 156 69t63 170
q0 59 -36 99q-36 41 -97 41q-63 0 -125 -45z" />
    <glyph glyph-name="integral" unicode="&#x222b;" horiz-adv-x="831" 
d="M70 27q113 0 135 127l170 958q27 164 107 242q82 80 237 80h223l-43 -244h-111q-111 0 -133 -127l-170 -959q-28 -162 -109 -241q-82 -80 -237 -80h-223l45 244h109z" />
    <glyph glyph-name="approxequal" unicode="&#x2248;" horiz-adv-x="1157" 
d="M55 86q30 182 111 273q81 90 196 90q73 0 118 -20t89 -54q30 -24 48 -32q19 -9 45 -9q52 0 82 33q29 32 40 82h226q-30 -184 -111 -274q-80 -89 -197 -89q-71 0 -108 17q-39 18 -78 51q-25 21 -51 35q-23 12 -57 12q-54 0 -85 -34q-31 -35 -42 -81h-226zM141 563
q30 184 111 274q80 89 197 89q72 0 117 -20t89 -54q30 -24 48 -32q20 -9 45 -9q52 0 82 33q29 32 40 82h226q-30 -184 -111 -274q-80 -89 -197 -89q-69 0 -108 18q-42 19 -78 50q-28 24 -51 36q-21 11 -57 11q-54 0 -85 -34t-42 -81h-226z" />
    <glyph glyph-name="notequal" unicode="&#x2260;" horiz-adv-x="1054" 
d="M999 670h-260l-100 -199h326l-43 -242h-406l-90 -178h-281l91 178h-156l41 242h237l101 199h-303l45 243h381l86 168h280l-86 -168h180z" />
    <glyph glyph-name="lessequal" unicode="&#x2264;" horiz-adv-x="1052" 
d="M147 664l46 270l868 336l-47 -279l-525 -192l455 -193l-45 -278zM29 0l43 242h811l-43 -242h-811z" />
    <glyph glyph-name="greaterequal" unicode="&#x2265;" horiz-adv-x="1052" 
d="M1004 936l-46 -270l-868 -336l47 278l522 193l-452 192l47 279zM29 0l43 242h811l-43 -242h-811z" />
    <glyph glyph-name="dotmath" unicode="&#x22c5;" horiz-adv-x="505" 
d="M396 731q44 -44 44 -113q0 -79 -55 -131q-56 -53 -133 -53q-72 0 -115 43t-43 111q0 82 54 134q53 52 133 52q72 0 115 -43z" />
    <glyph glyph-name="filledbox" unicode="&#x25a0;" horiz-adv-x="1685" 
d="M123 1434h1442v-1434h-1442v1434z" />
    <glyph glyph-name="uni25A1" unicode="&#x25a1;" horiz-adv-x="1681" 
d="M123 1434h1438v-1434h-1438v1434zM414 1167v-899h854v899h-854z" />
    <glyph glyph-name="uni25AF" unicode="&#x25af;" horiz-adv-x="1271" 
d="M123 1434h1028v-1434h-1028v1434zM414 1167v-901h444v901h-444z" />
    <glyph glyph-name="triagup" unicode="&#x25b2;" horiz-adv-x="1738" 
d="M872 1458l838 -1458h-1679z" />
    <glyph glyph-name="uni25B3" unicode="&#x25b3;" horiz-adv-x="1738" 
d="M872 1458l838 -1458h-1679zM870 922l-381 -660h760z" />
    <glyph glyph-name="uni25B6" unicode="&#x25b6;" horiz-adv-x="1021" 
d="M100 1036l914 -524l-914 -524v1048z" />
    <glyph glyph-name="uni25B7" unicode="&#x25b7;" horiz-adv-x="1048" 
d="M100 1067l940 -539l-940 -540v1079zM322 350l315 178l-315 179v-357z" />
    <glyph glyph-name="uni25C0" unicode="&#x25c0;" horiz-adv-x="1021" 
d="M922 1036v-1048l-914 524z" />
    <glyph glyph-name="uni25C1" unicode="&#x25c1;" horiz-adv-x="1048" 
d="M948 1067v-1079l-940 540zM727 350v357l-315 -179z" />
    <glyph glyph-name="lozenge" unicode="&#x25ca;" horiz-adv-x="1329" 
d="M989 1434l295 -717l-514 -717h-360l-295 717l514 717h360zM614 233l336 484l-166 483l-335 -483z" />
    <glyph glyph-name="circle" unicode="&#x25cb;" horiz-adv-x="1617" 
d="M1192 1353q171 -94 266 -259q96 -166 96 -377t-96 -377q-95 -165 -266 -259q-169 -93 -383 -93q-213 0 -382 93t-265 259t-96 377t96 377t265 259q170 93 382 93q214 0 383 -93zM532 1197q-121 -69 -191 -197q-69 -126 -69 -283q0 -158 69 -284t191 -196q124 -71 277 -71
q152 0 276 71q123 71 192 196q69 126 69 284q0 157 -69 283q-69 127 -192 197q-124 71 -276 71q-153 0 -277 -71z" />
    <glyph glyph-name="uni25CF" unicode="&#x25cf;" horiz-adv-x="1587" 
d="M1427 1089q-97 168 -263 262q-167 95 -369 95q-205 0 -372 -95t-262 -262t-95 -372t95 -372t262 -262t372 -95q204 0 371 95t262 262q96 169 96 372q0 204 -97 372z" />
    <glyph glyph-name="uni25FD" unicode="&#x25fd;" horiz-adv-x="1253" 
d="M100 1053h1053v-1057h-1053v1057zM328 836v-623h596v623h-596z" />
    <glyph glyph-name="uni25FE" unicode="&#x25fe;" horiz-adv-x="1236" 
d="M100 1036h1037v-1036h-1037v1036z" />
    <glyph glyph-name="uni262E" unicode="&#x262e;" horiz-adv-x="1597" 
d="M160 1094q94 166 261 259t378 93t379 -93t262 -259t94 -377t-94 -377t-262 -259t-379 -93t-378 93t-261 259t-94 377t94 377zM688 1188q-166 -30 -271 -160q-104 -130 -104 -311q0 -90 43 -166l332 334v303zM909 883l330 -334q47 79 47 168q0 183 -104 311
q-106 130 -273 160v-305zM909 246q141 24 236 119l-236 241v-360zM453 362q100 -92 235 -116v356z" />
    <glyph glyph-name="uni26AA" unicode="&#x26aa;" horiz-adv-x="1179" 
d="M860 976q123 -70 191 -190q69 -121 69 -268q0 -146 -69 -268q-68 -120 -191 -190q-120 -68 -270 -68q-151 0 -271 68q-121 69 -190 190q-70 123 -70 268t70 268q69 121 190 190q120 68 271 68q150 0 270 -68zM439 783q-68 -40 -108 -110t-40 -155q0 -84 40 -154
q41 -72 108 -111q68 -40 151 -40q82 0 150 40t109 111q40 70 40 154q0 85 -40 155q-40 69 -109 110q-68 40 -150 40q-83 0 -151 -40z" />
    <glyph glyph-name="uni26AB" unicode="&#x26ab;" horiz-adv-x="1179" 
d="M860 976q123 -70 191 -190q69 -121 69 -268q0 -146 -69 -268q-68 -120 -191 -190q-120 -68 -270 -68q-151 0 -271 68q-121 69 -190 190q-70 123 -70 268t70 268q69 121 190 190q120 68 271 68q150 0 270 -68z" />
    <glyph glyph-name="uni2713" unicode="&#x2713;" horiz-adv-x="2007" 
d="M31 715l202 203l515 -510l1024 1026l206 -203l-1230 -1231z" />
    <glyph glyph-name="uni2715" unicode="&#x2715;" horiz-adv-x="1570" 
d="M274 1434l512 -512l512 512l205 -203l-514 -514l514 -514l-205 -203l-512 514l-514 -514l-202 203l514 514l-514 514z" />
    <glyph glyph-name="uni2780" unicode="&#x2780;" horiz-adv-x="1628" 
d="M1277 1365q152 -81 241 -222q88 -140 88 -316q0 -234 -109 -428q-108 -192 -302 -302q-193 -109 -437 -109q-188 0 -341 81t-240 222t-87 315q0 233 109 427q107 190 302 302q193 111 435 111q188 0 341 -81zM597 1187q-141 -84 -221 -233q-79 -146 -79 -327
q0 -136 61 -242t170 -165q107 -58 244 -58q183 0 326 85q144 86 223 231q80 148 80 327q0 135 -63 242q-62 105 -172 165q-109 60 -244 60q-183 0 -325 -85zM696 344l86 440q-11 -4 -41 -4h-135l31 174h104q71 0 82 84l8 52h187l-131 -746h-191z" />
    <glyph glyph-name="uni2781" unicode="&#x2781;" horiz-adv-x="1628" 
d="M1277 1365q152 -81 241 -222q88 -140 88 -316q0 -234 -109 -428q-108 -192 -302 -302q-193 -109 -437 -109q-188 0 -341 81t-240 222t-87 315q0 233 109 427q107 190 302 302q193 111 435 111q188 0 341 -81zM597 1187q-141 -84 -221 -233q-79 -146 -79 -327
q0 -136 61 -242t170 -165q107 -58 244 -58q183 0 326 85q144 86 223 231q80 148 80 327q0 135 -63 242q-62 105 -172 165q-109 60 -244 60q-183 0 -325 -85zM1099 1041q72 -60 72 -162q0 -158 -167 -258l-177 -101h295l-32 -176h-592l26 166l332 211q65 43 91 72t26 69
q0 31 -22 50q-21 18 -60 18q-51 0 -84 -33t-43 -92h-193q22 140 112 219q89 78 220 78q123 0 196 -61z" />
    <glyph glyph-name="uni2782" unicode="&#x2782;" horiz-adv-x="1628" 
d="M1277 1365q152 -81 241 -222q88 -140 88 -316q0 -234 -109 -428q-108 -192 -302 -302q-193 -109 -437 -109q-188 0 -341 81t-240 222t-87 315q0 233 109 427q107 190 302 302q193 111 435 111q188 0 341 -81zM597 1187q-141 -84 -221 -233q-79 -146 -79 -327
q0 -136 61 -242t170 -165q107 -58 244 -58q183 0 326 85q144 86 223 231q80 148 80 327q0 135 -63 242q-62 105 -172 165q-109 60 -244 60q-183 0 -325 -85zM677 1038q87 64 216 64q127 0 197 -53q69 -53 69 -140q0 -69 -41 -113t-112 -65q55 -11 85 -50q31 -40 31 -99
q0 -118 -92 -184t-244 -66q-143 0 -218 66t-64 200h192q0 -43 25 -71q24 -27 76 -27q55 0 88 24q32 23 32 66q0 30 -24 50q-23 19 -72 19h-49l23 129h34q54 0 93 22q36 20 36 64q0 28 -22 44t-57 16q-95 0 -117 -84h-189q18 125 104 188z" />
    <glyph glyph-name="uni2783" unicode="&#x2783;" horiz-adv-x="1628" 
d="M1277 1365q152 -81 241 -222q88 -140 88 -316q0 -234 -109 -428q-108 -192 -302 -302q-193 -109 -437 -109q-188 0 -341 81t-240 222t-87 315q0 233 109 427q107 190 302 302q193 111 435 111q188 0 341 -81zM597 1187q-141 -84 -221 -233q-79 -146 -79 -327
q0 -136 61 -242t170 -165q107 -58 244 -58q183 0 326 85q144 86 223 231q80 148 80 327q0 135 -63 242q-62 105 -172 165q-109 60 -244 60q-183 0 -325 -85zM877 1090h245l-73 -416h110l-29 -166h-110l-29 -164h-192l28 164h-352l29 170zM901 901l-205 -227h162z" />
    <glyph glyph-name="uni2784" unicode="&#x2784;" horiz-adv-x="1628" 
d="M1277 1365q152 -81 241 -222q88 -140 88 -316q0 -234 -109 -428q-108 -192 -302 -302q-193 -109 -437 -109q-188 0 -341 81t-240 222t-87 315q0 233 109 427q107 190 302 302q193 111 435 111q188 0 341 -81zM597 1187q-141 -84 -221 -233q-79 -146 -79 -327
q0 -136 61 -242t170 -165q107 -58 244 -58q183 0 326 85q144 86 223 231q80 148 80 327q0 135 -63 242q-62 105 -172 165q-109 60 -244 60q-183 0 -325 -85zM1137 920h-355l-26 -119q52 45 137 45q105 0 166 -60t61 -155q0 -135 -89 -218t-226 -83q-125 0 -193 68t-67 173
h184q1 -34 27 -53q24 -18 59 -18q52 0 83 34q32 35 32 82q0 36 -24 57t-60 21q-34 0 -60 -16q-25 -15 -41 -41h-180l94 450h508z" />
    <glyph glyph-name="uni2785" unicode="&#x2785;" horiz-adv-x="1628" 
d="M1277 1365q152 -81 241 -222q88 -140 88 -316q0 -234 -109 -428q-108 -192 -302 -302q-193 -109 -437 -109q-188 0 -341 81t-240 222t-87 315q0 233 109 427q107 190 302 302q193 111 435 111q188 0 341 -81zM597 1187q-141 -84 -221 -233q-79 -146 -79 -327
q0 -136 61 -242t170 -165q107 -58 244 -58q183 0 326 85q144 86 223 231q80 148 80 327q0 135 -63 242q-62 105 -172 165q-109 60 -244 60q-183 0 -325 -85zM1086 1037q72 -65 71 -165h-182q-2 41 -27 60q-24 18 -63 18q-65 0 -112 -48q-45 -47 -62 -130l-6 -27q31 40 75 62
t103 22q106 0 169 -57q62 -56 62 -156q0 -125 -89 -205q-88 -79 -232 -79q-130 0 -202 82q-73 84 -73 217q0 124 47 233q47 108 134 173q88 65 202 65q112 0 185 -65zM750 650q-35 -35 -35 -85q0 -39 24 -60q25 -22 66 -22q53 0 88 33t35 84q0 39 -25 62q-23 22 -65 22
q-54 0 -88 -34z" />
    <glyph glyph-name="uni2786" unicode="&#x2786;" horiz-adv-x="1628" 
d="M1277 1365q152 -81 241 -222q88 -140 88 -316q0 -234 -109 -428q-108 -192 -302 -302q-193 -109 -437 -109q-188 0 -341 81t-240 222t-87 315q0 233 109 427q107 190 302 302q193 111 435 111q188 0 341 -81zM597 1187q-141 -84 -221 -233q-79 -146 -79 -327
q0 -136 61 -242t170 -165q107 -58 244 -58q183 0 326 85q144 86 223 231q80 148 80 327q0 135 -63 242q-62 105 -172 165q-109 60 -244 60q-183 0 -325 -85zM621 1092h557l-23 -156l-389 -592h-219l385 580h-340z" />
    <glyph glyph-name="uni2787" unicode="&#x2787;" horiz-adv-x="1628" 
d="M1277 1365q152 -81 241 -222q88 -140 88 -316q0 -234 -109 -428q-108 -192 -302 -302q-193 -109 -437 -109q-188 0 -341 81t-240 222t-87 315q0 233 109 427q107 190 302 302q193 111 435 111q188 0 341 -81zM597 1187q-141 -84 -221 -233q-79 -146 -79 -327
q0 -136 61 -242t170 -165q107 -58 244 -58q183 0 326 85q144 86 223 231q80 148 80 327q0 135 -63 242q-62 105 -172 165q-109 60 -244 60q-183 0 -325 -85zM1095 1050q72 -52 72 -137q0 -71 -39 -113q-41 -44 -112 -73q55 -17 84 -56q30 -41 30 -98q0 -107 -90 -174
q-89 -67 -243 -67q-140 0 -218 56q-79 57 -79 147q0 153 180 208q-94 43 -94 140q0 106 88 163q87 56 221 56q129 0 200 -52zM802 929q-34 -25 -34 -65q0 -32 25 -51q24 -18 65 -18q52 0 84 26q33 27 33 64q0 30 -25 50q-23 19 -63 19q-51 0 -85 -25zM739 632
q-37 -27 -37 -71q0 -31 31 -53q30 -21 80 -21q60 0 97 28q36 27 36 71q0 31 -31 53q-29 20 -77 20q-62 0 -99 -27z" />
    <glyph glyph-name="uni2788" unicode="&#x2788;" horiz-adv-x="1628" 
d="M1277 1365q152 -81 241 -222q88 -140 88 -316q0 -234 -109 -428q-108 -192 -302 -302q-193 -109 -437 -109q-188 0 -341 81t-240 222t-87 315q0 233 109 427q107 190 302 302q193 111 435 111q188 0 341 -81zM597 1187q-141 -84 -221 -233q-79 -146 -79 -327
q0 -136 61 -242t170 -165q107 -58 244 -58q183 0 326 85q144 86 223 231q80 148 80 327q0 135 -63 242q-62 105 -172 165q-109 60 -244 60q-183 0 -325 -85zM602 396q-74 64 -72 165h187q2 -41 26 -59q25 -19 62 -19q66 0 112 49q48 51 66 130l4 26q-29 -37 -76 -61
q-46 -23 -102 -23q-107 0 -171 58q-63 57 -63 155q0 126 91 206q89 79 231 79q132 0 204 -81q73 -82 73 -218q0 -123 -48 -234q-47 -109 -135 -173t-203 -64q-113 0 -186 64zM942 783q35 35 35 85q0 39 -25 61q-24 21 -65 21q-55 0 -88 -32q-35 -33 -35 -84q0 -40 24 -62
q23 -22 66 -22q55 0 88 33z" />
    <glyph glyph-name="uni278A" unicode="&#x278a;" horiz-adv-x="1628" 
d="M501 1335q-195 -112 -302 -302q-109 -194 -109 -427q0 -174 87 -315t240 -222t341 -81q244 0 437 109q194 110 302 302q109 194 109 428q0 176 -88 316q-89 141 -241 222q-153 81 -341 81q-242 0 -435 -111zM696 344l86 440q-11 -4 -41 -4h-135l31 174h104q71 0 82 84
l8 52h187l-131 -746h-191z" />
    <glyph glyph-name="uni278B" unicode="&#x278b;" horiz-adv-x="1628" 
d="M501 1335q-195 -112 -302 -302q-109 -194 -109 -427q0 -174 87 -315t240 -222t341 -81q244 0 437 109q194 110 302 302q109 194 109 428q0 176 -88 316q-89 141 -241 222q-153 81 -341 81q-242 0 -435 -111zM1099 1041q72 -60 72 -162q0 -158 -167 -258l-177 -101h295
l-32 -176h-592l26 166l332 211q65 43 91 72t26 69q0 31 -22 50q-21 18 -60 18q-51 0 -84 -33t-43 -92h-193q22 140 112 219q89 78 220 78q123 0 196 -61z" />
    <glyph glyph-name="uni278C" unicode="&#x278c;" horiz-adv-x="1628" 
d="M501 1335q-195 -112 -302 -302q-109 -194 -109 -427q0 -174 87 -315t240 -222t341 -81q244 0 437 109q194 110 302 302q109 194 109 428q0 176 -88 316q-89 141 -241 222q-153 81 -341 81q-242 0 -435 -111zM677 1038q87 64 216 64q127 0 197 -53q69 -53 69 -140
q0 -69 -41 -113t-112 -65q55 -11 85 -50q31 -40 31 -99q0 -118 -92 -184t-244 -66q-143 0 -218 66t-64 200h192q0 -43 25 -71q24 -27 76 -27q55 0 88 24t33 66q0 30 -25 50q-23 19 -72 19h-49l23 129h34q54 0 93 22q36 20 36 64q0 27 -22 43q-23 17 -57 17q-95 0 -117 -84
h-189q18 125 104 188z" />
    <glyph glyph-name="uni278D" unicode="&#x278d;" horiz-adv-x="1628" 
d="M501 1335q-195 -112 -302 -302q-109 -194 -109 -427q0 -174 87 -315t240 -222t341 -81q244 0 437 109q194 110 302 302q109 194 109 428q0 176 -88 316q-89 141 -241 222q-153 81 -341 81q-242 0 -435 -111zM877 1090h245l-73 -416h110l-29 -166h-110l-29 -164h-192
l28 164h-352l29 170zM901 901l-205 -227h162z" />
    <glyph glyph-name="uni278E" unicode="&#x278e;" horiz-adv-x="1628" 
d="M501 1335q-195 -112 -302 -302q-109 -194 -109 -427q0 -174 87 -315t240 -222t341 -81q244 0 437 109q194 110 302 302q109 194 109 428q0 176 -88 316q-89 141 -241 222q-153 81 -341 81q-242 0 -435 -111zM1137 920h-355l-26 -119q52 45 137 45q105 0 166 -60t61 -155
q0 -135 -89 -218t-226 -83q-125 0 -193 68t-67 173h184q1 -34 27 -53q24 -18 59 -18q52 0 83 34q32 35 32 82q0 36 -24 57t-60 21q-34 0 -60 -16q-25 -15 -41 -41h-180l94 450h508z" />
    <glyph glyph-name="uni278F" unicode="&#x278f;" horiz-adv-x="1628" 
d="M501 1335q-195 -112 -302 -302q-109 -194 -109 -427q0 -174 87 -315t240 -222t341 -81q244 0 437 109q194 110 302 302q109 194 109 428q0 176 -88 316q-89 141 -241 222q-153 81 -341 81q-242 0 -435 -111zM1086 1037q72 -65 71 -165h-182q-2 41 -27 60q-24 18 -63 18
q-65 0 -112 -48q-45 -47 -62 -130l-6 -27q31 40 75 62t103 22q106 0 169 -57q62 -56 62 -156q0 -125 -89 -205q-88 -79 -232 -79q-130 0 -202 82q-73 84 -73 217q0 124 47 233q47 108 134 173q88 65 202 65q112 0 185 -65zM750 650q-35 -35 -35 -85q0 -39 24 -60
q25 -22 66 -22q53 0 88 33t35 84q0 39 -25 62q-23 22 -65 22q-54 0 -88 -34z" />
    <glyph glyph-name="uni2790" unicode="&#x2790;" horiz-adv-x="1628" 
d="M501 1335q-195 -112 -302 -302q-109 -194 -109 -427q0 -174 87 -315t240 -222t341 -81q244 0 437 109q194 110 302 302q109 194 109 428q0 176 -88 316q-89 141 -241 222q-153 81 -341 81q-242 0 -435 -111zM621 1092h557l-23 -156l-389 -592h-219l385 580h-340z" />
    <glyph glyph-name="uni2791" unicode="&#x2791;" horiz-adv-x="1628" 
d="M501 1335q-195 -112 -302 -302q-109 -194 -109 -427q0 -174 87 -315t240 -222t341 -81q244 0 437 109q194 110 302 302q109 194 109 428q0 176 -88 316q-89 141 -241 222q-153 81 -341 81q-242 0 -435 -111zM1095 1050q72 -52 72 -137q0 -71 -39 -113q-41 -44 -112 -73
q55 -17 84 -56q30 -41 30 -98q0 -107 -90 -174q-89 -67 -243 -67q-140 0 -218 56q-79 57 -79 147q0 153 180 208q-94 43 -94 140q0 106 88 163q87 56 221 56q129 0 200 -52zM802 929q-34 -25 -34 -65q0 -32 25 -51q24 -18 65 -18q52 0 84 26q33 27 33 64q0 30 -25 50
q-23 19 -63 19q-51 0 -85 -25zM739 632q-37 -27 -37 -71q0 -31 31 -53q30 -21 80 -21q60 0 97 28q36 27 36 71q0 31 -31 53q-29 20 -77 20q-62 0 -99 -27z" />
    <glyph glyph-name="uni2792" unicode="&#x2792;" horiz-adv-x="1628" 
d="M501 1335q-195 -112 -302 -302q-109 -194 -109 -427q0 -174 87 -315t240 -222t341 -81q244 0 437 109q194 110 302 302q109 194 109 428q0 176 -88 316q-89 141 -241 222q-153 81 -341 81q-242 0 -435 -111zM602 396q-74 64 -72 165h187q2 -41 26 -59q25 -19 62 -19
q67 0 113 49q47 50 65 130l4 26q-29 -37 -76 -61q-46 -23 -102 -23q-107 0 -171 58q-63 57 -63 155q0 126 91 206q89 79 231 79q132 0 204 -81q73 -82 73 -218q0 -123 -48 -234q-47 -109 -135 -173t-203 -64q-113 0 -186 64zM942 783q35 35 35 85q0 39 -25 61q-24 21 -65 21
q-55 0 -88 -32q-35 -33 -35 -84q0 -40 24 -62q23 -22 66 -22q55 0 88 33z" />
    <glyph glyph-name="fl" unicode="&#xfb02;" horiz-adv-x="1216" 
d="M260 1053l16 90q29 146 108 218q81 73 239 73h258l-43 -246h-170q-54 0 -78 -21q-26 -23 -33 -65l-8 -49h264l-43 -244h-264l-144 -809h-288l143 809h-174l43 244h174zM987 1434h289l-252 -1434h-289z" />
    <glyph glyph-name="u1F10B" unicode="&#x1f10b;" horiz-adv-x="1628" 
d="M1277 1365q152 -81 241 -222q88 -140 88 -316q0 -234 -109 -428q-108 -192 -302 -302q-193 -109 -437 -109q-188 0 -341 81t-240 222t-87 315q0 233 109 427q107 190 302 302q193 111 435 111q188 0 341 -81zM597 1187q-141 -84 -221 -233q-79 -146 -79 -327
q0 -136 61 -242t170 -165q107 -58 244 -58q183 0 326 85q144 86 223 231q80 148 80 327q0 135 -63 242q-62 105 -172 165q-109 60 -244 60q-183 0 -325 -85zM1101 1020q73 -84 73 -223q0 -125 -46 -234q-44 -105 -131 -169q-84 -62 -202 -62q-134 0 -206 82q-73 84 -73 223
q0 125 45 231q45 107 131 170q87 64 203 64q134 0 206 -82zM791 884q-40 -47 -59 -114q-19 -66 -19 -129t25 -100t67 -37q84 0 129 93t45 196q0 64 -26 101q-25 36 -68 36q-55 0 -94 -46z" />
    <glyph glyph-name="u1F10C" unicode="&#x1f10c;" horiz-adv-x="1628" 
d="M501 1335q-195 -112 -302 -302q-109 -194 -109 -427q0 -174 87 -315t240 -222t341 -81q244 0 437 109q194 110 302 302q109 194 109 428q0 176 -88 316q-89 141 -241 222q-153 81 -341 81q-242 0 -435 -111zM1101 1020q73 -84 73 -223q0 -125 -46 -234
q-44 -105 -131 -169q-84 -62 -202 -62q-134 0 -206 82q-73 84 -73 223q0 125 45 231q45 107 131 170q87 64 203 64q134 0 206 -82zM791 884q-40 -47 -59 -114q-19 -66 -19 -129t25 -100t67 -37q84 0 129 93t45 196q0 64 -26 101q-25 36 -68 36q-55 0 -94 -46z" />
    <glyph glyph-name="J.ss06" horiz-adv-x="1267" 
d="M358 559q-10 -54 -10 -100q0 -101 49 -156t148 -55q252 0 309 317l152 869h309l-156 -881q-49 -286 -200 -426q-149 -139 -424 -139q-244 0 -370 113q-128 114 -128 329q0 62 12 129h309z" />
    <glyph glyph-name="Jcircumflex.ss06" horiz-adv-x="1267" 
d="M358 559q-10 -54 -10 -100q0 -101 49 -156t148 -55q252 0 309 317l152 869h309l-156 -881q-49 -286 -200 -426q-149 -139 -424 -139q-244 0 -370 113q-128 114 -128 329q0 62 12 129h309zM1210 1665l-145 -121h-279l316 291h258l211 -291h-260z" />
    <glyph glyph-name="Q.ss07" horiz-adv-x="1542" 
d="M1415 400q-102 -194 -285 -302l123 -258h-301l-78 164q-83 -16 -165 -16q-184 0 -324 79q-143 81 -218 219q-77 142 -77 316q0 234 103 428t287 304q188 112 421 112q183 0 323 -79q141 -80 217 -219q77 -142 77 -317q0 -236 -103 -431zM1156 558q52 125 52 267
q0 155 -89 258t-236 103q-143 0 -254 -81q-110 -80 -170 -214q-60 -133 -60 -285q0 -98 41 -182q40 -82 116 -129t173 -47h29l-105 223h301l58 -119q91 79 144 206z" />
    <glyph glyph-name="a.ss01" horiz-adv-x="1239" 
d="M1229 1053l-182 -1053h-238l-6 137q-118 -149 -320 -149q-126 0 -222 59q-97 60 -152 164q-56 106 -56 235q0 174 76 314t204 223q127 82 281 82q232 0 322 -164l55 152h238zM720 273q69 49 108 134q38 84 38 177q0 120 -58 182q-58 63 -157 63q-89 0 -159 -50
q-71 -51 -108 -133q-38 -84 -38 -177q0 -119 57 -182q58 -64 156 -64q90 0 161 50z" />
    <glyph glyph-name="a.ss02" horiz-adv-x="1112" 
d="M940 983q117 -83 117 -246q0 -45 -10 -104l-113 -633h-240l6 115q-62 -68 -133 -97q-73 -30 -186 -30q-160 0 -261 75q-104 77 -104 218q0 183 129 275q128 91 365 91h254l6 39q6 24 6 51q0 56 -46 86q-48 31 -122 31q-98 0 -144 -33t-67 -96h-280q88 340 512 340
q195 0 311 -82zM635 264q71 66 92 174l2 17h-213q-105 0 -156 -36t-51 -110q0 -53 39 -83q38 -29 98 -29q118 0 189 67z" />
    <glyph glyph-name="aacute.ss01" horiz-adv-x="1239" 
d="M1229 1053l-182 -1053h-238l-6 137q-118 -149 -320 -149q-126 0 -222 59q-97 60 -152 164q-56 106 -56 235q0 174 76 314t204 223q127 82 281 82q232 0 322 -164l55 152h238zM720 273q69 49 108 134q38 84 38 177q0 120 -58 182q-58 63 -157 63q-89 0 -159 -50
q-71 -51 -108 -133q-38 -84 -38 -177q0 -119 57 -182q58 -64 156 -64q90 0 161 50zM627 1165l202 289h336l-319 -289h-219z" />
    <glyph glyph-name="aacute.ss02" horiz-adv-x="1112" 
d="M940 983q117 -83 117 -246q0 -45 -10 -104l-113 -633h-240l6 115q-62 -68 -133 -97q-73 -30 -186 -30q-160 0 -261 75q-104 77 -104 218q0 183 129 275q128 91 365 91h254l6 39q6 24 6 51q0 56 -46 86q-48 31 -122 31q-98 0 -144 -33t-67 -96h-280q88 340 512 340
q195 0 311 -82zM635 264q71 66 92 174l2 17h-213q-105 0 -156 -36t-51 -110q0 -53 39 -83q38 -29 98 -29q118 0 189 67zM557 1165l203 289h336l-320 -289h-219z" />
    <glyph glyph-name="abreve.ss01" horiz-adv-x="1239" 
d="M1229 1053l-182 -1053h-238l-6 137q-118 -149 -320 -149q-126 0 -222 59q-97 60 -152 164q-56 106 -56 235q0 174 76 314t204 223q127 82 281 82q232 0 322 -164l55 152h238zM720 273q69 49 108 134q38 84 38 177q0 120 -58 182q-58 63 -157 63q-89 0 -159 -50
q-71 -51 -108 -133q-38 -84 -38 -177q0 -119 57 -182q58 -64 156 -64q90 0 161 50zM668 1454q0 -58 25 -86q26 -29 73 -29q54 0 89 33q33 32 44 82h201q-28 -142 -119 -222q-89 -79 -223 -79q-138 0 -215 84q-76 83 -76 217h201z" />
    <glyph glyph-name="abreve.ss02" horiz-adv-x="1112" 
d="M940 983q117 -83 117 -246q0 -45 -10 -104l-113 -633h-240l6 115q-62 -68 -133 -97q-73 -30 -186 -30q-160 0 -261 75q-104 77 -104 218q0 183 129 275q128 91 365 91h254l6 39q6 24 6 51q0 56 -46 86q-48 31 -122 31q-98 0 -144 -33t-67 -96h-280q88 340 512 340
q195 0 311 -82zM635 264q71 66 92 174l2 17h-213q-105 0 -156 -36t-51 -110q0 -53 39 -83q38 -29 98 -29q118 0 189 67zM598 1454q0 -57 26 -86t72 -29q54 0 89 33q33 32 44 82h201q-28 -142 -119 -222q-89 -79 -223 -79q-138 0 -215 84q-76 83 -76 217h201z" />
    <glyph glyph-name="acircumflex.ss01" horiz-adv-x="1239" 
d="M1229 1053l-182 -1053h-238l-6 137q-118 -149 -320 -149q-126 0 -222 59q-97 60 -152 164q-56 106 -56 235q0 174 76 314t204 223q127 82 281 82q232 0 322 -164l55 152h238zM720 273q69 49 108 134q38 84 38 177q0 120 -58 182q-58 63 -157 63q-89 0 -159 -50
q-71 -51 -108 -133q-38 -84 -38 -177q0 -119 57 -182q58 -64 156 -64q90 0 161 50zM760 1284l-146 -121h-278l315 291h258l211 -291h-260z" />
    <glyph glyph-name="acircumflex.ss02" horiz-adv-x="1112" 
d="M940 983q117 -83 117 -246q0 -45 -10 -104l-113 -633h-240l6 115q-62 -68 -133 -97q-73 -30 -186 -30q-160 0 -261 75q-104 77 -104 218q0 183 129 275q128 91 365 91h254l6 39q6 24 6 51q0 56 -46 86q-48 31 -122 31q-98 0 -144 -33t-67 -96h-280q88 340 512 340
q195 0 311 -82zM635 264q71 66 92 174l2 17h-213q-105 0 -156 -36t-51 -110q0 -53 39 -83q38 -29 98 -29q118 0 189 67zM690 1284l-145 -121h-279l316 291h258l211 -291h-260z" />
    <glyph glyph-name="adieresis.ss01" horiz-adv-x="1239" 
d="M1229 1053l-182 -1053h-238l-6 137q-118 -149 -320 -149q-126 0 -222 59q-97 60 -152 164q-56 106 -56 235q0 174 76 314t204 223q127 82 281 82q232 0 322 -164l55 152h238zM720 273q69 49 108 134q38 84 38 177q0 120 -58 182q-58 63 -157 63q-89 0 -159 -50
q-71 -51 -108 -133q-38 -84 -38 -177q0 -119 57 -182q58 -64 156 -64q90 0 161 50zM659 1440q41 -39 41 -101q0 -67 -48 -112t-115 -45q-64 0 -104 40t-40 99q0 68 47 113q46 45 115 45q63 0 104 -39zM1090 1440q40 -39 40 -101q0 -67 -48 -112t-115 -45q-64 0 -104 40
t-40 99q0 68 47 113q46 45 115 45q65 0 105 -39z" />
    <glyph glyph-name="adieresis.ss02" horiz-adv-x="1112" 
d="M940 983q117 -83 117 -246q0 -45 -10 -104l-113 -633h-240l6 115q-62 -68 -133 -97q-73 -30 -186 -30q-160 0 -261 75q-104 77 -104 218q0 183 129 275q128 91 365 91h254l6 39q6 24 6 51q0 56 -46 86q-48 31 -122 31q-98 0 -144 -33t-67 -96h-280q88 340 512 340
q195 0 311 -82zM635 264q71 66 92 174l2 17h-213q-105 0 -156 -36t-51 -110q0 -53 39 -83q38 -29 98 -29q118 0 189 67zM590 1440q41 -39 41 -101q0 -67 -48 -112t-116 -45q-63 0 -103 40t-40 99q0 68 47 113t114 45q65 0 105 -39zM1020 1440q41 -39 41 -101q0 -67 -48 -112
t-116 -45q-63 0 -103 40t-40 99q0 68 47 113t114 45q65 0 105 -39z" />
    <glyph glyph-name="agrave.ss01" horiz-adv-x="1239" 
d="M1229 1053l-182 -1053h-238l-6 137q-118 -149 -320 -149q-126 0 -222 59q-97 60 -152 164q-56 106 -56 235q0 174 76 314t204 223q127 82 281 82q232 0 322 -164l55 152h238zM720 273q69 49 108 134q38 84 38 177q0 120 -58 182q-58 63 -157 63q-89 0 -159 -50
q-71 -51 -108 -133q-38 -84 -38 -177q0 -119 57 -182q58 -64 156 -64q90 0 161 50zM416 1454h321l92 -295h-211z" />
    <glyph glyph-name="agrave.ss02" horiz-adv-x="1112" 
d="M940 983q117 -83 117 -246q0 -45 -10 -104l-113 -633h-240l6 115q-62 -68 -133 -97q-73 -30 -186 -30q-160 0 -261 75q-104 77 -104 218q0 183 129 275q128 91 365 91h254l6 39q6 24 6 51q0 56 -46 86q-48 31 -122 31q-98 0 -144 -33t-67 -96h-280q88 340 512 340
q195 0 311 -82zM635 264q71 66 92 174l2 17h-213q-105 0 -156 -36t-51 -110q0 -53 39 -83q38 -29 98 -29q118 0 189 67zM346 1454h322l92 -295h-211z" />
    <glyph glyph-name="amacron.ss01" horiz-adv-x="1239" 
d="M1229 1053l-182 -1053h-238l-6 137q-118 -149 -320 -149q-126 0 -222 59q-97 60 -152 164q-56 106 -56 235q0 174 76 314t204 223q127 82 281 82q232 0 322 -164l55 152h238zM720 273q69 49 108 134q38 84 38 177q0 120 -58 182q-58 63 -157 63q-89 0 -159 -50
q-71 -51 -108 -133q-38 -84 -38 -177q0 -119 57 -182q58 -64 156 -64q90 0 161 50zM424 1227l37 205h635l-35 -205h-637z" />
    <glyph glyph-name="amacron.ss02" horiz-adv-x="1112" 
d="M940 983q117 -83 117 -246q0 -45 -10 -104l-113 -633h-240l6 115q-62 -68 -133 -97q-73 -30 -186 -30q-160 0 -261 75q-104 77 -104 218q0 183 129 275q128 91 365 91h254l6 39q6 24 6 51q0 56 -46 86q-48 31 -122 31q-98 0 -144 -33t-67 -96h-280q88 340 512 340
q195 0 311 -82zM635 264q71 66 92 174l2 17h-213q-105 0 -156 -36t-51 -110q0 -53 39 -83q38 -29 98 -29q118 0 189 67zM354 1227l37 205h635l-35 -205h-637z" />
    <glyph glyph-name="aogonek.ss01" horiz-adv-x="1239" 
d="M892 -85q-58 -46 -58 -85q0 -24 13 -36q12 -11 44 -11h133l-33 -193h-176q-99 0 -159 45t-60 138q0 83 55 148q56 67 156 128l-4 88q-118 -149 -320 -149q-126 0 -222 59q-97 60 -152 164q-56 106 -56 235q0 174 76 314t204 223q127 82 281 82q232 0 322 -164l55 152h238
l-182 -1053q-98 -40 -155 -85zM720 273q69 49 108 134q38 84 38 177q0 120 -58 182q-58 63 -157 63q-89 0 -159 -50q-71 -51 -108 -133q-38 -84 -38 -177q0 -119 57 -182q58 -64 156 -64q90 0 161 50z" />
    <glyph glyph-name="aogonek.ss02" horiz-adv-x="1112" 
d="M940 983q117 -83 117 -246q0 -45 -10 -104l-113 -633q-98 -40 -155 -85q-58 -46 -58 -85q0 -24 13 -36q12 -11 44 -11h133l-32 -193h-177q-98 0 -158 45q-61 46 -61 138q0 83 57 149q59 68 156 129l4 64q-62 -68 -133 -97q-73 -30 -186 -30q-160 0 -261 75
q-104 77 -104 218q0 183 129 275q128 91 365 91h254l6 39q6 24 6 51q0 56 -46 86q-48 31 -122 31q-98 0 -144 -33t-67 -96h-280q88 340 512 340q195 0 311 -82zM635 264q71 66 92 174l2 17h-213q-105 0 -156 -36t-51 -110q0 -53 39 -83q38 -29 98 -29q118 0 189 67z" />
    <glyph glyph-name="aring.ss01" horiz-adv-x="1239" 
d="M1229 1053l-182 -1053h-238l-6 137q-118 -149 -320 -149q-126 0 -222 59q-97 60 -152 164q-56 106 -56 235q0 174 76 314t204 223q127 82 281 82q232 0 322 -164l55 152h238zM720 273q69 49 108 134q38 84 38 177q0 120 -58 182q-58 63 -157 63q-89 0 -159 -50
q-71 -51 -108 -133q-38 -84 -38 -177q0 -119 57 -182q58 -64 156 -64q90 0 161 50zM577 1555q78 73 189 73t189 -73q77 -72 77 -175q0 -104 -77 -176q-75 -71 -189 -71t-189 71q-77 72 -77 176q0 103 77 175zM851 1464q-37 35 -85 35q-50 0 -84 -34q-35 -35 -35 -85
q0 -51 35 -86q34 -34 84 -34t85 34q36 34 36 86q0 50 -36 84z" />
    <glyph glyph-name="aring.ss02" horiz-adv-x="1112" 
d="M940 983q117 -83 117 -246q0 -45 -10 -104l-113 -633h-240l6 115q-62 -68 -133 -97q-73 -30 -186 -30q-160 0 -261 75q-104 77 -104 218q0 183 129 275q128 91 365 91h254l6 39q6 24 6 51q0 56 -46 86q-48 31 -122 31q-98 0 -144 -33t-67 -96h-280q88 340 512 340
q195 0 311 -82zM635 264q71 66 92 174l2 17h-213q-105 0 -156 -36t-51 -110q0 -53 39 -83q38 -29 98 -29q118 0 189 67zM507 1555q78 73 189 73q112 0 190 -73q77 -72 77 -175q0 -104 -77 -176q-75 -71 -190 -71q-114 0 -189 71q-77 72 -77 176q0 103 77 175zM781 1464
q-37 35 -85 35q-50 0 -84 -34t-34 -85q0 -52 34 -86t84 -34t85 34q36 34 36 86q0 50 -36 84z" />
    <glyph glyph-name="atilde.ss01" horiz-adv-x="1239" 
d="M1229 1053l-182 -1053h-238l-6 137q-118 -149 -320 -149q-126 0 -222 59q-97 60 -152 164q-56 106 -56 235q0 174 76 314t204 223q127 82 281 82q232 0 322 -164l55 152h238zM720 273q69 49 108 134q38 84 38 177q0 120 -58 182q-58 63 -157 63q-89 0 -159 -50
q-71 -51 -108 -133q-38 -84 -38 -177q0 -119 57 -182q58 -64 156 -64q90 0 161 50zM728 1442q33 -16 60 -41q20 -19 33 -25q16 -8 33 -8q39 0 58 25t26 65l164 -10q-45 -262 -228 -262q-53 0 -79 13q-27 13 -60 42q-17 17 -32 26t-35 9q-70 0 -86 -90l-168 10q24 130 82 196
q57 64 149 64q55 0 83 -14z" />
    <glyph glyph-name="atilde.ss02" horiz-adv-x="1112" 
d="M940 983q117 -83 117 -246q0 -45 -10 -104l-113 -633h-240l6 115q-62 -68 -133 -97q-73 -30 -186 -30q-160 0 -261 75q-104 77 -104 218q0 183 129 275q128 91 365 91h254l6 39q6 24 6 51q0 56 -46 86q-48 31 -122 31q-98 0 -144 -33t-67 -96h-280q88 340 512 340
q195 0 311 -82zM635 264q71 66 92 174l2 17h-213q-105 0 -156 -36t-51 -110q0 -53 39 -83q38 -29 98 -29q118 0 189 67zM658 1442q35 -17 61 -41q20 -19 33 -25q16 -8 32 -8q40 0 59 25q17 23 25 65l164 -10q-45 -262 -227 -262q-54 0 -80 13q-25 12 -59 42q-17 17 -32 26
t-36 9q-70 0 -86 -90l-168 10q24 130 82 196q57 64 149 64q55 0 83 -14z" />
    <glyph glyph-name="f.calt" horiz-adv-x="659" 
d="M317 1361q79 73 238 73h258l-43 -246h-170q-54 0 -78 -21q-26 -23 -33 -65l-8 -49h264l-40 -244h-267l-141 -809h-289l203 1143q29 147 106 218z" />
    <glyph glyph-name="i.ss03" horiz-adv-x="567" 
d="M350 1441q52 50 125 50q71 0 114 -43q44 -44 44 -109q0 -71 -53 -122q-54 -52 -125 -52q-69 0 -113 42q-43 42 -43 110q0 75 51 124zM229 809h-170l43 244h459l-184 -1053h-291z" />
    <glyph glyph-name="dotlessi.ss03" horiz-adv-x="569" 
d="M102 1053h459l-184 -1053h-291l143 809h-170z" />
    <glyph glyph-name="iacute.ss03" horiz-adv-x="569" 
d="M102 1053h459l-184 -1053h-291l143 809h-170zM317 1163l203 289h336l-319 -289h-220z" />
    <glyph glyph-name="ibreve.ss03" horiz-adv-x="569" 
d="M102 1053h459l-184 -1053h-291l143 809h-170zM358 1452q0 -57 26 -86t73 -29q54 0 89 33q33 32 44 82h201q-28 -142 -119 -222q-89 -79 -223 -79q-139 0 -216 84q-75 82 -75 217h200z" />
    <glyph glyph-name="icircumflex.ss03" horiz-adv-x="569" 
d="M102 1053h459l-184 -1053h-291l143 809h-170zM451 1282l-146 -121h-278l315 291h258l211 -291h-260z" />
    <glyph glyph-name="idieresis.ss03" horiz-adv-x="569" 
d="M102 1053h459l-184 -1053h-291l143 809h-170zM350 1438q41 -39 41 -101q0 -67 -48 -112t-116 -45q-63 0 -103 40t-40 99q0 68 47 113q46 45 115 45q64 0 104 -39zM780 1438q41 -39 41 -101q0 -67 -48 -112t-116 -45q-63 0 -103 40t-40 99q0 68 47 113t115 45
q64 0 104 -39z" />
    <glyph glyph-name="i.loclTRK" horiz-adv-x="491" 
d="M193 1053h290l-186 -1053h-289zM512 1470q43 -40 43 -106q0 -76 -51 -126q-52 -50 -125 -50q-69 0 -113 42q-43 42 -43 107q0 75 52 124q53 50 126 50q67 0 111 -41z" />
    <glyph glyph-name="i.loclTRK.ss03" horiz-adv-x="569" 
d="M102 1053h459l-184 -1053h-291l143 809h-170zM578 1468q43 -40 43 -106q0 -76 -52 -126t-125 -50q-68 0 -112 42q-43 42 -43 107q0 75 52 124q53 50 126 50q67 0 111 -41z" />
    <glyph glyph-name="igrave.ss03" horiz-adv-x="569" 
d="M102 1053h459l-184 -1053h-291l143 809h-170zM106 1452h322l92 -295h-211z" />
    <glyph glyph-name="ij.ss03" horiz-adv-x="1067" 
d="M510 1448q43 -43 43 -109q0 -75 -52 -124q-53 -50 -126 -50q-70 0 -113 43t-43 109q0 75 52 124q53 50 126 50q70 0 113 -43zM193 1053h288l-184 -1053h-289zM851 1440q53 51 126 51q70 0 113 -43t43 -109q0 -74 -53 -124t-126 -50q-68 0 -111 42q-44 42 -44 108
q0 74 52 125zM432 -166q125 0 146 125l151 850h-170l43 244h459l-203 -1153q-27 -151 -118 -230q-92 -80 -246 -80h-209l41 244h106z" />
    <glyph glyph-name="ij.ss04" horiz-adv-x="978" 
d="M510 1448q43 -43 43 -109q0 -75 -52 -124q-53 -50 -126 -50q-70 0 -113 43t-43 109q0 75 52 124q53 50 126 50q70 0 113 -43zM193 1053h288l-184 -1053h-289zM761 1441q53 50 126 50q69 0 112 -43t43 -109q0 -75 -52 -124q-53 -50 -126 -50q-69 0 -112 43t-43 109
q0 75 52 124zM682 1053h291l-258 -1463h-289z" />
    <glyph glyph-name="imacron.ss03" horiz-adv-x="569" 
d="M102 1053h459l-184 -1053h-291l143 809h-170zM115 1225l37 205h634l-34 -205h-637z" />
    <glyph glyph-name="iogonek.ss03" horiz-adv-x="567" 
d="M589 1448q44 -44 44 -109q0 -71 -53 -122q-54 -52 -125 -52q-69 0 -113 42q-43 42 -43 110q0 75 51 124q52 50 125 50q71 0 114 -43zM102 1053h459l-184 -1053q-98 -40 -155 -85q-58 -46 -58 -85q0 -24 13 -36q12 -11 44 -11h133l-32 -193h-177q-98 0 -158 45
q-61 46 -61 138q0 71 42 131q41 59 120 112l141 793h-170z" />
    <glyph glyph-name="itilde.ss03" horiz-adv-x="569" 
d="M102 1053h459l-184 -1053h-291l143 809h-170zM419 1440q33 -16 60 -41q20 -19 33 -25q16 -8 33 -8q39 0 58 25t26 65l164 -10q-45 -262 -228 -262q-54 0 -80 13q-25 12 -59 42q-17 17 -32 26t-36 9q-70 0 -86 -90l-168 10q24 130 82 196q57 64 150 64q55 0 83 -14z" />
    <glyph glyph-name="j.short" horiz-adv-x="497" 
d="M281 1441q52 50 125 50q70 0 113 -43q44 -44 44 -109q0 -74 -53 -124t-127 -50q-68 0 -111 43t-43 109q0 74 52 124zM-125 -166q59 0 91 29t44 98l193 1092h289l-203 -1153q-27 -151 -114 -230q-88 -80 -236 -80h-138l43 244h31z" />
    <glyph glyph-name="j.ss03" horiz-adv-x="577" 
d="M361 1440q53 51 126 51q70 0 113 -43t43 -109q0 -75 -52 -124q-53 -50 -126 -50q-69 0 -112 42q-44 42 -44 108q0 74 52 125zM-57 -166q124 0 145 125l152 850h-170l43 244h458l-202 -1153q-27 -151 -118 -230q-92 -80 -247 -80h-209l41 244h107z" />
    <glyph glyph-name="j.ss04" horiz-adv-x="489" 
d="M271 1441q53 50 126 50q70 0 113 -43t43 -109q0 -75 -52 -124q-53 -50 -126 -50q-70 0 -113 43t-43 109q0 75 52 124zM193 1053h290l-258 -1463h-288z" />
    <glyph glyph-name="uni0237.short" horiz-adv-x="499" 
d="M-125 -166q59 0 91 29t44 98l193 1092h289l-203 -1153q-27 -151 -114 -230q-88 -80 -236 -80h-138l43 244h31z" />
    <glyph glyph-name="uni0237.ss03" horiz-adv-x="579" 
d="M-57 -166q124 0 145 125l152 850h-170l43 244h458l-202 -1153q-27 -151 -118 -230q-92 -80 -247 -80h-209l41 244h107z" />
    <glyph glyph-name="uni0237.ss04" horiz-adv-x="489" 
d="M193 1053h288l-256 -1463h-291z" />
    <glyph glyph-name="jcircumflex.short" horiz-adv-x="499" 
d="M-125 -166q59 0 91 29t44 98l193 1092h289l-203 -1153q-27 -151 -114 -230q-88 -80 -236 -80h-138l43 244h31zM391 1284l-145 -121h-279l316 291h258l211 -291h-260z" />
    <glyph glyph-name="jcircumflex.ss03" horiz-adv-x="579" 
d="M-57 -166q124 0 145 125l152 850h-170l43 244h458l-202 -1153q-27 -151 -118 -230q-92 -80 -247 -80h-209l41 244h107zM475 1284l-145 -121h-279l316 291h258l211 -291h-261z" />
    <glyph glyph-name="jcircumflex.ss04" horiz-adv-x="489" 
d="M193 1053h288l-256 -1463h-291zM385 1284l-145 -121h-279l315 291h259l210 -291h-260z" />
    <glyph glyph-name="t.calt" horiz-adv-x="661" 
d="M246 1348h289l-54 -295h242l-43 -244h-242l-82 -463l-4 -41q0 -31 20 -46t62 -15h156l-41 -244h-217q-133 0 -205 59q-74 60 -74 172q0 32 10 91z" />
    <glyph glyph-name="t.ss05" horiz-adv-x="704" 
d="M86 1053h174l53 295h289l-53 -295h227l-41 -244h-227l-143 -809h-289l141 809h-174z" />
    <glyph glyph-name="tbar.calt" horiz-adv-x="661" 
d="M438 809l-24 -141h241l-37 -211h-241l-21 -111l-4 -41q0 -31 20 -46t62 -15h156l-41 -244h-217q-133 0 -205 59q-74 60 -74 172q0 32 10 91l183 1026h289l-54 -295h242l-43 -244h-242z" />
    <glyph glyph-name="tbar.ss05" horiz-adv-x="751" 
d="M760 809h-232l-28 -164h231l-39 -209h-229l-78 -436h-291l78 436h-180l37 209h180l29 164h-181l43 244h181l51 295h291l-52 -295h232z" />
    <glyph glyph-name="tcaron.calt" horiz-adv-x="696" 
d="M246 1348h289l-54 -295h242l-43 -244h-242l-82 -463l-4 -41q0 -31 20 -46t62 -15h156l-41 -244h-217q-133 0 -205 59q-74 60 -74 172q0 32 10 91zM705 1444h274l-191 -303h-208z" />
    <glyph glyph-name="tcaron.ss05" horiz-adv-x="749" 
d="M86 1053h174l53 295h289l-53 -295h227l-41 -244h-227l-143 -809h-289l141 809h-174zM760 1440h274l-190 -303h-209z" />
    <glyph glyph-name="uni0163.calt" horiz-adv-x="661" 
d="M246 1348h289l-54 -295h242l-43 -244h-242l-82 -463l-4 -41q0 -31 20 -46t62 -15h156l-41 -244h-217q-133 0 -205 59q-74 60 -74 172q0 32 10 91zM117 -98h286l-225 -301h-223z" />
    <glyph glyph-name="uni0163.ss05" horiz-adv-x="704" 
d="M86 1053h174l53 295h289l-53 -295h227l-41 -244h-227l-143 -809h-289l141 809h-174zM55 -98h287l-225 -301h-223z" />
    <glyph glyph-name="uni021B.calt" horiz-adv-x="661" 
d="M246 1348h289l-54 -295h242l-43 -244h-242l-82 -463l-4 -41q0 -31 20 -46t62 -15h156l-41 -244h-217q-133 0 -205 59q-74 60 -74 172q0 32 10 91zM117 -98h286l-225 -301h-223z" />
    <glyph glyph-name="uni021B.ss05" horiz-adv-x="704" 
d="M86 1053h174l53 295h289l-53 -295h227l-41 -244h-227l-143 -809h-289l141 809h-174zM55 -98h287l-225 -301h-223z" />
    <glyph glyph-name="y.ss01" horiz-adv-x="1196" 
d="M1188 1053l-184 -1043q-35 -203 -168 -317q-135 -115 -402 -115q-221 0 -339 97t-113 270h288q5 -80 46 -114t128 -34q108 0 186 64q77 63 95 170l18 106q-68 -68 -142 -102q-76 -35 -173 -35q-163 0 -261 82q-99 82 -99 268q0 62 12 144l98 559h289l-94 -545
q-13 -68 -13 -109q0 -82 37 -119q38 -38 115 -38q114 0 193 82q80 83 104 225l90 504h289z" />
    <glyph glyph-name="yacute.ss01" horiz-adv-x="1196" 
d="M1188 1053l-184 -1043q-35 -203 -168 -317q-135 -115 -402 -115q-221 0 -339 97t-113 270h288q5 -80 46 -114t128 -34q108 0 186 64q77 63 95 170l18 106q-68 -68 -142 -102q-76 -35 -173 -35q-163 0 -261 82q-99 82 -99 268q0 62 12 144l98 559h289l-94 -545
q-13 -68 -13 -109q0 -82 37 -119q38 -38 115 -38q114 0 193 82q80 83 104 225l90 504h289zM598 1165l203 289h336l-320 -289h-219z" />
    <glyph glyph-name="ycircumflex.ss01" horiz-adv-x="1196" 
d="M1188 1053l-184 -1043q-35 -203 -168 -317q-135 -115 -402 -115q-221 0 -339 97t-113 270h288q5 -80 46 -114t128 -34q108 0 186 64q77 63 95 170l18 106q-68 -68 -142 -102q-76 -35 -173 -35q-163 0 -261 82q-99 82 -99 268q0 62 12 144l98 559h289l-94 -545
q-13 -68 -13 -109q0 -82 37 -119q38 -38 115 -38q114 0 193 82q80 83 104 225l90 504h289zM731 1284l-145 -121h-279l316 291h258l211 -291h-261z" />
    <glyph glyph-name="ydieresis.ss01" horiz-adv-x="1196" 
d="M1188 1053l-184 -1043q-35 -203 -168 -317q-135 -115 -402 -115q-221 0 -339 97t-113 270h288q5 -80 46 -114t128 -34q108 0 186 64q77 63 95 170l18 106q-68 -68 -142 -102q-76 -35 -173 -35q-163 0 -261 82q-99 82 -99 268q0 62 12 144l98 559h289l-94 -545
q-13 -68 -13 -109q0 -82 37 -119q38 -38 115 -38q114 0 193 82q80 83 104 225l90 504h289zM631 1440q41 -39 41 -101q0 -67 -48 -112t-116 -45q-64 0 -104 40q-39 39 -39 99q0 68 47 113q46 45 114 45q64 0 105 -39zM1061 1440q41 -39 41 -101q0 -67 -48 -112t-116 -45
q-63 0 -103 40t-40 99q0 68 47 113q46 45 114 45q64 0 105 -39z" />
    <glyph glyph-name="ygrave.ss01" horiz-adv-x="1196" 
d="M1188 1053l-184 -1043q-35 -203 -168 -317q-135 -115 -402 -115q-221 0 -339 97t-113 270h288q5 -80 46 -114t128 -34q108 0 186 64q77 63 95 170l18 106q-68 -68 -142 -102q-76 -35 -173 -35q-163 0 -261 82q-99 82 -99 268q0 62 12 144l98 559h289l-94 -545
q-13 -68 -13 -109q0 -82 37 -119q38 -38 115 -38q114 0 193 82q80 83 104 225l90 504h289zM387 1454h322l92 -295h-211z" />
    <glyph glyph-name="w_w_w" horiz-adv-x="4452" 
d="M4243 1053h299l-532 -1053h-307l-70 635l-303 -635h-307l-92 604l-305 -604h-308l-69 635l-303 -635h-308l-92 608l-307 -608h-307l-70 635l-303 -635h-307l-160 1053h301l80 -742l332 742h258l59 -744l351 744h307l80 -742l331 742h258l60 -744l350 744h305l80 -742
l332 742h258l59 -744z" />
    <glyph glyph-name="zero.osf" horiz-adv-x="1269" 
d="M967 1006q116 -61 178 -164q63 -105 63 -238q0 -173 -84 -314q-84 -140 -230 -221q-147 -81 -327 -81q-153 0 -266 58q-116 59 -178 163q-64 107 -64 237q0 175 84 316t231 222t326 81q155 0 267 -59zM852 758q-63 63 -164 63q-95 0 -174 -50q-77 -49 -121 -132
q-43 -82 -43 -176q0 -108 65 -171q64 -63 167 -63q95 0 172 50q74 48 118 131q43 82 43 176q0 109 -63 172z" />
    <glyph glyph-name="one.osf" horiz-adv-x="696" 
d="M244 836q52 0 93 45q39 44 50 106l12 66h283l-186 -1053h-289l115 602q-51 -6 -107 -6h-186l43 240h172z" />
    <glyph glyph-name="two.osf" horiz-adv-x="1085" 
d="M465 231h504l-43 -231h-953l37 217l490 246q123 62 188 115q64 52 64 129q0 57 -43 90q-42 32 -117 32q-91 0 -153 -56q-63 -57 -81 -157h-288q41 221 180 335t352 114q130 0 229 -43q100 -43 157 -121q56 -77 56 -176q0 -132 -76 -218q-77 -87 -214 -149z" />
    <glyph glyph-name="three.osf" horiz-adv-x="1204" 
d="M994 268q69 -72 69 -192q0 -142 -79 -246q-80 -105 -214 -159q-135 -54 -297 -54q-229 0 -363 107q-135 108 -135 288q0 47 9 94h286q-4 -51 -4 -63q0 -95 62 -145t166 -50q124 0 201 66t77 168q0 70 -52 113t-159 43h-143l43 229h108q125 0 203 60t78 157q0 67 -50 108
q-48 39 -138 39q-104 0 -175 -61t-94 -156h-282q39 216 183 331q145 116 376 116q144 0 251 -43q106 -43 165 -120t59 -177q0 -141 -91 -229t-245 -121q114 -29 185 -103z" />
    <glyph glyph-name="four.osf" horiz-adv-x="1239" 
d="M739 1053h369l-143 -809h182l-43 -244h-182l-66 -369h-276l65 369h-694l41 248zM786 780l-495 -536h397z" />
    <glyph glyph-name="five.osf" horiz-adv-x="1206" 
d="M453 805l-66 -295q106 80 258 80q117 0 219 -50q98 -48 160 -143q59 -90 59 -213q0 -167 -75 -293q-76 -129 -210 -201q-135 -73 -306 -73q-154 0 -264 55t-171 151q-59 93 -59 212q0 42 4 55h289v-2q-6 -106 53 -168q60 -63 158 -63q133 0 209 85q75 84 75 212
q0 94 -58 151t-148 57q-81 0 -147 -36q-70 -38 -114 -119l-272 8l186 838h922l-45 -248h-657z" />
    <glyph glyph-name="six.osf" horiz-adv-x="1255" 
d="M355 45q-110 57 -173 156q-92 146 -92 350q0 260 79 455q80 197 235 306t378 109q231 0 361 -106q131 -107 125 -295h-285q-11 89 -65 126q-56 38 -152 38q-149 0 -238 -107q-87 -105 -122 -272q-3 -30 -3 -33q51 88 146 136q91 46 209 46q128 0 225 -50q98 -51 150 -141
q53 -92 53 -210q0 -166 -74 -294t-207 -200q-132 -71 -303 -71q-138 0 -247 57zM816 302q77 83 77 212q0 93 -56 152t-149 59q-126 0 -209 -84q-82 -83 -82 -207q0 -88 61 -152q60 -63 152 -63q129 0 206 83z" />
    <glyph glyph-name="seven.osf" horiz-adv-x="1103" 
d="M129 1053h1020l-39 -234l-811 -1188h-328l811 1176h-696z" />
    <glyph glyph-name="eight.osf" horiz-adv-x="1202" 
d="M1051 628q61 -79 61 -200q0 -142 -75 -241q-76 -100 -203 -149q-130 -50 -291 -50q-155 0 -268 49q-115 50 -174 134q-60 85 -60 189q0 163 94 264q95 102 252 126q-82 28 -135 95t-53 171q0 129 68 219q70 92 190 140q121 48 274 48q141 0 243 -46q104 -47 159 -126
t55 -178q0 -135 -84 -223q-84 -89 -215 -113q101 -30 162 -109zM542 1160q-69 -54 -69 -144q0 -72 55 -115t144 -43q105 0 174 54t69 145q0 70 -56 113q-58 44 -144 44q-104 0 -173 -54zM755 264q79 69 79 176q0 79 -64 132t-162 53q-130 0 -209 -69q-80 -69 -80 -173
q0 -83 65 -136q64 -52 163 -52q129 0 208 69z" />
    <glyph glyph-name="nine.osf" horiz-adv-x="1257" 
d="M901 1009q110 -58 172 -157q92 -142 92 -350q0 -260 -79 -457q-80 -200 -234 -311q-157 -113 -377 -113q-227 0 -359 111t-126 301h282q22 -174 220 -174q298 0 358 389l4 35q-52 -90 -145 -137q-91 -46 -209 -46q-127 0 -227 51q-97 49 -150 140t-53 209q0 167 73 294
t207 199t303 72q142 0 248 -56zM439 751q-76 -82 -76 -212q0 -92 57 -152q56 -59 149 -59q84 0 150 39q64 38 102 105q37 65 37 147q0 90 -59 152q-60 63 -154 63q-129 0 -206 -83z" />
    <glyph glyph-name="one.osf.ss08" 
d="M1104 240l-41 -240h-981l43 240h352l70 366q-50 -8 -107 -8h-235l41 236h221q52 0 93 44q40 43 52 105l11 70h284l-143 -813h340z" />
    <glyph glyph-name="seven.osf.ss08" horiz-adv-x="1118" 
d="M129 1053h1034l-39 -234l-811 -1188h-327l811 1176h-459l-39 -217h-252z" />
    <glyph glyph-name="four.osf.ss09" horiz-adv-x="1128" 
d="M750 1053h366l-252 -1422h-278l65 369h-708l41 244zM793 782l-504 -538h405z" />
    <glyph glyph-name="zero.osf.zero" horiz-adv-x="1275" 
d="M979 1008q114 -57 177 -161q63 -103 63 -239q0 -40 -11 -104q-27 -151 -117 -267q-91 -117 -230 -184q-136 -65 -300 -65q-151 0 -265 57q-112 56 -176 160q-63 102 -63 237q0 41 11 105q27 151 117 267q91 117 230 184q140 67 300 67q150 0 264 -57zM344 446
q0 -41 8 -73l484 424q-54 32 -127 32q-132 0 -234 -93q-103 -94 -127 -232q-4 -19 -4 -58zM932 604q0 51 -10 78l-482 -426q56 -33 125 -33q131 0 235 92t128 232q4 19 4 57z" />
    <glyph glyph-name="one.ss08" horiz-adv-x="1171" 
d="M1024 250l-45 -250h-977l41 246l348 2l123 663q-22 -6 -72 -6h-256l43 244h205q52 0 93 47t53 109l22 129h289l-209 -1186z" />
    <glyph glyph-name="seven.ss08" horiz-adv-x="1079" 
d="M1204 1434l-30 -191l-814 -1243h-321l803 1184h-457l-37 -213h-248l82 463h1022z" />
    <glyph glyph-name="four.ss09" horiz-adv-x="1142" 
d="M45 559l770 875h387l-252 -1434h-288l53 307h-711zM334 553h426l106 594z" />
    <glyph glyph-name="zero.tf" 
d="M1105 1300q124 -145 124 -397q0 -244 -80 -454q-80 -209 -236 -335t-372 -126q-229 0 -351 143t-122 395q0 247 79 456t236 337q155 127 373 127q224 0 349 -146zM536 1096q-86 -101 -129 -256q-45 -161 -45 -316q0 -141 52 -214q51 -72 147 -72q119 0 204 100
q84 99 128 256q43 154 43 313q0 143 -50 216t-149 73q-116 0 -201 -100z" />
    <glyph glyph-name="one.tf" 
d="M1081 250l-45 -250h-977l41 246l349 2l122 663q-23 -6 -71 -6h-256l43 244h205q52 0 93 47q40 45 52 109l22 129h289l-209 -1186z" />
    <glyph glyph-name="two.tf" 
d="M639 684q139 102 204 177q68 78 68 181q0 74 -50 116t-136 42q-111 0 -188 -72q-76 -72 -97 -188l-2 -12h-297l6 49q27 139 105 246q77 106 201 166q121 59 274 59q225 0 354 -109q127 -108 127 -290q0 -116 -47 -210q-45 -90 -127 -169q-74 -72 -205 -166l-372 -256h622
l-45 -248h-1052l38 227z" />
    <glyph glyph-name="three.tf" 
d="M1073 638q72 -72 72 -189q0 -146 -82 -250q-83 -106 -221 -158q-141 -53 -310 -53q-231 0 -364 106t-133 291q0 49 10 92h289q-4 -47 -4 -59q0 -98 59 -148q60 -51 162 -51q125 0 213 69t88 175q0 65 -56 105t-169 40h-152l41 236h119q125 0 210 63t85 164q0 66 -54 105
q-53 38 -135 38q-109 0 -184 -59t-98 -154h-285q39 220 185 332q148 113 389 113q146 0 253 -43q109 -44 167 -120q59 -77 59 -177q0 -148 -92 -240t-248 -125q113 -30 186 -103z" />
    <glyph glyph-name="four.tf" 
d="M18 559l770 875h388l-154 -881h199l-43 -246h-199l-55 -307h-289l53 307h-711zM307 553h426l107 594z" />
    <glyph glyph-name="five.tf" 
d="M530 1186l-67 -305q127 96 293 96q122 0 216 -52q96 -53 148 -146q54 -96 54 -216q0 -169 -81 -299q-82 -132 -223 -204t-317 -72q-152 0 -261 55t-166 150q-56 93 -56 213q0 44 4 55h286v-2q-4 -102 58 -166t162 -64q131 0 214 92t83 226q0 88 -56 142q-55 54 -145 54
q-80 0 -153 -35q-75 -36 -120 -122l-288 8l188 840h942l-43 -248h-672z" />
    <glyph glyph-name="six.tf" 
d="M337 45q-110 57 -173 156q-90 145 -90 350q0 264 79 465q80 205 234 317q157 115 377 115q224 0 352 -113q127 -112 121 -305h-283q-28 180 -206 180q-158 0 -242 -106t-117 -299q-4 -13 -4 -33q53 86 147 134t207 48q195 0 313 -109q117 -108 117 -292q0 -165 -73 -293
t-208 -201q-132 -71 -304 -71q-138 0 -247 57zM799 303q78 84 78 213q0 91 -58 152q-56 59 -149 59q-85 0 -151 -39t-103 -106t-37 -148q0 -90 59 -152q60 -63 154 -63q129 0 207 84z" />
    <glyph glyph-name="seven.tf" 
d="M248 1434h1057l-31 -191l-848 -1243h-334l836 1184h-723z" />
    <glyph glyph-name="eight.tf" 
d="M1075 630q68 -82 68 -202q0 -142 -78 -241q-79 -100 -211 -149q-135 -50 -301 -50q-161 0 -277 49q-117 49 -179 134q-62 84 -62 189q0 163 101 267q102 105 267 129q-88 28 -147 104q-59 75 -59 180q0 130 71 220q72 92 197 140t283 48q146 0 251 -46q107 -47 164 -126
q58 -81 58 -180q0 -138 -91 -234q-89 -94 -225 -121q103 -30 170 -111zM554 1179q-73 -61 -73 -153q0 -72 58 -116t143 -44q108 0 181 61t73 154q0 72 -56 115t-143 43q-111 0 -183 -60zM773 264q81 69 81 176q0 81 -67 134t-166 53q-129 0 -213 -70q-82 -69 -82 -174
q0 -83 66 -136q65 -52 167 -52q133 0 214 69z" />
    <glyph glyph-name="nine.tf" 
d="M951 1391q109 -57 171 -158q92 -142 92 -350q0 -264 -79 -464q-80 -203 -236 -317t-377 -114q-229 0 -355 113q-128 114 -122 305h285q24 -181 209 -181q158 0 244 107t116 297q2 22 2 35q-53 -92 -145 -139q-91 -46 -209 -46q-128 0 -225 50t-150 142t-53 210
q0 165 74 295q73 128 206 200t303 72q140 0 249 -57zM489 1133q-77 -83 -77 -213q0 -93 56 -152t148 -59q85 0 151 39q65 39 103 105q37 65 37 146q0 92 -59 154q-61 64 -154 64q-127 0 -205 -84z" />
    <glyph glyph-name="seven.tf.ss08" 
d="M1268 1434l-31 -191l-813 -1243h-322l803 1184h-456l-37 -213h-248l82 463h1022z" />
    <glyph glyph-name="four.tf.ss09" 
d="M63 559l771 875h387l-252 -1434h-289l53 307h-710zM352 553h426l107 594z" />
    <glyph glyph-name="zero.tf.zero" 
d="M1105 1300q124 -145 124 -397q0 -244 -80 -454q-80 -209 -236 -335t-372 -126q-229 0 -351 143t-122 395q0 247 79 456t236 337q155 127 373 127q224 0 349 -146zM543 1104q-81 -89 -128 -236q-47 -146 -53 -299l556 488q-43 139 -181 139q-111 0 -194 -92zM757 330
q83 92 128 236t51 298l-553 -491q47 -135 178 -135q113 0 196 92z" />
    <glyph glyph-name="zero.tosf" 
d="M178 814q89 117 224 184q136 67 290 67q145 0 256 -57q110 -57 171 -160q61 -104 61 -236q0 -44 -11 -108q-27 -150 -116 -266q-90 -117 -225 -184q-134 -66 -289 -66q-145 0 -256 57q-110 57 -171 160q-61 104 -61 235q0 48 10 107q27 148 117 267zM889 608
q0 97 -55 155t-150 58q-121 0 -217 -90q-97 -91 -121 -227q-4 -19 -4 -58q0 -98 55 -157q55 -60 148 -60q123 0 218 90q96 91 120 228q6 30 6 61z" />
    <glyph glyph-name="one.tosf" 
d="M1104 240l-41 -240h-981l43 240h352l70 366q-50 -8 -107 -8h-235l41 236h221q52 0 93 44q40 43 52 105l11 70h284l-143 -813h340z" />
    <glyph glyph-name="two.tosf" 
d="M557 231h504l-43 -231h-952l36 217l490 246q123 62 188 115q64 52 64 129q0 57 -43 90q-42 32 -117 32q-91 0 -153 -56t-80 -157h-289q41 221 180 335q140 114 352 114q131 0 230 -43t156 -121t57 -176q0 -130 -77 -218q-77 -87 -214 -149z" />
    <glyph glyph-name="three.tosf" 
d="M1032 259q72 -72 72 -189q0 -146 -82 -250q-83 -106 -221 -158q-141 -53 -309 -53q-232 0 -365 106t-133 291q0 49 10 92h289q-4 -47 -4 -59q0 -98 59 -148q60 -51 162 -51q124 0 213 69q88 69 88 175q0 65 -56 105t-169 40h-152l41 236h119q124 0 210 63q85 63 85 164
q0 66 -54 105t-135 39q-108 0 -184 -60q-76 -59 -98 -153h-285q39 219 185 331q148 113 389 113q147 0 254 -43t166 -120t59 -177q0 -148 -92 -240t-248 -125q113 -30 186 -103z" />
    <glyph glyph-name="four.tosf" 
d="M733 1053h369l-144 -809h183l-43 -244h-183l-65 -369h-277l66 369h-694l41 248zM780 780l-495 -536h397z" />
    <glyph glyph-name="five.tosf" 
d="M459 805l-66 -295q106 80 258 80q117 0 219 -50q98 -48 160 -143q60 -91 60 -213q0 -165 -76 -293q-76 -129 -210 -201q-135 -73 -306 -73q-154 0 -264 55t-171 151q-59 93 -59 212q0 42 4 55h289v-2q-6 -106 53 -168q60 -63 158 -63q133 0 209 85t76 212q0 94 -59 151
q-58 57 -148 57q-81 0 -147 -36q-68 -37 -113 -119l-273 8l187 838h921l-45 -248h-657z" />
    <glyph glyph-name="six.tosf" 
d="M355 45q-110 57 -173 156q-92 146 -92 350q0 260 79 455q80 197 235 306t378 109q231 0 361 -106q131 -107 125 -295h-285q-11 89 -65 126q-56 38 -152 38q-149 0 -238 -107q-87 -105 -122 -272q-3 -30 -3 -33q51 88 146 136q91 46 209 46q128 0 225 -50q98 -51 150 -141
q53 -92 53 -210q0 -166 -74 -294t-207 -200q-132 -71 -303 -71q-138 0 -247 57zM816 302q77 83 77 212q0 93 -56 152t-149 59q-126 0 -209 -84q-82 -83 -82 -207q0 -88 61 -152q60 -63 152 -63q129 0 206 83z" />
    <glyph glyph-name="seven.tosf" 
d="M190 1053h1020l-39 -234l-811 -1188h-327l811 1176h-697z" />
    <glyph glyph-name="eight.tosf" 
d="M1065 628q61 -79 61 -200q0 -143 -74 -241q-76 -100 -204 -149q-130 -50 -291 -50q-154 0 -267 49q-115 50 -174 134q-61 87 -61 189q0 161 95 264q95 102 251 126q-82 28 -135 95t-53 171q0 128 69 219q70 93 189 140q122 48 274 48q141 0 243 -46q104 -47 159 -126
t55 -178q0 -135 -84 -223q-84 -89 -215 -113q101 -30 162 -109zM556 1160q-69 -54 -69 -144q0 -71 56 -115q55 -43 143 -43q105 0 174 54q70 55 70 145q0 69 -57 113q-58 44 -144 44q-104 0 -173 -54zM769 264q79 69 79 176q0 79 -64 132t-161 53q-129 0 -209 -69t-80 -173
q0 -84 64 -136t163 -52q129 0 208 69z" />
    <glyph glyph-name="nine.tosf" 
d="M887 1009q110 -58 172 -157q92 -142 92 -350q0 -260 -79 -457q-80 -200 -234 -311q-157 -113 -377 -113q-228 0 -360 111t-126 301h283q22 -174 219 -174q299 0 359 389l4 35q-52 -89 -146 -137q-91 -46 -209 -46q-126 0 -226 51q-97 49 -150 140q-54 93 -54 209
q0 166 74 294q73 127 207 199t303 72q142 0 248 -56zM425 751q-77 -83 -77 -212q0 -91 58 -152q56 -59 149 -59q84 0 150 39q64 38 102 105q37 65 37 147q0 89 -60 152t-153 63q-129 0 -206 -83z" />
    <glyph glyph-name="seven.tosf.ss08" 
d="M188 1053h1035l-39 -234l-811 -1188h-328l811 1176h-459l-39 -217h-252z" />
    <glyph glyph-name="four.tosf.ss09" 
d="M-2 178l770 875h387l-252 -1434h-289l54 307h-711zM287 172h426l106 594z" />
    <glyph glyph-name="zero.tosf.zero" 
d="M948 1008q110 -57 171 -160q61 -104 61 -236q0 -44 -11 -108q-27 -150 -116 -266q-90 -117 -225 -184q-134 -66 -289 -66q-145 0 -256 57q-110 57 -171 160q-61 104 -61 235q0 48 10 107q27 148 117 267q89 117 224 184q136 67 290 67q145 0 256 -57zM336 440
q0 -28 6 -57l467 410q-50 34 -123 34q-121 0 -221 -92q-99 -91 -123 -231q-6 -30 -6 -64zM895 612q0 33 -6 60l-467 -414q52 -35 123 -35q124 0 222 92t122 232q6 35 6 65z" />
    <glyph glyph-name="zero.zero" horiz-adv-x="1323" 
d="M1073 1378q114 -68 173 -191q61 -127 61 -288q0 -246 -88 -453q-89 -209 -253 -333q-166 -125 -384 -125q-154 0 -265 65q-113 66 -173 189t-60 288q0 243 88 452q88 210 253 337q164 127 384 127q151 0 264 -68zM574 1100q-92 -95 -142 -247q-48 -147 -53 -308l604 532
q-56 119 -186 119t-223 -96zM821 338q95 101 143 254q49 155 50 311l-608 -538q28 -66 75 -96q49 -31 117 -31q129 0 223 100z" />
    <glyph glyph-name="u1F10C.zero" horiz-adv-x="1628" 
d="M501 1339q-195 -112 -302 -302q-109 -194 -109 -427q0 -174 87 -315t240 -222t341 -81q244 0 437 109q194 110 302 302q109 194 109 428q0 176 -88 316q-89 141 -241 222q-153 81 -341 81q-242 0 -435 -111zM1103 1024q73 -84 73 -223q0 -123 -46 -232
q-45 -107 -131 -170q-85 -63 -202 -63q-134 0 -206 82q-73 84 -73 223q0 125 45 231q45 107 131 170q87 64 203 64q134 0 206 -82zM792 895q-41 -46 -62 -111q-21 -66 -21 -125q0 -12 2 -22l243 262q-23 41 -67 41q-55 0 -95 -45zM903 548q43 46 63 108q21 64 21 126
q0 13 -2 23l-244 -260q24 -41 66 -41q55 0 96 44z" />
    <glyph glyph-name="u1F10B.zero" horiz-adv-x="1628" 
d="M1277 1365q152 -81 241 -222q88 -140 88 -316q0 -234 -109 -428q-108 -192 -302 -302q-193 -109 -437 -109q-188 0 -341 81t-240 222t-87 315q0 233 109 427q107 190 302 302q193 111 435 111q188 0 341 -81zM597 1187q-141 -84 -221 -233q-79 -146 -79 -327
q0 -136 61 -242t170 -165q107 -58 244 -58q183 0 326 85q144 86 223 231q80 148 80 327q0 135 -63 242q-62 105 -172 165q-109 60 -244 60q-183 0 -325 -85zM1103 1020q73 -84 73 -223q0 -123 -46 -232q-45 -107 -131 -170q-85 -63 -202 -63q-134 0 -206 82q-73 84 -73 223
q0 125 45 231q45 107 131 170q87 64 203 64q134 0 206 -82zM792 891q-41 -46 -62 -111q-21 -66 -21 -125q0 -12 2 -22l243 262q-23 41 -67 41q-55 0 -95 -45zM903 544q43 46 63 108q21 64 21 126q0 13 -2 23l-244 -260q24 -41 66 -41q55 0 96 44z" />
    <glyph glyph-name="zero.dnom" horiz-adv-x="712" 
d="M585 676q72 -82 72 -223q0 -127 -45 -234q-44 -105 -131 -169q-84 -62 -202 -62q-134 0 -206 82q-73 84 -73 223q0 125 45 231q45 107 131 170q87 64 203 64q134 0 206 -82zM274 540q-38 -46 -58 -114q-19 -66 -19 -129t25 -100t67 -37q84 0 129 93t45 196q0 64 -26 101
q-25 36 -68 36q-56 0 -95 -46z" />
    <glyph glyph-name="one.dnom" horiz-adv-x="415" 
d="M74 0l86 440q-11 -4 -41 -4h-135l30 174h105q71 0 82 84l8 51h186l-131 -745h-190z" />
    <glyph glyph-name="two.dnom" horiz-adv-x="669" 
d="M550 697q73 -61 73 -162q0 -159 -168 -259l-176 -100h294l-32 -176h-592l26 166l332 211q65 43 91 72t26 69q0 31 -22 50q-21 18 -60 18q-51 0 -84 -33t-43 -92h-192q23 141 111 219q89 78 220 78q123 0 196 -61z" />
    <glyph glyph-name="three.dnom" horiz-adv-x="688" 
d="M155 694q87 64 216 64q126 0 196 -53t70 -140q0 -69 -41 -113t-113 -65q55 -11 85 -50q32 -41 32 -99q0 -118 -92 -184t-244 -66q-143 0 -218 66t-64 200h192q0 -43 25 -71q24 -27 75 -27q55 0 88 24t33 66q0 30 -24 50q-23 19 -72 19h-49l22 129h35q53 0 92 22
q37 21 37 64q0 27 -22 43q-23 17 -58 17q-94 0 -116 -84h-189q18 125 104 188z" />
    <glyph glyph-name="four.dnom" horiz-adv-x="722" 
d="M371 745h245l-73 -415h110l-28 -166h-111l-29 -164h-192l29 164h-353l29 170zM395 557l-205 -227h162z" />
    <glyph glyph-name="five.dnom" horiz-adv-x="651" 
d="M584 575h-355l-26 -118q53 45 137 45q104 0 166 -60q61 -60 61 -155q0 -135 -89 -218t-226 -83q-125 0 -193 68t-67 173h184q1 -34 27 -53q24 -18 59 -18q53 0 83 33q32 35 32 83q0 36 -24 57t-60 21q-34 0 -60 -16q-23 -14 -40 -41h-181l94 450h508z" />
    <glyph glyph-name="six.dnom" horiz-adv-x="677" 
d="M568 693q72 -65 71 -165h-182q-2 41 -27 60q-24 18 -63 18q-65 0 -112 -48q-45 -47 -62 -130l-7 -27q30 39 76 62q44 22 103 22q106 0 169 -57q62 -56 62 -156q0 -125 -89 -205q-88 -79 -233 -79q-129 0 -201 82q-73 84 -73 217q0 124 47 233q47 108 134 173
q88 65 202 65q112 0 185 -65zM231 306q-34 -34 -34 -85q0 -39 24 -60q25 -22 66 -22q53 0 88 33t35 84q0 38 -25 61t-66 23q-54 0 -88 -34z" />
    <glyph glyph-name="seven.dnom" horiz-adv-x="616" 
d="M70 748h557l-23 -156l-389 -592h-219l385 580h-340z" />
    <glyph glyph-name="eight.dnom" horiz-adv-x="694" 
d="M572 706q73 -53 73 -137q0 -71 -39 -113q-41 -44 -112 -73q55 -17 84 -56q30 -41 30 -98q0 -107 -90 -174q-89 -67 -244 -67q-140 0 -218 56q-79 57 -79 146q0 153 181 209q-95 44 -95 140q0 105 89 162q88 57 221 57q128 0 199 -52zM280 585q-34 -25 -34 -65
q0 -33 24 -51t66 -18q52 0 84 26q33 27 33 64q0 30 -25 50q-23 19 -63 19q-51 0 -85 -25zM217 288q-37 -27 -37 -71q0 -31 31 -53q30 -21 80 -21q60 0 97 28q36 27 36 71q0 31 -31 53q-29 20 -78 20q-61 0 -98 -27z" />
    <glyph glyph-name="nine.dnom" horiz-adv-x="679" 
d="M55 52q-73 64 -71 165h186q1 -40 27 -59q25 -19 61 -19q67 0 113 49q47 50 65 129l4 27q-29 -38 -75 -61t-103 -23q-108 0 -171 57q-62 56 -62 156q0 127 90 206q89 79 231 79q132 0 204 -81q73 -82 73 -218q0 -125 -47 -234q-46 -108 -136 -173q-88 -64 -202 -64
t-187 64zM395 439q35 35 35 85q0 40 -24 61t-66 21q-54 0 -88 -33q-35 -33 -35 -84q0 -38 25 -61q23 -22 65 -22q55 0 88 33z" />
    <glyph glyph-name="zero.numr" horiz-adv-x="712" 
d="M706 1366q72 -82 72 -223q0 -127 -45 -234q-44 -105 -131 -169q-84 -62 -203 -62q-133 0 -205 82q-73 84 -73 223q0 125 45 231q45 107 131 170q87 64 203 64q134 0 206 -82zM395 1230q-38 -46 -58 -114q-20 -69 -20 -129q0 -62 26 -100q25 -37 67 -37q84 0 129 93
t45 196q0 64 -26 101q-26 36 -69 36q-55 0 -94 -46z" />
    <glyph glyph-name="one.numr" horiz-adv-x="415" 
d="M195 688l86 440q-11 -4 -41 -4h-136l31 174h105q72 0 82 84l8 52h186l-131 -746h-190z" />
    <glyph glyph-name="two.numr" horiz-adv-x="669" 
d="M671 1385q72 -60 72 -162q0 -157 -168 -258l-176 -101h295l-32 -176h-592l26 166l332 211q65 43 91 72t26 69q0 31 -22 50q-21 18 -60 18q-51 0 -84 -33t-43 -92h-193q22 140 112 219q89 78 220 78q123 0 196 -61z" />
    <glyph glyph-name="three.numr" horiz-adv-x="688" 
d="M275 1384q87 64 217 64q126 0 196 -53t70 -140q0 -69 -41 -113t-113 -65q55 -11 85 -50q32 -41 32 -99q0 -118 -92 -184q-91 -66 -244 -66q-143 0 -218 66q-76 66 -65 200h193q0 -44 24 -71t76 -27q55 0 88 24t33 66q0 30 -24 50q-25 20 -72 20h-49l22 129h35q55 0 92 21
t37 65q0 27 -22 43t-58 16q-95 0 -117 -84h-188q18 125 103 188z" />
    <glyph glyph-name="four.numr" horiz-adv-x="722" 
d="M492 1434h245l-73 -416h110l-29 -166h-110l-29 -164h-192l28 164h-352l29 170zM516 1245l-205 -227h162z" />
    <glyph glyph-name="five.numr" horiz-adv-x="651" 
d="M705 1264h-355l-26 -119q53 45 137 45q105 0 166 -60t61 -155q0 -135 -89 -218t-226 -83q-125 0 -193 68t-67 173h184q1 -34 27 -53q24 -18 59 -18q52 0 83 34q32 35 32 83q0 35 -24 56t-60 21q-34 0 -60 -16q-25 -15 -41 -41h-180l94 451h508z" />
    <glyph glyph-name="six.numr" horiz-adv-x="677" 
d="M689 1383q72 -65 71 -164h-182q-1 40 -27 59q-24 18 -64 18q-65 0 -111 -48q-47 -48 -63 -130l-6 -26q29 37 76 61q46 23 102 23q105 0 169 -58q63 -57 63 -155q0 -126 -89 -206q-88 -79 -233 -79q-129 0 -201 82q-73 84 -73 217q0 124 47 233q47 108 134 173
q88 65 202 65q112 0 185 -65zM352 996q-35 -35 -35 -85q0 -38 25 -60t66 -22q54 0 88 33t34 84q0 40 -24 62q-23 22 -66 22q-54 0 -88 -34z" />
    <glyph glyph-name="seven.numr" horiz-adv-x="616" 
d="M190 1434h558l-23 -156l-389 -592h-219l385 580h-340z" />
    </font>
</defs>
</svg>
