<svg width="25" height="24" viewBox="0 0 25 24" fill="none" xmlns="http://www.w3.org/2000/svg">
<g clip-path="url(#clip0)">
<path fill-rule="evenodd" clip-rule="evenodd" d="M12.2596 6.18137C9.09342 6.18137 6.52148 8.74885 6.52148 11.9195C6.52148 15.09 9.08902 17.6575 12.2596 17.6575C15.4301 17.6575 17.9976 15.09 17.9976 11.9195C17.9976 8.74885 15.4301 6.18137 12.2596 6.18137ZM12.2596 15.6399C10.202 15.6399 8.53468 13.9726 8.53468 11.915C8.53468 9.85745 10.202 8.19011 12.2596 8.19011C14.3171 8.19011 15.9845 9.85745 15.9845 11.915C15.9845 13.9726 14.3171 15.6399 12.2596 15.6399Z" fill="#333333"/>
<path d="M19.5632 5.95082C19.5632 6.69042 18.9635 7.29 18.2239 7.29C17.4844 7.29 16.8848 6.69042 16.8848 5.95082C16.8848 5.21121 17.4844 4.61163 18.2239 4.61163C18.9635 4.61163 19.5632 5.21121 19.5632 5.95082Z" fill="#333333"/>
<path fill-rule="evenodd" clip-rule="evenodd" d="M12.2596 0.744781C9.22648 0.744781 8.84513 0.758081 7.65225 0.811296C6.46384 0.864511 5.65234 1.05519 4.94284 1.33012C4.20673 1.61392 3.58591 1.99971 2.9651 2.62053C2.34428 3.24134 1.96293 3.86659 1.6747 4.59826C1.39976 5.30776 1.20909 6.11926 1.15587 7.31211C1.10266 8.50048 1.08936 8.88191 1.08936 11.915C1.08936 14.9481 1.10266 15.3295 1.15587 16.5223C1.20909 17.7108 1.39976 18.5223 1.6747 19.2362C1.95849 19.9723 2.34428 20.5931 2.9651 21.2139C3.58591 21.8347 4.21116 22.2161 4.94284 22.5043C5.65234 22.7792 6.46384 22.9699 7.65668 23.0231C8.84953 23.0763 9.22648 23.0897 12.264 23.0897C15.3016 23.0897 15.6785 23.0763 16.8714 23.0231C18.0597 22.9699 18.8712 22.7792 19.5852 22.5043C20.3213 22.2205 20.9421 21.8347 21.5629 21.2139C22.1837 20.5931 22.5651 19.9678 22.8533 19.2362C23.1283 18.5266 23.319 17.7152 23.3721 16.5223C23.4254 15.3295 23.4386 14.9525 23.4386 11.915C23.4386 8.87744 23.4254 8.50048 23.3721 7.30767C23.319 6.11926 23.1283 5.30776 22.8533 4.59383C22.5695 3.85772 22.1837 3.23691 21.5629 2.61609C20.9421 1.99528 20.3169 1.61392 19.5852 1.32568C18.8757 1.05076 18.0642 0.860073 16.8714 0.806866C15.6741 0.758081 15.2927 0.744781 12.2596 0.744781ZM12.2596 2.75799C15.244 2.75799 15.5942 2.7713 16.7738 2.8245C17.8646 2.87329 18.4544 3.05509 18.8491 3.2103C19.3723 3.41428 19.7448 3.65374 20.1351 4.04396C20.5253 4.43419 20.7692 4.80668 20.9687 5.32994C21.1195 5.7246 21.3057 6.31437 21.3545 7.40523C21.4077 8.58478 21.421 8.93508 21.421 11.9195C21.421 14.9038 21.4077 15.2541 21.3545 16.4336C21.3057 17.5245 21.124 18.1142 20.9687 18.5089C20.7647 19.0322 20.5253 19.4047 20.1351 19.7949C19.7448 20.1851 19.3723 20.429 18.8491 20.6286C18.4544 20.7793 17.8646 20.9655 16.7738 21.0143C15.5942 21.0676 15.244 21.0809 12.2596 21.0809C9.27526 21.0809 8.92489 21.0676 7.74537 21.0143C6.65451 20.9655 6.06474 20.7838 5.67008 20.6286C5.14682 20.4246 4.77433 20.1851 4.38411 19.7949C3.99388 19.4047 3.74999 19.0322 3.55044 18.5089C3.39967 18.1142 3.21343 17.5245 3.16465 16.4336C3.11144 15.2541 3.09813 14.9038 3.09813 11.9195C3.09813 8.93508 3.11144 8.58478 3.16465 7.40523C3.21343 6.31437 3.39524 5.7246 3.55044 5.32994C3.75442 4.80668 3.99388 4.43419 4.38411 4.04396C4.77433 3.65374 5.14682 3.40985 5.67008 3.2103C6.06474 3.05953 6.65451 2.87329 7.74537 2.8245C8.92489 2.76686 9.27965 2.75799 12.2596 2.75799Z" fill="#333333"/>
</g>
<defs>
<clipPath id="clip0">
<rect width="23.8298" height="23.8298" fill="white" transform="translate(0.344727)"/>
</clipPath>
</defs>
</svg>
