<svg width="24" height="24" viewBox="0 0 24 24" fill="none" xmlns="http://www.w3.org/2000/svg">
<g clip-path="url(#clip0)">
<path fill-rule="evenodd" clip-rule="evenodd" d="M20.7031 4.19311C21.6678 4.45967 22.4294 5.22127 22.6833 6.18598C23.1529 7.93767 23.1529 11.5934 23.1529 11.5934C23.1529 11.5934 23.1529 15.2491 22.696 17.0007C22.4294 17.9781 21.6805 18.7398 20.7158 18.9937C18.9641 19.4633 11.9827 19.4633 11.9827 19.4633C11.9827 19.4633 5.00133 19.4633 3.26233 18.9937C2.29763 18.7271 1.53602 17.9655 1.28216 17.0007C0.8125 15.2491 0.8125 11.5934 0.8125 11.5934C0.8125 11.5934 0.8125 7.93767 1.26947 6.18598C1.53602 5.20858 2.28493 4.44697 3.24964 4.19311C5.00133 3.72345 11.9827 3.72345 11.9827 3.72345C11.9827 3.72345 18.9641 3.72345 20.7031 4.19311ZM15.5368 11.5934L9.69788 14.9191V8.26772L15.5368 11.5934Z" fill="#333333"/>
</g>
<defs>
<clipPath id="clip0">
<rect width="23.8298" height="23.8298" fill="white" transform="translate(0.0678711)"/>
</clipPath>
</defs>
</svg>
